<svg width="256" height="256" viewBox="0 0 67.733 67.733" xmlns="http://www.w3.org/2000/svg"><path style="fill:none;stroke:#000;stroke-width:.26458333;stroke-linecap:butt;stroke-linejoin:miter;stroke-opacity:1;stroke-miterlimit:4;stroke-dasharray:none" d="M9.393 30.778c.852-.472.869-.49.869-.49l.353-.005.506-.275.073-.14.314-.157.213-.012.635-.438-.068-.6.152-.59.168-.067.258-.36-.162-.207-.023-.331.298-.213.016-.22-.09-.095.08-.123.19.135.292-.18v-.236l.208-.337.01-.18.057-.016-.37-.595.067-.286-.096-.174.124-.292.118.073.23-.028.168-.31-.129-.252-.073-.118.017-.438.37-.016.107.162.427.045.129-.084.168.034-.269-.208.185-.168.023-.135.056-.04.32-.269-.017-.494-.045-.185.09-.084.123-.432.169-.152.18-.084-.281.006.028-.158-1.83-1.2.106-3.24 9.122.068.46-.068.798-.078.381-.752.258-.057.472.101v-.1l1.19-.259.13-.09.089-.123-.006-.41.034-.079v-.202l.148-.026.06.072.147-.127-.056-.115-.004-.373-.099-.008-.063-.064-.16.083-.067-.011-.166-.203-.012-.218.047-.02.012-.397h.044v-.452l.202-.143.111.079.428-.103.416.011 1.403-.415 2.672-.416.561.191 1.247-1.482-.292-.393 2.677-.005m0 0 .056-2.071.545-1.415.04-1.168.948-.196.544 2.706.113.23.151-.034.101.09.124.011.039.13.19-.046.13.124.135-.113.196.214.073.045-.146.146.09.047.12.006.076.03.06.065.005.13.079.047.05.143-.022.115.056.062.084.003.132.025.056.098.045.087-.037.073.08.116.019.044.092-.002.101.115.003.207.028.009.011-.087.118.064.186.144.067.084-.017.081-.03.045-.006.152-.043.115-.073.073-.17.02.005.21 1.066.042.065.034.076-.037.255-.008.045-.056.177.008-.003.036.188.029.003.109.084.07.69-.1.068.036.02.662 2.2.003-.216.85 1.965.216-.225 3.885 2.953.372.033.057-.053.107-.014.045.076.073.286-.242.062.003-.011-.087.519-.368.11-.09.013.166.031.006.848-1.154 1.06.39.166.043.076.123-.011.098-.014.073.137.082-.14.143.32.1.413-.142-.003-.073.073-.006-.003-.13.39-.176.407.73.13-.084.027.381.113.466-.11.054.073.37s-.053.18-.056.197c-.003.016.244.836.244.836l.025.255.155.472.02.247 1.215.02.202.555v.52l.04.033.05 1.305-.079.034-.007.217.043.004v.15l-.057.01.004.454-.032.016v.06l.044.032-.052 1.786-1.85-.016-.444.46-.111.167-.135-.103-.063.095h-.104l-.079.246 1.73.008-.5 1.635.913.358 1.445.238.445.206.571.286 5.446 3.874 1.127.841.254.207.096-.274.139-.08.04-.003.023.079.21-.004.012-.12.199.183.012.072.035.06-.043.122-.441.457.163.103-.135.143-.016.199.004.44.067.01-.011.22-.056-.006.005.146-.033.202.017.095.016.315.028.09-.084.18.031.344.04.127-.074-.006-.07.35.025.155h-.067l-.02.079-.106.028-.23.132.05.056-.23.03-1.342.733-.03-.135-.205-.404-.054-.379-.244-.039-.303-.064-.157-.07-.194-.228.096.314.311.225.253-.07.177.26-.02.122.025.246.073.051-.014.365.062.154.03.146.023.135-.014.255-.045.138-.07.123.466.489.239 1.159.123-.185-.129-.073.337-.466.14.017.18-.203.303.051.247.045.017-.169.118-.01.112.134.168.022.18.113.241.033.23-.016.225-.04.236.017.5.157.074.017-.187 2.497-2.782-.183-8.93 3.24.015.8-1.115-.142.004 1.127-.114.104-.064-.056-.017.463-.068.144.045.224-.176.107-.14.002-.48.332.109.306-.127-.014-.221.519-.024.231-.33.273-.604 1.057-.12-.004-.086.09-.04-.126-.476-.226-.667.563.555.71.016.064-.242-.004-.63.334.004.034-.177-.012-.1.14-.007.046.073.112.005.23-.05.048-.103.007-.008.063.075.09.006.032-.26-.002-.29.327-.128.036-.02.061-.125-.015-.004.063.147.117-.1.385-.378.036-.288.694-.198-.057-.103.208-.264.088-.125.137-.05.228-.301.801-.138-.03-.118.115-.157-.09-.243.132-.154.235-.876-.177-.023-.232-.197-.006-.43 1.243-2.29-.449.023.51-.29.222-.02.31.064-.004.016.071-.203.29.016.127-.385.87.027.085-.505.354-.202-.003-.132.127-.087-.093-.334.011-.045-.033-.132-.014-.022-.043-.115.006-.023-.048-.064.003v-.03l-.076-.023-1.516.084-.064-.056-.113-.149-.09-.166-.05-.112-.011-.09.006-.134-1.404-.16.04.053.028.053.025.087-.009.135-.022.373.466.101-.982 1.92-.242-.028-.325-.115-.143-.075-.27.54-1.328-.622-1.403-.831-.194-.469-.58-.166-.103.071-.5-.08-.008-.118-1.294-.39.206-.412-.436-.048-.842-.365-1.016-.103-.389-.413-.12-.143-.158-.016.072.223-.5-.024-.167-.167.23-.135.04-.127.158.048-.023-.19.119-.072-.111-.088-.016-.222-.151-.111.087-.08-.095-.087v-.071l-.715-.016-.349.214-.167-.024-.04-.119.009-.349-4.252-2.204.1-.146-.392-.163-.343-.331-.348-.04-.27-.044-.207-.023-.157.056-.275.118-.062.009-.177-.023-.129-.073-.32-.028-.816-.02-.023-.665-.022-.106-.087-.026-.082.012-.137.126-.09.152-.12.016-.116-.02-.37-.269-.306-.003-.932-.816h-.056l-.028.05-.132.133-.278.017-.101.13-.309.015-.188-.202-.289.03-.146.121-.11.012-.01.039-.08.006-.347-.166-.13.003-.16.081-.095.11-.059.081-.014.12-.356.366-.337.028-.098-.054-.323.079-.073.292-.334.404-.011.424.11.14-.034.309-1.23-.067-.123-.233-.084.188-.073.059v.067l.047.025-.014.143-.092.099.005.18-.109.173-.951.331-.135-.002-.009-.124-.233-.247-.115.101-.079-.012-1.321-.992-.167-.008-.278-.258-.15.174-.104-.008-.278-.4.091-.147-.095-.06-.095-.056-.246-.067-.04-.222-.361-.39-.032-.055-.087.04-.084-.064-.067-.02-.02-.083-.047-.043-.098.001-.014-.09-.47-.32-.361-.069-.247-.084-.107-.118-.028-.118-.112-.14-.107-.163-.011-.393h.118l-.236-.202-.129-.011.073-.062-.185-.236-.101-.095.095-.107-.023-.05-.068-.03-.002-.095-.123-.075.03-.157-.119-.082-.004-.061.04-.002.02-.028h-.294l-.151.115-.163-.105-.105-.036-.05-.097.014-.14.115-.167-.176.186-.024.103-.177.036-.194-.014s-.187.06-.197.066c-.01.006.014-.453.014-.453l.19-.351-.142-.183.167-.164.117-.245.006-.247-.166-.171-.017-.205.169-.11v-.269l-.298-.02-.308.07-.065-.014-.168-.317-.006-.098-.2-.25-.295-.135-.27-.286-.07-.166.023-.088-.048-.166.238-.294.31-.294.071-.127h.088l.043-.262.048-.028-.016-.234.159-.214-.04-.377.143-.024.06-.123.123-.028-.111-.325.218-.179-.048-.127.12-.19.09-.127.02-.247.088-.063-.004-.302.08-.099.087-.071.202-.191-.008-.075-.147-.024-.012-.278.127.028.04-.04-.048-.1.147-.257-.123-.282.139-.083.21-.393-.012-.207.18-.317.186-.052.04.032.734-1.19-.06-.116 1.163-2.548.127-.135-.008-.159.103-.04.016-.103.39-.38-.009-.2.238-.15v-.151l.5-.008.12-.365-.008-.135-.048-.286.246-.095.19-.12.04-.19.223-.27.198-.023-.087-.12-.016-.134.167-.012.158-.096.14-.02.158-.202.012-.095.08-.06.011-.15.23-.21.004-.465.167-.155-.135-.1-.071-.166.02-.31.095-.166.087-.016.218-.179.064-.075.718-.365"/></svg>