<svg width="256" height="256" viewBox="0 0 67.733 67.733" xmlns="http://www.w3.org/2000/svg"><path style="fill:#0f0;stroke-width:.264583;fill-opacity:.39393941" d="M-238.378-36.425h4.611v5.072h-4.611z"/><path style="fill:none;stroke:#000;stroke-width:.26458333;stroke-linecap:butt;stroke-linejoin:miter;stroke-opacity:1;stroke-miterlimit:4;stroke-dasharray:none" d="M38.88 1.654c-.012.025-.258.486-.258.486l-.173.166-.043.136-.233.184-.099.105-.05.068-.14-.08-.031.08.043.332-.043.123-.099.172v.092l.203.013v.067l-.172.24.055.117-.129.117.025.185-.148.098.068.142-.068.123-.24.037-.11.073-.284-.141-.117-.142-.203.044-.363.006-.064.15.07.317-.187.253-.102.132-.086.077.043.095.016.132-.173.034.019.446-.059.172-.046.12-.104.028-.234.274-.11.03-.493.438.025.129-.133.169.077.08-.003.077.708.797-.206.464.266 1.466-.179.54-.039 1.056.165.079.066.278.265.135.026.2.17-.065.235.16.283-.012.07.052.095.226.083.305.113.104-.069.638-.055.184.012.302.08.348.188.39.076.748-.452.55.016.219-.243.43-.191.56-.015.451-.022.505-.087.309-.44 1.044-.164.605-.11-.066-.038.11-.035.086.087.074-.044.444-.126.565-.052.431.03.444.222.426.153.166.104.047.083.157.095.083h.066l-.005.208-.109.044-.108.165-.03.196.012.174.179.174.961.679.14.448-.053.183.065.16-.039.357-.039.126.03.205.04.165.026.183-.087.63.074.01-.018.247-.195.348.082.444-.03.318-.057.278.096.318.065.252.17.261.109.235.008.448.144.318.013.217-.148.457.078.43-.213.584.091.37-.1.07-.13.556-.122.24.165.252.005.156-.161.126-.009.266-.24.317.01.157.16.126.24.796.152.052.122.17.03.174.153.283.021.535.096.113-.013.174.14.1.156.296.004.174.553.322.065.23.009.196.178.1.152.04h.109l.309.33.022.148-.048.204-.044.114-.008.095.143.23-.156.17.13.11.022.312.187.2.143-.017.196.183.026.213.27.096.265-.057.035-.082-.035-.135.179-.113.204.07.083.09.187-.004.183.213.187.044.139.357.305.291.021.152.196-.021.113.239.14.13.165.27.374.191.082.11.148.343.044.113.178.013.14.27.239.017.235.24.204.304.065.013.03.122.097.113.065-.004.008.117.122.109.242.326.114.03.277.32.11.016.207.08.024.126-.015.178.117.108.092-.028.274.213.138.03.077.099.062.188.415.39.03.16.136.219.717.778.055.037.093.43-.434.505.012.11.166.05.006.104-.006.228.03.022.092-.02.058.033-.003.114.1.061.053.017.045.171.065.156.059.105.098.019.153.145.02.42.153.172v.166l.117.099.03.357-.085.092-.093-.099-.061-.006-.148.351.136.178.086.425-.179.16.24.609.068.012-.006.13.375.03.123-.055.037-.13-.08-.098-.055-.203.11-.172.228-.098.074-.05.098-.018.05.043.073-.08.191.178-.018.166.104.16.117-.123.246-.092.031.154-.098.13-.025.098.185.043.092.123-.16.092.24.308-.156.194.02.352.04.133.077.213.433.063.309-.185.021-.146.179.005.154-.105.129.005.156.052.074.063.007.083.065-.018.15.192-.024.165.204.159-.043.226.059.152-.026.21-.057.077.109.32.06.074.049-.004.002.193.065.329.056.198.279.27.076.165-.065.45.15.507-.035.505.046.08.05.14.182.182.244.172.152.082.096-.013.085.053-.002.087.265.2.533.017.383-.122.287-.07.094-.006.182.18-.008.107.106.111-.063.157.15.144.08-.14.196-.041-.002.333-.115.03-.06.18.1.297-.36.772-.013.559.296.32.096.126-.005.052.34.509.187.12-.129.191-.006.15-.176.33-.041.136-.014.428.037.035-.006.187.135.137.03.198-.152.187-.033.137-.034.202.074.153.141.106.25.08-.006.077-15.42-1.225-.025-.058.304-.28.077-.181-.027-.028-.102.043-.24-.218-.37-.083-.002-.468.003-.221-.148-.23.468-.604.206-.43.126-.108.074.04-.043.203-.052.117.009.234-.21.301-.012.477.053.12.2-.23-.09-.087-.052-.065.04-.064.068-.102v-.218l.114-.114-.007-.234.056-.086.006-.446-.114-.237-.012-.258-.074-.028-.043.172-.132-.061-.028.11-.172.102-.12-.022-.099-.129-.055-.132-.022-.09.695-1.318.304-.74.144-.492-.018-.117-.226-.226-.03-.418-.113-.091-.061-.1-.048-.222-.3-.213h-.083l-.183.03-.195-.226.082-.213.04-.27-.031-.309-.13-.252-.162-.126-.252-.083-.27-.044-.087.018.018.13-.087-.017-.148-.1-.109-.005-.017-.087.03-.37-.087-.14-.176-.005-.126-.279-.46-.182.05-.244.018-.041-.06-.092.006-.121-.094-.12.033-.246-.137-.18-.059-.026-.102.102-.157-.235.002-.209-.043-.048.017-.337-.165-.237-.2-.011-.102-.374-.12-.04-.276-.306-.126-.028-.07-.018-.222.016-.04.154h-.08l-.163-.298-.01-.265-.257-.23-.015.082-.114.037-.202-.224.022-.44-.07-.182.087-.462-.139-.078.009-.2-.122-.174-.2-.078-.287-.21-.053.062-.13-.018-.096.07-.252-.27-.009-.217h-.156l.012-.452-.028-.034.003-.141-.175-.034-.099-.175-.178.003-.117-.185-.157-.037-.09-.101-.11-.32-.15-.016-.114-.193.033-.154-.147-.08-.022-.12-.209-.145-.061-.147-.517-.668-.114-.243-.215-.215-.145-.086-.308-.065-.135-.206-.197-.034-.326-.234-.295-.034-.056-.07-.344-.022-.108-.037-.184-.015-.182-.142-.148.04-.184-.415-.08-.274-.228-.215-.021-.12-.099-.163-.169-.138-.215-.08-.216-.262-.107.006-.296-.187-.187-.071-.268-.04-.218-.29-.166-.08-.028-.144-.19-.17-.02-.067-.196-.215-.132-.022-.12-.015-.16.068-.111.043-.132-.04-.093-.185-.218-.19-.11-.204-.182-.092-.043-.209-.191-.246-.345-.034-.286-.317-.215-.267-.378-.339.141-.39.148-.75-.113-.73-.417-.758-.47-.14-.366-.025.479-1.392-.009-.279.096-.165-.165-.479-.018-.409.157-.391.052-.479-.035-.8-.287-.461.017-.253-.46-.617-.497-.357-.204-.017-.229.023-.191-.028-.022-.104.096-.094.328.002.061-.021.007-.329.078-.113.096-.041-.018-.126-.08-.042-.113-.006-.057-.185-.117-.17-.13-.039-.053-.302-.207.174.12.143.154.14-.017.1.141.139-.004.15.074.098-.215.224-.142-.08-.091-.246-.155-.048-.082.082.135.442.11.115-.052.263.164.3-.08.098-.234.024-.115-.141.013-.67-.026-.191-.115-.08-.066-.062.01-.278-.14-.174.037-.32.072-.124.07-.33.262-1.24.057-1.001-.2-.305.04-.152.06-.378-.044-.453-.226-.37-.256-.013-.562-.648-.174.026-.239-.256-.191-.2-.048-.327-.174-.248-.135-.039-.248-.492-.135-.008-.14.065-.186.04-.179.008-.117-.152-.013-.327.17-.37.396-1.814-.244-.56-.022-.175-.183-.122-.021-.348-.266-.374-.056-.252-.253-.174-.03-.17-.135-.048-.065-.156-.096-.044-.017-.313-.126-.052-.061-.161-.214-.161.074-.109-.113-.383-.082-.143-.096-.2-.592-.535-.348.039-.013-.51-.256-.256h-.135l-.166-.174-.017-.326-.226-.053.026-.282h.104l.057-.1.213-.005.022-.109-.126-.156-.022-.24.265-.539-.278-.504-.035-.122-.091-.122-.218.013-.056-.152-.222-.383.091-.052.14.039.304.24.152.043.126.17.13-.036.162-.182.339-.614.078-.265.048-.218.022-.187-.044-.248-.082-.013-.013.066.065.021-.065.14-.096-.014-.109-.195-.22-.048-.354-.505-.135-.026-.08-.106-.274-.005-.09-.104-.058-.14.028-.524-.04-.13-.095-.135-.126-.052-.092-.035-.226-.035-.265-.022-.174-.13-.126-.17-.161-.287-.046-.243.017-.218.07-.059.028-1.055-.087-.23-.034-.183-.07-.065.003-.235-.036-.357-.077-.304-.148-.163-.308-.148-.43-.222h-.096l-.249-.292.006-.166-.089-.458-.197-.486-.135-.51-.043-.45-.117-.258-.11-.505.042-.308.056-.369 27.58.166z"/></svg>