<svg width="256" height="256" viewBox="0 0 67.733 67.733" xmlns="http://www.w3.org/2000/svg"><path style="fill:#000;stroke:none;stroke-width:.26458333;stroke-linecap:butt;stroke-linejoin:miter;stroke-opacity:1;stroke-miterlimit:4;stroke-dasharray:none;fill-opacity:1" d="m15.678.884 14.113 1.131.05.47-.125.276.044.5-.126.19-.013.273.51.613.004.405.116.313.411.63.15.003.242.419.221.136.055.197.565.18.53.218.239.324.69.262.467.415.014.232.214.258.068.167.045.13-.007.803.18.303-.054.119.04.167.235.272.089.2.044.12.218.112.054.242.065.221.249.45-.174.473.027.115.099.041.136.082.201.395.221.058.27.115.176.211.225.068.732.252.262.307.313-.014.126.187.02.18-.095.055-.204-.007-.072.034-.323.347-.123.378.017.365.045.071v.099l.095.075.248.224.198.446.007.075.31.16.033.058.092.245.113.123.289.234.061.596-.37.266-.212.452.024.072.184.03.126.092.197.235.072.167.027.36.412.26.068.105.214.657.402.34.422-.234.255-.286-.024-.126-.646-.698-.222-.177-.017-.126-.282-.19-.17-.365-.041-.654-.03-.486.037-.106-.235-.687.36-.283.753.664.269.493.408.382.126.017.235.425.895.67-.102.559.027.391-.085.412.004.31.112.126.463.221.412.055.238.13-.047.237.013.188-.163.153-.072.194-.01.575.344.405.119.004v.153l-.13.02.065.14.092.095.17.075.106.095.071.232.014.493-.109.027-.024.133-.04.099.166.432-.013.44.16.285.027.368.115.259.191.19.072.334-.079.167-.078.197-.167.16.007.504-.2.262v.466l.163.218-.024.405.064.303-.027.208.065.054.13-.037.101.037.079.16.044.126-.164.048-.071-.215-.065.02.075.389.01.153.116.112.133.17.35.235.038.16.29.041.21 1.338.252.395.02.115.225.174.3.473.473.027.054.123.143-.03.232.064.15.014.024.16-.052.109.069.22-.1.212-.026.105.15.33.081.092-.007.378.169.264.042.28.27.32.108.086.068.439-.136.092-.007.293.055.136.044.21.133.086.064.184.014.306.04.344.324.293s.089.412.089.439c0 .027.449.313.449.313l-.034.184.276.194.122-.038.184.174.116.102.102.589.364.602.12.007.054.085-.082.123.167.218.01.378.105.15.174.605-.099.327-.326.487-.034.303-.263.14-.204.32-.133.581-.034.426.048.279-.048.112.041.215.01.177.463.704-.122.698.082.225.006.357.286.385.177.34.232.558.316.194.045.126.163.225 1.607.555.653.082.34-.014.012.13-.518.19-.187-.166-.474-.109.014.265.091.15-.007.15.012.112.205.057.356-.019.2-.082.048-.298.282-.135.211-.265.058-.419-.106-.072.007-.11.065-.053-.113-.183-.017-.094.053-.046-.089-.154h-.029l.015.169-.137-.003-.022-.212.11-.13.01-.18-.098-.16.002-.144.161-.144.224-.01.13-.18.77.168-.021.116-.063.132.02.096.23.222.198.048.19.537.289.07.257.274.417.15.472.435.375.274.101.397.02.277.026.758.604.217.6-.058.531-.23.087.038.014.214.198.14.021.17-.18.256-.137.065-.056.072-.029.652.116.238.52.446.799 1.003-.132.33-.048.448.149.486-.007.411.286.248.132.02.18.098.013.085.334.048.593.447.324.07.16.22.466.201-.149.28.01.195.185.404.354.387-.084.544.04.073.102.026.007.231-.15.068.015.438.007.479-.197.353.01.417-.109.166-.103.219.007.089-.953 1.061-.34.142-.194.164-.412.034-.44.144-.496.226-.217.169-.046.221-.214.272-.207.02-.248.098-.356.212-.067.152-.005.156-.316.214-.166.116-.279.038-.226.06-.173.06-.068.11.164.018-.02.07-.767-.007-.267-.145-.357-.33-.45-.63-.24-.404-.203-.698-.019-.347-.053-.539-.274-1.247-.11-.784-.025-.458-.683-1.295.019-.168-.323-.578-.154-.192-.192-.357-.357-.52-.548-.462-.5-.317-.858-.443-.452-.222-.588-.433-.25-.212-.663-.73-.877-1.176-.568-.693-2.22-2.42-1.978-1.46-1.184-.828-1.32-.867-.23-.195-.122-.22-.385-.457-.027-.106-.16-.037-.16.061-.174-.01-.442-.44-.058-.404-.051-.358-.235-.571.099-.038-.126-.187-.157-.116-.231-.122-.102.068.098.156-.132.249-.03.03-1.019-.15-.04.12.401.245-.02.034-.354-.038-.174-.05-.03.125-.137-.037.038-.412.081-.323-.282-.899-.545-.766-.228-.286-.207-.221.04-.075.205.211.024-.058-.157-.187-.187-.17-.16-.201.007-.17-.045-.099-.068-.184-.064.01-.072.127.106.142.068.167.02.497-.698-.017-.02-.088.037-.055-.034-.37-.047-.113-.065-.014.048-.098.109.013.003-.119-.088-.02-.113-.048-.037.16.05.524-.275.092.02-.208-.316-.21-.085-.018-.167-.238.027-.112.15-.004.157-.306-.072-.13-.166-.08-.062-.11-.01-.196.34-.486-.114-.034-.014-.327.062-.197.106-.097-.086-.192-.231.156-.152.217.031.19.041.116.13-.005.012.07-.132.31-.058-.046-.075-.108-.04.053.045.657-.13.481-.062.02-.068-.063-.151-.022-.176-.42.017-.179.151.031.174-.11-.145-.063.198-.635-.008-.104-.243-.094.005-.23.137-.063.29-.008-.015-.245.24-.27.152-.695-.12-.087-.284.05.024-.45.062-.045.044.048.091-.007-.02-.065-.122-.11.065-.321.424-.864.163-.055-.019-.186.214-.014.015.091.048-.038.031-.809.15-.592-.16-.024.013-.116.14-.012-.01-.135-.212.003.12-.715.145.234.074-.183-.02-.18-.199-.015.034-.491.137-.152.063.096h.118l-.082-.257-.145-.109.207-.081.012-.706.118-.377-.12-.03-.017-.12.094-.1-.036-.492-.296-.188.031-1.008-.253-.556-.038-.402-.22-.508-.086-.253-.031-.156.067-.135-.106-.23-.1-.357-.056-.106-.315-.5-.508-.417-.174.007-.133-.17-.15-.654-.38-.954-.504-.612-.348-.198-.282-.064-.082.06-.024.202-.224.085-1.535-1.24-.113-.016-.265.061-.426-.596-.636-.561.112-.027-.357-.344.013.187-.19-.18-.708-.712-.572-.415-.603-.48-.496-.517-.133-.266.088-.003-.092-.235-.095-.058.085-.106.133.017-.034-.112-.218-.28-.265-.52-.184-.17-.177-.354.054-.3.112-.2.126-.052-.03-.173-.16-.014-.259.123-.082.105.031.194-.187.13-.293.013-.34-.354.241-.098.116.081h.136l.099-.238.623-.562.095-.34-.017-.398-.048-.307-.068-.296-.16-.286h-.05l.03.17-.204.13-.194.585.013.174-.02.32-.099.347-.367.18-.188-.122-.15.252-.118.8-.211.01-.406-.391-.51-.228-.494-.154-.503.004-.487.116-.15.456-.296.13-.089.21-.303.167-.156-.02-.538-.338-.167-.323-.279-.34-.48-.28-.47-1.467-.21-.289-.49-.412-.4-.238-.343-.136-.228-.061-.29.03-.091.232-.276.013-.436-.63-.146-.442-.218-.368-.391-.377-.46-.314-.395-.17-.384-.102-.235-.048-.14.024-.224.089-.075.061-.3-.303-.378-.174-.2-.194-.297.11-.21-.116.078-.194-.096-.191-.146-.12-.31-.01-.106-.173.15-1.501-.109-.541-.126-.296-.38-.351-.253-.072-.228-.377-.173-.045-.511-.35-.735-.344-.242-.426-.099-.432-.092-.136-.245-.269-.19-.088-.15.01-.027.065-.051.081-.29-.36.045-.093.187.18.085-.088.034-.35-.255-.303-.1.014-.139.136-.112.143-.01.078-.327-.214-.044-.3-.157-.17-.2-.14-.181-.071-.061.04-.004.092-.05.055-.103-.085-.02-.204-.201-.32.034-.228-.133-.497-.29-.402.212-.106.194.004.163.116.123.217.228.11h.524l.575.04.303.072.157.05.15.168.578.003.225.167.453.017.054.061-.003.12.493.074.174.092.306.102.296.058.337-.092.405.02.307.195 1.229-.555.214-.225.34-.177.191-.092.249.014.156.218-.034.238-.17-.048.014.102.068.082-.191.551.089.246.081.136.538.687.35.072.43.286.388.463.04.092-.02.119.214.194.623-.5.133-.205-.225-.133-.19.004-.068-.082.272-.082.15-.007.21.215.072.102.497.072.542-.576-.103-.13-.136.025-.344-.266-.418-.027-.32.102-.065.102-.224-.112-.372.262-.15-.027-.278-.211-.041-.35-.041-.26-.249-.357.028-.228.483-.551.197-.11-.217-.581-.133-.113.102-.092.054-.119-.275-.02.02.122.014.126-.426.085-.262.041-.334.29-.156-.252.112-.334.157-.19.647-.532.582.017.166.26.031.234.208.412.303-.466-.126-.13.006-.276.222.031-.01.174.098.006z"/></svg>