<svg width="256" height="256" viewBox="0 0 67.733 67.733" xmlns="http://www.w3.org/2000/svg"><g style="stroke-width:.65694819;stroke-miterlimit:4;stroke-dasharray:none;stroke:none;fill:#000;fill-opacity:1"><path style="fill:#000;stroke:none;stroke-width:.65694819;stroke-linecap:butt;stroke-linejoin:miter;stroke-opacity:1;stroke-miterlimit:4;stroke-dasharray:none;fill-opacity:1" d="m58.36-45.808.733 14.55 1.977.04.408-.305.163.815 4.972-.428-.082 1.222.49.123-.327 2.404 2.303.306.163.978 1.12-.265 1.59.02.733.265.775.367 1.243-.142.06-.306h.551v-1.467l1.57-.958.651-.122-.204-.53 8.803 9.414-1.487.326-.082 1.427 1.61.122.082 2.119 1.854.04.143 1.855.55 1.12 2.017-1.935 7.784 8.375v2.995l.428.062.122.692.387.041.204 2.405 2.445 3.056.795 1.467 2.466.163-.041 1.61-.408.143 1.04 1.548 1.202.102 1.813 2.486 13.592 10.128 1.386 14.366.407.06.073.269.09 8.433.51 4.951.672 5.217-.53.448 1.508 14.712 1.243.123.55 3.117-.774.51.672 4.34-.937.122-.081 3.342.753-.081.245 3.912-2.71.55.285 2.792 2.751-.184v1.305l-.795.203.245 1.916-2.2.204.183 1.467.244 1.528 2.466-.204.244.795.449 6.378-88.394 7.445-.116-2.997-.374-.375v-1.182l.288-.201-.375-2.738-6.282.455.153-.652-.49-.122-.06 1.07-1.121-.245.112-.499-1.05-.06-.53.325-.54-.285-1.028.285-1.213-.56-.682-1.02-1.366-.651-1.029-.968-1.039-.245-.326-.54-1.172-.05-.55-.235-1.05.377-.794-.723-1.783-.051-.52-.52-1.243-.438-.804-.52-.602-.01-.448-.662-.397-.071.02-1.274.56-.02-.356-.55-1.04 1.09-.977-.377-1.223.071.418.652-.938.988.316.826-.642.183-.265.387.204.438-.035.836-.505.611.354.6-.211 1.356-.03.734.264.856-.163.56.102 1.213-.234.336.254.693.072.641.356.337-.825.58.173.408-.57 1.223-3.566-1.895-.347-.214-.366-.02-1.794-1.54-.02.367.255.398-.367.122-.224-.397-.296.091-1.63-1.304-3.056-.316-.642-.682-.795-.53-.703-.092-.723.123-.846.07-1.141-.132-.673-1.304-.662.204-1.1-.632-.703-1.161-.724-.061.245-.55-.194-.357-.387.153-.52-.092-.275.245-.448.01-.255.346-.193-.03-.377-.194-.948-.102-.896-.713.02-.387-1.09-.958-.04-.611-.765-.418.122-1.732-.285-.367.622-.693-1.804-3.046.387-.071.03-.459-.376-.275.346-2.486-.621-1.732.224-.244-.224-3.77-6.276.448-.795-.57-1.019 1.222-.53.122-.122-.448-.163-.448-1.284-.673-.957-.101-1.121-1.671.081-.795-.163-1.345-1.263-2.323-.856-.652-.183-1.67 3.3-1.08 8.845-1.285 7.519-1.222 2.445-.428 2.486-.02 1.04 1.12.875 1.427 1.203.835 1.874.652-.794 1.956-.449.55-.183-.366.163-.53-.469-.122-.305.754.407 1.08 2.099 1.12.183.775 3.994.55 2.303.998 2.262.123 2.628.366 1.997.204 2.507-.51.407-1.568.897-1.06 5.196-2.506.835-.347.836-.04 1.569-.653.713-2.119-.306-.815.673-.713.224-2.12 1.243-.774.367-2.404-.836-1.63-1.14-.876-.857-.388-.489.123-1.182 1.487-.366-.428-1.406-.346-.815-1.019-.652-.102.285-1.182.876-1.1.061-.632.326-.081-.407-.795 3.382-2.445 5.808-3.546.84-.482s.8-.864.836-.886c.036-.021.663-.137.663-.137l.454-.634-.058-.353-.483.18-1.851 1.86-1.023.057-.663.807-1.102.389-.656.778-1.477.8-.879.136-.605.728-2.248.9-.814.534-.95 1.39-1.153.865-.36.036-.8 1.556-1.463 1.505.08 1.045-.317.195-1.19.007-.057-.396 2.651-3.105 1.578-2.111 1.196-1.052 1.844-1.153 2.71-1.542 1.599-.85 1.873-1.21 1.455-1.052 1.426-.85.822-.692.288-.605 1.6-1.527 2.881-2.032 2.608-2.103 1.6-1.268 2.982-3.156 2.694-2.723.923-1.167 1.282-1.672.62-1.513-.26-2.147.591-1.945.1-2.507-.59-1.196.404-1.815-.39-.49.923-2.795-.303-1.168-.75-.706.073-1.354 1.369-2.248-.072-.62.187-.936.1-.461 2.71-2.55 3.112-2.435 1.066-.937 1.24-2.219.561-1.268.433-.692-.173-1.095-.461-.115-.39-.95.39-.49-1.6-2.695.346-2.594-.98-2.276.317-.678.505-.533-.317-.95-.505.057-.173-.562h.418l-.547-3.876-.317-2.507-.39-.13v-.187l.231-.043.432-1.556-.734-1.528-.015-1.988-.331-.634-.159-1.974.735-3.415 1.066-2.896.202-.735-.146-4.174.49-.815-.143-.53-.49-.612s.55-.957.591-1.08c.041-.122.571-3.138.571-3.138l-.061-.448.693.184z" transform="matrix(.40275 0 0 .40275 14.372 21.235)"/><path style="fill:#000;stroke:none;stroke-width:.65694819;stroke-linecap:butt;stroke-linejoin:miter;stroke-opacity:1;stroke-miterlimit:4;stroke-dasharray:none;fill-opacity:1" d="m3.586 69.608 1.325.061.998-.958.102-.774 2.914-2.67-1.324-.203-.143-.285.958-.286.998.286.408-.306.04-.795.347-.203.081.713-.081.55.51.346.713-.428.366-.509.795.04.876.021.367-.693.143-.51-.612.245-1.283-.957-.306-.388-5.074 2.609-.917.856-1.793.713-.408.733-3.932 1.529-2.466.366-.408.693 1.264 1.08 1.406-.367.733.163 2.079-1.283.204-.387.468.183.57-.163.184.326-.407.57z" transform="matrix(.40275 0 0 .40275 14.372 21.235)"/></g></svg>