<svg width="256" height="256" viewBox="0 0 67.733 67.733" xmlns="http://www.w3.org/2000/svg"><path style="fill:none;stroke:#000;stroke-width:.26458333;stroke-linecap:butt;stroke-linejoin:miter;stroke-opacity:1;stroke-miterlimit:4;stroke-dasharray:none" d="m39.63 10.628 3.777 1.624-.453 1.116.398.916.188.078v.331l2.01 4.407-.972 2.187-.22 2.762 4.837 2.23 2.806 1.68-.045.662-.154.509 1.9 1.767.353.64 2.01 1.68-.618.795-.177 1.193-.243.154-.95 6.318 1.237.42-.287 2.12 3.292 1.061-.31.906-.905-.243-.398.42-.441-.018-.176.101-.367.008-.086.156-.144-.023-.367.254.171.195-.039.387-.28.164.284.203.047.297-.058 1.296.148.348.847.952.336.196.485 1.019-1.695.562 1.452 1.73-1.316.781.672 1.305.406 1.148-.117 1.164.017 1.162-.21.938-.276.575-.27.674-.382.463-.519.343-.607.63-.685-.53-5.105-.64-1.578 1.125-1.905 3.374-7.576-1.546-1.219-3.233-10.497-.61-6.045-4.186-1.062-1.796-.844-2.843-.78-2.14-.266-.438-.172-1.343-.219-.531-.11-.86-1.046-.827.047-.953-.625-.437-.734.015-.437-.609-1.234-.312-.032-1.031.125-1.125.282-.625-.157-.468-.546-.141-.438-.61-1.622-.196-.32-.243 1.225-1.68-.154-.32.442-.055-.277-.342.365.055-.652-.618-.121-.53 2.496-2.939.21-.331.088-.762.254-.287.188-.332-.132-.154.055-.475-.078-.122.166-.43.199.01.364-.574.475.066-.22-.22.154-.498.21-.143.044-.177.188.055.243-.519.342-.066.287-.155.266-.541.397-.077.055.22.078.365-.022.331.154.243.11-.232.31-.033.188-.187.121-.21.243-.155.033-.166.2.045.22-.221.155.088.055-.398.287-.309.166-.011.84-.652.11-.309.276-.088.121-.177.078-.122-.033-.187.265-.177.01-.331.178-.056.187-.11.177.022.199-.265.166-.387.088.033-.033.31.11.165.155-.397.784-.541.873-.464.397-.011.365-.553.1-.11-.023-.188.298-.342.155-.1.166-.199.276-.298h.22l.09.055-.078-.364-.376-.155.011-.276-.143-.177.01-.22-.154-.232.983-.685.243-.033-.342-.277.077-.773.354-.21.22-.508.232-.42-.121-.198.188-.453.342-.254h.177l.044-.221-1.679-.42.707-2.352.376-1.867.276-.354.54-.298 3.116.961.486-.243 1.79.63-.675-1.756-.916-.553-.442-.154.364-.387-.42-.331-.121.1.044-.388.575.166 1.28.398.266-.1-.155-.154.254-.332-.254-.287.807-1.325-.862-.387-.298-.055.475-.73-.133-.341.265-.398.409-.133.132.122.53-.563.067-.53.64-.708.078-.43.364-.409.221-.22v-.233l.818-.375.287-.42.53.066.243.276-.088.663.077.276.32.254.475 1.315.376.486-.873 1.038.044.331-.563.464-.232.552-.817 1.116.287.188-.011 1.292.574.762.762.508.277.232.287-.044.342.122.32-.011.707-.288z"/></svg>