<svg width="256" height="256" viewBox="0 0 67.733 67.733" xmlns="http://www.w3.org/2000/svg"><path style="fill:#000;stroke:none;stroke-width:.26458333;stroke-linecap:butt;stroke-linejoin:miter;stroke-opacity:1;stroke-miterlimit:4;stroke-dasharray:none;fill-opacity:1" d="m16.598.705 15.232.599.299.326.326-.15.762.422.285.585.53 1.06.314.49.272.53.788.708.381.014.177.326h.612l.517.503.109.354.884.612.367.693.163.3.408.15.38.285.64.394.38 1.075.558.244.422.64.422.163.136.421.707.313.557.381.544-.054.667.503.843.816.258.013.177.599.422.15.394.747.245.68-.095.64.285.53.164-.054.095.476.408.244.245.504.367.652.027.626.014.68-.11.326.11 1.21.639.871.408.79.299.815.122.53.504.245.584.64.422.326.952.285.313.232.272.625.38.503.79.572.611.217 1.184.218.367.15.285-.014.368.517.57.49 1.13.217.639.476.449.571.57.38.26-.176.217.245h.245l-.468 1.098-.394.548-.02.394-.247.04-.34.653-.49 1.102-.462.53-.163-.312-.068.136-.123-.123-.136.395.204.163-.068.136h-.245l-.258.394.15.286-2.217 4.053.027.204-.585 1.319.463.19-.123.422-.476-.177.027-.177-.15-.04.082.802-.136.367.53.163-.326.327.517.598-.285.068.108.626.164.15-.232.067.096.381.068.122.15-.054.176.598-.082 1.17-.136.136-.027 1.156.313.15.109.612.204-.014.04.503.014.911.15.327.285.04.055.613-.218.163-.217.313-.612.38.204.028-.164.49.694.638.136-.054.082.245.285.49v.258l.163.177-1.536-.272-1.252-.055-.095-.23-.313.04-.054.353-1.224-.34-.544-.081-.394-.585-.232.258-.122.014.136.218-.095.217.19.272-.231.45-.136.353-.503.272-.558.312-.571 1.374-.054.082.054.449-.775.83-.218-.368-.245.082-.204-.259-.163.04-.82-1.083-.116.067-.356-.22-.865-.02-.106-.058-.336.375h-.25l-.02.106.145.02-.049.124-.355-.096-.5.28-.068.153-.49-1.106-1.558.548v-.183l-.221-.086-.212.24-.452-.25.087-.154-.135-.317-.365.106-.53-.067-.038.134-.211-.057-.096-.28-.49-.019-.559-1.413.096.711-.326-.086-.337.029-.02-.231-.153-.192-.164-.02-.105-.404-.097.097-.115-.231-.414.029.116.48-.298-.278-.51-.626-.211.049-.087-.058-.067-.192-.116.086-.154-.106-.125.02-.98-.876-.299.424-.173.413-.26-.173-.307.038-.192.02.067.105v.202l.23.154.174.106-.02.183-.115-.048-.144-.068-.279.058.02.135-.174.096-.183.298-.077.356-.028.5-.106.279-.394.154.105.086.145.067.028.308.097.173-.26.452.029.193-.356.096-.02.24.26.048-.163.395-.27-.222-1.144 1.549.164.654-.462.269.048.183-.154.327.154.173-.067.25-.087.154h.25l-.125.336-.403.039-.106.182-.308.125-.106-.067-.106.317v2.29l.337-.27.529-.202-.029.192-.548.26-.173.279-.212.134-.269.106-.279.356-.096.298-.212.067-.086.231-.221-.134.019-.26-.327-.106.211.27-.567-.049-1.23.058-.232-.73-.875-.27.212-.067.086-.308-.192-.135-.308.202-.279-.115-.019-.135-.154-.077.048-.22-.067-.107.144-.105-1.77-1.337-.028-.164-.442-.336.144-.433.02-.27.134-.095-.366-.568.03-.183-.597-.48-.462-.183-.288-.01-.279.24-.202-.019-.173.087-.087-.24-.279-.424-.394-.028-.317.115-.52-.144-.163-.077-.115.096-.125-.067-.03.182-.124.106-.01.125-.317-.115-.164-.414-.336-.048-.193-.26.02-.25-1.049-1.769-.336-.51.413-.298-.144-.038.183-.212h.154l-.039-.269-.519-.664.01-.163-.193-.067.039-.145-.125-.144h-.164l-.183-.23.683-.385.058-.193-.115-.269.163-.356-.077-.057-.24.019.115-.318-.596-.75-.462-.01.106-.355-.067-.039-.154.116-.067.038v.116l-.145-.087-.154-.163-.067-.087-.01.212-.105.01-.145-.26.097-.193-.097-.307.183-.077v-.183l.337-.154-.193-.346-.144.02-.055.062-.166-.171-.365.288-.133-.098-.029-.087-.096-.067-.122.125.048.147-.137.062-.195-.216-.45.038-.1.048-.183-.122-.25-.041-.07-.09-.188-.004.008.144-.185.109.016.187-.36-.05-.344-.19.091-.34-.307.04-.063-.354.08-.118-.126-.73-.194-.188-.183-.065.012-.137-.082-.443.072-.062-.045-.137.295-.452.44-.284-.353-.724.014-.372-.327-.51.116-.007.031-.76-.539-.296-.096-.233-.19-.195-.036-.389.012-.216-.072-.099-.053-.147-.089-.158-.098-.188-.123-.024-.245-.233-.63-.053-.175-.447.12-.267.209-.034.135-.276-.378-.137-.082-.887-.235-.2-.09-.14-.218-.086-.363-.416-.106-.493-.096-.545-.163-.452.125-.395-.063-.88.135.01-.03-.15.13.049.135.14.116-.068.293.202.024-.086-.038-.342h.134l.169.375.774.024.158.13.183.039.14-.164.264.173v-.187l.48-.005.52-.313.404.063.106-.024-.024-.385.26.01.09-.116.534.332.24-.135-.004-.355.23.13.14-.111-.298-.644.15-.217-.169-.096.082-.27.091-.09-.014-.106-.15-.005-.043-.548-.279-.356-.033-.221-.101-.212-.034-1.159-.264-.12-.101-.12-.15-.039.015-.35h.15l.057-.14-.342.014-.22-.567.052-.096-.298-.221.164-.476-.183-1.453.12-.004.082-.15-.217-.028.01-.154.293-.27-.211-.422-.265.048.01-.448.163-.072-.043-.149.005-.158-.202-.178.288-.072.053-.082.38.038.164-.418-.347-1.693.226.034.068-.192.408-.034.13-.106-.173-.096-.14-.356.198-.154-.13-.254.144-.082.044-.409-.14-.235.375-.097-.365-.644.615.01.034-.092.476-.053-.029-.63-.692-.072-.159-.375.26-.134-.106-.346.091-.13-.062-.64.235-.764-.125-.712.096-.087.005-2.082.395.169.226.182.086-.173-.211-.293-.092-.187-.394-.097.024-.428-.26-.408.36-.197.111-.27-.543-.053-.005-.654-.1-.086-.015-.183-.207-.106-.216-.23-.039-.101h-.206l-.049.086-.533-.178-.544-.303.034-.408.101-.356-.168-.245-.221-.164-.289-.034s.091-.298.096-.322c.005-.024.087-.76.087-.76l.02-.37-.04-.418 1.222.077.058-1.048 1.091.029-.024-.207-.587-.053.164-.183-.164-.22-.153-.04-.01-.307-.61-.351.043-.289.298-.346-.313.015-.12-.26-.4.12.174-.433.654.02.635-.967 4.865.205z"/></svg>