<svg width="256" height="256" viewBox="0 0 67.733 67.733" xmlns="http://www.w3.org/2000/svg"><path style="fill:#000;stroke:none;stroke-width:.26458333;stroke-linecap:butt;stroke-linejoin:miter;stroke-opacity:1;stroke-miterlimit:4;stroke-dasharray:none;fill-opacity:1" d="m66.231 34.607-22.678 1.75-7.392 15.319 2.685 3.087.114.39-.188.623-.282.329-.59.087-.362.436.054.603.194.57.1.644-.16.409-.362.194-.222.456.168.537.228.328.128.242-.228.261.093.235.282.228.168.355.053.812-.462.637-.027.778-.161.402-.382.241-.242.523-.255-.094-3.08-2.548-.235-.311-8.486-7.745-.017-.06-5.743-4.859-4.667-3.58-2.642-1.865-2.146-1.381-2.213-1.22-1.167-.583-.773-.327-.673-.147.26-.375.466-.038.104.114.654-.066.01-.19-.323-.455-.047-.247-.503-.502-.613-.122-1.143-.043-.222-.14-.516-.004-.312-.165-.348-.01-.225-.137-.054-.178-.204-.11-.094-.678.982-.764.195-.41.02-.15-.218-.201.18-.342-.371-.912-1.67-2.334 4.097-12.492-.053-.272.147-.081-.01-.237.304-.1.067-.118.194.01.01-.295.346-.678.028-.265.147-.033.095.16.26-.255.224.076.592-.176.522-.019.147-.161.408-.01-.01-.53.46-.162.493-.455 1.483-2.414.084-.583-.174-.235.2-.282.182-.66.298-.305.299.11.127-.724.463-.084.134-.54.415-.288.007-.194.456-.104-.033-.386.067-.157-.04-.57-.5-.678-.174-.445.1-.068.242.195.315-.007.107-.405-.245.02-.067.164-.235-.03.034-.309.205-.03.331-.03-.147-.315.194-.644-.325-.365.074-.255.188-.329-.121-.57.137-.047.151.148.45-.235-.004-.201.255-.315.044-.366.5.42.17.013.08.15.131.041.332-.241.362.077.181.244.51.111.446.446h.46l.247.201.004.178-.379.255-.134.01-.124.422.033.134.208.312.282-.342.975-.047.285.262.356.59-.278.436-.255.147-.144.413-.034.382.298.338.034.228-.013.326-.047.345.08.66.205.255.311.158.205.241-.027.362.265.098.215.224-.098.175.057.21.252.004.214.416.188.12.11-.338.393-.027.104.074.47-.245.479.168.087.419.087.074.168-.067.053-.128.108.03.255.818-.084.235-.503.144.409.259.084-.148.627-.15.016.187.443.312-.044.432.295.248.383-.087.784-.57.057-.637.128-.214.01-.446.332-.259.415-.127.255-.251.215-.275-.014-.346-.077-.137.413-.557.288.074.416-.117.2-.43.145-.05.322.017.422-.127.66.026.366-.16.899-.741-.054-.326.01-.295.064-.09-.05-.835.204-.171h.248l.634.107.248.131.68-.956.58-.586.141.057.259-.242.399.087.067.192.254-.034.02-.359-.365-.456.516.269.208-.316-.003-.553.178-.194.137-.037.53.067.067-.195-.107-.127-.185-.11.007-.088.724-.288.094-.104.184.064.225-.45-.16-.435.17.05.195.362.204.08.513.007.1.14-.278.47-.016.131.18.094.212-.11.047-.219.007-.228.17-.107.302.03.305.097.295-.043.245.104.168-.034.107.02.322-.321.137.023.151.553.44.272-.148.409.037.224.154.433-.003.409-.064.412-.305.078-.154-.03-.171.21.138.133.543.112.226.223h.606l.418.275.36-.038.266.18.17-.123.237.132.038.408.124.2.066.246.133.104-.285.285.433.425.007.503.137.355-.208.36-.02.314-.419.54-.315-.04-.134.137.56.06v.31l.57.22.09-.117.483.228.1.14.758.175.017-.446.329.07.047.276.415.167.235-.033.785.345.218-.211.365.144.124.198.004.268.382.164.312.453-.168.241-.402-.077-.192.134v.456s-.187.376-.194.396c-.007.02.208.57.208.57l.343.195.495-.002.38.097.234.23.088.365.107.054.118-.365.304-.05.626.008.27.137.073.232-.137.373.054.291.06.216.113.102.155-.01.294.005.156.088.183.29.078.248.092.22.394.318.275.306.249.145.13.007.268-.055.292.083.04.242v.145l.246.151.105.067.12.234.09.074.318.19.21.246-.145.225.014.119.076.038.592.09.313.088.254.045.203.197.094.03-.063-.405.14-.134.235-.037.161.09.114.255-.117.148-.215.184.09.09.252-.133.164.047.232.11.023.232.195.348.425-.03.235-.064.231.114.192.131.147.184.332.03.436-.046.063.117.111.007-.013.221.747.262.03.097.333.214.365.185.261.184.017.238.211.158.319.14.05.215.054.225.05.117.305.272-.037.278.091.218.094.379-.235.194.225.131.124-.097.037-.392.348.425-.127.171-.168.111-.006.359.09.486.178.003.104-.1.278.027.124.207-.51.316.075.167.248.06.03-.09-.124-.144.238-.124.067.144.241-.02-.006.305.325-.047.567-.292.003.426.315.047.064-.251.187-.014.125.322.445-.221.007.503.033.214.577-.043.476-.08.158.257.127-.053.054-.08.231.15-.077.379.443.251-.057.35-.258.395-.302.067.037.292-.191.264-.111.014-.231-.034.033.456.188.141.137.191-.456.144.044.168.275.023.087.171-.429.289v.302l.047.18.164.111.262.074.104.272-.121.127-.225.178.121.094.252.147-.08.282-.27.1-.1.175.064.207.094-.063.177-.252.208.077-.21.259-.034.194z"/></svg>