<svg width="256" height="256" viewBox="0 0 67.733 67.733" xmlns="http://www.w3.org/2000/svg"><path style="fill:none;stroke:#000;stroke-width:.26458333;stroke-linecap:butt;stroke-linejoin:miter;stroke-opacity:1;stroke-miterlimit:4;stroke-dasharray:none" d="m18.57 60.64-.327-.241-.054-.093-.509-.252v-.143l-.403-.23-.16-.425-.109-.219-.227-.21-.353-.243-.042-.236-.378-.235-.244-.437.135-.177.092-.21.185-.025-.092-.185.269-.21.058-.31.656-.22.361.085.05-.06.253.245-.009-.404-.26-.042-.244-.235-.193-.294-.538-.446-.428-.504-.06-.117.438-.169.05-.378h.21l.017-.235.227-.134v-.177l.16.008-.118-.235.32.076-.034-.16.168-.227.075-.235.126-.017-.042-.143h.143l-.109-.151.202-.219.16-.95-.11-.318-.21-.32.008-3.479 1.026-1.74-.622-1-.588-2.907-2.84-1.118-.144.034-.143-.37-.504-.168-.16-.084-.117-.521-.278-.429-.016-.193-.26-.05-.866-.883.184-.395-.109-.042.723-.563.076-.378.403-.135-.177-.706-.201-.1-.244-.404.076-1.143-.135-.403-.16.067-.134-.639-.445-.226.151-1.63.059-.051.1-1.294-.159-.639-.185.025-.16-.748.202-.008-.16-.202.101-.504-.143-.311.227.059-.588-.773.412-.303h-.446l-.285-.134.252-.303-.143-1.168.244.067-.093.244.546.151.118-.47-.487-.227.538-1.437.193-.252-.084-.084 2.52-4.875-.033-.302.294-.572.27.084.117-.201-.345-.143.295-.47.15.184.093-.185.194.378.327-.705.152-.043.52-1.05-.05-.118.622-.916.151.118.06-.134-.118-.337.647-.773.437-.916.117-.05.135.244.008.134.143-.202.202.219.378-.118.563.16.344-.135.135-.185.143-.319-.034-.143.185-.285.143-.034-.025-.16.361-.386.067.1.11-.16.176-.327.235-.353.076-.244.252.017.219.06.21-.228.109-.386.185.193.185-.067.05-.126-.328-.194v-.361l.135-.151-.034-.362.177-.269.134-.252.21.025.21-.403-.117-.26.092-.496.16-.395.092-.177.009-.378.193-.277.244-.294-.009-.336.235-.068.042-.487.27-.168.201-.227.093-.74.226-.269.253.093.184.118.311-.194.227.06.135-.127-.067-.26.319-.017.134.235.227-.235.118-.219.42.177.588.117.236-.109.142-.328.169-.361.058-.176.252-.135.118-.176.168.042.202-.042.344.226.177-.075.202.227.227.126.168-.042.15-.101.135.252.219.26.302.185.278.026.168.05.269.008.269-.201.227.017.218-.118.286.017.067.151h.32l.092.11.193-.16.168.05.32-.1.294-.135.302.21.412.227.344.109.37.076.362-.026.327.06.16-.144.345.034.075-.336.294-.118.168.093-.042.277.042.26.26-.109.396-.294.328.185-.06.21.312.092.16-.126-.009.152-.034.134.185.32.21.184.101.362.009.21.26-.118.345.185.05.286-.067.386.143.244.126-.193-.05-.336.1-.177.303.084.252.353-.16.353-.042.328-.059.193.79.025.278.463.285.201.521.017.404.395.227.387.294.512.386.177.58.32.353.394.202.244.361.05.328.252.176.345.169.32-.093.293.412.27.126.319.37.109.302.437.042.403.025.32.16.487-.025.37.193.588.202-.008.21.386.395.53.269.386v.252l.328.42.025.513.134.48.32.251h.126l.16.504.453.202-.143.614.9.487-.303.336-.1.034.318.42-.1.487.621 1.034v.429l.295.386.411.168.202.437.84.42.471.143.361.673.101.176.236.025.193.69.412.378.453.1v.42l.118.295.277.176-.033.555.193.269.126.277-.017.244.252.059.084.386m0 0c-.075.101-1.1 1.353-1.1 1.353l-.605.572-2.152-2.227-1.731 1.395-.714 3.622-2.858.773-1.748 1.798.118 1.395.168.06.118.234.336-.134.218.227.143-.126-.168-.202.05-.168.387.059.152-.395.176-.009.126.236.185.05.17.192 1.165.309-.071.76v.238l.095.357-.12.309.215.333-.262.356.12.594-.643.856-.142.737-.904.832-.665-1.379-5.015 4.445 1.26 1.498.356.76.642.404.404.333.404.523.214.095.154.725-.012.665.44.179.345.035.178.416-.226.666-.226.487.654 1.153.012.285.214.725.57.072.107.368.38.452.678-.048.226.368.13-.023.69.154.107.262-.868-.095-.178.178.368.06.06.296.535.095.202.202-.131.203.535.059.333.25-.179.903.82.095.797-.214.594.38h.166l.179.464-.167.166.143.262.023.19.214.107-.309.13-.855-.225-.072.499-2.97-.773-1.308.19-1.034.904-.19 2.02.38.19.06.19.606.595-1.07 1.14.404.951-.178 2.02.119.476-.57-.036-.643-.32-.689.475-1.355-.582-.535-.428-.356-.701-.155-.69-.427-.451-1.403-.404-.677.225-.095.262-.63.404-.333-.06-1.521-.237-.13-.511.332.095.071-.523-.618-.321-.273.25-1.058-.428-.547-1.034-.273-.583-.202-.166-2.947-.749-1.284-.44-.76-.047-1.724.095.214 1.426-2.543-.82-2.092 3.625.012.392-.155.036-.416-.404-.237-.012-.083-.095h-.286l-.19-.238-.38.071-.262-.154-.499-.202-.309-.166-1.77-1.724.202-.285-.345-.44.071-.035.06-.262"/></svg>