<svg width="256" height="256" viewBox="0 0 67.733 67.733" xmlns="http://www.w3.org/2000/svg"><path style="fill:none;stroke:#000;stroke-width:.26458333;stroke-linecap:butt;stroke-linejoin:miter;stroke-opacity:1;stroke-miterlimit:4;stroke-dasharray:none" d="m59.91 9.85.713.73-.263.245-.2.07.046.225-.154.923.186.25.167-.006.064.23.346.18.212.494.186.116.314.48.147.013-.005.286.177.179.195.022.07.345-.043.254.14.32-.083.208.143.075.018.245.276.254.159.005.054-.078.134.041.134-.09.136.079.134.038.059.304.125.007.015.127.16.057.067.131.213.132.062.13-.025.058.142.014.028.09.115.018.08.184-.005.24.177.064.345.406.016.2.11.056.014.14.073.082-.018.365.16.03.037.127.063.018-.002.086.184.02.004.137.254.022.082.102.116-.004.224.263.125.018.118-.118.324-.004.018.181.132.1.002.066.143.102.013.238-.056.208.059.272-.24.252-.18.064-.072.14.263.222.047.306-.195.157-.11-.12-.275.118.03.158-.073.32-.234.039-.068.181-.152.007.018.104.136.08v.117l-.045.053v.61l-.061.197.08.143-.128.306.104.038-.06.492.153.309-.172.177.01.32-.14.115.055.14.197.22-.126.336.102.025-.037.17-.21.175-.007.163-.2.163.005.073h.156l.102.197-.086.095-.218.057.161.17.048.494.202.057.23.216.08.258.166.213-.016.48.061.232-.122.154-.177.102.036.078.005.396-.395.347-.04.47-.116.102-.111.47.158.355-.16.077-.318.356-.216.465.01.134.136.093-.025.594.206.19-.283.37-.146.626-.095.118.225.133.038.264-.127.108.055.272.163.055.136.218.109.009.335.226.118.436.29.009.318.553-.09.327.317.072.09.29-.008.141-.211.2-.02.474-.166.09.14.263.232.73-.128.462.134.385-.353.552.372.16.013.366-.205.25-.212-.077-.692-.225.019.142.237.076.064.283-.275.461-.16.058-.078-.224-.41-.013-.128.167.154.224.301.257.013.275-.32.09-.257.308-.372-.038-.193.128.064.288.263.417-.256.481-.385-.243-.34.025-.391.16-.314-.019-.045.552-.116.16-.397.084-.013.474-.193.231-.019.52-.301-.206-.18-.064-.186.07.007.482-.238.02-.115-.277.122-.301-.462-.475-.218.16-.237-.083-.186-.308-.41-.288-.206-.02-.18.206-.186.064-.237.263-.077.256-.475.571.321.533.635.461.295.398.039.308-.52.52v.14l.327.494-.064.571.096.43-.244.308-.346.378-.314.186-.128.27-.424.019-.513.359-.27-.154-.422.115-.103.135-.564.09-.2.218-.121.526-.032.166-.244.129-.32-.052h-.174l-.192.263-.09.648-.135.314-.134.238-.283.275-.173.5-.09.29-.333.147-.199.333-.109.257-.436.16.026.34-.084.372-.224-.442-3.277-3.323-.039-.09-.154-.012-1.079-.908-2.222-1.614-2.64-1.778-1.84-1.18-.509-.435-.254-.372-.58-.544-.209-.109-.354-.308-.453-.1-.363-.308-.798-.381-1.297-.626-1.125-.644-1.37-.952-1.414-.862-.88-.517-2.05-.961-1.37-.635-2.122-.89-1.007-.371-.714-.288.221-.437.032.1.164-.289-.125-.648.198-.298-.093-.167-.417-.25-.307-.176-.661-.619-.164-.119-.211-.028.096.102.106.138-.112.138-.228-.1-.123-.313h-.065l-.043.059-.331-.039-.157.116-.61-.113-.245.022-.084.223-.04.782.619.116.868.278.655.252.547.31.487.275.037.098-.245.496-.991-.36-.764-.309-.792-.294-.907-.173-.272-.004-.045.1-.159.009-.3-.368.119-.031.059-.127-.077-.182.036-.127.104-.004.01-.223.126-.095-.009-.32-.057-.136.132-.17.014-.23.607-.411.098.022.009.164.2-.016.086.065.371-.233.025-.1.257-.059.093.202.267-.084.05-.335.08-.028.063-.33-.089-.057.07-.166-.063-.206-.326-.14-.184-.289-.218.145.275.522.054-.01.157.413-.2.232-.215-.012-.043-.49-.202-.5-.352-.493-.514-.474-.708-.367-.406-.007-.088.143.002.02.14.05-.024.13-.22.009-.055.242-.068.105-.204-.014-.136-.338.284-.213.093-.165-.046-.093-.22.04-.018-.106.215-.148-.018-.133-.226-.207-.338-.129-.381-.102-.483-.025-.32.034-.351.104-.243.146-.132.19-.072.12.025.247.31.193.13.32-.145.115.011.146-.18.065-.006.25-.09-.016-.16-.322.003-.134-.132-.104.012-.061-.18-.07.032-.15-.102-.105-.172-.14-.055.011-.063-.111-.308-.007-.12.24-.137.044-.086.07.007.097-.18.039-.11.154.065.14-.063.069-.234-.202-.088-.005-.025-.172-.17-.04-.068.108.045.152.1.118-.068.218-.014.333-.28-.016-.012-.213-.154-.197-.084-.238-.095-.082.009-.15.002-.093-.236.012.057-.148.131-.06-.054-.119.011-.127-.086-.152-.202-.043-.12-.045-.02-.048-.111.052-.075-.063-.086.002-.16.02-.063.08-.122-.046-.04-.142-.176-.189-.668-.374-2.238-.732-1.089-.295-1.016-.29-1.174-.209-.377-.09-.508-.092-2.046-.738-1.976-.776-.789-.096.135-.487.18-.007.012.11.206-.078-.116-.154.077-.096-.115-.128.237-.11.218.386.372.025.27.16.57.026 1.296.558.147-.096.045-.02-.019-.153.481-.18-.02.173.155.045V28.872l-.154.007v.128l.109.115.013.2.282.083-.09.25.366.096.16.135.391.038.167.109.23-.083.071-.167.065-.379-.18-.109-.225.052-.186-.116.013-.378-.154-.532.308-.327.327-.077.18.218.109.25.27.006.121-.295.045-.539.41-.307.033-.186-.129-.167-.025-.334-.07-.166.217-.392.27.097.16-.122-.032-.218s.038-.2.058-.225c.019-.025.256-.41.256-.41l.443-.481.359-.231.314-.391.058-.2.609-.16.404.584.404.417.18-.128.147-.347.27-.102.173.032.359.372-.122.834.128.211.2-.038.365-.494.224.167.032.365.084.039.18-.11.185.04.09-.283-.16-.327-.064-.218.237-.167.134.103.25-.141-.243-.321.186-.32.365.018.225-.09.423-.14.135-.353-.225-.475.16-.102.52.019.25-.186.2.147.41-.147v-.193l.385-.038.262-.148.244.263-.359.41.128.136-.218.256.154.302.308-.353.622.006.513-.538h.148l.609.39-.122.27.32-.006.905-1.078.295.058.18.128.134-.07.424.352.308.039.14.038h.071l.173-.538.392-.25.25-.18.064-.302.282-.012.327.205.045.167.192.012-.038-.295.218-.102.141.128.32-.02.187-.224.256-.102.039-.302.327.167.577-.186.154.199.436.077.167.199.16.019.135.154.417.013-.039.166.18-.006.045-.173.423.134.154-.218.686.5.052.206h.147l-.083-.526.295-.141-.032-.141.269-.052.09-.121-.135-.097.372-.198.27.07.109.199.012.07.238.039.077.295.09-.032.076-.391.244-.103.026-.147.096-.045.109.109.147-.039.154.148.289-.276.096.192.103-.012.038-.295.218-.135.084.199.25-.167.16.07-.128-.314.199-.115-.18-.116-.5-1.468.763-.392.103-.641.494-.526 1.09-.712.346-.91-.006-.385.82-1.136-.57.276-.007-.211-.218-.27-.18-.147.546-1.79.102-.493.353-.154.468-.783.578.026.52.577.236.25.295.154.186-.006.41.205.399.134.365.142.372.205.128-.096.469.012.128-.173.692.026.116.494.423.673 1.713.456 1.128.384.674.315.154-.084-.07-.301-.54-.731.732-.5.346-.026.218.27.282.711.18.173.205-.147.205.051.308-.128.07.288.244.327-.077.174.11.134.43-.057.371-.283.507-.128.244.135.3.019-.275.308.295.32v.206l.09.102-.135.238.173.256-.044.205.115.052.026-.238.41-.115.481-.41.25.019.206-.34.808-.173.263-.007.205-.224.18.045.91-.661.603.096.289.07.564-.487.462-.18.019-.16-.064-.564.48-.18.206-.442.366-.18-.007-.275.244-.032.398-.424.18.052.23-.18.333-.007.45-.372.91.135z"/></svg>