<svg width="256" height="256" viewBox="0 0 67.733 67.733" xmlns="http://www.w3.org/2000/svg"><path style="fill:none;stroke:#000;stroke-width:.26458333;stroke-linecap:butt;stroke-linejoin:miter;stroke-miterlimit:4;stroke-dasharray:none;stroke-opacity:1" d="m47.223 43.442-.135.822-.35.56.087.153.24.19.02.386.146.227-.044.225-.219.168-.357.414.275.73-.124.254.845.111-.074.627-.27.313-.531-.373-.292.116-.022.139-.088.393-.048.029-.214-.183-.08.044.2.219-.012.11-.233-.02-.036-.138-.131-.015.036.263-.019.127-.609.455-.4.192-.957.764-.3.866-.388.78-.251 2.447-.592.8-.004 2.02.095.152-.03.168-.014.146.05.19.066-.015.073.138v.146l.145.015.094.16.073.088.16-.073.073.08-.036.066.008.109.118.134.01.407-.135.067.139.299-.088.263.077.077.155.01-.026.13-.047.061.046.072.047-.01.005.14.128.087-.005.124-.196.113-.124-.021-.072-.077-.15.107-.267-.082-.237.113-.392-.011-.175-.217-.175-.042-.139-.015-.016.18-.134.17-.18.056-.212.129-.057.16.062.128-.037.103-.154.14.005.148.056.16-.13.134-.066.077.072.124-.006.155.165.108-.031.103-.186.18.345.34-.057.176-.191.015-.189.44-.24.003-.07.044.033.098-.139.139.015.255.207.273.083.357-.344.663-.248.105-.193.19-.313-.176-1.59.584.029.375-.284.08-.171-.186-.168-.059-.178-.135-.13-.211-.237-.132-.168-.113-.149-.226-.065-.325-.043-.266-.71-.085.02-1.122-.095-.171-.076-.18-.179.059-.313.061-.317-.044-.28-.102-.171-.154-.19-.262-.025-.226.03-.478-.174-.098-.102-.008-.03.099-.109.043-.178-.004-.186-.113-.08-.062-.146.01-.096.584-1.361 1.447-.401.102-.238-1.298-.826-1.032.045-.299.211-.196 2.042-.675-.204-.171.162-.729-.124-.204-.226-.146-.368.167-.386-.369-.013-.765-.214-.248-.033-.284.128-.339-.097-.266.029-.106-.091-.022-.835.276-2.962-.001-.394.163-.272-.438.084-.226-.007-.149-.058-.193-.131-.172-.07-.116.02-.394.07-.084-.092-.102-.262-.142-.226-.117-.12-.128.022-.095-.123-.073-.037-.142-.156-.051-.357.021-.233-.077-.343-.088-.284.043-.157.171-.139.146-.193.065-.134-.11-.179-.087-.331.003-.073-.164-.207-.066-.204-.146-.117-.179.037-.138.099-.051-.018-.102.084-.113-.142-.222.095-.146.095-.094-.117-.168.055-.182.073-.08-.062-.033-.083-.044-.04-.146-.113-.24.077-.172-.127-.047-.139.014-.19-.059-.105-.098-.032-.215-.116-.175.142-.011-.116-.197.025-.153-.185-.248.015-.153-.255-.226.157-.004.051-.134.194-.404-.306-.121-.047-.179-.168-.138.245-.208-.022-.178-.342-.329-.134-.11.102-.345-.232-.274.033-.186-.466-.438-.065-.262-.368.065.007.27-.215-.168-.342.094-.154.531-.244-.547-.201-1.439.168-.641.143-.105-.248-.117-.007-.19-.112-.098.102-.131-.09-.237-.077-.004-.287-.795.177-.965 1.132.472.084-.32-.087-.085.004-.164-.404-.365-.62-.063.457-.527-.025-.168-.255-.07-.145-.178-.212-.044s-.043-.128-.043-.146c0-.018-.273-.241-.273-.241l-.255-.088.004-.16-.09-.3.116-.181.102-.07.044-.192-.032-.091-.193-.121.055-.382-.378-.668-.028-.16-.073-.099-.004-.113-.364-.022-.05-.747-.956-.978-.263.058-.363-.318-.922-.337-.805.181-.194.2-.077.299-.095.2-.248.145-1.272.312-.382-.14-.226-.058-.113-.008-.105-.124-.08-.193-.654-1.032.007-.244-.174-.27.427-.353.03-.302.116-.171-.116-.055-.258-.267-.172.135-.149-.23-.16-.015-.04-.113.095-.233-.101-.098-.252-.055-.392-.923-.307-1.06-1.011-1.132-.15-.062-.018-.131-.883-1.036-.46-.081s-.244.185-.258.189c-.015.003-.258-.321-.258-.321l-.135-.135.07-.153-.08-.088.324-.054-.113-.175-.193-.11-.625-.576-.314.2-.058-.281.113-.106s-.53-.933-.53-.948c0-.015-.101-.423-.101-.423l-.82-.384.142-1.905-.294-.696.219.004.095-.157-.386-.277-.643-1.084.434.008-.403-1.283.38-.287.339-.098.084-.492.139-.13-.054-.168-.274-.044-.167-.194.103-.215-.062-.185.073-.237.47.019.07.102.141.015.022-.164 1.911-.919-.192-.488 1.271.282.33 1.065.583.026.62-.115.557-.003.659.114-.254-.386.476.266-.03.204.19.081.194-.247.262-.018.045-.441.372-.451.339-.113.073-.21.387-.07.175-.301.842-.418-.036-.2-.915.457-.307.291-.01-.368.023-2.886.198-.597.146.073.48-.108.125-.19.503-.042.102-.408-.327-.023.036-.204.176-.16-.015-.196-.189-.27.22-.525-.058-.218.605-.451-.187-.926 1.664-2.037.204.139.16-.022.089-.291-.3-.045.06-.524.43-.094.022-.277.3-.59-.08-.11-.014-.43-.311-.004-.083-.129.124-.17-.108-.129.495-.133.052-.298.108-.041-.055-.701.098-.124.12-.494.18-.175.026-.16.17-.056.031.113.118-.015-.076-.3.345-.055.082.046.16-.087.155.14.087-.093-.04-.175-.165-.13-.299-.052-.113-.036-.072-.175.098-.129-.082-.237.16-.16.123.063.449-.098.283.259.506-.937.284-.247 1.353 1.161.163.014.236.219.142-.178.07.374.247.013.108-.146.458.598.63.7-.193-.506.232-.149.13.036.066-.074.278.003.108.371.096-.185.28.67.185-.03.234.337.06-.005-.058.22.376.051.067-.092.167.121.3-.025-.213-.98.932 2.032.639.068.056.32.298.175-.05-.247.535.042.448.109.392-.236.196.16.133.273-.124.221-.036.108.196.052.123.16.129.073.082-.072.134-.057.217-.231.222.103.035.284.17-.077 2.094-.76.471 1.532.119-.206.345-.02.356-.283.412.124.088-.128-.17-.124.093-.103.232.041.18-.278.403-.262.417.053.985-.025.452.29.238-.134.421.496.463.557.308.495.114.005.334.367.315-.165.282.521m0 0 .97-1.05.011-.185-.081-.525.113-.031.828-2.008.702-.453.721-.277.28-.586v-.114l.258-.267-.103-.279-.247-.268.207-.103-.062-.34-.092-.083.31-.205.144-.31-.04-.092.113-.062.226.197.131.38.255.364.021.062.536.001 1.748.491.227-.43.532-.02.04.32 1.73.004 2.64.558.17.412.19-.018 3.373 1.368.73 3.536.72 1.104-1.215 2.157.008 4.087.385.663-.206 1.137-.089.136-.036.083-.113.036.154.144-.175.144.03.067-.118.083-.068.21-.242.294-.006.232-.345-.078.062.222-.232.082.05.152-.167.033-.104.433-.229.043-.006.296-.502.28.882.937.303.253.165.335.252.217.365.088.056.629-.232-.006-.216-.283-.18.015-.237-.104-.16.03-.65.263-.022.334-.273.255.058.142-.037.124-.084.076-.091.015-.037.251-.113.047-.033.07.026.065.069-.004.043.135.011.113-.004.07.295.066.346.343.003.19.186.207.145.008.098.167.193.095.076.35.28.289.04.175.211.277.179-.018.047.131.477.318.127-.01.018.123.186.153.233.063-.011.102-.16.032-.012.394.356.361.025.222-.171.266L57.054 31l.345.052.146.127.299.023.33.24.438-.097.339.278.367.033.088.142.276.055.357.39.16-.024-.01-.427 2.507-4.32.264.312v.247l.123.062.175.29-.068.087-.093.376-.397.025-.01.443 1.41.605.025.577.184.464.513 1.825.252 1.533.15 1.45v.285l-.088.492.182.062-.095.255-.54.083-.072.167-.12.09-.977-.07-.037.135-1.257.428-.12-.048-.587.003-.368-.325-.04-.102-.047-.004-.328.247-.197.032-.077.011-.207-.222-.105-.358-.09-.04-.03-.171-.313-.296-.113.441-.874-.402-.263.342-.772-.468-.405.568-.204-.117-.143.448-.531-.366-.288-.015-.13-.124-.07.03-.073.163-.38-.004-.229.09-.043-.156-.16-.062.014-.12-.178-.081-.164.167-.204.073-.208-.012-.193-.08-.139.102-.4.046-.514-.015-.128-.095-.244.018-.153.338.072.256-.165.622-.354.364-.258.022v.288l-.237.03-.134.135-.32-.078-.5.092.046.283.118.294-.109.52.098.222-.635.653-.248.495-.232.076-.33-.52-.432.21-.986.89-.547.416-.016.289-.381-.073-.099.314-.221-.036.165.17.148.325.258.052"/></svg>