<svg width="256" height="256" viewBox="0 0 67.733 67.733" xmlns="http://www.w3.org/2000/svg"><path style="fill:none;stroke:#000;stroke-width:.26458333;stroke-linecap:butt;stroke-linejoin:miter;stroke-opacity:1;stroke-miterlimit:4;stroke-dasharray:none" d="m42.17 34.16.219.29-.506.7.527-.011.248.258.118-.032.032.215-.064.774.29.011.13.215.171-.032.205.162.043.268.193.28.302 1.012.44 1.226.313.506.312.204-.054.172-.366-.226-.439.296-.662.928-.045.304-.046.898.274.51.122.129-.069.114-.258-.015v.297l.167.106-.023.145-.16.16-.007.151.296.563.038.503v.988l-.205.4-.236.183-.414.145-.108.328-.624.689-.204.188-.06.167-.236-.13-1.033.14-.124.56-.382.005-.247.054-.011.301.124.043.075.173-.027.118-.172.043.022.403-.006.36.167.232-.334.818-.435 1.076-.334.161-.118.183-.016.269-1.13 1.404-.403.29-.329.011-.14.242-.242.248-.263-.011-.29-.07-.253-.06-.167-.144-.242-.065-.253-.398-.172-.124-.011-.333.048-.242s-.43-.108-.451-.108c-.022 0-.425.032-.425.032l-.2.054-.16-.102-.087-.006.092.248-.027.307-.2.14-.225-.022-.215-.14.016-.36-.194-.076-.194-.242-.027-.226-.166-.253-.097-.317-.161-.15-.329-.162-.339-.097-.21-.037-.128-.07.026.199-.387.317.22.366.447.479.258.532.232.307v.226l-.296-.011-.178-.22-.43-.162-.215-.35-.414.011-.603-.145-.113.35-.624.672.167.301-.043.2-.264.096-.258.285.006.2-.146.274-.263.29.107.14.006.124-.065.123.049.178-.043.172-.382.403-.544-.355-.086.436-.113.102-.414-.059-.602.258v.178l.177.134-.172.2-.57-.41-.28.038-.403-.118-.173.204-.333.232-.124.193-.538.15-.355.146-.183.016-.23.203-.05.194-.403.46-.023.442-.536-.24-.457-.247-.19.205-.224-.015-.065-.213.133-.441-.175-.077-.392-.467-.213-.217h-.213l-.095.258-.928.465-.114-.153-.179-.106-.194.13.24.102.106.696-.152.285.015.145-.365.494-.137.64-.479-.084-.57.243.114.145-.327.25-.16.19-.16-.136-.266.175v.22l-.145.13-.175-.091-.213-.061-.106.471-.244-.083.054.35-.373.076.13.083-.282.464-.38-.114.045.145-.259.327-.19-.198-.563.586-.099.03-.106.251.03.198-.152.092-.114-.084-.175-.046-.22-.258-.221.182-.19.449-.077.38.023.312.053.152-.16.366-.167.076-.167-.183-.259-.076h-.099l-.06.175-.183.114-.046.16-.243-.122-.297-.289-.243-.152-.548-.426-.251-.183-.122-.334-.25-.411-.579-.008-.297-.16.054-.296.167-.92.403-.541.122-.57-.396-.997-.022-.19-.38-.297-.237-.023-.38.259-.091.312-.662.456-.251-.707-.426-.556.06-.167-.121-.213.22-.396.115-.258v-.206l.09-.167.107-.418.1-.084-.29-.464-.243-.19-.266-.054-.153.1-.038.098-.433-.076-.03-.25-.457-.51.015-.45.16-.433.13-.22.03-.61.418-.144.403-.045.16-.19-.137-.32.107-.312.144-.122.122-.403.106-.35.008-.205.51-.282-.137-.243-.046-.236-.145-.015-.007-.236-.327-.046.06.259-.197-.046-.122-.19-.266.19-.084-.167.1-.22-.115-.244-.228.03-.388-.084-.054-.06-.304.304-.312-.57.206-.29-.114-.304-.244-.213-.335.099-.76-.51-.016.29-.547-.381-.358-.023-.456-.38-.297-.092-.335-.54-.266.008-.091-.419-.168-.045.107-.168-.015-.121.213.083.121.038-.015-.281.312-.175.16-.236.395-.053-.045-.213.114-.046.137.069.053-.312.206-.251.25-.023.214.06.007.077.091-.152-.106-.22-.152-.1.068-.76.198.038.053.129.274-.008-.122-.175.008-.304-.16-.205.13-.221.197.114-.022-.243.137-.038.121.03-.023-.213-.25-.327.38-.145.281.13.32-.236.258-.206.19.03.107-.052-.13-.107.085-.106.182.076.06-.061-.014-.198.213-.06.129.182.19-.076.107-.092.023-.175.266-.289.122.046.076-.038-.092-.145.13-.09.121-.039.175-.19.358-.046.13-.106.19-.107.015-.144.175-.122-.137-.152-.03-.122.212-.41-.091-.26.076-.228.205-.038.328-.836-.077-.221.29-.251.228-.03.403-.13-.555-.54.296-.335-.03-.494 1.187-1.21.121-.068.282-.723.03-.974.198-.19-.144-.076.09-.205.123-.069-.274-.297-.092.023-.083-.13.091-.174.084-.16.304-.144.084-.016-.016-.464.206-.182-.373-.388-.06-.396.357-.144.099-.305.228-.182.008-.48.562-.098.396-.267.974.076.624-.44.426-.564.137-.03.213-.19-.153-.206-.167-.198-.19-.03-.126-.202.048-.264.016-.188.092-.129.107-.645.694.129-.156-.253-.58-.038.09-.71-.128-.204.23-.167-.51-.344-.15-.371-.216-.119-.516-.064-.017-.259-.21-.29.006-.231.06-.296-.356-1.178.194-.404-.231-.42-.146-.23-.462-.662.236-.253.054-.554.205.064-.011-.247.339-.156.242-.194.086-.263.215-.097.145.215-.102.215.005.242.377-.14.414-.032.436.145.226-.408.506.021-.017.108.35-.35-.124-.124.119-.15.236.048.113-.167-.005-.387.145-.183-.113-.484-.091-.091.08-.624.124-.162-.253-.339.027-.107.22-.011.006-.194-.193-.188.091-.366.016-.167.086-.177.301-.694.318-.237.301.033.334.075.247-.172.258-.049.248.086.269.097.226.011.016-.156h-.178l-.312-.204-.371-.119-.307-.199-.23-.253-.426-.704-.016-.15-.334-.125-.08-2.323.188-.474.312-.355-.285-.15-.355.053-.242.124h-.355l-.08-.231-.13-.259.118-.156-.043-.317-.043-.188.135-.006.075-.5.172-.005.226.306.092-.059.328.21.21-.038.215.2.123.01.393.27.097-.065.194.07.059.204.102-.016-.016-.264.51-.161.146-.172.258-.113.312.08.081.065.242-.403.285-.393.237-.097.274.022.194-.119.215-.43.409.043.237.032.059.371.28.011.35.016.403-.048.392-.01.165-.119m0 0 .152-.51-.457-.563v-.494l-.213-.266.069-.122.03-.327.282-.266-.183-.404.013-.243h.185l.095.124.146.07.075-.048.002-.118-.436-.23-.023-.209-.198-.197-.271-.43-.13-.025-.22-.296-.175-.054-.056-.228.056-.17-.124-.226-.134-.29-.008-.223-.215-.138-.07-.201.062-.164-.17-.186-.037-.26s.244-.27.255-.278c.01-.008.137.073.137.073l.03.18.285.188.28.226.18.425.027.783 1.003.091-.167-.352.016-.202-.239-.102-.021-.32-.11-.105v-.226L22.95 2l.002-.576.08-.08.402-.544 1.202.446.605.095.42-.213-.022-.132.172-.115 1.7 1.503.043.272-.215.046.482.39.949.925.28.14.113.153.661.422h.28l.18-.18.721.043.175.202.212-.495.382-.062.119.231-.003.31.07.08.452-.067.32.613.952-.825.167-.014.28.076.15.118.196-.003.062-.142.412-.07.094-.051.266.035.08.287.103-.075h.328l.051.051.1-.016.083-.33.479-.092.403.796-.258.145-.298.035.258.299.465.632.046.298.218.113.17.266.08.59.745.629-.005.29.336.463.433 1.439-.283.282.06.148-.127.2-.29.072.156.433-.229.108-.253.002-.374.178.14.161-.325 1.644.164.094.072.204.347.049.097.153.304-.051.543-.32.103.035-.003.29-.282.277.645.508.14.471.175.11.71-.29.26.116.16-.02.255.157-.054.177.006.159.048.083-.032.167-.191.1-.076.443-.107.264.03.33.239.235-.086.126-.232.06-.061.09.048.149.091-.062.116.027.027.089-.159.188.06.126.32-.234.53-.094.123.113.28-.086-.04-.422.193-.178.374.108.28-.054.417-.046-.264-.228.14-.425.395-.667.293-.06.143-.177.164-.022.051-.346.24-.25.677-.022.073-.296.194-.229.376-.005.326-.511-.23-.387.173-.086.019-.29.25-.06.167-.463-.092-.118-.07.043.003.207-.266-.089-.256-.83.347-.186.008-.312.5-.393.049-.328.22-.003.065-.172.188.005.097-.14-.037-.123.395-.207.005-.328.234-.008.043-.498.831.003.24-.2.25.092.299-.032.242-.084.23.003.17-.08.369.32.043.228.315.032.156.18-.09 1.001.194.277.09-.355-.044-.089.363-.29-.107-.092.035-.263.551-.323.094.067v.678l-.075.067-.019.694.196.218.732-.01-.145-.353-.194-.043-.048-.178-.202-.137.175-.376.062-.487.29-.573-.15-.245.102-.634.183-.02.317-.427.121.132.64.594.215.076.119.142-.051.266.075.076.091-.033h.207l.162.342-.092.39.167.26-.03.568.054.208-.115.131-.259.06-.258-.022-.24.148-.395.516-.476-.01-.091.4.45-.129.061.046-.013.194.373.088.302.267.035.072.156-.107.059.013.118.783-.134.078.05.247-.177.124.242.186-.196.156-.29-.2-1.692.867.032.043.078-.003.621 1.033-.201.188.897.43.354.22.186.05.27.228.077-.046.178-.262.16-.525.251-.487.053-.22.18-.005.208.126.035-.099.163-.095h.084l-.02-.103.092-.285-.08-.186-.315-.206.14-.403.225-.148.015-.118.114-.004.088.16.083-.095-.072-.187.13-.19.132-.023.21-.19.616.285.304-.376.533.437-.023.361 1.061.563.167.02.221.197.21-.16-.016-.19-.175-.152.464-.395.654.27.267-.073.44.13.115.152.323.156.202.023.087-.012.061.107-.019.05.179.144.453-.122.327.224.156-.323.27-.103.125.358-.814.75.609.574.137-.08-.065-.521.438-.122.559.574.083.164.175.163-.015.255.487.213.004.137.335.095.11.464.384.27-.103.396-.049.772-.126.259-.224-.145-.563.324.065.372.03.213.175.156-.034.316-.107.122-.034.312-.065.144-.11-.053-.007.125.209.134.3.182-.05.21-.208.06-.263.012-.133.205-.255-.019-.106-.08-.156.046-.37-.266-.075.11.019.167.091.13-.13.395.054.331.084.164.175.133.057.198-.19.213-.092.22-.266-.011-.107.06.023.217-.019.149-.232.05-.068.014.08.145-.02.125-.14.134-.13.095-.041-.023-.004.133-.202.293-.045.259.125.057.122.528.597.457.145.232.121.46.22.16.252.232-.046.255.251.289.02.175-.225.274.86.886-.069.213-.148.027-.217-.202h-.354l.088.186-.149.43.118.16-.16.198.248.232-.038.502.198.502.308.068.175.217-.19.114-.058.141-.289.114-.198-.05-.11.838 1.107 2.08.099.03.011.244-.44.536-.126 1.91.361 1.03.03.328h-.118l.012.684.426-.019.038.172-.118.224-.05.502.217.259-.022.152-.19.019-.221.35.277.297.126-.05.11.122-.247.243.133.297-.042.224.312.316-.357.658-.879.464-.217.053-.764 1.145-.168.206-.296.274-.396.494-.19-.038-.422-.053-.415.06-.403.141-.308-.019-.202-.08-.118.08-.277-.019-.187.229-.247-.156-.361-.08-.3-.05-.092-.152-.057-.17-.126-.104-.277.236-.217-.186-.137.011-.506-.384-.015-.213.064-.103-.391-.544.034-.49-.244-.247.118-.073.015-.365-.144-.019-.35-.316-.502-.053-.517-.764.045-.118-.89-.156-.38.304-.388-.122-.434-.441.274-.224.236-.221s.114-.426.114-.441l.042-.772-.3-.788.364-.125-.372-.529.422-.145-.084-.205-.41-.449-.012-.787.35-.19.133.007.13-.091.27.053-.008-.148-.883-.308.042-.59-.308-.175.284-1.805.108-.118.021-.269.226-.15-.764-.603-.452-.527.022-.398-2.243-1.108.097-.867.258-.575-.748-1.594.13-.297-1.089-.418-.357.09-.266-.11-.339-.346-.057-.395-.114-.148.738-.944-.141-.217-.053-.213-.156-.19-.023-.236-.388.244-.48.799-.224.064-.053.305.232.137-.194.399.084.137-.187.156-.506-.194.008.06.171.107.03.126.252.156.182.574-.582-.186-.186.099-.883-.282-.395 1.278.43.13-.012.121-.133.091-.023.21-.228.32.034.277-.285.171.076.247.084.038-.46.624-.868.483-.125.244-.928.825-.18.034-.052-.3-.088.16-.179.095-.232.197-.011.187-.072.064-.057-.026-.1.13v.292l-.14.468-.765.863"/></svg>