<svg width="256" height="256" viewBox="0 0 67.733 67.733" xmlns="http://www.w3.org/2000/svg"><path style="fill:none;stroke:#000;stroke-width:.26458333;stroke-linecap:butt;stroke-linejoin:miter;stroke-opacity:1;stroke-miterlimit:4;stroke-dasharray:none" d="m40.027 15.701.018-.036-.139-.2-.03-.097-.394-.563.176-.079.06-.2.212.097.108-.037.222.111.112.291.162.154-.06.129.146.026.137.205.069.009.017-.309.137.018.017.05.223-.068.35.086-.025.214.18.249.265.154.138-.009.085.043.214-.12.017-.12.24-.043.18-.145.197.334-.025.145.445.883.111.428.18-.06-.017.206.137.18.189-.026.042.137-.068.12.043.24.214.077.265.488.146.034.137.24.128.385.069.12v.181l.246-.009-.121-.16.042-.073.19-.024.104-.073.064.463.215.055.212-.049.36.055.433.045.076-.075.63.015.03.154.336.327-.054-.37.224-.13.13-.184.209-.034.063-.127.149.028.006.218.079.024-.01.245.119.064-.025.157-.06.06.32.158.113.23.16.01.234.239.003.178.103.003.018.08.1.06-.025.215-.06-.006.024.184-.09.046.05.12h.1l-.02.11-.064.054.048.082.091-.006.021.118-.054.097.148.27-.094.151-.084.076.1.082.087.018.015.109-.127.042.003.14.103-.022.158-.163.215-.124.272.12-.084.18-.043.127.185-.034.127-.075.2.012-.11.248.025.406-.03.306.657-.003 1.154.348.527.83-.264.923.57-.09h.32l-.014.175.17-.003.048-.133.218.012.151.064.04.106.166-.015.036.072.373.003.015.137-.288.266-.082-.006-.096.118-.385-.021-.07-.049-.136.106-.142.146.04.045.18-.042.476.236.091-.055.115.037.1.051.23.064.106.018.191.097.07.103.081.003-.012.173.1.02.124-.117.094.009.052.106.112.012.097.194.136-.03.185.133.127-.006.14-.125.2-.003.09-.17.112-.114.13-.049.112-.154.14-.085.17.015.03.04.175-.013.058-.072.082.003.02.063.08-.015-.01-.079.085-.012.088.091.051-.027-.02-.236.084-.067.312.015.03-.045h.091l.027.109.14-.024.139.124.073-.121.366-.01.13.076.037.06.084-.036.155.11-.082.218.121.148.046.309-.121.209-.16.082.08.163.086.212-.049.073.115.027.07.24-.015.587-.612.745-.103.19-.39.267.042.158.142.427-.03.205.048.252-.081.1.078.097.018.203.21.06.084.115.082.582.042.024.085-.018.176.088.457.411.188-.015.42-.024.222.4.151.094.055.13.09.054.025.2-.003.118.23.164v.294l.136.112.191.533-.288.009-.1.303.54 1.038.29 1.057-.284.091-.194.364-.082.424.342.484.188.106.179-.194.175.043.212-.085.394.094.394.42.085.276-.049.167-.142.097-.037.266-.084.33.009.37.13.136.601.035.384.116.278.184.261.015.39.262.214.207.418.092.781.343-.385.447-.12-.064-.356-.036-.276.312-.259.572-.17.124.183.549.24.42.051.3.129.076-.035.292-.008.24-.12.042.043.18-.095.274-.18.317-.042.3-.052.291-.162.077-.189-.017-.128.103.145.068-.034.172-.231.265-.403.06-.3.283-.197.12-.085-.206-.334-.034-.137-.017-.06.128-.069.223-.026.248.163.009.094.36.095.265.154.103.034.146.36-.035-.189.66-.23-.077-.36.308-.01.12-.368.086-.17.06-.326-.034-.018-.18-.53-.009-.18.24-.66.163-.017.077-.129-.069.017.249.18.248-.077.214h.232l.068.103.248-.017.026.12-.128.334.171.377-.814 1.156-.41-.06-.48-.034.017.137-.172-.086-.565.377-.231-.008-.343.317-.094.376-.334-.102-.035-.292-1.396-1.276-.608-.497-.248-.257-.292-.385-.35-.437-.36-.428s-.078-.095-.112-.103c-.034-.009-.454-.034-.454-.034l-.274.034-.394.154-.18.283-.377-.077-.565-.026-.223-.154-1.679-.506-2.278-.668-2.167-.48-2.013-.402-1.722-.111-.95.12-.643-.146-1.182-.48-.634-.36-.428-.428-.48-.3-.3.069-.223-.18-.034-.103.137.069.137-.009-.051-.162-.154-.01-.283-.042-.086-.12.155-.205.222-.103-.137-.266-.317-.06-.188.017-.3.163.026.112.197-.018.077.069-.111.154s-.112-.017-.18.009c-.069.025-.137.111-.172.025-.034-.085-.077-.162-.068-.214.008-.051.026-.085.017-.12-.009-.034-.223-.282-.223-.282l-.287-.309-.184-.124v-.068l-2.03-.784-.368-.009-1.255-.527-.647-.218-2.904-1.045-2.235-.77-1.328-.395-.3-.026-1.584-.608-1.217-.48-1.156-.282-1.353-.583-.266.009-.488-.317-.394.043-.017-.129.214-.197-.094-.3-.06-.12-.48-.342-1.285-.882-.12-.274-.36-.352-1.961-.848-.146-.034-1.781-.754-.078-.162.232-.069-.009-.308-1.028-.994-.805.163.009-.129.205-.102-.128-.197-.137.18-.206-.06-.197-.12-.163.077-.077-.283-.231-.197-.266.009-.265-.043.086-.231-.052-.36-.308-.463-.48-.488-.702-.522-.12-.292-.351-.376.034-.215-.189-.24-.154-.24-1.045-.616-.18-.043-.154-.163-.788-.41-.608-.326-.385-.052-.36-.094-.403-.137-.574.06-.342.052-.24.342-.334.197-.017-.111.034-.18-.06-.214-.403-.189-.248-.188-.034-.514.094-.146s-.103-.29-.103-.334c0-.043.034-.428.034-.428l.077-.385-.145-.257.274-.232.111-.437.197-.102.086-.257.326-.017.394-.138.522-.017.334-.18.317.018.111.111.617-.086.06-.394.428-.008.283-.086.146-.094.197-.06.025-.394.163-.094.3.265.137-.137-.223-.146.257-.145-.094-.334.171-.103-.171-.257v-.128l.094-.103-.025-.231-.215-.249.017-.154L5.33 21l.292-.35v-.155l.188-.137-.334-.463-.017-.514.086-.548.42-.231.213-.394.497-.197.634-.291.711-.086.24.086.068.205.129.06.505-.154.223.017.214-.077.189.086.11.171.206.197.078.317.137.24.051.3.223.085.162.163.18-.06.189.189.342.025.129.189.377-.095.222.069.163-.163.223.129.163-.163.197.009.171-.155.146-.085.222.128.317.026.052.086.025-.369.514-.154h.146l.18-.111.188.034.223-.137.18.137.154-.077.454.137s.343-.06.377-.069c.034-.008.24.266.24.266l.488-.034.283.188.162-.094.206.12.608.051.283-.188.47-.172.164.095.154-.077.137.522.377.043.317.377-.086.24.026.154h.282l.043-.197.257.137.094.026.069-.24-.017-.172.214.017.163.146.12-.18.034-.214.154-.103.274.129.086.111.462.052.42-.138.308.574-.017.112.189.034.163.12.18-.009.205.197.094.223.154.043.069-.231.223-.06.18.162-.01.274.147.129.042.18.274.197.18.171.077-.265.189-.103.146-.069.137-.102.068-.146.094-.154.06-.129-.103-.154-.54-.317-.128-.248-.111-.009-.711-.497-.163.077-.145-.317-.317-.325-.197-.009-.351-.71.102-.771.095-.394-.078-.086.018-.249-.129-.17.069-.198-.095-.18h-.265l.043-.222v-.12l.128-.274-.077-.232-.248-.043.008-.248-.068-.445.265-.266-.162-.591.162-.231.06-.154.334-.12.154-.017.043.18.206-.01v.138l.3.026-.009.222.163.154.043.403.085-.069.137-.102.129-.163.111-.171.223-.129.094-.205.129-.086.017-.103.18-.137.214-.197.094-.086.076.197.145.103.194.194.242.127.17.127.206.121.115-.14.327.261.23-.085.158.2.024.212-.133.079.085.2.127-.145.17.072.2-.018.078.315.182-.048.139-.049.248.351-.296.321-.043.267-.121.206.054.23-.181.115-.249.085-.084.145-.006.158-.103.224.006.236.145.145.067.14.163.042.152-.097.2.121.175.285-.079.085-.012.242-.09.188-.134.23.073.188.224.363.145.127.134-.175.097-.236.218-.091.23.151.224.418.042.382-.194.418-.09.211-.037.249.037.09.26.019.2.182.14.266.284.158.188.2.151.12.206-.193.26.133s.049-.103.049-.127c0-.024-.097-.267-.097-.267l.206-.406.176-.12.163.108.11-.12.199-.298.236-.09.097-.013s-.042-.103.012-.103c.055 0 .2.007.2.007l.14-.206.006-.121.06-.116.194-.042s.036-.14.085-.14c.048 0 .163.013.163.013l.079-.146.17-.09.096-.11.255-.163.194.006.072-.109.103-.327.08-.188.066-.206-.2-.254.163-.097.2.145.218-.127.224-.145-.018-.085.176-.012.151.242.23.218-.006.243.17-.085.182.079.187.09.243-.454.484-.224h.073l.37-.297.248-.006.17.024.2.14-.05-.212.25-.115.175.03.17-.012.017-.17.17-.018.103.103.17-.182.018-.181-.049-.085.055-.2.17-.164.006-.163.205-.14-.072-.175.32-.29.019-.189.351.03.158.019.242.23.133.06z"/></svg>