<svg width="256" height="256" viewBox="0 0 67.733 67.733" xmlns="http://www.w3.org/2000/svg"><path style="fill:none;stroke:#000;stroke-width:.26458333;stroke-linecap:butt;stroke-linejoin:miter;stroke-opacity:1;stroke-miterlimit:4;stroke-dasharray:none" d="m48.354 54.953-.048.343-.4.257-.17.184.179.46-.322.287.198.362.698.4.169.04.03.248-.09.114.198.624-.03.6-.138-.04-.005-.313-.124.14-.158-.05.223.916-.699.084-.51.153-.128-.104-1.05.148-.319-.144-.066.098.038.133-.186-.028-.07.204-.567.283-.16.175-.33-.045-.039.469-.16.161-.099.263-.003.325-.448-.21.007-.392.189-.165.035-.805-.056-.08-.235-.028.126.122-.003.067-.375.27-.207.024-.175-.035-.122-.207-.19.07-.178.207-.112-.053-.203.046-.098-.077.052-.175.333-.26.452-.01.185-.326-.087-.168-.95.039-.3.315-.308.686-.89.035-.367-.2-.431.403-.441.102-.284.171-.42.039-.378.308-.392.497-.182-.157-.035.07-.368-.007-.084-.06-.137.095-.168-.15-.056-.484-.213-.27-.021-.29-.28-.067-.252-.35-.312-.171-.182.101.031.266.014.315-.084.14-.07.361-.574.056-.003-.178-.074-.088.014-.119-.102-.032-.3.186-.361-.052-.61-.49-.143.03-.126.12-.245-.007-.193.102-.101-.109-.263-.15.007.812-.49.203-.245-.056-.158-.224-.105-.564-.56.098-.06-.256.032-.115-.028-.042.543-.459.224-.031-.102-.088v-.168l-.101-.182.101-.175.19.003.129-.168-.284-.147-.115-.238-.147-.063-.277.025-.116-.063-.13-.014-.01-.095.08-.02-.024-.155-.252-.056.014-.29.371-.42.14-.081-.62-.603-.507-.024-.168-.105-.196.091h-.707l-.14.175-.442.018-.378.164-.136.004-.08.049-.043.14-.368.28-.58-.69-.162-.032-.031-.049-.105-.01-.161-.154-.07-.014.01.144.084.07.035.112-.116.084.074.045-.158.368-.406.192.021.046.2.035.29.171.14.14.11-.084.122.165-.659.462-.507.014-.056.553-.508-.119-.301-.367.014-.102-.203-.112-.252.14-.056.13-.067-.05-.042-.332-.774.26-.41-.305-.504.003-.213.161-.71-.024-.162-.15-.459.02-.063-.098-.241.203-.196.123-.112-.175-.274-.01.021-.365.186-.207.039-.595.164-.178-.09-.06-.334.067-.003-.578-.105-.074.087-.115-.133-.525.12-.109.357-.003.052-.182-.105-.225-.301.032-.109-.249-.21-.171-.038-.144-.165-.09.109-1.093.423-.095 1.107.182.266-1.05-.214-.29-.014-.081-.98-.014-.28-.438-.2.014-.203-.36-.322-.022-.052.361-.34-.003-.301-.137-.01-.098.132-.063-.077-.091.032-.231.301-.21-.032-.063-.115-.098.252-.2-.417-.056.007-.312.12-.031-.018-.056-.14.003-.235-.241-.382-.01-.34.45-.115.057-.014.035-.217-.074.021-.203.095-.031-.046-.12-.122.011-.074.217h-.168l-.252-.108.021-.29-.095-.015-.238.203-.203-.14-.189-.028-.09-.003-.218.283.063.112-.115.06-.246-.028-.035-.116-.115-.031-.007-.12-.112-.003.018.224-.172.21-.242-.02-.056.024.039.158-.014.098.01.15-.227-.02-.014-.291-.15-.092-.137-.06-.112-.055-.109.052-.028.067.067.098-.074.224-.126.224-.042.098.263.305-.07.318-.155.05-.094-.14-.084.024.007.091-.105.014-.01-.053-.029.204-.2.143.18.175-.018.27-.231.031-.098-.09-.235.167.053.144-.14.189.02.175.088.021-.039.13-.2.038-.118-.112-.179-.035-.105.046-.031.087.01.105-.08.06.028.196.017.168-.283.16-.186-.045-.06-.276-.15-.105-.368-.032-.084-.227-.308.189-.214.13-.208-.04-.094.094-.223-.099-.247-.193-.144-.005-.084-.149.005-.079-.287.084-.08.169-.138-.084-.114.193-.06.089-.341.025-.08-.04.125-.129-.154-.173-.09-.188-.118-.084-.485.21-.092.102-.41.037-.028.163-.218.102.037.339-.015.052-.329.005.022-.127.04-.094-.208-.208-.072.038-.017.061-.114-.002-.037-.015-.121.208-.322-.062.062-.369.113.037.085.082.067-.052-.003-.18s-.054-.097-.082-.107a3.058 3.058 0 0 1-.178-.1l-.314.335-.124-.111.072-.03-.018-.106.08-.077-.075-.233-.252-.052.106-.23-.067-.18.186-.026-.062-.168-.332-.24-.005-.19.057-.068-.017-.074-.203-.109.168-.17.218-.097-.012-.055-.243-.032-.027-.064.277-.226.114-.05-.017-.076-.23-.04-.184.058-.274-.273.18-.101.117-.072-.193-.124-.176.015-.067-.092.173-.22.28-.094.094-.223-.096-.09-.377-.054-.183-.423-.094.01-.06.037-.532-.047-.124.072v.047l-.354.05.037.235.1.17.101.105-.06.22-.297-.01-.047-.394-.242-.129.07-.448.128-.319.23-.29-.141-.331-.054.195-.077.141-.21.097-.37.017-.378-.005-.236.12-.26-.132-.235-.067-.114-.114-.297-.022.03-.164h.18l.147-.46.099.032.062-.089.188-.037a.6.6 0 0 0-.047-.126l-.124-.055-.02-.193.117-.094.03-.235.128-.092.032-.18.094.002.04-.114.096-.02.02-.176.174-.081.148.012.022-.104-.022-.22.052-.055-.08-.089.038-.077.047-.04-.082-.257.248-.262.252-.136.033-.181.116-.134.072.025.05-.305.244-.242-.027-.186-.116-.324.47-.09.062.114.258.018.074.185.09-.173.143-.022-.015-.21.15-.29.02-.255.162-.094-.018-.067-.096-.042.007-.161.2-.22.058-.322.096-.097-.17-.149.036-.158.072-.077-.03-.077-.046-.02.042-.28-.139-.167-.215-.043-.03-.076.072-.122-.03-.527-.173.176-.114.002-.06-.163-.304.025-.107-.052-.16.096L3 40.097l-.01-.216-.158-.13.044-.459.174-.522-.085-.149-.24-.052-.351.035-.102-.3.19-.225-.019-.156-.17-.015-.07.104-.565-.01-.017-.106.114-.09-.02-.069-.285-.069-.05-.34.199-.21-.087-.104-.067-.086-.071.06-.11.021-.178-.185-.297-.094.258-.617.163.005-.067-.111.045-.067.09-.114.034-.258-.052-.173-.045-.109.1-.015.017-.143.108-.087.206-.022.156-.196.139-.067.31.015.14-.04.61-.64.059-.164-.025-.087-.04-.133.132-.067.108-.253.142-.176.111-.086.154-.196.193-.141.109-.047.024-.265.337.052.126-.017s.161-.258.164-.268c.002-.01.205.055.205.055l.141.034.023-.052.054.043.008.071.071-.074.018-.146s-.085-.126-.082-.139l.06-.336.1-.228.127-.173.203-.159-.074-.072-.012-.27.12-.017.34-.438-.054-.119.01-.087.101-.111.027-.597.134-.104-.017-.213.069-.074.047-.25.119-.052.012-.134.426-.327-.062-.482.074-.149.137-.134.908-.02.08-.106.183-.01.064-.077.21-.061-.076-.362-.117-.045-.099.06-.054-.02-.037-.58.349.043.215-.166.015-.144-.126-.062.168-.27.094.008.037-.253.47.278.164-.102-.067-.228.104-.346-.05-.322.248-.168-.02-.921.223-.362.293-.074-.322-.396.114-.12.158.036-.05-.228.293-.08.208.06.133-.243.718-.099.174.12.104-.04.06-.159.336-.282.252.143.362.005.178-.213.342-.163.034-.381-.128-.342.015-.381.074-.441-.426-.56-.277-.207-.179-.233-.099-.01v-.164l.47-.371.53-.07.293.01.42-.222.258.02.228-.164.287.144.322-.1-.168-.35.024-.115-.04-.158-.168.035-.069-.194.04-.193-.07-.084.03-.292-.995-1.258.03-.089-.164-.134-.139.075-.108-.09.069-.38.43-.184.03-.198.09-.05-.06-.168.139-.119v-.104l.14-.047.006-.119.076-.04-.022-.18-.136-.027.007-.149.052-.024v-.05l-.071-.015.01-.096.05-.072.066.022.01-.089.317-.312.062-.327.257.119-.012-.198.03-.223.099-.074-.1-.159-.237-.005-.04-.232.1-.342.207-.208-.06-.08.05-.143-.024-.128.005-.11s.099-.089.118-.108c.02-.02.263-.51.263-.51l-.342-.297-.074-.174.218-.044.183.153.312-.757-.297.05-.292-.135-.035-.99-.114-.119-.01-.198.773-.015.544.035 1.818-1.45.222.044.01.069.218-.134.075.094.836-.01.367-.173 1.228-.238 1.178.12.436.267.386.416.208-.253.456-.04.064-.049 1.253.228-.035.435.798.694.797.544.698.13m0 0 2.015-.392.134.025 1.327.218.06.203.123-.154.52.08.273.237.193.322.54.02.178.361.693.213-.223.411.178.193.233.045-.005.228.198.054.748.258.129-.387.351.332.51.253-.579 1.332 1.11.46.168.302.495-.04.45.154.055-.198.183.119.154.213.307.143h.465l.124.184.01.163.218.154.094.331.301.061.088-.122.126.038.13.102.307-.01.13.202.277.13.031.245.168.077.543-.063.101-.235-.066-.185.122-.042.547.273-.19.389.057.241.066.147.109-.084.276-.014.371-.238.214-.263.41-.126.2.081.605-.33.014-.125 1.947-.039.049-.143-.091-.123.203-.084-.088-.378-.336-.511-.298-.06-.094-.168.347-.304.06-.014.262-.512-.004-.423.126-.116-.052-.098.154-.283-.007-.218.084-.006-.014-.13.101-.147.011-.147.077-.053.095.007v.046l.042-.004.049-.08.21.038.189.053.22-.046.19-.031.23.098.242-.21.172.07.066-.053.165.01.647-.353.792.273 1.38-.15.696.616.725.02.382.197.343.354.241-.137.137.01.357.46-.098.167-.028.22-.05.277.085.284.172-.028.259-.406.196-.039.591.666.148.066.546.406.672.547.427.99.315-.017h1.432l.466-.088.648.021.031.288-.23.343.335.255.123-.077.07.06-.102.252-.287.157.245.302-.038.143.094.235-.01.13.22.178.046-.067-.098-.259.994.34 1.037-.785.893-.133-.098.442.336-.154.241.147.372-.291.21-.018.234-.147-.056-.073-.07-.182.382-.217.175.22-.074.095.053.255-.105.134.154.13-.21.734.003.322.105.081-.133.389.102.154.171.06-.017.167-.193.214.004.157.09.13-.024.294-.48.511.074.315.4.042-.218.358.025.077-.091.017.255.441.161.046.417.508.105.006.487-.248.007-.19-.056-.132.833-.07.235.133.336.014.413.213-.158.361-.56.704.018.735.164.161.14.284-1.407-.249-.22.333-.712.532-.105-.032.032.326-.879.623-.109.203-.525.361-.322-.063-.2-.133-.248-.021-.319-.161-.126.07-.385-.07-.01-.126-.226-.146-.084-.096-1.161-.317-.077-.47-.074.004-.154.161-.099-.094.146-.163-.928-.072-.404.508-.166.215.188.027.142.196-.174.28.05.123-.384 1.375-.277.623.138.02.04.139-.109.158.054.382-.118.163.168.144.005.222.371.357-.069.203-.015.322-.163.188-.005.154-.169.128-.193-.015-.386-.242-.223-.005-.104-.094-.178-.02-.129.129.11.119.103.386-.277.391h-.074l.014.074.095.11-.203.272.02.079.222.302-.03.183-.163.109.01.139.198.104.119.133v.124l-.272.07-.595.094-.594.292-.089-.035-.243-.178-.05-.174-.158.005-.01-.044-1.134-.005-.138.188-.065-.025-.054-.05-.401-.093-1.025-.689-.703-.292-.144.198.228.258-.01.604-.09.158-.97-.01-.094.104.045.104.138.154-.02.099-.945.698-1.713-.015-.451.11-1.149-.352-.02-.614-.203-.055-.247-.094.06.584-.387-.024-.01.158-.178.153-.297.58-.154.168.188.5-1.614.718-.124.223-.153.045-.184.153.03.248.505.06-.158.88.143.263.268.416-.01.371-.931.312-.065.12-.252.177.218.387.173.327-.089.257.06.163.173.1.4.084.293 1.08.401-.145.233.03.124.302.118.04.09.109.049-.055.56.258-.045.223.253.43.024.411.134.213-.114.03.025.51-.52.01-.084.931.124-.01.044.183-.139.149.075.074.163.005.045.104-.094.144.099.188.094.044.04.223.049.188.05.104-.005 1.312.302.342.074.768.148.024.758.02.921.317.01.159.144.128-.005.134.312.342.05.257.014.802.282.297.332.005.59.441.039.287.053.125.084-.014.161.224.112-.035.161.161-.028.12.147.16-.378.365-.157.101-.046.28-.196.137.01.077-.115.049.056.507.15-.035.067.151.067.007.02.224-.377.22.014.162-.158.101.046.168-.274.581"/></svg>