<svg width="256" height="256" viewBox="0 0 67.733 67.733" xmlns="http://www.w3.org/2000/svg"><path style="fill:#000;stroke:none;stroke-width:.26458333;stroke-linecap:butt;stroke-linejoin:miter;stroke-miterlimit:4;stroke-dasharray:none;stroke-opacity:1;fill-opacity:1" d="m29.62 5.42.837-.408.643.03.207.03.015-.245.415-.03.192.075.066-.015.023-.163.392-.14.163.51.2-.11.192.28.066.4.015.34v.14l.192.104-.007.148.178.133-.037.222-.111.163.214.185.126-.052.407.17.022.289-.259-.096-.333.207.34.126.163.421.252.023.015.244.414.385.06.466.28-.082.267-.251.34-.023-.044.23.17.192.28.237.23.007.318.222.2.096.281-.066.422-.067.185.193.178-.237-.074-.222.022-.178-.267.015-.45-.562.502.044-.03.281.237-.2.459.23.118.37.267-.126.074-.163-.14-.244.783.022.17-.229.119.118.067.237.266.008.177-.193.156.074.451-.103.17.407-.103.28.052.186.251-.133-.022-.296.044-.437.193-.23.007-.132.185-.156.237.148.185.008.222.384.732.022.747-.473.267-.207-.022-.178.295-.925-.059-.155.06-.362-.223-.037-.103-.156.007-.177.311-.17-.178-.245.023-.207.022-.288.177-.067-.155-.104.067-.133-.119-.318-.207.022-.222-.155-.51-.303-.592.044-.43-.296-.303-.148-.273-.444-.267-.177.333-.407.688.081.111-.2.156-.148.103-.31.244-.104.06.155.125-.066.14.022.053.126.118-.133.133.044.022.133.407.045.267-.111.229-.237.015-.185.266-.045.037.17.104-.177.28.007.09.023.266-.2.281-.081.037-.141h.118l.03.155.111-.133.17.015.052.133.163.008.077.062-.077.141.137.067.114.177.119-.107.1.07.014.163.137.033.16-.066.044-.13-.156-.026-.107-.1.093-.173.229-.174-.037-.193.115-.125.125.17.385-.289.033-.2.252.019.06.266.162-.044.2.114v.168l.083.14.006.32-.032.1v.125l-.026.261.225.262-.073.162-.43.11-.193-.157-.157.063-.324.314.078.261-.868 1.256-.016.235-.732.885.047.047.183-.037.727.696.173-.079.214.006.073.015.069-.178 1.114.032-.026.68-.367.078.048.241.167.037.173-.058.157.141.429.325-.22.198.078.09.225-.048.136.173-.083.157.078.392.141.2.21-.011.188.162v.162l.063.057.099-.057.314.293.037.188.319.01.293-.151.256-.052.094-.079.173.005.083.147.069.068.272-.105.177-.015.189.057.22-.104.245-.01.1-.1-.021-.189.141-.235.22-.058.413-.334.115-.11.189.052.052.073.115-.02.141.156.084-.01.11-.189.188-.324.304-.016.256.142.026.183-.11.083.016.356-.115.272-.021.157-.277.147-.152.14.005.153.084.125h.172l.225.079.027.178.491-.142h.09l.078.047.104.178.241.157.298-.303.345-.194.063-.21.298-.109.204.084-.041.162.041.052.22-.015.21.345-.131.235.23.178.24.141-.057.173-.141.079-.084.188.183-.021.188-.152.204.021.12.152.231.02.13.299.68.413.174.204-.048.377-.041.183-.12.021.03.136.095.235-.037.56-.073.24-.12.121-.131.032.01.177.053.2-.142.104-.099-.01-.073-.152-.157.057h-.173l-.152-.167s-.104-.115-.125-.126l-.068-.036-.063.052.016.105.068.14-.005.132-.236.057-.125.076-.063.133.008.207.07.196-.057.22-.43.157.027.188-.073.278.263.222-.192.274-.074.37-.37-.178-.06.489-.25.192-.104.533.207.266.325-.06.089.238-.192.074.103.28-.37.149-.547.103-.148.666-.252.43.296.177-.03.148-.029.118.178.207-.311.119.107.158-.01.314.293.094-.042.21.021.083.398.073.533-.042-.272.617-.01.304-.24-.042-.252-.167v.146l.063.168-.105.125-.167-.146-.251.261-.618.084-.376.02-.377.262-.157-.209.262-.47-.021-.179-.115.147-.168-.126-.136.042-.105.335-.47.303-.293-.272-.314-.303.91-.398.063-.146-.21-.168-.261-.156v-.2l-.827-.23-.02-.261.104-.105-.063-.25.136-.315-.031-.146-.262.293-.23-.199-.22-.052-.062.188-.053.136-.429.063h-.272l-.167-.157-.21.073-.303.251-.575.032-.032.282-.366.188-.031.2-.168.303v.397l.021.262-.146.492-.188.094-.157.178.073.178.052.46.398.513-.387.24-.398.042-.094.22-.544.042-.45.167-.168-.335-.272-.01.084.25.188.179-.146.125-.21.063-.418.366.115.419-.293.387-.46.283.261.418.2.366.198.073.126-.334.23-.408.282-.126.136-.251.44-.22.492-.282.533-.168.513-.512.356-.45.565-.46.146.209-.21.544-.177.324.01.167-.429.325v.366l-.115.084-.104-.23-.262.115.032.397-.042.408-.105.147v.146l-.429.22-.282.293-.147.178-.21.188.126.419.136.303.084.46.199.21.031.491-.083.21-.241-.115-.408-.053-.199-.209-.21.199-.26.261-.053.23-.031.827-.032.398-.22.25-.23.44-.533.314-.074.23-.397.157-.24.084-.053.105-.21-.073-.46.25.094.22h.22l.188.43.304.292.261.335.408.314.032.23v.157l.146.293.021.408v.555l.094.188-.073.22.178.199.063.585-.168.325.042.23h.21l.198.345.482.262.177.157.168-.115.282.104.21-.115.303.147.43-.042.449.115 1.433-1.852 1.057-.785.44.147.209-.126.377.094.313-.167.168-.24.785-.346.031-.408.126-.303-.042-.262.68-.66.387-.177.21-.251.01-.147.188-.157.575-.7.293-.032.23.063.032-.21.21-.041.062-.157-.042-.22.251-.22h.2l.167-.199.22.042.114-.042.262.136.146-.02.053.073.083-.136.377-.042.492-.555.314-.313-.094-.565.261.03.251-.344.262-.314-.032-.251.293.22-.03-.294h.146l-.2-.157.095-.094.178.021.324-.408v-.24l.21.062.094-.01-.105-.283.23-.178.262.21-.01-.22.219-.283-.042-.418.178-.251.188-.23v-.23l-.104-.2-.094-.22.22-.072.167.209.989 1.443.126-.052.347.14.208.17.11.903-.325.4.688 2.027-.303.23.126.103.458-.037.459.222.096.148-.214.081-.06.215-.088.089.266.333-.192.295-.185.245-.326-.023.015.252-.148.14.096.607s-.17.067-.214.074c-.045.008-.178.215-.178.215l-.362.03-.385.37-.326-.03-.451.17-.303.466.096.096-.14.31.073.2-.473.363.066.222-.458.318.037.185-.215.074.015.26-.237.088.089.318-.488.34.066.23-.207.237-.303.059-.296.133-.333-.067-.23.148-.532-.266.074.355v.4l-.037.466.096.162-.333.097-.289.148-.473-.17-.289.17-.45-.126-.26-.244-.089-.067-.251.096h-.185l-.119.111.067.222-.015.2-.192.081-.118.385-.163.155-.415.2-.081.178.163.925.155.443.4.17.28-.044.127-.126.251-.022.045-.126.125-.014.163-.355.17-.156.385-.044.155.081.126-.089-.03-.207.222-.155.163-.222.4-.222.155.081.207.104.156.052.28.333.215.251.074-.081.326.436.037.281-.222.067.06.185.05.155.252.208.17.044.134.31.163.141.088.037-.066.34-.045.245v.214l.111.074-.133.133.008.163-.208.03-.022.177.252.045.207-.06.266.052.244.156.193.022.17-.178.118.09-.118.25-.06.245.023.259-.237.177-.177.008-.111.03-.222-.082-.096.222-.074.37-.296.103-.141.245-.215.044-.214.067-.081.074.022.207-.2.414-.126.673-.414.34.059.237.133.282-.007.125.362.23-.014.192-.215.326-.052.392.503.732-.68.718-.659.081L58.97 53l-.28.007-.156-.118-.126.067-.155.222-.03.185.2.221-.2.074-.288-.074-.422-.037-.237.023v.088l.274.074.096.126-.244.222-.067.03.015.148-.155.066.14.067.185.007.03.148-.215.222-.296.089-.273-.03.022.185.022.444-.178.17-.347.163-.148.111-.008.156-.088.051v.193l-.422.207-.237.318-.103.178.207.118.2.126.488-.089.177.074.34.007.208.178.052.318.044.392.148.06.178.014.125.222-.03.148.075.133.066.237-.074.148.178.14.237.304.14.17.111.126.2-.104.192-.089.133.008-.11.155.014.045.23-.023.207.104.14.126.267.074.133.17-.14.03-.052.088.11.185-.059.237v.222l-.303.14-.289.03-.125-.059-.14.155-.341.222-.193.281-.599.156-.333.074-.214-.185-.193-.104-.2-.074.082.34-.148-.036-.289-.26-.088.104-.378-.066-.133-.09-.23.12-.362.021-.2.097.037.318-.022.2s.09.221.148.221c.06 0 .296-.059.296-.059l-.133.459.052.266-1.946 2.753-1.162-.26-.547.149-.562-.008-.178-.126-.4.17-.503-.088-.318-.052-.14.118.096.148-.163.141-.155-.022-.126.155-.629.015-.407-.488.067-.141-.23-.43-.347.356-.296-.06-.082-.132h-.229l-.074-.355-.103-.06-.444.134-.26.577-.362.407-.4.377h-.384l-.31-.074-.067.185-.222-.045-.156-.258-.296-.067-.251.11-.207-.006.059-.215-.111-.222-.178-.2-.081-.28.074-.304.126-.207-.052-.208-.008-.355.09-.074.354.318.163-.103.244.14.289-.177.17-.052.296-.03.015-.11-.178-.126-.214-.096-.156-.289.2-.052.052-.451.133-.192v-.126l-.192-.267-.09-.347v-.311l.238-.192.31-.09.215-.036.081.089.082-.156.088-.547.03-.415.126-.2-.422-.273-.067-.148-.044-.178-.06-.185-.273-.007-.148-.14.008-.097-.274-.162-.237-.163.015-.311-.237-.252-.163-.229-.251-.281-.185-.044-.207.081-.082.104.067.303-.03.251-.133.023-.244-.119-.525-.584.88-.821-.089-.282-.251.185-.045.26-.518-.2-.486.157-.334-.439-.523-.02-.23-.42-.44.022-.21.125-.543-.272-.524.314.168.272-.147.314-1.548-.712v-.104l-.272-.042.063-.398-.482-.376-.314.314-.544-.21-.46.356.084.23-.335-.084-.189.252-.167.355.335.251v.44l.084.293-.377.146-.44-.083-.523 1.38-.481.294-.272-.293-1.59-.921.313-.105-.586-1.067-.23-.084.105-.104 1.82-.816.409.209.094-.167-.283-.2.189-.104-.01-.272-.039-.866-.222.045-.28-.281-.415-.119-.089-.266-.518.089.148-.518h.474l.621-.622.385-.03.281-.058.03-.43-.03-.414-.163-.222.133-.532-.133-.267-.444-.074v-.488l-.296-.074-.77-.696-.28.444-.267-.03-.118.652.192.296-.28.77.029.31-.178.207v.178l.193.266.296.518-.859.089-.148-.281-.03-.726.149-.088-.148-.163.177-.104-.118-.088-.03-.326-.606.237.088.266.015.192-.28.208-.045.503-.43-.385.163-.991-.148-.074-.414-.03.015-.296-.385-.266-.192.118-.281-.015-.326.104-.429-.104-.237.163-.355-.044H26.1l-.119.592-.251-.074.03.384-.4.148.044.237-.458.089.103.207-.325-.06-.045.312-.458.517-.045.311-.384.133.192.755.325.104.03-.163.118.266-.192.414-.192.074v.237l-.119.074.178.503-.43.607-.221-.133-.281.148-.119.473-.754.06-.222.28v.311h-.311l-.074.208-.31.059-.415.577.015.34-.134.237.237.192-.355.178-.325.133-.356-.237-.148-.015-.088.296.014.326-.31.118-.193-.103H18.79l-.126.273-.273.045-.126-.215.2-.14-.052-.09h-.2l.067-.288.296-.081-.134-.237-.17-.377.111-.392.074-.459.244-.118-.081-.296.044-.215-.34-.081-.207-.119-.866.348-.251-.266.007-.363-.163-.155-.614-.451.289-.46-.052-.14-.326.193-.392.11-.296-.118-.273-.096-.156-.23-.222-.132.355-1.702-.11-.14.051-.208.34-.03.274-.125.178.081.037-.177-.06-.326.038-.177.185-.023.066-.148-.037-.162.267-.252-.111-.54-.267-.888-.03-.096-.406-.518-.022-.274-.496-.444-.252-.229-.044-.296-.06-.362-.103-.163-.266-.2-.111-.325-.111-.274-.355-.385-.222-.244.044-.237h.23l.236-.103-.377-.725-.326.074-.088.325-.222.111-.14-.06-.282.03-.111.045-.111-.163-.111-.11-.178-.016-.096.074-.244-.03-.037.141-.148.074-.296.015-.31-.2-.2-.014-1.043.895-.141-.111-.133-.378-.17-.148h-.422l-.23-.621-.258.044-.097.348-.17.237-.118-.03-.163-.236-.629-.037-.177.17-.4.007-.185-.126-.57-.318-.177-.244-1.739-1.598.148-.104.008-.185L2.4 42.656l-.12.162-.512.272.921-10.082.244.037.525-.133.356-.274.355-.051.11-.208.496-.044.407-.155.252.14.303-.022.082-.163.148-.17.059-.178.599-.073.03-.185.318.162.177.09-.015-.2.222-.023.222.037.215-.303.274-.104.037-.118.31-.074.045-.244.407-.037.266-.126.289.096.318.178-.022.2h.251l.23-.422.458-.163.045-.222.155-.222.266.163.096-.111-.059-.348.148-.118.037-.074.163-.052.2-.17.54-.104.288.008.237-.356.607-.229.414-.074.008-.177-.134-.17-.2-.26.156-.133-.03-.185-.606-.562-.355-.11-.104-.156-.178-.274s-.185-.355-.185-.385c0-.03-.03-.34-.03-.37 0-.03.149-.31.149-.31l.533-.26.125-.133.126.06.074-.2.422-.207.089-.037-.067-.104.037-.163.104-.014.03-.208.125-.007-.096-.096-.185-.466.214.177.37-.34-.384-.067.007-.17h.155l.06-.185.236-.244.015-.296-.17-.296.237-.222.096.037.222-.236.17.007.074-.155.237.014.103-.325.133-.045.2.245.037-.17-.052-.23.156-.362-.022-.34.236-.275-.014-.259s0-.14.03-.147c.029-.008.406-.074.406-.074l.31-.119v-.281l-.11-.155.037-.134-.06-.096.445-.23-.023-.214.023-.177.207-.089.192-.362-.052-.23.074-.192-.266-.252-.008-.28.134-.149-.008-.244.037-.326.14-.258.12-.074V15.6l-.016-.163.26-.074.103-.156.163-.03.11-.295.075-.281-.015-.185-.215-.244-.214-.074-.015-.237.259-.037.081-.14s-.14-.2-.17-.186c-.03.015-.281.185-.281.185l-.222.074-.163-.259.045-.148-.156-.066-.03-.2s-.177-.237-.177-.266c0-.03.089-.385.089-.385l.4-.081.177.051.118.074.281-.088.26-.074.207.14.185-.118.17.103.081-.244-.052-.23.03-.391.177-.133.09-.163.08.052.23-.23.03-.096.503-.333.273.207h.208l.266.289.148.148.06-.045-.008.245.096.096.17-.052.23.185-.052.155.34.178.422.237.28-.296.208-.126.118.148.222.03.326.051.11-.081-.029-.252.215-.103.266-.126.37-.015.303-.4-.03-.155.215-.059.244-.052.489-.288.2.022.318-.237.185.008.074.14.54.015-.008-.185s.03-.14.082-.14c.051 0 .266.125.266.125l.2-.059.118.044.163-.155.244-.044.111-.082.096-.14s.104-.052.074-.052-.251-.089-.251-.089.014-.2.044-.207c.03-.007.274.067.274.067l.155-.09.185.112.06.244-.178.037-.2.2.185.133.215-.2.088-.007.06-.148.103-.17.074-.222.074-.104-.303-1.206-.015-.178-.111-.125-.407-.037-.2-.252-.022-.37.17-.14.378-.178.207-.214.015-.474.03-.289-.164-.258.037-.134.274.097.326-.148.244.037z"/></svg>