<svg width="256" height="256" viewBox="0 0 67.733 67.733" xmlns="http://www.w3.org/2000/svg"><path style="fill:none;stroke:#000;stroke-width:.26458333;stroke-linecap:butt;stroke-linejoin:miter;stroke-opacity:1;stroke-miterlimit:4;stroke-dasharray:none" d="m29.515 1.376.116.27.615-.005.138.083.326-.027.083-.04.122.018.066.066.648.033.337.188.028.388-.188.337-.033.343-.094.26.16.271-.155.177-.791.271-.172.189-.232.105-.127.01-.083.2.127.21-.06.139-.189-.017-.15.36.05.127.122.088-.1.709-.21-.022.022.287.095.16-.006.084-.227.033.017.177.15.16.104.067-.044.232-.16.011-.222.393-.044.2-.277.31-.133.265.205.53.067.36-.072.172.188.476.282.194.188.752.066.16.095-.248.21-.51.077-.813.194-.31-.25-.592.012-.442.238-.2.288-.31-.028-.763.2-.559.237-.481.072-.526.177-.658.127-.116.338.01.116-.232.21-.033.377.232.237.072.183-.088.116.116.078.122.138-.128.46-.138.304.083.088.15-.044.071v.155l.06.172.194.028.078.1-.116.226.138.365.15.365.05.42.082.156.044.122-.171.188-.194.144-.166-.006-.027.133.05.166-.15.415-.05.393-.127.132-.393-.127-.072.017.033.11-.077.233.039.27.143.178.216.144h.11l.134.199-.266.349-.315.392.005.21-.426.87-.15.182-.21.465.012.232.53.16.217-.105.155.006.094.116.232.022.177-.226.216.044-.017-.266.16-.171.31-.017.139.255.127.005.105-.11.244.005.016.1-.055.094.05.127h.31l.27-.028.161.045.271-.105.144-.078.105-.282-.033-.498.072-.15-.1-.298.294.039.1-.449.381.072.061-.083-.083-.072.039-.088.299-.2.475-.121.404.177.205-.277-.194-.077-.005-.271.1-.321-.023-.133-.293-.022-.266.271-.132.006.05-.371-.178-.15.028-.072.188-.1.061-.204-.343-.016.028-.255.01-.243.355-.227.199.033.2-.338.054.194.111.022.327-.238v-.116l.337.039.16.199.266.039.21-.21.122-.012.1.11.033.195.055.143.089.006.1-.094.116-.022s.166.15.154.177c-.01.027 0 .31 0 .31l-.149.199-.188.166-.249.01-.072.084-.028.293-.132.26-.028.327.133.083.26-.067.144-.293.26.077.227-.022.215.028.25.011.381-.033.299.282-.022.205.121.166.128.038.116.045.088.144-.06.26-.139.149-.066.089v.121l-.288-.016-.243.238.038.182-.06.25v.326l.155.077.1.006.215.155-.017.171-.376.299-.282-.028-.028-.033-.133.072-.121.166-.056.088-.193-.005-.022.337.16.078.548.072.044.442-.066.028.016.255-.36.221-.116-.116-.293.105-.094.06-.315-.01-.133-.05-.15.105.023.205.121.127v.133l-.232.044-.194-.039-.354-.171-.066.027.039.128-.255-.061-.144-.11-.066-.206-.51.366-.093.188-.487.31.005.404h-.503l-.288.171v.138l-.205-.155-.503.465-.028.15-.276.453-.16.011-.14.089-.038.216.05.166-.1.01-.348-.353-.437.315.005.177-.675-.01.017.331.243.15.177.16.16.011.073-.044.033.016.265.498-.066.349-.155.36-.122.365-.177.16-.26.62.05.193.089.454-.133.194-.233-.083-.243-.144h-.072l-.077.205-.023.36-.282-.017-.15-.238-.309-.094-.365.376-.16.006-.067-.05h-.083l-.077.265.046.285.274.32-.055.11-.164.008-.118.141.078.188-.164.235.235.125.368-.07-.016.226.188.305.305-.086.14.173v.266l.455.39.156-.038.031-.626.18-.172.446.078.235.43.352.391-.055.61-.657.079-.461.313-.188-.063-.384-.242-.328.148-.259-.039-.234.141-.102.211s-.454-.078-.5-.078c-.048 0-.11.204-.11.204l-.149.125.07.516.204-.195.595-.133.117.156.368-.055-.055.321-.055.25.118.204-.087.337-.313.062.525.423h.125l.125.281-.07.313.211.032.07.313.157.164.149.07.406.047.25-.195.016-.165.384-.047.094.243.368-.117.148-.18.618.023.274.118.032.195-.133.04.32.453.313.556.086-.055.157.258.196.157.242.039.086-.188.22-.055.218-.008.07-.148.22.047.164.203.235-.195-.047-.173.117-.18.384.047.313-.164.344.11.07.226.447-.023.172.094.274.219.18-.164.438.007.305-.187.235-.282-.329-.078-.383-.478.047-.101.258-.102.14-.117v-.18l-.156-.321-.062-.25.39-.932-.015-.195.243-.141h.14l-.015.203.383.188.086-.18.126-.164.203.023.211.258.196.055.305.235.016.227.555.11.11-.415.407-.047.258-.478.156-.187.04-.329.281-.149.25.133.009-.407.14-.03.126.148.18-.305.187.148.196.079.11-.094-.07-.274.218-.133h.227l.07-.172-.007-.47.188.016.352.485-.024.219h.313l.454-.376h.055l.023-.367-.203-.17-.067-.172.122-.128.007-.211-.086-.063.094-.219.274-.219h-.203l-.04-.235.22-.148.039-.282.156-.078-.297-.212.133-.25-.438-.04-.345-.124-.187.031-.07-.125.03-.196.047-.164-.305-.024-.14-.18-.087-.187h-.07l-.07.101-.243-.039-.18-.133-.18-.485.055-.587-.485-.172.062-.149.22-.03.265-.18.227-.212.18-.376.118.047.156.016.102-.086.055-.211.219.101h.117l-.023-.258.18-.156.11.023.109-.22.759.017.195.148.282.094v.11l.665-.016.227.25.884.423.133.149.298-.016.039.211-.055.118.172.03.665.228-.039.117.571.102.079.125.579.352.117-.11h.164l.204-.32-.118-.094.07-.18.353-.023.055.187.352-.015.246.043.172-.133.133-.536.607.023.156-.282.063.063.031.055.29-.055.055-.258.234-.149.29-.461.227-.157-.016-.211.274-.165.11.055.125-.305.14-.29.173-.14.047-.47.242.008.032-.172 2.253-.767h.642l-.063-.493-.548-.016-.133.235-.242-.5-.02-.36-.152-.141-.04-.18.145-.008.2.113.09.168.352-.187.059-.63.371.015.165.098.219.028.113-.098.427.004.121.246.156.032.208-.141.317.262-.024.121.345.215.113.192.313.113.18.29.239.106.054.277.126.122-.012.144.23-.004.18-.242.306.172.14-.078.376.015.055.654.047.508-.074.087.07.101.149.04.29.45.074-.122.097-.05.204.242-.46.527-.281-.034-.437-.027.082.127.045.531.287.028-.154.548-.2-.083-.01.077.22.21-.237.454.044.155-.205.221.006.15.188.016-.006.443-.149.072-.31.382.091.055.006.357-.219.052-.03.158.036.122-.18.13-.138.008-.011.133.116.02.67.88.04.348.103-.025.033.34.125.163-.277.122-.13-.08-.395.097-.166.132-.197-.027-.36.083-.174.163.318.202.283.362-.064.498.083.152-.011.371-.12.028-.229.182-.238-.013-.149-.106-.113.108-.103.186-.21.022-.014-.094-.454.116-.323.16.063.2-.013.166-.142.121-.044.656-.069.147-.088.509-.103.047-.207-.083-.153.002.036.277-.132.11-.164.037-.052-.014.03.182.13.047.034.258-.247.171-.63.056-.009.406-.315.258-.177.467-.014.324-.16.304-.147.122-.025.171-.166.285.017.36-.122.077-.208-.063-.03.16-.271.022-.451.393-.277.653-.453.255-.51.232.144.188-.1.376-.187-.066-.078.32.387.09.122.22-.177.178.221.022v.133l-.033.077h.3l.11-.11.077.055-.055.254.32.133.1.188-.1.465.111.288.388-.011.1.077.11-.122.077.067.078.443.11.11v.277l.09.21-.222.398-.31.764-.31-.1-.086-.072-.063.051.059.176-.164.243-.012.203-.427.368.012.415-.5.61.085.125-.086.18-.133.032-.125.258-.094.008-.149.211-.532.047-.336-.102-.047.235-.297.22-.243.038-.188-.102-.328.235-.603.157-.61-.43-.102.148-.869.344h-.626l-.5-.187-.728.273-.743.47.187.172-.094.18-.156.078-.211-.11-.125.228-.094-.047-.04-.196-.07-.04-.18.236-.336.101-.079-.14-.11-.016-.07.305-.14.297-.313.157-.33-.14-.304.124-.047.384.11.336-.032.204-.203.062-.61-.031-.173.196-.235.046-.219.087-.117.125-.25-.055-.423.008.133.164.149.18-.055.196-.337.07-.367-.258-.173-.337.04-.21-1.174-.236-.32-.093.093.305.344.305-.031.149h-.25l-.173-.227h-.125l-.055.203-.54.031-.14-.219-.462.024-.11.297.173.11-.04.219-.156.203.274.595.016.391-.204.305-.196.259.282.532.313.07.305-.383.61-.235.548.328.33.235.336-.164 1.486.399.376.438.516.509-.015.148-.102.063.149.493-.055.133-.18.11-.04.203.142.235-.282.156-.657-.094-.392.533.149.03.023.682.447.493.015.203-.282.368.126.18.313.579.336.242.188-.023.274.102.102.328-.196.18.258.65-.188.532-.266.219.086.094.243-.086.313-.266.368.062.078.227.047.125.751-.187.5-.446.189-.047.07.54.376.07.101.336-.336.22-.04.195.275.094.078.282-.11.062-.195-.164-.133.164.039.196-.235.423-.11.093-.273.642-.04.415-.172.156-.148.016-.196.485-.086.524-.102.274-.305.36-.485-.25.063-.266-.07-.04-.142.173-.461-.078-.227-.22-.368.259-.133-.055-.595.571-.219-.063-.195.22-.212-.04-.195-.148-.274.11-.196.265-.415.243-.383-.047-.383.352-.016.564-.548-.282-.164.102.094.344-.047.438.43.454-.023.164-.58-.039-.062.391-.383-.11-.188.22.102.282-.478.344-.29.375.024.188-.555.47-.517-.141-.438-.462-.14-.211.007-.196-.125-.29-.282-.293-.703.349h-.183l-.227.1-.53.287-.255-.094-.332-.01-.321.126-.382.078-.133-.25-.536-.01-.106.027-.094-.166-.326.338-.122-.387.028-.144-.127-.288.166-.221-.133-.233-.294-.304-.215-.304.06-.26.078-.177-.06-.327.126-.166.061-.188.061-.299.188-.155.033-.282-.254-.299-.006-.293.072-.21.028-.338-.033-.741.21-.293.133-.399-.089-.116-.36-.066-.16-.194-.005-.16-.443-.56-.183-.027-.188-.221-.01-.277-.593-.68.144-.46-.166-.155-.548.233-.171-.061-.443.177-.387.426.022.194-.31.166-.32-.034-.444.266h-.171l-.443.304-.127-.066.044-.415-.177-.011-.326.155-.144-.078.017-.155-.222-.016-.21-.277-.221.072.143.277-.016.083-1.162-.365-.177-.332-.332.1-.68-.31-.15-.189-.15.017-.154.21-.183.504.017.21.188.022-.078.277-.171.392-.05.133-.465.332.033.194-.282.138.205.515-.11.133h-.454l-.094.138-.26-.138-.238.188.016.193-.144.017-.16-.177-.221.039-.377-.222-.26.028-.11.127-.283.061-.193-.088-.21.354-.255.027-.194-.149-.116-.017-.171.305-.155.016-.022-.133-.117-.077-.293.221-.188.022-.028-.121.072-.16-.027-.062-.272.139-.26.01.04.128-.04.127-.238.094-.171.128.006.221.005.105-.238.039-.055-.15-.055-.005-.056.122-.11-.04.038-.248-.105-.127-.177.15-.315-.25-.105.033.01.105-.409.271.011.172-.199.083.061.183-.205.487-.116.01-.055-.088-.083-.033-.083.127.11.172.083.022-.05.232-.392-.088-.144-.15.094-.127-.033-.089-.139.111-.31-.083-.348-.11-.116-.012-.1-.138-.144.282-.232-.105.11-.221.144.016.034-.226-.288-.272-.321.072-.21-.11.022-.15.105-.044-.11-.055-.416.144h-.138l-.083-.122-.205-.033-.105.15-.188-.084-.066.172-.111.044-.006-.227.095-.122.033-.31.238-.243.066-.144-.006-.133-.365-.21-.31-.017v.072l.061.061-.005.083-.603.061.016.133-.193-.017-.095-.166-.691-.282-.52-.382-.227-.265-.233-.271-.486-.388-.189-.121.011-.133.078-.083.11.016.006-.326-.193-.216.071-.094-.575-.454-.133-.204.271.01-.077-.121-.05-.21-.243-.194-.078-.177.045-.277-.023-.293-.215-.398-.255-.238-.238.011-.138.133-.277-.222.067-.199-.244-.232-.277-.072-.237-.044-.111-.205-.426-.41-.387-.343-.034-.27-.503-.454-.028-.188-.548-.626-.1-.387-.298-.504-.487-.553-1.422-2.086-.863-1.72-.194-.537.011-1.195.16-.25-.292-.796-.227-.083-.122-.011-.094-.426-.487-.42-.658-.643-.366-.863-.088-.647.182-.055.122.1.044-.062.017-.265.183-.011.215-.266.205-.044.365-.42.233-.073.116.039.431-.188.415-.006.427-.077.27.072.25-.11.315.021.144.078.138-.139.465-.016.238-.133.597.127.421-.155.216-.05.32-.22.371-.26.377-.333.193-.481.16-.399-.055-.381-.282-.288-.332-.21-.077-.216.166-.105.083.094.133-.327.16-.121.227-.648.714-.47.249.105.204-.343-.188-.293.139-.277.127-.498.348-.503.515-.42.498-.405.609.017.055.182-.017.144.166.045.277-.183.315.05.244.155.094-.039.127-.194.293-.15.227-.06.321-.105.122-.06-.072-.184.177-.182.343-.26.465-.31.072-.205.299.072.249.056.204-.089.205-.138.127.287.244-.05.199.09.182-.134.089.133.055.37.404.355.116-.011.078.16.077.133.338.232.094.034.266.077.265.089.304-.128.404-.01.399.265.1.138-.078.128.276.304.283.476.326.381.31.31.299.194.188-.05.144.244.188-.045.315.294.299.426.238.26.277.354.276.044.432.327.194.326.038.354.061.304.061.3.376.381-.005-.647-.106-.111.045-.127.36-.139-.067-.088-.216-.26.155-.526-.249-.47-.326-.697-.16-.011-.095.21-.487-.46-.498.133-.249.183-.116-.127.542-.443-.232-.088.055-.272-.1-.149.465-.1.26.15h.183l.282-.244.128-.62.21-.027.315-.282.1-.282.326-.288.188.017.133-.238-.404-.1-.166-.177.072-.465.2.011-.09-.216-.232-.22.288-.355-.155-.088.011-.338.227-.011.083-.266-.083-.121.21-.615-.232-.326.127-.515.288-.293.635.17.555-.09.16.035.216-.188.293-.035.106.297.106-.015.03-.125.529-.137.356-.411.41-.274.275-.145.203.04.172.258.274.03-.012-.183-.074-.125.149-.2.207.38-.043.172.372-.024.485-.242.329.16.324-.16-.137-.4.423-.488.317-.086.102-.204.418-.274.165-.68-.227-.075-.231-.02-.02-.144.27-.438.337.027.184-.145-.34-.254-.157-.446.023-.188-.372-.168.004-.192h-.227l-.101.204-.262-.051-.38-.411-.242-.016-.157-.207.094-.423-.344-.027-.204-.188-.023-.172-.392-.11-.074-.289.235-.344-.055-.2-.317-.297.18-.368.505-.512-.153-.345-.563-.481.223-.094.102-.11-.235-.277-.344-.004-.423.105-.34-.246-.806-.149-1.252.035-.255-.313-.285-.148-.215-.34-.192-.114.02-.203.187-.114-.004-.078-.293-.247-.063-.38.063-.19.309-.568.074-.384-.313-.266-.32.07-.337.232-.301-.04-.384-.281-.011-.274-.227-.043-.282.207-.282.227-.414.078-.223-.094.074-.36.121-.242-.11-.192.071-.387-.086-.583-.024-.532.263-.618-.032-.235.227-.325.168-.094-.027-.203-.153-.137.102-.14.075-.013.047-.59.133-.141.058.05.466-.641-.098-.23.059-.58.426-.027.176-.082-.094-.517.184-.45.262-.203.407-.016.157.23.246.24.2.093-.024-.18-.125-.34.082-.38-.281-.066-.15-.195.26-.13-.275-.262-.191-.078.16-.13.196-.238.277.024.196-.192h.18l.172.247.395.078.02-.137-.141-.13.22-.234.336-.125.219.098.082.097-.059.243.121.235.173.117.062.473-.168.333-.297.736.047.344-.196.09-.114-.074-.047.074-.015.313.352-.114.121.032.266-.278.29.063.156.129.11-.02.023-.168.133-.168.055-.353.188-.09.278-.356.18-.152.184-.286.183-.047.13-.266-.067-.27-.622-.336-.485-.419.078-.094.458.051-.391-.438.14-.157.016-.254-.43-.047-.18-.356-.102-.403.227-.27.043-.223-.23-.133-.09.133-.314-.364-.242-.066-.004-.125.223-.25.074-.2.286-.04.242-.262.947.004z"/></svg>