<svg width="256" height="256" viewBox="0 0 67.733 67.733" xmlns="http://www.w3.org/2000/svg"><path style="fill:none;stroke:#000;stroke-width:.26458333;stroke-linecap:butt;stroke-linejoin:miter;stroke-opacity:1;stroke-miterlimit:4;stroke-dasharray:none" d="m.462 42.71.06-.275.168-.134.08-.154.128-.027.074-.281.107-.181.074-.322.262-.027.127-.355.248-.027.067-.094.195.047.637-.41-.1-.22.08-.175-.108-.167.195-.255-.342-.329-.128-.18.49-.464.221.255.141-.053.107.107.047.194.128-.154.114.074.087-.45.194.014v-.208l.369-.04.181.08-.02-.187-.114-.275.228-.054.174-.134-.167-.208.134-.074.12.087.068-.127-.088-.188.275.02.06.094.302-.63.275.282.181-.135.597.054.094.208.288.067.476-.282.39.007.328.134.503-.228.094-.208.281-.053.128.013.757-.322.396.275.208.537-.054.208.443.435.45.295.562-.134.302-.462.302-.443.536-.335-.08-.148.013-.395.315-.161.208.127.188-.375.61-.054-.382-.396-.067-.61.047-.16-.107-.343.335-.134.456.382-.047-.643.261-.262.215-.235.362-.006.39-.067.596-.537.308.014.054.107.248.054.309-.255.228.027.69-.604.087.013.383-.228.368.296.39.12.214-.308.174.127-.027.362.423.134.302-.335.167-.577-.04-.301.342-.657.198-.067.107-.208.037-.443.349-.667.087-.044.248-.348-.104-.222.235-.278.248.15.047-.083-.198-.211-.11.064-.125-.064.188-.433.295-.154-.174-.278-.4-.09v-.316l-.093-.221-.396.201-.285.285-.747.252-.212-.074-.01-.289-.224-.137-.339.11-.332.212-.312-.02.208-.295.245-.674-.258-.781.187-.171-.103-.272-.42-.023-.399-.232-.368-.593-.047-.211-.211-.292.355-.463-.506-.687-.027-.533-.134-.201.533-.755.238-.006.362.12.285-.12-.174-.38.15-.204.212-.12-.222-.493.07-.165.115-.037-.003-.174-.64-.49-.246-.398-1.153-.37-.563-.09-.309.138-.167-.024-.315-.358-.493-.175-.771.198-.326.453-.187.01-.309-.212-.218-.409.03-.432.222-.164.187-.289-.013-.348-.245-.741.1-.165.051-.224-.157-.084-.004-.198.195-.208.543.02.137.138.55.013.05-.241.165.023.251.215.154-.01.01-.12-.268-.215-.208-.426.316-.11.476.23.855.078.197.147-.006.238.325.456.369.154.204-.221-.06-.191-.231-.134.067-.077.482-.064.088.094.117-.017.355-.302.138.054.392-.308.741.026.11-.077.027-.198-.083-.157-.01-.295-.017-.242.214-.238h.39l.237.098.202-.064.147-.332.094-.241.054-.175.271-.01.09.161.155-.017.194-.114.118-.184.234.057.007.154.057.077.014-.238.355.05.137-.137-.047-.07-.17-.175.026-.107 1.087-.614.673-.264.192.037.479.264.255-.07.452-.007.852-.365.08-.141.396.158.288.258.453-.024.339-.13.288-.242.168.057.147.037.339-.104.13-.218-.016-.208.315-.006.117.07.644-.024.238-.14.288.117.158.07.332-.077.45-.003.09-.228.157-.064.04.248-.08.262-.17.399.2.365.144.044-.01-.107-.144-.292.362-.268.453.07.17.312.296.01-.034.255-.305.204.084.289.332.224-.174.329.154.523.027.315.003.154.221.188.205-.12.134.083.034.161-.185.054-.074.12.145.064.1-.017.1-.17.202.043.08.272.108-.027.077-.38.814-.304.168.278-.097.11.094.034.194-.047.05-.134.36-.154.408.352.38-.03.173-.151.208.127.171-.04.134.13.027.189.121.006.15-.144-.036-.325.164-.124.225-.003.188-.436.134.02.047.057.1-.107-.15-.165.294-.362.08.104.088.02-.007-.137-.157-.315.174-.49.138-.013.218.144.278-.107.124-.215.322.003.157-.167.52-.03.104.194.446.211.278-.328.181-.05.232.107.107.184-.02.194.174.017.06.205-.05.18-.18.098-.031.174.174.104.087.004.04-.195.296-.05.348.302.155.244.613-.013.175.355-.195.751-.657-.107-.396.02-.033.637.221.114.12.322.162-.1.12.187.014.248-.289.047v.724l.269-.046.033.107-.235.717.094.168.141.013.51-.167.134.094.107.08.369-.02.201-.114.369.007.282.154.415-.114.443.12.134.269.275.094.04-.289.342-.033.416-.235-.637-.261.02-.101.275-.08.16-.342-.093-.322.127-.034.416.329.295.369.275-.275.832-.269.972.08.456.437-.376.409.161.268h.282l.436.362-.248.302.053.241-.503.309.047.234.376-.094.1.416.188.12.248-.08.067-.523.362.114.383-.154.51.39.335-.148.093.187v.067h.295l.114-.724.228-.027.235.262.242.08.207.517.047.248.201-.034.282.047.148-.167.409-.342.737-.228.282-.262.268.161.55-.013.147-.416.336-.228.67.02-.08.315-.128.08-.22-.08-.222.201.06.161.215-.08.201-.074.147.1.363-.154-.06-.2.214.013.02.757-.114.134.027.121.16.034.048-.309.134-.248.824-.57 1.006-.16.188.08.154-.114.51-.007-.154-.61.114-.014.12.208.074-.006-.147-.899-.51-.329-.16-.388.18-.135-.114-.382.402-.261.04-.356.128-.214-.027-.168.201-.221.168-.074-.007-.094-.18-.074-.128-.395.61-.563-.074-.188-.194-.141-.201-.376.134-.274.69.254.101.094.771.248.268.289.269.174.194.174.221.074.517.483-.047.275-.094.027-.047.308-.181.087-.436.456-.114.014-.007.1.63.195-.06.979.134.053.155-.194.1.054-.027.127.202-.06.2.033-.046.248.342.12.1.29-.087.086-.228-.248-.006.248-.027.054.02.161-.027.248.154.12.128-.073.254-.04.242.18-.208.155-.067.335.02 1.187.174.034.054.174.335.55.523.261.08-.04.068.04-.1.195-.497-.114-.147.114-.443-.027-.335.785.094.134-.094.174.107.188-.08.188.06.51-.074.314-.472.561-.274-.115-.087.303-.284-.144-.465-.002.03-.123.105-.16-.162-.002-.03.209-.418.206-.134.35-.096.152.34.419.112.247-.078.322.158.636.018.275.103.114.075.143.351.04.14.352.246.134-.133.18.026.36.284.03.16.228-.388-.03-.078.293-.114.16.036.238.133.02.188.314-.276.178-.496.472-.616.053-.229.15-.256-.048-.02.303-.23.284-.076.189.236.267-.143.084-.002.323-.247.084-.02.19.17.133-.115.303-.09.654-.124.35-.782.85.065.16-.133.104.32.381-.2.085-.094-.039-.153.16-.211.587-.124.047-.011.351-.058.095v.123l-.315.396-.533.33-.23.273-.122-.105-.495.31-.238.227-.199-.105-.076.094.17.276-.277.131.046.399-.228-.03-.05.436.142.096-.076.141-.256-.048-.144.255-.304.131-.276.274-.04.151-.085.019-.296.444-.237-.02-.133.132-.002.313-.267.197-.218.037-.373.596-.247.093-.036-.323-.113-.247.077-.217-.35-.249-.198-.067-.255-.248-.294.102-.354.463-.001.323.11.503-.294.178.111.494-.04.303.161.068.095-.038.141.238-.194.805.295-.084.14.314-.04.446.132.19.142.03-.292 1.42.431.932.256-.037.311.42 1.343.765.14.361.86.517-.535.737-.275.074-.258.226-.029.152-.208-.049-.613-.648-.084-.266-.056-.209-.199-.067-.049.293-.161.056-.302-.257-.208-.229-.33-.134-.378-.439-.244-.447-.522.15-.465-.05-.33-.249-.161-.067-.04.218-.076.246-.266.084-.238.065-.048.132-.257.15-.198-.19-.2.141-.284-.087.068-.331-.48-.458-.352-.02-.091-.618-.437.026-.788.262-.285.103-1.345-.264-.484.074-.141-.305-.265-.086-.512.016-.673-.08-.248.16-.483.055-.722.195.045.398h-.2l-.16-.22-1.006.26-.076.114-1.31.107-.131-.143-.484-.107-.103-.143-.332-.058-.396-.344-.046-.256-.18-.144-.082-.55-.265-.191-.102-.266-.294-.011-.124.103-.275-.01-.684.167-.132-.134-.037-.237-.208-.058-.835.147s-.409.112-.447.13c-.038.02-.808.385-.808.385l-.333.33-.049.18-.418.206-.063 1.09.386.553-.03.17-.392.785.216.362.291.542-.059.341-.095.104.283.314-.21.094-.104.056.216.352-.39.178.075.153.266.067.008.171-.256.027-.293-.087-.189-.238-.02.247.008.332-.894.384-.274-.097-.162-.01-.039.256.075.247-.769.11-.398-.154-.285.273-.655.025-.19-.02-.427.14-.322-.05-.393.748-.048.19-.258.263.075.228-.135.464.084.228-.172.237.15.446-.211.293-.211.239.065.302.194.182-.15.308.16.202.079.369.178.437-.369.119-.462-.197-.842-.548-1.64-.565-2.25-.616-.367-.15-.584-.01-.676-.197-.923-.34-.557-.01-.127.013-.435-.197-.329.052-.522-.124-.04-.114-.53-.117-.073.047-.207-.169-.45-.05-.019-.093-.36-.17-2.998-1.35-.656-.171-.207-.19-.523-.083-.24-.068-.088.06-.805-.038-.038-.255-.33.032-.12.08-.18-.149-.643-.318-.24-.055-.228-.129-.717-.057-.723-.266-.08-.014-.113-.195-.536-.197-.368-.083-.135.114-.253-.29-.235-.041-.153-.115-.215-.035-1.545-.76-.1-.16-.2-.082-.092-.302-.14-.337-.146-.067-.006-.248.002-.376-.173-.276-.299-.49-.127-.142.022-.242-.26-.31-.099-.342-1.154-1.026-.408-.344-.48-.297-.142.06-.18-.136.102-.22.127-.02.304-.42-.366-.459-.367-.404z"/></svg>