<svg width="256" height="256" viewBox="0 0 67.733 67.733" xmlns="http://www.w3.org/2000/svg"><path style="fill:none;fill-opacity:1;stroke:#000;stroke-width:.209848;stroke-linecap:butt;stroke-linejoin:miter;stroke-miterlimit:4;stroke-dasharray:none;stroke-opacity:1" d="m34.79 66.374.258-.14.047-.176.175-.128.105-.28-.129-.305-.035-.245s.035-.128.082-.14c.047-.012.514-.082.514-.082l.199-.058.058-.269.304-.128-.012-.257.35.011.281-.339-.023-.21.338.024-.023-.187.409-.433.198.012-.035-.269.27-.151.14-.503-.082-.198.14-.21.198.163.14-.175.129.175h.292l-.035-.21.35-.14.2.151.233-.14-.094-.128.327-.28.28-.012.118-.036.163-.128-.012-.093.082-.164.012-.245.058-.117.187-.07.024-.117-.152-.094-.035-.21-.094-.082-.023-.105.21-.14-.117-.117.21-.245-.151-.129.14-.093.082-.14.187.047.163-.106.28.55.2-.024.315-.035.058-.047.082.07.233-.058.374-.117.082-.058.117.21.269.012.128-.07.07-.106.035-.268.35.163.21-.105.071-.128.152.128.187-.163.163.035.386-.34.175-.034.199-.105.163.011.14-.116.094-.176-.023-.099-.012-.17.058-.18-.099-.2.03-.198.21.07h.169l.035-.186-.076-.152.082-.176-.076-.163-.064-.222-.006-.234.052-.198.111-.117.193-.047.275.012.192-.059-.216-.046-.187-.024-.116-.105.274-.076.345-.064.245-.053.28-.117.181-.192.182-.088.204-.082.275-.152.25-.093.228-.035.217-.21.327-.076.18-.193.31.07.146-.128.205.175.18.052.567-.151.1.075.128-.157.24-.158.07-.181.087-.152-.099-.199.088-.227.549-.333-.024-.263v-.216l-.186-.286-.257-.146.075-.135.24-.011-.111-.45.426-.684.217.03.134-.135h.403l.052.111h.252l.064.129.175-.129.105.187.327-.14.1.076.011.286.14-.012.094.152-.17.123-.005.07.24.082.034.222.322.192.017.24.222.006.088.344.04.035.38.018v.187l.28.269.193-.088.035.146.263.24-.228.262.514.322.106.017.333-.146.239.368h.199l.245.117.269-.035.146.082.017.216.152.04.018.351.052.152.024.199v.105l.216-.03.029.135-.1.25.112.089.076-.053.07.152.011.146.234-.006.14.164.152-.1.07-.157.502-.094.065.193.058.04-.035.147.216.52.006.099.532.304.14-.018.847-.426.595-.03.106-.023-.006-.263-.42-.315.449-.315-.321-.076.117-.129-.152-.374h.35l-.058-.17-.275-.028.006-.246.222.03.134-.252-.105-.151.105-.2-.187-.198.286.012.129-.146-.093-.204.14-.152-.065-.17.053-.099.158-.187.046-.438-.198-.234-.391.322-.123-.018.012-.093.093-.1-.012-.087-.099-.03.023-.105.252-.368-.1-.356-.1-.321.153.03.117.08.093-.063.018-.123-.123-.105-.193-.024-.245.018-.129-.041-.128-.128-.059-.21.129-.094.146-.327h.158l.046-.544.21-.105.088-.555-.257-.257-.122-.344.157-.503-.52-.373.1-.246-.345-.011-.017-.176-.146-.216.216-.006.04-.18.1-.135-.058-.228-.17.1-.023-.158-.17-.164.082-.128.175.093.111-.006.041-.233-.175-.164.047-.21.11-.356-.303-.719-.134-.076-.012-.257-.21-.087.152-.158-.024-.123.129.012.116-.14.158-.035-.087-.49.105-.141.099-.17-.07-.39-.152-.2-.222-.245-.088-.677-.116-.205.11-.117-.245-.076.135-.093-.041-.479.057-.138-.028-.083-.104-.14.083-.19-.132-.38-.132-.07-.161-.054-.038-.194-.198-.215-.004-.165.074-.104-.16-.272-.104-.02-.285-.286.037-.182-.09-.181-.12-.199-.021-.144-.128-.174-.005-.219-.165-.305-.025-.426-.086-.111-.009-.153-.078-.12.008-.19.112-.206-.087-.062.149-.103.16.024.141-.132.186-.17.14-.04.153-.12.1-.174.26-.206.037-.446.03-.108.203-.132-.025-.314.14-.13.011-.285.217-.256-1.066-.503-.776.642-1.075-.409.499-.579-.14-.099v-.318l.136-.173v-.137l.173-.115.07-.248.306-.29.223-.557.045-.148.161-.199-.04-.413.152-.124.1-.45.073-.124-.14-.132-.033-.24.297-.346-.022-.356.055-.121.252-.031.005-.372.276-.184.112.244.159-.037.192-.35.149-.076.398-.553.087-.4.078-.075-.033-.172.017-.159.078-.117.023-.3.052-.17.068-.14.15-.111.33-.21.038-.093-.012-.304.035-.125.196-.079.079-.1.02-.26.056-.066.149.011.07-.093.052-.172.193-.243.131-.423.103-.389.081-.298.038-.143.474-.087-.015-.406.19-.111.128.029.222-.234-.16-.07-.012-.114.134-.19.082-.038.02-.242.167-.117-.187-.17-.105-.551-.567-.301-.648.175-.537.716-.138.006-.341.297-.252-.005-.198.11-.15.348.039.552.032.155.263.234.082.081-.038.059-.33.108-.144.254-.324.04-.19.348-.213.035-.067-.718.21-.19.088-.406.199-.228.099-.444-.041-.23-.117-.135.032-.514.24-.038.35-.335.006-.252.234-.23.157-.003.07-.155.19.032.138-.012.362-.24.058-.174.435-.368.065-.736.093-.231.038-.304-.03-.24-.064-.163.02-.067.086-.096.073-.412.19-.178.072-.24.179-.07.201-.216.152-.228.105-.473.009-.155.102-.029.155-.31.187-.671.324-.538.055-.768.21-.327.337-.21.391-.266.24-.266.137-.277.02-.172-1.548.867-.257.044-.321.079-.202.014-.154.024-1.948 3.032.009.124-.257-.016-.503.512-.042.19-.025.152-.508.405-.066.128-.458.533-.157.004-.256-.128-.975-.09-.305.144-.236-.054-.252.004-.033.042-.297-.021-.417.206-.256-.062-.038.157-.359-.016-.149.124-.21-.198h-.236L56.5 16l-.207-.083-.061-.058-.26.1-.195.173-.243-.02-.12-.162-.091.013-.17.181-.115.153-.095.165-.058.038-.124-.145-.512-.194-.425-.132-.33-.05-.484-.008-.252-.281-.05-.173-.037-.265-.425-.372-.339.091-.194.182-.256.264-.29-.413-.391.025-1.041-.669-.07-.078-.034-.038.083-.037-.008-.082-.083-.046.02-.058.162-.157.05-.371-1.039-1.231.123-.292.035-.631-.111-.14.03-.216-.363-.35-.035-.06.105-.198.088-.981-.637-.263-.73-.695-.806-.123-.409.006-1.057-1.577.17-.088-.053-.187.005-.163-.064-.064-2.225-.374-1.063.753-.906-.432-1.104-1.016-3.545-.438-1.116.788L33.88 7.77l-5-.981-.865-2.197-7.102-.426-4.09-2.815-1.214.654-1.495 2.09-.35.865.057.468-.14 1.261.094.93.163.519.176.234.221.222.129.221-.55.065-.11.8.52.49-.485.34-.023.601-.053.181.094.187.397.76.38.443-.17.164.111 1.32-.03 1.092.141.275-.152.152-.023.35-.117.292-.362.508.029.123-.193-.105-.152.082-.023.093-.245.257-.392.023-.333.164-.081.199-.187-.036-.07.088-.041.362.011.117-.163.21h-.129l-.076.415-.339.17-.192.233-.52.543-.514.66-.17.41-.42-.351-2.658.333-.315 1.367-.339.081-.339-.233-.198.011v.199l-.514.012-.14.993.385.222v.222l.093.07-.514.14-.023.584.152.7-.012.76.327.55-1.775 4.345-.374.14-.047.175-.234-.046-.257.187-.28.525.035.514-.14.339-.129-.058-1.121 1.635-.339.07.035.269-.537.7.794 1.695-.047.303.234.036.129-.176.116.21-.105.14-.187-.01.444 1.576.187.28.047.293.783 1.74.607.9-.117.046.362 1.25-.058.35.152.293.432-.093.105-.187.468.151.07.14-.129.176v.175l-.175.14.28.538.444-.059-.07.386.327.175.175.152.456-.164.152.222.152-.093-.024.198-.385.655.222 1.413.596.21.07.129.117-.058.49.257-.023.14.572 1.121.094.03.648 1.11.362.01.123.328.391.105.275.631.426.526.543.496-.058.117.035 1.04.695.683-.134.76.917.093.023-.088.269-.017-.62-.976-.134-.508.427.181.058.123.771-.17.49-.385v1.519l-.063.093.023.345.076.333.035.099 1.285.345.175-.146.444-.234.911.058.923.216.07.1 2.57.233.14-.11.036-.304.005-.047 3.09-.041-.163.666.052.058 1.087.754.292.193.911.864-.187-.929-.093-.04-.076-.263.082-.684.665-.56.164-.006.228-.316.56-.426.094.04.228-.221.528-.112.083.05.04.148.385-.058.02-.268.054-.112-.243-.264-.013-.223.33.012.03.277.218.186-.09.38.388.458-.236.785.228.236.078.194.004.132.22.165.387-.087.005.38-.422.393.058.243.137.22.157.152.148.083.095.02s.603.343.628.355c.025.013.343.025.343.025l.149.22.082.507.682.74.148.02.091-.095.516.132.153.343.07.029.19.285.447.384.004.735-.21.248.074.149.214.004.376-.367.041.012.153.603.161.087.1-.017.103.07.02.612-.09.016-.224-.087-.078.079v.289l.12.302v.185l-.426.442-.033.269.046.215.124.173.231.19.248.149.219.078z"/></svg>