<svg width="256" height="256" viewBox="0 0 67.733 67.733" xmlns="http://www.w3.org/2000/svg"><path style="fill:none;stroke:#000;stroke-width:.264583;stroke-linecap:butt;stroke-linejoin:miter;stroke-miterlimit:4;stroke-dasharray:none;stroke-opacity:1" d="M56.848 45.707h-.247l-.08-.176.79-.486.86-.806.033-.893.406-.55.016-.263-.095-.463-.032-.526-.08-.151.072-.152.111-.734.152-.446.686-.399.295-.215 1.02-.295.774-.12.606-.2.359-.318.39-.112.391-.016.16-.016.12-.167.566-.048.31.128.686.047.196-.067.071-.1.196.032.143-.02.144-.128.263.032.175.032.284.463.04.183.127.084.04.163.084.088-.08.267-.028.231-.215.411-.188.315-.255.303-.203.2-.164.35-.151.303-.072.176.028.31.052.12.024.124-.056.124-.04.12-.156.027-.063.14-.036.12-.056.143-.064.004-.084-.044-.04.088.052.135.104.036v.084l.08-.08.275-.084.108-.028.1.088-.037.188-.167.147-.14.02-.111.104-.016.299.036.036.123-.048.088-.168.16-.06.075.02-.147.192-.008.35-.236.766.004.156-.055.036-.004.29-.133 1.07-.226-.394-.169-.27-.282-.046.102-.417-.136-.395-.383.8-.147.305.057.136.406-.08.101.294-.011.552-.136.192v.462c0 .046-.18.328-.18.328l.26.203-.057.112-.147.745.316.417-.124.225.068.124-.113.192.068.18-.102.204-.022.214-.158.203-.248.519-.339-.012-.124.26-.124.259-.191.237-.034.203-.756.022-.225-4.6-4.207.326.011 1.342-.992.113.406.158.417.383.327.147.418.17.35.394.247.44.35.022.17.248-.148.35.113.214-.09.17-2.977.214-1.004 2.007.417.451-.191.27.011.238-.079.169.135.214-.146.541-.79-.564-1.578-1.522-1.41-1.015-.541-.26.079-.157-.249-.113-.338-.045-.011-.192-.35-.022-.203-.147-.135-.011-.045.237.552.09.418.282-.124.022-.903-.282-.586-.079.226-.18-.023-.226-.27.034-.147.18-.09-.236-.124-.034-.226.147-.158.056-.09.192.62.045-.44.124-.552.09-.27.27-.407.249-1.139.44-.395.27-.609.045-.191.102-.688-.18-.62-.294-.384-.135-1.161-.056-.53-.316-.429-.237-.496-.147-.463-.09-.552-.598h-.203l-.846-.191-.665-.124-.463.011-.327-.248-.214-.192-2.571-.89-.214-.181-.44-.384-.395-.135.011-.147-.191-.09-.52-.496-.315-.248-.383-.124-.237.045-.056-.135-.08.034.08.259-1.692-.564-.519-.203-.823-.225-.192-.44-.248-.248-.067-.226-.508-.44-.913-.36.067-.125-.135-.146-.113.079-.552-.271-.237-.17-.124-.1-.384-.17-.237-.473-.473-.508-.541-.71.033-.327-.383-.52.18-.168.395-.068.429-.135.067-.17-.135-.259-.305-.045-.124-.147.147-.304.496-.293.023-.293-.012-.305-.078-.113.135-.293-.4-.247-.159-.136-.454-.885v-.757l-.104-.43-.2-.368-.677-.71-.702-.765-.112-.343-.677-.733-.08-.335-.526-.575-.407-.454-.375-.263-.367-.263.287.103.08-.175-.128-.168-.279.048-.23-.151-.24-.104-.247-.183-.088-.311.048-.152.072-.16-.168-.366-.327-.24-.255-.223-.152.088-.215-.135-.35-.288-.136-.199-.096-.207-.167-.056-.056.128-.32-.008-.183-.088.088-.104-.191-.135-.231-.128-.264-.247-.103-.28.04-.35.27-.526.128.024.2-.12.095-.08-.12-.175-.119.056-.048-.176-.048-.335-.247-.223-.04-.136-.095-.127-.128.08-.223.103-.367-.223-.16-.407-.071-.327-.136-.151-.103.064-.272-.088-.382-.207-.208-.335.048-.136-.231-.112-.056-.542.096-.096-.064-.215.128-.175-.375-.12-.231-.127-.072.199-.216-.064-.08-.175-.15.016-.52-.543-.23-.534.008-.064-.47-.175-.48-.758.057-.071-.463-.51-.024-.447-.135-.144.015-.303-.374-.08.016-.127.063-.104-.55-1.1-.175-.104.016-.678-.208-.295-.024-.383-.334-.446-.072-.526.072-.479h.127l.024-.215-.35-.255-.75-.256-.064-.462-.614-.327-.048.144-.183.151-.367-.096-.263-.207-.335-.247-.224-.207-.175-.032-.128.175-.071.28-.128.59-.151.262.127.383v.176l.231.143-.071.758.143.247-.032.255-.048.255.024.231-.032.16.144.383.287.327.04.23.088.12.167-.015.742.741.087.088.375.407-.04.223.208.271.12.12-.112.127.04.192.175-.016.167.303.208-.088.103.375.088.16.04.246.072.152.263.04.167.016-.016.303.008.175.128.104-.024.486.088.152-.048.247-.016.064.08.2.127.19.574.375.144.16.008.231.096.231.087.176-.032.103.447.224.04.095-.12.232.232.374-.024.216.127.35.176.104.095-.064-.063-.23-.144-.105.008-.143-.024-.223.12.047.319.367.103.216v.223l.24.032-.072.263.175.223v.28l.072.294.152-.071-.032.135-.088-.008-.096.39.112.304.111.231.136.28.12.143.215.016-.072.183.223.43-.055.28.35.399.216.534-.128.255-.103.231.063.391.112.247.144.2.223.143.255.056.136-.072-.064-.207.08-.072.175.024.271.295.175.096.024.263.144.048.247-.032-.008.183-.04.207.2.16.08.343.135.223.191.096.136.167.08.184v.287l-.104.335-.255.239-.231.024-.288.239-.327.167-.19-.008-.2-.43v-.367l-.16-.454-.335-.495-.366-.223-.367-.311-.407-.502-.502-.479-.606-.39-.232-.152v-.08l-.143-.056-.04-.327-.28-.008-.119-.12-.16-.318-.366-.136-.175-.359.127-.319.024-.095-.112-.216.216-.19.008-.248.056-.407v-.438l-.088-.391-.208-.415-.207-.231-.088-.295h-.19l-.854-.654-.407-.31-.024-.192-.255-.295.28-.168-.017-.255-.111-.048-.056.2-.144.151-.12.104-.358-.104-.2.207-.223-.063-.207-.311-.12-.28-.303-.087-.064.072-.335-.415-.295-.072-.342-.271-.048-.423-.423-.27-.183-.407h-.12l-.295-.248-.064-.175.184-.024.327.056.175.096.462.055.423-.111.056.16.143.246.335.24-.031-.232-.216-.247.144-.2-.192-.11.136-.32.295-.295-.064-.191.16-.327-.12-.463-.311-.223-.247-.255-.056-.271-.319-.28-.04-.199-.566-.566-.327-.359-.223-.071-.208-.208-.35-.27-.2-.105-.343-.422.048-.208-.111-.223.071-.566-.087-.39-.232-.136-.071.056-.152-.152v-.247l.128-.598-.51-.503-.096-.016.055-.486-.494-.821v.016l-.096-.232-.032-.215-.127-.279.207.104.184-.176-.168-.16-.207-.246-.112-.176-.095-.486-.256-.216-.071-.63 4.975-.016-.159.59 7.552 3.421 5.956.264.072-1.037 3.469.136.39.023.136.407.367.359.686.502.087.216.2.135.319.383.287.263.287.128.319.151.327.311.16.526.199.224.159.343-.024.534.303.55.192.367.518.207.088.232.334.27.36.033.254.23.375.033.168.27.375.256.183-.08.287-.422.295-.216.064-.406.096-.375.247-.399.606-.12.2-.263.262.08.136.112.502.103.447.008.319-.087.31.16.312.246.151.248.2.135.183.16.263.207.24.167.15.36.192.119.08.383.183.382.016.272.383.366.064.43.207.304.247.104.264.39.255.335.2.367.23.112.144.056.263.247.008.478.032.215.088.28.047.342.423.487.152.43.063.327.136.144.606.16.287.215.407.008.35.2.367.183.742.031.447.056.295.311.167-.04.47-.191.047.73-.282.677-.243.212-.143-.112-.192.255-.271-.143-.016.319.096.191-.08.112-.048.191.223.176-.207.175-.032.287.032.35-.056.56m0 0 .016 1.275.024.16.096.047-.032.375-.024 1.14.048.271-.024.463-.04.24-.136.222-.04.311.064.256.08.223.056.12.032.382.127.439.096.415.096.406.191.255.168.032.032.136.127.375.12.319.072.239-.032.032.032.04.175.055.175.439.04.271.527.526 1.22 1.372.303.821.095.271.04.24.343.23.12.216.207.136.152-.104-.032.255.23.327.352.192.383.08.877-.049.359.327.494.056.215.391.255.255.16.24.39.015.854-.255 1.116-.478.654-.088.805-.024.343-.207.136-.287.215-.032 1.045-.24.51.016.16.176-.056.167.526.128.43-.056.208-.16.215-.167.056-.31-.056-.144-.127.048-.096-.024"/></svg>