<svg width="256" height="256" viewBox="0 0 67.733 67.733" xmlns="http://www.w3.org/2000/svg"><path style="fill:none;stroke:#000;stroke-width:.26458333;stroke-linecap:butt;stroke-linejoin:miter;stroke-opacity:1;stroke-miterlimit:4;stroke-dasharray:none" d="m44.95 21.615-.048.134.212.25.008.195-.216.345-.12.285-.156.06-.19.294-.424.251.009.328.078.156-.043.069-.096-.026-.06.354-.173.07.009.215.138.07-.009.19-.103.172-.06.164-.251.165-.009.224-.138.043.06.38-.216.372-.086.605-.268.293.164.216.035.38.095.208.026.527-.121.328-.035.26-.06.112.017.164.216.052-.069.354-.147.31-.095.476.579.052.302-.234.182.104.32-.302.224-.009.173-.259.198-.112.303.147.112.207-.034.242.406.155.328.26.12-.121.243.025.5-.362.243.008.112-.06.605.432-.13.82-.302.355.052.155-.311.346-.044.354.156.345.13.121.069.182.233.008-.026.216-.346.268.13.328.216.078.406.64.302.077.415.45.683.06.103-.112.19.043.07.173.215-.009.208-.164.458-.078.371.182.311.017.372.164.285-.017.5.293.536.009.19-.13.614.13.164.371.043.026-.06.208h-.355l.026.19.164.173.545.518.086-.328.13.112-.052.415.207.328-.475.415-.207.38-.19-.052-.2.743.476.337.026.32-.225-.078-.026.13.173.137-.293.484.164.303.561.06.095.156-.069.155.302.337.286.07.276-.079.086.346-.077.328.06.25.493.113.164.294.043.233.216-.043.337.138h.164l.078-.147.38-.103.06.146-.034.104.138.147.276.095.268.147v.32l.078.293.13.337.328.121.181.354-.328.216-.518-.017-.06.138-.2.026.121.216-.198.285.12.112.286.06.242.234-.173.406.078.277-.415.596-.225.181-.172-.008-.052.267-.58.216-.137.208.017.138-.121.095-.147-.017-.19.406.199.492-.588.372-.492-.26-.354.182-.277-.017-.216.095-.078.25-.207-.13-.276.01-.009-.372-.354-.45-.086.2.138.094.103.424-.285-.052-.224-.07-.294-.336-.285-.104-.242.173-.268.069-.259.25-.173.225-.276-.035v.648l-.147-.043-.009-.173-.198.242.172.078-.077.173-.182.017-.13-.242-.112.087-.198-.173-.076.26-.245-.128-.091.055.073.195-.073.116-.348-.085.055-.281-.129-.104-.055.238-.177-.018-.08-.116-.262.152-.049.165-.324-.213-.097.17-.171-.005-.086.079-.226-.116-.36.177-.147-.116s-.238.024-.263.024c-.024 0-.464-.158-.464-.158l-.311.17-.343.666.037.391.153.16.104.195-.061.72-.14.178.042.256-.159.562-.305.055-.08.306.269.06.073-.011-.097.268-.11.104-.055.214-.19.122.055.067h.11l.287.3.013.342-.104.06-.147-.03-.073.16.049.476.256.207.177.086.397.049-.006.104-.116.164-.018.318-.061.122-.22-.128h-.165l-.3.33-.256.128v.336l-.397.47-.238.129-.422-.006.22.55-.049.073-.226-.03-.036.384-.05.061-.47.012-.048.153-.257-.006-.33-.159-.354.055-.226.067.049.239.006.305-.177.134.348.08-.636.727.068.146.403-.384.342.018.195-.018.116-.129.825.697.147-.025.006-.19.214-.06.049.33.128-.03.372.976.306.245.024.214.16.116-.068.159-.14.11.042.158.03.177-.225.214.19.214v.092l.213.177-.037.116-.476.244-.061.19.287.275-.012.103-.171.006.03.428.043.104-.055.159-.122-.019-.202-.232-.379-.415.05-.489-.16-.342.013-.397-.061-.153.036-.195.05-.055-.19-.08-.22-.024-.19-.104.043-.159-.41-.384-.671-.257-.312-.531-.244.134-.116-.134.085-.172-.458-.604-.03-.165-.513-.385-.208.122-.269-.44-.116-.006-.226.08-.293-.196-.03-.122-.495-.293-.031-.19-.428-.268-.049-.49-.195-.066-.238-.38.018-.207-.122.037-.086.08-.103-.056.024-.19-.08-.158-.177-.018v-.202l.068-.19-.27-.134-.146-.22-.17-.03-.447-.177-.495.128-.299.159-.116-.037h-.226l-.183-.207-.202-.086-.262.086-.172-.184-.311-.122-.22-.128.024-.165.074-.116-.147-.104-.562-.238-.244-.293-.312-.153.147-.3-.067-.335-.324.152-.269-.177h-.11l-.397.061-.122-.287-.128-.073-.178.195-.347.007-.149.073-.64-.171-.085.317-.22.012-.11.239-.183.06-.123-.024-.158.306-.281.195-.38.184-.085.244.16.098-.294.33-.342.012-.88.33-.33.5-.354-.17-.22-.233-.159.184v.158l-.183-.024.061-.147-.085-.134-.38.208-.182.097-.306-.134.073-.244-.22-.281-.476.097-.44.074-.562.452-.232.256-.452.281-.183-.012-.012.147-.257.39-.159.514-.159.562-.207.183-.037.257.147.122-.086.183.208.159-.281.647-.672-.293-.05.11.05.122-.183.16-.171-.025-.526.44-.146-.013.097.538-.232.159.073.464-.342-.037-.146.672h-.171l-.098-.159-.183.025.024.208-.073.097-.306-.366-.488-1.062-.457-.605-.476-.328-.31-.052-.242.285-.2.043-.016.13-.45.224-.362-.034-.458-.285-.372-.035-.432-.207-.216.043-.777-.458-.311-.043-.32.26-.06.103-.173-.406.19-.173.147-.38h.224l.208.25.25-.069.467-.535.138-.432.181-.25.234-.588.095-.26.095-.284.095.008.173.156.328-.346.682-1.296.354-.138.545-.415.233.026.389-.717.103.017.519-.7.155-.777.225.017.164.225.19.138.233-.112.156.173.82-.812.372-1.054-.026-.657-.233-.199-.009-.224.199-.104-.112-.095.337-.415-.087-.155-.155-.035v-.172l.12-.009-.129-.164.035-.277.354-.31-.009-1.236-.19-1.279-.337-1.278-.017-.242.155-.043.035-.501.155-.07.061-.276.242.017.034-.682.242-.216.087-.346.103-.112h.165l.155-.242-.026-.423-.26-.467.087-.259-.622-.795-.276-.12-.303.095.01.216-.105.008-.12-.12-.268.034-.458-.354-.164.034-.925-.691-1.987-1.227-.734-.544-.337-.199.121-.25-.086-.545-.873-1.9.035-.164-.182-.104-.32-.872-.984-1.979-1.218-2.013-.821-1.658-.311-1.4.103-1.322.13-1.2.017-1.426-.086-1.633-.352-2.36-.733-2.443-.831-1.942-.477-.856-.024-.244.257-.098.285.548.285.881.424.415.077.112.614.026.242-.259-.052-.354v-.44l-.64-1.288.061-.294.285-.06.484-.199.181-.155.51.181-.104-.268.018-.155h.302l.009.199.285.388.224.078.268.302-.008.39-.01.155.45.051.095-.103.458.043.19-.07.277.14.043.509.198-.121.311-.009.113.087.181-.234.25.165.07.077.224-.008.044.285.328-.017.25-.303.277-.112.069-.112.13-.329-.044-.432.06-.656-.457-.346.043-.216.19-.19-.12-.345-.459-.018-.12-.25.164-.285.216-.121-.147-.216-.778.224-.388-1.054-.19-.924.172-.475.06-.363-.094-.078-.078-.276-.07-.173.165-.026.06-.294.32-.578.233-.104-.043-.199.207-.147.052-.397.216-.121.026-.173-.173-.147.251-.63.06-.043-.656-1.322.086-.052-.147-.657 1.253-.475.492-1.192.605.035-.155-.32.12-.225-.068-.786.552-.276.13.095.07-.113.422.286h.225l.06.095-.06.095.043.13.13.008.026.13-.087.302-.051.086.103.182-.026.483.216.147.208.63-.113.208.035.303-.164.051.233.165.026.457.174.105m0 0 .697-.342 2.187.037 3.188-.049 1.613-.415h.293l-.195.146.073.367h.122v.22l-.146.17v.27l-.17.26.172.277-.052.276.432.346-.103 1.382.363.26.397.345.19-.208.26.173.12-.328.501.345.156.38-.07.242.035.139-.138 1.123.501.207-4.06 1.279-.277.242-.069.604 1.538 1.832.414 2.28.64-.155 2.488-2.626.155-1.072.398-.103.19.276.259-.017.276.12.156-.276.45.018.276.345-.035.398.035.31-.121.173.12.398.208.224.276.346.242.035.329.19.276-.346.121.397h.587l.553-.207.173.415.07 2.298h1.312v.45l.225.38v.431l.225.225.241.31.277-.068.138.259.207.069.035.276.173.052.138.294h.311l.328.432.277-.104.276.017-.173-.276.07-.138-.018-.104h-.155l.017-.173.968-.328 2.056-.812.587.294-.104.173.139.5.587.122.76.431.121.329-.086.207-.19-.069.138.346v.138h-.155l.034.173.156.017-.018.12"/></svg>