<svg width="256" height="256" viewBox="0 0 67.733 67.733" xmlns="http://www.w3.org/2000/svg"><path style="fill:#000;stroke:none;stroke-width:.26458333;stroke-linecap:butt;stroke-linejoin:miter;stroke-opacity:1;stroke-miterlimit:4;stroke-dasharray:none;fill-opacity:1" d="m21.601 16.024.754 1.588.993-.94.212-1.072.754-.701-.212-.768.159-.33-.026-.993.04-1.323-1.417-.358-.278-.211-.198-.371-.225.066-.146.278-.04.159-.304-.132-.08.264.173.238-.252.252-.053-.199-.158-.238-.305.146-.026.145-.358-.211.172-.093-.29-.132-.08-1.814 1.972-1.932 3.348-.9.834-4.182L28.602.633l2.514 2.607 1.853-2.237.199.08.172-.212.238.357.04.291.278-.08.635.835-2.475 1.905.066.86 2.091.715.159 2.276.926 2.541.265.146.146.41-1.086 2.038-.502-.092.052.49.265-.133-.013-.146.225.04v.185h.159l.08-.198.131.066.067.106h.397l.132-.066.172.198.185-.053.066.186.186.013.264.291.133.463-.252.185-.185.45-.146.199.173.543-.345.33-.357.318.146.199 1.522.052 1.852.94-.105 2.237-.133.053-.132 1.244.37.635.225-.238.106.013.212-.106 1.323 1.032.794-.053.45 2.7.371.12.066.092.093-.027-.08-.251.53-.159.08.133.21-.093.094-.199.357-.105.08.185.092-.12 1.562 1.721.979-1.178 3.136.424.218 7.53h2.078v.637l-6.57 5.502h-.271l-.234.103-.094-.074-.383.102-.178-.13.065-.15-.168-.197-.066-.234-.15-.075-.177.057-.15.542-.318.01.075.206-.412.15-.159.102-.28-.112-.01.271.084.103-.037.122-.187-.075-.103.28.327 1.31-.645.74.402 1.245-.16.028-.355.065-1.067-.44.029.169-.272.075-.178.215-.486.028-.206.384-.365.15-.131-.047-.047.14-.243.047-.084-.084-.506.449-.075.561.047.262-.608.178-.094.169-.14.14-.346-.187-.43.075-1.124.636-.309.356.16.86 1.02-.327.714 1.584.014.78-.781 1.774-.12 1.495 1.192 1.086.397.079.04.569.198.013.516.477.37 1.363-.489-.225-1.059 1.469-.397.304h-.357l-.543-.238-1.826-.066-.595.172-.503 1.27-.794 1.893.582 2.501-.874-.212-1.217-.013-.847.768.86.53-.384.992-1.548-.252.251-.767-.185-.027-.053.185-.74-.172-.358.675h-.278l-.596-.026.172 1.059.503-.146-.172.556-1.879-.437-.146-.291.344-2.223-.767-.781.278-1.191v-.318l.437.185.013-.225-.133-.198.027-.291-.291-.04.08-.53.158-.476.159-.284.132.046v-.139l-.126-.04.14-.205-.034-.159-.139.16-.112-.153-.252-.589-.099.053-.073-.986-.403-.251.06-.252-.391-.112.172-.602-.12-.1.027-.284-.225-.093.265-1.714.218-.536-.192-.661.258-.027.014-.205-.364-.086-.9-.457.265-.105.06-.536-.557-.047.39-1.82-.032-.681-1.39-1.218-.397.41-.84-1.442-.08-.622.073-2.197-.37-1.025.013-.192 1.263-1.152-.833-.767-.007-.066-.384-.232.225-2.508 1.264-1.026 1.535-.324.827.265.464.013.661.192.57.245.84.231.08-.45.323.12.55.072.264-.125-.112-.152.08-.06-.332-.285.16-.218.112.02-.146-.477-.132-.079-.721-.43-.88.146-1.046-.146.258-1.059-.648-.271h-.265v-.245l-.139-.205-.483-.027-.258-.132.04-.324-.437-.1.238-.185h.88l-.132-.258-.629-.099-.218-.053-.073.073-.033-.199-.344-.251-.291.112-.358-.04-.397-.47-.086-.43-.661-.098-.086-.278-.153-.576-.165-.252.02-.138-.721-1.35.158-.517.219-.112.145-.748-.198-.417-.602-.013-.37-.185.006-.761-.086-.907-.325-.152-.536-.787-.708-.324-.456-.398-.377-.94-1.37-1.587z"/></svg>