<svg width="256" height="256" viewBox="0 0 67.733 67.733" xmlns="http://www.w3.org/2000/svg"><path style="fill:none;stroke:#000;stroke-width:.26458333;stroke-linecap:butt;stroke-linejoin:miter;stroke-opacity:1;stroke-miterlimit:4;stroke-dasharray:none" d="m64.06 46.218-.265-.04-.706.503-.446.049-.106-.172-.393-.044h-.441l-.265-.433-.252-.049-.172.12-.252-.265-.04-.305-.37-.336-.172.115-.35.128.036.318-.075.225-.137.044-.141.075.106.19-.075.102.198.141.018.225.212.089.035-.12.168.045.239.159.551.092-.03-.08-.177-.065.022-.137.539.048 1.205.287.172-.141.256.194.636.353-.044.177-.102.009-.004.062.428.048.225.115.256.035.234-.048.314.159.278.384.318.37.375.221.517.19.19.005.136.097-.079.168-.3-.062-1.08-.415-1.58-.68-.73-.294-1.112-.369-1.305-.35-1.767-.343-.7-.074-1.105-.07-.999-.087-.346-.043-.263-.272.285-.075.633-.265.512-.269.113.063-.025.137.112.084-.184.175-.256-.137-.35.162.09.206.325-.093s.194.103.207.103c.012 0 .215-.044.215-.044s.103.15.128.144c.025-.007.487-.178.487-.178l-.028-.222-.272.087-.025-.128.384-.356.138.06-.288-.662-.405.484.025.225-.079-.035-.115-.271.219-.24.165-.55-.062-.081-.17-.016-.252-.197-.175.013-.237-.084-.5-.016-.646.537v.262l-.093.169-.444.018-.165.016-.066.21-.118.137-.206-.072-.094-.278.418-.272.1-.215-.359-.16-.237-.561.075-.194-.216-.078.007-.087-.275-.038V43.6l-.456-.015-.131-.128-.094.187-.446.112-.45.503-.134.712-.131.153-.628.006-.109-.038s-.35.55-.362.55c-.012 0-.131-.034-.131-.034l-.028.2.3.262 1.177.21.795-.067.649-.176.11-.164-.207-.066.062-.11.534.106.106.106-.406.212-.407.172-.944.145s-.698-.048-.725-.048c-.026 0-.67-.128-.67-.128l-.49-.106-.402.481.295.097.45.036.998-.133.716-.03.927-.102.375.004.155.084.362.004.375-.022.216.137.305-.004.044-.005-.035.186-.654-.089-.816-.022-.764.12-.914.207-1.05.247-.57.045-.848-.014-.225.053-.036.137.075.124s-.264.048-.295.048c-.031 0-.336-.092-.336-.092h-.097l.049.163-.508.04-.177.23.022.114-.463.3.03.186-1.068.41-.3.495.115.384-.292.207-.472.248-.124.318-.772.04-.208.167-.989.146-.256.225-.225.009-.305.225-.67.282-.535.058-.857.265-.106.243-1.364.432-.216.155-.971.23-.089.167-.481.102-.278.256-.517.141-.256.225-.446.102-.309.19.102.163v.07l-.287.054-.6.423-.221-.004-.234.247-.596.177-.94-.009-.901-.018-.557-.088-.503.318-.499.318-.296-.093h-.437l-.163.07-.8-.264-.834-.375-1.143-.226-1.325-.079-.503-.283-.645-.375-1.055-.278-.689-.305-.017-.15-.239-.344-.234.075-.817-.56-.653-.257-.826-.146-.512-.158-1.236-.106-.053.128-.75-.058-.11.04-1.515-.384-.433.159-.95-.208-.714.07-.049.129-1.39-.115-.19-.088-.168-.181-1.351-.843-1.312-.808-1.329-.671-1.65-.751-.173-.212-1.108-.305-1.365-.159-.6-.061-1.775-.614-.198-.084.119-.26.353-.411.225-.035.6-.336.884.018.68-.985-.226-.318.133-.238-.062-.049-.159.01-.009-.147-.234.031.005-.176-.2-.517.809-.176.115-.252.538.022.146.15.428-.093.455-.313.265-.12.062-.419-.234.04-.225-.287-.031-.441-.256-.067.057-.212.075-.295.097-.19.177.163.203-.097.084.238.137-.137.225-.194.349-.044.282-.278-.15-.137.097-.207.208.075.132-.133.11-.485.173-.31.075-.344.092-.455-.26-.42-.12-.34-.123-.25.005-.257.357-.61.371-.366.283.093.291-.322-.839-.22-.644-.469-.566-.18-.295-.169-.557.022-.159-.097.01-.763.22-.429-.115-.256-.402-.357-.393.013-.26.137-.406-.278-.155-.34.239-.707.242-.066s-.216-.689-.242-.768c-.027-.08-.482-1.086-.482-1.086l.093-.296.274-.058-.141-.309-.186-.137-.035-.242.093-.067-.248-.119-.062-.159.018-.101-.075-.084-.062-.168-.106-.009-.203-.357-.455.092-.348-.357-.23-.11-.177.03-.092-.393-.036-.309-.194-.04-.106-.662.04-.194-.168-.472.172-.212.221-.115.596-.764.022-.397.41.017.182-.313.212.009.296-.137.19.093.079.017.274-.203.048-.12.31-.45.383.46.014.119.172.207.428.018.11-.18.433-.107.097-.234-.115-.106.031-.344.031-.168.278-.256.19-.03.027-.182.216.044.631-.017.133-.08.247.075.212-.159.181.11.565.283.623-.062.009.225-.045.124.075.12-.008.29.45.085.362-.168.495.128.29-.07.04-.275.129-.375.291-.123s.225-.12.225-.137c0-.018-.022-.26-.022-.26l.088-.186.583-.115.084.093.194.004.018-.172-.358-.15-.287-.278-.048-.102-.239-.128s-.33.42-.353.442c-.022.022 0 .225 0 .225l.155.137-.088.159-.212.079-.243.199-.022.185-.12-.03-.158-.301-.027-.499.102-.344.317-.26-.384-.12-.234-.132-.225-.429.018-.525.207-.172.08-.186.066-.035-.163-.208-.084-.03.256-.42.234-.044-.066-.172.401-.733.208-.062.477.15.428-.044.172-.163.738-.08.211.265.155 1.188-.212.278.605.384.088.296.415.349.221.799.177.172.097-.102.26-.03.27.247.472.004.238-.415.018-.168.313-.053.248-.534.194-.004.23.128.67-.813.345-.207.472.048.566-.278.11.036.124.128.136-.142h.146l-.03-.282.26-.16.141.058.477.543.141-.04.172.213.95-.155.04-.34.53-.565.026-.181.304-.066.31.128.29.026.115-.26.279-.014.37-.106.411-.022.19-.525.159-.283-.044-.322.185-.154.358-.093-.018-.23.058-.185.322-.243.07-.08.01-.119.273-.11.022.128-.075.084.053.11.185-.066.142-.048.19-.018.119.137.132-.089-.075-.123.013-.336-.406-.168.058-.362.22-.22.071-.305v-.252l-.137-.123-.172.035-.106-.124-.181-.101-.097-.159.216-.132-.15-.173.075-.242.256.23.088-.16-.11-.212.265-.41.088-.049-.008-.128-.204-.247.067-.495.185.11.177.164.07-.013.278.216.327.27.12.026.556.331.388.035.221.014.124.053.092-.133.314.15.33.137.164.22-.026.142.212.181.309.49.119.314-.088.075.03.11.15-.017.05.388.088.018.075-.027.048.177.402.274.066-.053.141.251.014.243.313.141.128.252v.291l.26.221.244.133.132.419-.177.159.124.168.22.23-.052.22.362.389.132.061.248.45.22-.3.45-.114-.008.318-.256-.071.026.168-.026.106.353.22.159.045.097-.15.168.07.15-.132v-.15l.203-.23.265.132.274.327.22.141.23-.185.335.027.31-.221.256.026.291-.22.283.105.008.142.142-.115.123.053-.017.141 1.086.053.635 2.65-.591 1.615-.16-.018.169.212-.062.195.009.132-.265.168.053.291-.292.133-.123.353.017.265.283-.07.132.061-.053.15-.158.027-.098.159.292.008.07.256.354.133.238.318.212.053.15.273.168-.044.088-.159.062.124.15.168-.07.194h-.195l-.062.097-.159-.035-.017.203.194.106.053-.115.088-.106.168.009.044.168.256-.027.292.177.15.37.141.221.15.195.186-.23.362-.018.14-.088-.15-.256.169-.097.14.22.177-.052.23.168.062-.195.106.08.106.15.132-.08.08-.097.247-.009.026-.159.106.027.053.053.212-.08-.08-.211.204-.142.088.08.009-.16.38-.255.185.123.009-.238.327-.194.326-.398.283.08.22-.292.345-.273.159.097-.009-.212.164-.031.022.185.203-.19.225-.211-.009-.15.216-.12.34.018-.03-.37.225.092.203-.066.764.755.017.441-.335.035-.07.195-.319.106-.106-.124-.088.053-.018.194-.247.018-.035.189.15.112.185.034m0 0 2.632 3.25 1.483.53.106-.044.097.15.239.141.194-.185.256.176.15-.08.177.115.026.142-.327.115v.132l.195.009-.106.185.212.221-.23.168.106.132-.097.15.018.265-.15.142.008.061 14.985.053-3.373 10.173 1.413 1.925.265.724-.106.388.159.124-.212.512-.477.283-.283.247v.406l-.194-.141.053-.407-.124-.423"/></svg>