<svg width="256" height="256" viewBox="0 0 67.733 67.733" xmlns="http://www.w3.org/2000/svg"><path style="fill:none;stroke:#000;stroke-width:.26458333;stroke-linecap:butt;stroke-linejoin:miter;stroke-opacity:1;stroke-miterlimit:4;stroke-dasharray:none" d="m31.766 3.477.363-1.323.48-1.353.203.068.184-.104.179.092.209-.19.135.085-.117.136-.024.184-.148.123.406.03.025.148.153-.03.166-.277.43.03.16.056.277-.21.253.185h.147l.258.283 1.027.043-.036.277-.148.05-.166-.191-.264.16.006.129-.08.018.203.197-.166.13.166.134-.203.154.117.21-.117.104-.45.203-.012.67-.123.21.074.11.21-.025.116.345.006.295-.252.074.05.27.27-.061.086.19.375.062.172.141.068-.049-.012.154-.203.067.08.314.381.068-.16.707.301-.086.16.154-.067.282.252-.006.264.197.006-.314.148-.172.154.105.117.006.006.154.203-.148.006-.092.406-.012.193.163h.226l.226.26-.017.149.226.235.33.487.096.017.165.409-.383-.009h-.4l-.226.47-.26.2-.14.008-.174.096-.078-.026-.104.165-.21-.06-.034.182.096.461-.148.322-.33-.078-.262.104-.139-.07.053-.191-.41-.165-.208-.183V9.41l-.14-.104-.025-.079-.2.035-.122-.095-.14.078-.025.235-.374.756-.061.226-.087.035-.035.313.383-.017.052.156-.07.035.026.14.079.278.148.07.478.452.191.043.079.087.052-.313h.121l.27-.322.104.13-.052.105.052.06-.165.288-.104.113.052.096.183.06-.07.235-.34.096-.234-.044.026.174-.009.174-.417.13-.383.2-.121-.156-.14-.008.14.382.26.192.14.417-.13.14.121.06.078.426-.217.218.2.295h.174l-.026-.13.191.009.052.104.279.017.174.279.27.043.225-.052.253.017.052.14.139-.114.052-.278.122.009v-.105l.2-.017.104.226.296.113.165-.017-.113.452.14.209-.062.243.096.166.357.174.113.182-.061.2-.34-.052.122.217.261.166.079-.122.148.043.156-.095-.026-.287.078-.165.174.095.174-.139.044-.209.26-.017.235-.209.14-.087.243-.122-.07-.217-.147-.13.052-.105.322-.209v-.2l.287-.104.174-.06.034-.253-.026-.304v-.166l-.052-.365.348-.243.07-.183.217.156.217-.113.296.148.07.148.243-.33.383-.096.095.304-.034.192.191.226 1.757.539.052.183.14-.079.095-.13.104.252.218.035.234-.122.053.183h.27l.817.278.522.157.13-.226.174.034v.2l-.096.044.105.113-.035.113.2.026.078-.096.365.13-.06.157-.314.296-.26.148-.244.34-.14.164-.164.157.087.148-.21.348-.208.147-.182-.017-.07.244.14.374-.062.304-.33.078-.079.2-.121.035-.122.252-.365.13-.226.662.13.278.183.226-.174.244-.313.2-.105.217-.208.13.121.148-.043.14-.209.095-.148.592-.026.53-.078.087.017.426.052.435-.113.365-.034.74.2.017-.044.183-.322.26.157.253.365.443.087.287h-.191l-.113-.095-.252-.044-.105.07-.156-.009.06.148-.626.591-.2.287-.548.366-.252-.244-.191.391-.078.47.095.426.13.644.262.113.13.383.104.104-.087.27.27.13.47-.044.148.053.113-.053.208.244.044.783-.113.008v.27l-.096.07-.122-.044-.478.122-.113.304-.052.166.417.043.305.583.234-.035.21-.287h1.165l.46.191.218-.017.383.235.139.252.356.026.148.191-.052.218.122.2-.279.148.14.156.147-.035.07.14.157-.096v-.122l.417-.217.47.191.27-.026.13.14.165.173.478.009.235-.14h.191l.166-.252.087.018.139.148.191-.018.078-.156.13.034.166.261.14.244.156-.017.139.07.13-.08.174.053.366.33-.026.105-.148.104-.174.244-.018.208.061.348-.26.157-.122-.017-.148.287-.113.008-.113.183-.357.165.052.244.252.347-.07.21.131.13-.06.113.304.295-.14.14-.217.226-.295-.209-.157-.183-.113-.104.043-.217-.226.043-.356-.104-.279-.087-.582.043-.096.061-.443-.026-.279.026-.174-.078-.06.13-.122-.156-.296.243.156.261-.406.199-.05.356-.209.136-.135.196-.467.246-.08.485-.035.53.052.574-.374.626.609.47.008.391.105.757.226.33-.035.357-.47.052-.556.505-.192.496-.382.26.017.357-.165.322-.261.148-.252.234.035.305.26-.026.148.217-.008.226-.14.21-.06.269.06.26-.078.148.113.261.026.261.035.209.174.026.078.087-.06.148.13.104.374-.191.183.087.156.348.174.06.33.531.357.052.218-.417.408.165.192.218.365-.113.26.27.192-.01.105.279.234-.018.235.192.14-.044-.01.609.696.87.018.226.652.748.035.417.617-.487.07-.313.209-.07.252-.304.13.035.079-.157.208-.113.148-.165.07.06.391-.156-.087-.121.104-.044.148.061.07-.14.278-.182.244.209.174.026.2.209.278-.122.026-.191.261-.044.191.287.174-.07.087.131.026.2.166-.087.087.174-.061.096.426.174.113.252.287-.104.07-.296h.13l.078-.113.27.139h.122l-.01.322.097.156-.105.105.157.134.039.21.196.056.021.13-.113.078.196.183.013.152h-.174l.06.096.1.039-.003.178h.104l.009-.048.226.074-.087.135.026.157.14.065.073-.065.3.091.209-.056.204.06-.122.144.044.14-.083.025-.126-.082-.291.156.052.261-.109.06-.239-.073v.2l-.396.383.04.187-.087.256-.192.07-.06.108-.214.018-.06.13-.153.03-.043.123.108.204.005.183-.183.039-.096.413-.226.343.022.153-.174.321-.152.057-.322.013-.287-.004-.235.095-.217.026-.109-.017-.06.148-.14-.005-.017-.178-.166.126.01.235-.118.091-.4.013-.174-.143-.27-.083-.23.005-.257.126-.06.248-.183.191-.548.665-.074.444-1.053.213-.07-.052-.351.074-.079-.026-.23-.23-.196.13-.109-.27.1-.104-.039-.035-.087.048-.039.195-.195-.204-.23-.34-.184-.251-.295.021-.174.165.117.361-.356.105-.222.187-.287-.209-.118.06-.182.027-.24.165-.486.166-.135-.061-.265.013-.257.048-.257.313-.256-.005-.196.41-.096.09h-.126l-.047.135-.135.122-.018.156-.204.079-.109.156-.126.005-.139-.153-.178.013-.083-.1-.196.135-.265.583-.235.117-.095-.034-.144.234.022.11-.135.147-.143.313-.11-.013.014.204-.308.047-.227-.012-.228-.056-.166-.006-.307-.29-.24-.036-.178.178h-.154l-.228-.246-.006-.116-.147-.228.03-.246-.092-.148-.141-.522-.597-.468-.24-.147.117-.13-.055-.24-.984-.54.357-.468.006-.117-.13-.295.013-.455-.05-.504-.085-.535-.265-.222-.27.086-.837.13-.123.178-.08.055-.682-.03-.45-.123-.374.006-.136.03-.301.413-.29.615.112.178-.006.11-.474.216-.221.449.166.043.024.19.215.216-.178.172-.061-.117-.13.154-.024.209-.228.234.074.658.326.7.357.044.504.252-.314.381-.209.037.019.4-.16.32.03.516.142.258.234.283.08-.443.375-.27.08.043.19-.172.025-.179-.16-.061-.012-.461.529-.708.19.062.142.105.19.08.056.086.024.116.314.277.695.32-.055.184.024.246-.486-.037-.203-.184-.584.203-.098-.068-.105.093.062.264-.025.283-.154.141-.375.246-.24.043-.178.283.03.215-.153.51-.252.02-.05.128-.448-.055-.388-.141-.221.055-.252.092-.27.068-.259-.117-.141-.05h-.228l-.018-.208-.037-.21-.062-.19-.067-.154.11-.203.092-.061-.11-.11-.554-.013-.356.141-.099-.283-.227.031-.468-.141-.264-.179-.19.203-.136.136-.117-.148-.326-.03-.344.08-.252-.044-.382.099-.067.043-.27-.16-.075.055.08.105-.154.141-.27.055-.234.185-.147.16-.056.258.006.13.031.147-.061.074.067.141.099.074-.154.363-.086.098-.32.068-.246.092-.105.092-.049.148-.738.03-.141-.129-.21-.492-.165-.129.184-.233-.055-.105-.197.123-.215-.24-.178.326-.019.13-.203.184-.018.221-.013.148-.43.141-.172.123-.222-.16-.172-.086-.332.203-.314-.024-.24.264-.172.166-.467-.006-.086-.48-.13-.141-.171-.658.19-.105.16-.314-.05-.22-.184-.382.13-.142-.013-.123-.24-.086-.092.037-.24-.123-.381-.006-.123.178-.221-.16-.148.013-.203-.117-.461.012-.05.375-.153.013-.11-.117-.136.172-.21-.135-.08.153-.436-.03-.289.276-.363.154-.221.302-.24.086-.184.141-.302-.012-.27-.203-.117.024.018-.166-.406-.227-.215.141-.16-.141.043-.092-.123-.074-.27-.252-.634-.13h-.258l-.762-.32-.29.038v-.142l.431-.32.59.05.123-.136.142-.036.357-.376-.413-.018-.209-.123-.147.043-.185-.203-.301-.055-.098.166-.203.018-.056-.258-1.242.166.381-1.273-.633-1.07-1.624-.467-.897-.099.123-.455-.111-.504.11-.332-.233.024-.21.111-.22-.098.184-.283-.32-.21-.48.333-.086.11-.209-.086.135-.184.099-.037-.087-.138-.134-.026-.061-.256.087-.066.1.074.121-.126-.139-.148-.039-.195-.048-.179.018-.121-.144-.122.057-.157.165-.174-.013-.195.235-.092.143-.187.44-.413.008-.26.14.052.547-.279.048-.509.148-.052.087.135.452-.017.491-.2.21-.135-.005-.126.083-.096.021-.404.352-.122.653-.33.178.052.178-.057.096-.209.126-.087-.06-.447.256-.214.239.087.117-.03.092.222.239.3.278.16-.004.105.322.14.243.238.044.218.13.113.178-.135.079.03.1.296.221.022.253-.13-.018-.222.013-.213.153-.357.104-.235-.078-.091-.122-.035.013-.204-.087-.196-.087-.087.14-.17.077-.195-.095-.17-.013-.16-.226-.318.121-.174s-.039-.113-.039-.148c0-.035.009-.226.009-.226l-.174-.222.178-.165v-.274l-.143-.24-.03-.512s-.2-.257-.214-.309c-.013-.052-.156-.47-.156-.47l-.066-.391.179-.096.143-.274.13-.356-.23-.083-.213.122-.222-.035-.13-.074.143-.165-.047-.091.382-.753-.06-.16.112-.135.03-.235.18-.061.056.074.187-.448.039-.148.204-.183.018-.208.165-.157.143-.378.135-.083.174-.304-.06-.174-.127-.091-.165.026-.096.165-.174.109-.126.039-.087.187.061.2-.13.113-.174.056-.035-.156.148-.218.07-.234-.053-.118.252-.204.23-.178.1-.166.114-.552.217-.296.105-.274.113-.334.065-.218.265-.265.192-.265.056-.296-.14-.187.04-.196-.035-.078.113-.222-.165-.03-.165-.157.209-.304.082-.035-.078-.144-.104-.082.095-.374.052-.104-.295-.035.021-.587.066-.109-.279-.644.1-.787-.087-.413.279-.248.06-.26-.182-.292-.587-1.113.065-.53.252-.027.105-.152.078-.013-.052-.13-.2-.044s-.174-.196-.174-.226l.004-.487-.087-.074.126-.16-.108-.114.126-.213-.07-.152.2-.022.174.065.14-.065-.627-.63.23-.192.196.096.152-.104.14.208.304.161.474.04.465-.405.496.14.504-.036.205.6.374.461.23.44.192.478.413.474.378.509.257-.07.16.187.222.03.07.118-.044.47.287.304.318.326.187.5.17.244-.031.056.278.135.161.23.109.14h.143l.096.07-.087.164-.091.21-.01.117.358.178.273-.465.227.139.326.256.443.226.357.048.36.03.066.183.078.213.261.122.218-.122.191-.043.078.056-.06.122-.07.078.056.118-.065.122.226.043.244.144.121.06.374-.408.122.122.218-.231.3-.183.26-.295.1-.318.479-.37.357-.578.47-.317.034-.265.109-.035.648.565.052.165.53.126.605.292.248.182.095.07.24-.217.108-.153.196.066.196-.205-.105-.265.705-.34.213-.182-.157-.43-.17.026-.012-.179.134-.173.083-.092-.287-.27.24-.326.4-.047.017-.296.434-.074.396.087.361.309.248.017.296-.356.265-.105.187.213v.165l.23-.186.087-.196.179.217.152-.074.304.266.309-.17.165.013.192-.426.243.035.191-.235.13.009.127-.205-.017-.113-.24-.14.092-.36-.153-.096-.278.11-.043-.157-.287-.105-.192-.048-.087-.387-.23-.026-.309-.126-.043-.252-.313-.274-.127-.33-.308.043-.122-.117.074-.231-.148-.14-.091.088-.066-.052-.017-.135-.291.039-.074-.274-.057-.022-.374-.026-.052-.148-.022-.391-.256.26-.148.136-.422.187-.387.46-.087-.03.057-.235.16-.174.066-.17-.174-.26-.344-.148-.113-.117-.121.078-.14-.122.035-.252.283-.27s.043-.565.043-.587c0-.021-.182-.235-.182-.235l-.274-.143-.379-.122-.113-.287-.3.096-.321.039-.127-.026-.056-.278-.287-.292-.135-.217-.357-.083-.413-.039-.678-.187.035-.365.043-.435-.108-.34-.065-.326-.209-.184-.135-.259-.123-.006-.031.332.05.074-.142.203h-.234l-.012.21-.13.085-.018.252-.129.105-.35-.338-.283.074h-.394l-.369.338-.344-.074-.216-.117-.092.086-.449-.03-.277.049-.264-.062-.19-.234-.068-.332-.043-.276.406-.252.344-.246.215-.025.19-.092.013-.388.098-.135-.344-.13-.246-.116-.184.037-.443-.363-.006-.332-.062-.228-.19-.104-.111-.424-.221-.136-.499.013-.209-.099.068-.4.301-.11.172-.252.308-.197.043-.45.27.025.154-.209-.209-.086.246-.264-.203-.172.394-.043.314.036-.111-.16.19-.264.203.03.074-.03.16.13.314-.013.393-.437-.301-.424.197-.498-.215-.197.006-.166-.191-.19.307-.253.203-.627-.061-.148.387-.196.043-.111.228-.092.068-.314.258.068.197-.203-.031-.19.13-.173-.093-.055-.099.11-.4-.117-.245.007-.08-.136.184-.147-.006-.296.068-.252-.105-.086-.233-.233-.277-.32.172-.203-.178-.27-.13-.038-.393-.393-.19-.031-.376.35-.043.167-.104.012-.093-.074-.32.068-.042.197-.16.233-.179-.012-.178.055-.24-.018-.264-.732.135-.406.258-.178.111-.252.086-.29.252.007.105-.166.233.277.339.012.073-.099.197.154.228-.043.123-.068-.05-.984.4.185.265-.092.522-.123-.104-.148.357-.203.012-.283.246-.283.234-.276.203-.283.116-.24-.049-.178.437-.4.197.037.32-.258.32-.16.005-.339.154-.282.326-.228-.141-.277.141-.252.264-.018.056-.123-.19-.105.054-.4.548-.24.787-.627.141-.529.228-.326-.172-.43-.172-.148.012-.38-.172-.173.086-.394.283-.289z"/></svg>