<svg width="256" height="256" viewBox="0 0 67.733 67.733" xmlns="http://www.w3.org/2000/svg"><path style="fill:none;stroke:#000;stroke-width:.26458333;stroke-linecap:butt;stroke-linejoin:miter;stroke-opacity:1;stroke-miterlimit:4;stroke-dasharray:none" d="m36.389 4.62 1.404.292.397-.093.86.146.358.013.755 1.007-.013.397.543.53.172.556.504.49.675.225.225.45.57.372.291.503.199-.013.185.198.226.04-.239.45.146.265.331-.026h.331l.437.08.623.344.622-.106.133-.41.543-.186-.133-.265.133-.16.874.107.37-.252.716.821.464.053.092-.45.186-.238-.04-.252-.013-.543.278-.027.265-.622-.133-.729.583-.264.04-.769-.344-.185.092-.795.676-.159.543.106.463.556.808.067.173.013.318-.464.264-.238-.053-.318.45-.053.12-.278-.291-.768.026-.848h.291l.49-.185.173.013.384-.239.397-.53.239-.026.053-.437.159-.159v-.212l.158-.146-.026-.463.662.04.358-.199.291.199.557 1.35-.106.16 1.139.794.198.345.186-.027.145.623-.092.198-.345 1.325.053.159-.145.238.304.914.265.384.08 1.378.86 1.828-.026.344.278.159.225 1.1-.172.172.146.503-1.338.08-.265 1.191 1.365.398-.106.185-.888-.053.212.305.596.291.027.504.476-.08.305-.265.225.066-.026.16.649.516.185-.212.225.278-.026.331.04.57-.265.37-.45.08-.12.397.16.358.516.093.225.384.318 1.298-.16.12-.238.45-.02.225-.29.258-.378-.159.251-.318.153-.046-.166-.331-.192.125-.212-.033.027.153.159.073-.2.211.014.126-.305.047-.158.192-.338-.027-.265.053-.225-.093.02.272-.656.06-.133-.259-.264.093-.186.238-.218-.02-.563.318-.444.067-.113.443-.185.133-.378.06-.576.238-.02.258-.397.146-.364-.12-.08-.132-.457.43-.45-.125-.45-.292-.014-.304-.152-.12-.172.113-.166-.199.053-.218-.125-.007-.318-.37-.325.013-.192-.239-.444.285-.245.285-.265.145-.178.126-.192.186.02.404.092.08-.139.218-.013.112-.384-.046-.106.132-.199-.245-.232.173-.192.02-.152.145-.172-.179-.239-.033-.33.053.045.232-.046.126.172.271.014.206.251.046-.06.291.12.173.404-.252.291.112.066.186-.08.238-.297-.02v.16l.192.026.185.265.086.318-.132.245v.463l-.258.053-.18.16-.191.072.126.378-.259.106-.132.443.066.259-.172.317.093.318.185.18-.086.185-.007.251.007.166-.218.37-.325.206.166.126-.02.198-.457.2.046.284.06.516-.603.212-.192-.013-.02.298-.232.41.053.213-.086.212-.106.225-.132.304.119.212-.132.027-.18-.186-.085-.006-.047.092.033.219-.33.02-.12.159-.245.1-.205.198-.186-.007-.112.199.132.304.013.325-.264.252-.1.218-.185.066.245.093.192-.007-.311.418-.252-.133v.318l.271.126-.192.093-.02.324-.192.013.093.259-.298.145-.298.305-.152-.033-.172.172-.351.12-.278.25.006.564.146.298.12.205.165.199.033.192.324.073.391.364.305.291.132.206-.199.106.133.205.205-.013-.126.231.113.338-.735.093-.378.192-.192.218-.06.212h-.754l-.272.2-.132.132-.153.06-.125.218-.047.377-.132.04-.272-.086-.132.139-.013.291-.457.16-.173.198-.119.238-.258.086-.133-.06-.04-.204-.49-.212-.476.165-.245-.007-.252.285-.649.345-.126.291-.35-.093-.08.206-.265-.007-.272-.179-.152.166-.51.086-.179.298-.119.08-.252.211-.377-.08-.616.133-.311-.013-.338.285-.305.073-.404.245-.536.099-.311-.08-.986 11.032-.895-.15-.695-.292-.312-.159h-.192l-.397.39-.02.193-.08.046.047.722-.205.073.06.232.112.324.198.1.02.251.18.557-1.279-.153v-.934l-.232-.192.053-.192-.682-.516-.046-.312-.16-.006-.178.291-.013.219.205.139.046.258-.086.146.298.185.033.219.126.483.053.1.14.02-.034.27.033.233v.119l.16-.013.31.41.2.073-.008.212.411.08-.046.112-.067.12.285.125-.126.16.027.151.252.027.066.172.218.053-.106.199h-.185l-.166-.219-.159.02.034.344.225.318-.358.437.033.305-.08.166.213.258.006.536.47.643-.092.82-1.358.153-.722.093.06-.616-.788-.08-.14.517-.397.225-.231-.006-.259.132-.622.795-.477-.14-.285.133-.007.192-.304.027-.285.08-.199.49-.284-.365-.345.046-.35-.298-.259-.066-.093-.159-.324.02-.186-.245-.172-.04v-.139l-.199-.159-.092-.139-.437-.112-.192-.404.125-.133v-.139l-.198-.06-.192.02-.199.212-.278-.053-.007-.179.066-.132-.08-.026-.138.112-.06.152-.304-.072-.18.013.067-2.133-1.43-.576.251-.126.086-.159.259-.026.635-.623.053-.251.365-.14.06-.357-.1-.073.132-.152.04-.192.126-.007.06.252.059-.67-.14-.158-.84-.662-.517-.206-.172-.165-.702-.404-.616-.709-1.874-.602-.02-.14-1.271-.43-.2.397-.787-.57-.39.014-.438-.49-.026-.43.04-.537-.127-.417-.357-.55-.047-.198-.238-.14v-.191l-1.205-.404-.934.033-.324-.212-.047-.98-.47-.437.08-1.868-.153-.198.046-.411-.403-.318.192-.305-.484-.099.305-.258-.073-.212-.186-.04.133-1.384.715-.04.047-.596.092-.159-.192-.563-.33-.801-.067-.305-.689-.31-.464-.233-.139-.384-.715.16-.457-1.425-.45-.033-.404-.218.046-.265.093-.358-.37-.662-.286-.278.365-.192.139-.298 1.337-.332.02-.49-.437-.423-.192-.464.192-1.291-.437-.02-.086.066-.192-.225.02-.338.331-.132h.08l.198-.298 1.1-.47.225-.212.874-.305-.166-.59-.126-.158.245-.14.398-.728.08-.192.185-.106.033-.285.304-.02.166.053.053-.298-.046-.47.02-.086.337.186.265.006.113.974 1.524.414.646-.234 2.285.084 1.227-.993-.225-.318.216-.31 1.386.01-.028-.777.075-.122-.394-.393.262-.281.937.355 1.03.665.721.366.375.093.038.066.168-.337 1.49.028.158.15.141-.038.421.497 1.19-.431.815-.244-.244-.262-.187-.178-.15-.037.384-.422-.075-.168-.262-.31.131-.252.178-.113-.178-.318.16-.131.393-.525-.188-.45-.187-.177.356-.216h.187l.234.178.188-.01.45.244.327.085.206-.384.187-.14-.01-.422.132-.31-.44-.346-.019-.375-.215-.309.103-.28.093-.797-.271-.103.421-.899.31-1.311.15-.047-.076-.197.113-.3-.094-.187.29-.3-.187-.28h-.281l.843-1.134 1.386.178-.253.29.131.085.281-.197.047.047.028.394.122.168.89.131.571.206.328.328.187.122-.01.15.347.037.319-.047.496.225.375-.084.393.271.6-.243.45-.6.29-.074.833-.581.028-.525.15-.028.15-.15.3-.121.458-.319.328-.562 1.855.375-.169-.3-.28-.234.046-1.114.805-.89.16-.422-.469-.206-.468-.009-.412-.253-1.058.094.121.14.01.337-.721.422-.16-.01-.618-.777-.271-.15-.225-.609.29-.627-.562.019-.047-.59.73-.712-.083-.281-.132-.187.038-.3.3-.337-.113-.113-.243-.28.178-.488-.188-.178.131-.627.057-.356-.038-.178.234-.29-.215-.122.056-.478-.122-.496.338-.506.356-.3.215-.327.112-.216-.215-.908.206-.525.028-.534z"/></svg>