<svg width="256" height="256" viewBox="0 0 67.733 67.733" xmlns="http://www.w3.org/2000/svg"><g style="stroke-width:.84121663;stroke-miterlimit:4;stroke-dasharray:none"><path style="fill:none;stroke:#000;stroke-width:.84121663;stroke-linecap:butt;stroke-linejoin:miter;stroke-opacity:1;stroke-miterlimit:4;stroke-dasharray:none" d="m66.396-23.313-2.767-27.002 1.095.23 1.326.115.864 1.21.75-.114 1.383-.692.864.115.058.692.346-.461.98.346.864-.116.576.288.346-.057.922.691.807.058.461-.634.98.403.461-.403.98.461.173-.46 1.326.46.864.173.692-.346 2.075-1.152.288-.577 1.729-.46.749-.693-.115-3.054.518-.404-.518-1.095-1.095-.057 1.786-2.075 1.21.922 2.537.288.93 1.165 1.1.53.449-.163-.408-.897.326-.285 1.019 1.345.448.774.041 1.1.326.816 3.383 3.545.285 2.038 1.263 2.038.204 1.63.693 1.141.081 1.06.856.244 1.019.082-.367-.53-.367-1.467.286-1.916 1.06-.774-.571 1.67.122 1.55.897 1.915-.123 2.364.408 1.752.937.693.326-.204 1.467.611.286.367-.612.978-.489 2.527v1.508l-1.14.53-.571 1.1-.897 5.787-.53 1.141-.366.775-.123 1.59-1.263 1.955-.408.408-.57.081-1.223 2.568-.448.367-.367 1.345.285.366-1.711 1.1-.856 1.02-.122 1.14-2.486 3.18-.204.774-1.753 1.752-1.956 2.12-2.527 2.363-1.915 1.59-.693 1.67-.53.245-.366.611.04.449-.856 2.2-.489-.04-1.589 3.83.163.653-.285 1.385-.449.041-1.06 1.956-.855.815-1.508 4.157-.937 4.402.04 1.834.449 3.015.815 2.446.816 1.28.62.504.403-.187.688 2.804-.775 2.364-.448.489-.734.937.286 1.223.081.774h-.774l-.408-.774.408-1.1.04-.856.225-.49.713-.285.496-1.196-.029-1.08.26-.447-.23-1.312-1.096-.72-.317-.692-.533-.158.173.807.605.864-.014 1.038.49.418-.317 1.354-.663.346-.447 1.037-.274.994-.144.793-1.484.792-1.268.144-.23-.605-.375.23-.922.894-.403 1.355-.606 1.354-.835 1.816-.579.92-.397.856-.163 2.068-.296 1.161-.377.47-.52-.113-.529-.5.56.052.459-.245.061-.733.224-.693.122-.876.01-.775-.56.245-.835.02-2.11.978-.763-.367-.184.56.133 1.244.112 2.038-.224.55.417.499 1.712.784-.082.48.754.54.877-.031.193-.581-.682-.255.713-.387.58 1.05-.468 2.058.428.53-.235.692.887-.285.652-.754.458-1.172.836-1.365 1.549-.275 1.314-.622 1.11-.101.785.866.52.05.377-.366-.377-.01.02-.439.357-.397.407-.204.611-.275-.06-.295-.388.305-.5-.06-.172-.612-1.906.04.061-.397.877-.224.794-.06.591.356.52.091 1.67-.509.602-.143-1.04-.621.5-.611.479-.102-.255-.775 2.2 1.64-.02 2.426-.346.326-.346 1.997.346.957-.428 1.712-1.426 1.467-1.06.326-1.385 2.588-.958.408-.999.264-.672-.163-.055-.406.663-.03.446.073.39-.288.086-.908-.433-.447-1.037.562-1.7 1.24-.764 1.08-.735.519-.749 2.391-.418 1.657.39 1.153.014.994s-1.038 1.052-1.052 1.11c-.015.057-.461.735-.461.735l.187.389.576-.303.433.159-.015.432-.144.432.533.98 1.225.519 1.21-.274-.1-.576.518-1.946.75-.806.749-1.485.403-.028.173-.418-.317-.62.75-.936 1.08-.461.792-.26.231-.605.85-.403.75-.245.691.13.548.432.706.317-2.594 3.53-.605.864-.894.865-.23 1.671.346 2.017-.288.663-.058 1.47.115 1.642-.26 1.182-.46.23-.75 2.248-.288 1.268-.605 1.441-.374 1.643-.548.72-.576 4.553-.577 1.528-.346 2.507.289 1.383-.778 1.44-.923 1.096-.576 2.882-.23 3.17-.202 1.729.173 1.7-.317 1.44-.519.98.144 3.776-.058 1.7-.576.95-.778 1.903-.634 1.325-.605 1.47-.202 1.383.029 1.268-.029 1.499.144 1.325-.23 1.355-.692.202v-.72l-.029-.577-.403-.663.288-.72-.663-.461h-.49l.058.72h.461l-.029.432-1.297.432-.345-1.354v-.663l.403.346.605-1.153-.202-1.296.836-1.643-.086-.548-.548.52-.922 2.132-.519-.865.375-.576.029-.894.663-.605-.231-1.095-.605.087-.346-.375.087-.922-1.038-.692-.836.461-.46-.72-.073-.951.173-.706-.043-.404-2.161-.086-1.888-.792-.864.028-1.37-.677-.85-.13-.388-.893-.577-.677.202-.36.645-.149.815-.795.143-1.416.336-.764-.703-.153.051-.805.52-1.06.642-.825.316-1.508.478-1.15-1.15-1.733.366-1.875.326-.397-.469-.458-.54-.255.683-1.08-.55-.082-.428-1.06-1.355-1.191.05-2.018-.896-.53-.958.184-.417.917.05.683-.906.825-.5 1.355-.641.611-.632 2.16-.173.377-.051.927-.55-.02-.265-.57-.51.122.03.479-.376.132-.49.458-.743.214.214.897.5-.367.794-.142.469-.53.458.224-.142.703-.622.58-.438.041-.448.683-.459 2.262-.845 1.355-.102 1.61-.53.631-1.223 2.975-.815 1.712-2.071.553-2.248.548-1.181-.173-.634-.375-1.845 1.24-1.902-.865-2.19 2.248-.432 2.968-.778 1.527.432.72-2.478 4.237.029 1.44-.058 1.7-1.124 1.211-2.766 1.499-.663.576.115.346h.461l.461.692-1.008 1.815-.605 2.133.317 1.642-.923 1.297-1.239.634-.374.605v.634l-.692.951-.115.375.201.345-.749.894-.864 1.383-.548.115-1.037.577-.548.749.288.605-.201.951-1.643.058-1.354-.663-1.758-2.161-.865.23-1.095-.029-.98-.317-.49-1.124-.95-.634-1.21-.144s-.635.346-.635.461c0 .116-.663.433-.663.433l-1.095.029-.95.95-1.038.606-.72.98-.462.1-.1-.36-2.695.101-.331-3.905 2.276-.1-.1-2.018 1.008-.043-.187-1.326-3.185.13v-3.314l2.882-.389-.346-4.179-.821.044.086-4.02h1.067l-.75-5.043.85-.13-.446-3.501h-1.441l-1.39-15.281-.53-1.223.774-.366-1.14-9.863-.286-6.276-.04-4.564h-.53l-1.427-16.017-8.559-6.113 3.863-3.552-.432-1.527h1.844l.03-.548 2.19.116.143 3.17 2.133-.289-.288-1.671-1.095-.144.115-4.813 2.305.26.173.662 2.046.03.26-1.586 1.757.03-.144-1.182-.98.374-.172-.374-1.643.518 1.009-3.285 1.21.202-.029-1.268.893-.173v-.461l.49-.634 1.038-.029.576.173v.922l.836.115.432-.922.375.432.432-2.074-.23-1.412 1.123-.087-.086-1.095 2.738-.288.172-.461-.547-.605.144-.634.346.057v.461l.49.03-.23-.635.345-1.008-.317-.49.403-.807.26-.144-.144-1.297.432-.058.029-1.297 1.037-.72 1.643-.058h1.671l.288-1.066.289-.49v-2.017l-.289-.26.087-.547 2.536-2.046.778.029.115-.865 1.412-.086.144-.519h.404l.086-.49 3.602.03.087-2.364-1.24-.202 3.949-3.083 1.47.202.23-.346h.23l-.374-.72.547-.058 2.19-.634 2.479.086 2.132-1.152V19.22l1.758-.23.144.173 4.813-.087 4.265-5.187-.202-.576.865-.087 1.786-2.363-.288-1.585 1.787-.23L57.504-3.423zM98.706 13.816l1.59-1.508 1.06-1.06 1.222-1.875.448-.203 3.138-5.461.856-.326.326-.897.49-.367 1.263-2.771.04-.734.979-1.345.611-2.445-3.179 2.282-3.22.653-.855.855-.978-.489v-.733l-.693-.286-.978.816-.367.04-.693 2.079-.611.896-1.386 2.527-.244.815-.53.897-.611 2.364.122 1.956 1.019 1.834v.978h.407zM89.904 119.491l1.793-2.282.57-2.853-.366-2.2-.286-1.183 1.1-1.793 1.345-1.467.856-1.59.49-1.874-.286-2.445-1.345-1.997-1.304-1.1-.856-.53-.815-1.427s-2.69.49-2.853.57c-.163.082-.57 1.386-.57 1.386l2.282-.122-1.06 1.834-1.426 1.834-.081 1.386-1.305 3.056.408 3.057-.57 2.445.488 3.953 1.264 2.2 2.445 1.346z" transform="matrix(.31452 0 0 .31452 19.176 18.765)"/></g></svg>