<svg width="256" height="256" viewBox="0 0 67.733 67.733" xmlns="http://www.w3.org/2000/svg"><path style="fill:#000;stroke:none;stroke-width:.26458333;stroke-linecap:butt;stroke-linejoin:miter;stroke-opacity:1;stroke-miterlimit:4;stroke-dasharray:none;fill-opacity:1" d="m46.291 41.152 1.17-.372.318-.65.877-.253.93.345.386.266.212-.053.824.85.226.24-.04.624.412-.013.252.837.213.265v.439h.253l-.08.398-.173.24.093.451.545.346.558.385-.425.625.398.053.399.239.292.505-.133.292-1.156-.491-.146.916.266.744.213.08.026.545.213.12-.16.451-.186.505.226 1.143.266.624.12-.571.425-.08.478-.186.385.585.306.545-.027.478.479.279-.107.385-.106.107.08.212.359.093v.332l-.293.28.24.371.146.532v.252l.08.173.438.16.186.132-.027.372.067.638v.492l-.12.252.146.293.452.16.505.132.053.16.452-.346h.491l.598.2.28-.094.172.226h.12l-.067.306-.16.12.04.757-.345.04-.226.677-.61.24v.385l.345.598-.173.318.093.12-.106.186-.173.292-.386.743.132.225-.132.385s.245 1.053.282 1.053c.038 0 .442-.104.442-.104l.056.198-.206.244.347.019.028.3-.122.076.254.272-.056.836-.451.357-.16.019-.019-.188-.235-.15-.3.15-.188-.019-.113-.31-.376-.028-.122.122-.282-.16.075-.3-.229-.112-.14-.153-.079-.2-.08.147-.312-.08.106-.438-.192-.459-.293-.146-.179-.405.086-.22.432.02.14.067-.014-.173-.199-.113-.266-.279-.126-.02-.12.22-.146.033.047.246.007.338.146.419.133.292.14.126-.047.479-.186.146-.067.319.2.69.013.306-.3-.046-.278-.731-.346-.266-.837-1.574-1.176-1.382-1.441-1.116-.1.006-1.74-2.331-1.469-1.482-.903-.903-.386-.406-.279-.206.047-.133.259-.1.146.213.186.2.372.319.08-.246-.332-.14-.213-.226-.026-.199-.452-.073-.166.312-.193.113-.08-.292.127-.027.046-.18-.418-.364-.133-.353-.326-.504.16-.18-.28-.565-.73-.916-.857-.904-.033-.239-.725-.691-.006-.24-.611-.59-.632-.505L41.27 50l.02-.126.14-.279-.665-.917.046-.186-.531-.677-.007-.519-.976-1.036-.837-.903-.937-.89-.698-.632-.372-.266-.086-.166.093-.1.226.154.12.106.053-.14-.246-.212-.379-.18-.492-.518-.312-.113-.285-.312-.452-.299-.34-.326-.298-.013-.379-.657-.206.338-.644-.584-.91-.691-1.043-.81-1.528-1.143-.751-.399-.12-.252.24-.08.126.04.153.299.378.106.166.226.266.106.366.319.239.206.206.02.285.392.445.033.173.1.053.232.047.1.259.02.272.312.2.28.279-.02-.034-.566s-.16.047-.179.074c-.02.026-.133-.06-.133-.06l.093-.186.346-.067.08-.08-.107-.312-.113-.491-.578-.977-.365-.14-.459.14.14.213.126.033-.133.392-.604.04-.193-.087-.326-.332.014-.2-.166-.026-.18.153-.226-.133-.06.16-.338-.113.006-.2.193-.093-.046-.126-.505-.352-.193-.186-.319-.252-.2-.153-.371-.146-.1-.107.286-.046-.1-.126-.332.013-.133.073-.266-.146-.162-.133-.183-.206-.16-.136-.206-.103-.036-.266-.037-.163-.056.044.02.259.07.176.216.189.182.286.183.153.186.1.083.145.329.233.086-.057.08.073-.13.107-.697-.376-.741-.637-.319-.442-.036-.415.063-.296-.12-.252-.249-.32-.339-.305.05-.113.25-.033.119.006.229.256.445.409.093.113.043.17.14.115.18-.04.198-.092.18-.09-.093-.116-.143.003-.033.13-.146.03-.103-.07-.024-.233-.236-.093.123-.232.203-.127.23.04.119.093-.02-.15-.18-.179-.142.05-.382-.202-.01-.206-.326-.27.236-.182v-.173l.176-.239-.136-.116-.24-.07-.013-.206.36-.412-.02-.491-.376-.17h-.08l-.1-.259.077-.146-.07-.668-.136-.282-.193-.126-.136.003-.163-.196-.226-.262-.368-.156-.004.063.136.113.047.14-.066.066-.343-.074-.285-.252-.572-.651-.192-.096-.14-.286-.03-.173-.342-.123-.11-.023-.056.1.133.17.063.095-.066.08-.13.004-.11-.203-.083-.096-.255-.18-.004-.05.133-.01.09-.096-.057-.315-.222-.123-.28-.087-.032-.133-.163.083-.047.173-.096.083.003.163.107.12-.067.282-.173.22-.445-.679-.431-.421-.877-.555-.678-.369-.585-.242-.654-.283-.578-.196-.385-.15.023-.029.408.063.402.093.147.05.186-.08.229.143.14.18.159.092.206-.013-.253-.163-.232-.192-.087-.246-.269-.26-.262.02-.336.117-.199-.043-.412-.628.08-.033.09-.033-.054-.163-.282-.05.02-.1.166-.013-.13-.183-.06-.126.183-.2-.066-.222.176-.14-.136-.05-.09-.305-.285.057-.187.163-.255-.243-.037-.252-.332-.004-.083.08-.146-.076-.13-.05-.123.043-.01.156.093.126.007.306-.116.073.03.066.172.02-.026.166-.332.346.006.13-.305.132-.074-.14-.249-.242.173-.176-.003-.1-.15-.03-.252-.112-.186.036-.11.116-.176-.1-.123.057.067.176.172.163.067.017-.007.103-.252.063-.09-.113-.19-.11-.042.05.139.123-.056.053-.1-.006-.478-.588-.176-.306-.286-.362.033-.103.24.056.152.19.113.086.11-.036-.176-.223.06-.073.285.093.412-.073-.286-.093.067-.266.116-.006.236.219.143.023.166-.143.09-.023.006.25-.096.092.006.106.09.034.13-.067.036-.176.056-.21-.04-.285.137-.259.312.113.22-.19.026-.242-.077-.345-.162-.17-.356-.036-.252.083-.116.13-.233-.007-.156.242.007.21-.153.209-.256.276-.07.063.1-.25-.173-.136-.063-.16.116-.003-.116-.103-.136.034-.087.18.08.105.106.087.057.156-.173.026-.21-.225-.228-.037-.136.12.046.166-.422-.06-.083-.558-.355-.3-.03-.208-.542.196-.664-.18-.02-.697.146-.073-.063-.25-.345-.209-.183-.202-.276-.01-.209-.3-.04-.09-.299.134-.023.737.106.555-.173.043-.08-.036-.01-.808-.139-.684-.202-.498.166-.173.073-.634-.04-.326.08-.392-.16-.398-.212-.113.724-1.601.478-.565.544-.896.362-.563.15-.583.07-.38.31-.282.259-.202.164.066-.047.324-.164.267-.216.033-.085-.178-.07.258-.146.437-.178.681-.08.39.155.202.202-.113.206-.591-.103-.226.028-.16.165.014-.005.216.211-.145-.08-.17-.037-.201.164.051.057-.197.178-.07.033-.33.132-.817.211-.051.263.343.216.202.005.235-.118.15.23.056-.112.15-.273.048.047.192.268.155.22-.01-.027.193.366.263.057-.272-.25-.296.207-.14.066-.17.16-.005.023-.202-.286.066-.268-.249.296-.14.329-.245.117-.263.103-.17.874-.648.94.221.361-.385.33.183.267-.362-.136-.248.503-.33-.156-.201-.093.108-.898.028.376-.211.362-.884.911-.244.16.118.174-.066.033-.127.516-.15h.287l.066.103.366-.038.024-.732.192-.184.08-.197.4-.103.028-.578.38-.165.113-.413.244-.028v-.46l.235.21.305-.276-.15-.099-.146-.254.31-.23.235-.517.742-1.32.724-.051-1.198-.207.005-.268.23-.169.023-.235.179.01.08-.076.16.184.201-.043.39.165.005.103.564-.188.16.038.202.272.08-.023.023-.277.22-.165.254.132.07.244.49-.409.314.23.197-.084.235.061.047.263.122.24-.338.32-.108-.03-.099.184.005.118-.216-.033-.01.16.09.29-.08.292.146.16.117.136-.023-.277.065-.057.118.061.066.066.084-.028.066.028-.019.146.042.127.061-.01.029-.174.155-.037.098-.085.029-.098.164.06v.25l-.047.267h.571l.83 1.14-.079.345.24.013.106.22-.087.119-.053.212-.073.047.18.212-.08.386-.326.339-.345.225-.28.093.187.246.206-.02.225.173-.02.14.266.199v.22l.273.238.066.306.26.272.099.34-.106.112-.273.193.233.113-.585.451s.425.585.419.631c-.007.047.033.266.033.266l1.375 2.18.007.478.212.226.28-.06.338.265.113.505.326-.053.106-.266.206-.093.305-.146.346.18.518.113.678-.147.425.113.339.485.06.32.265-.067.173.013.392-.339.591-.02.817.426.598.59-.046.386.325.678-.04.186-.04.445-.132.452.598.458.013.24 1.256.89 1.056.896-.02.333-.06.186.24.245.072.133.34.027.311-.28.333.3-.04.212.033.22-.332.046.226.472-1.84.976-.22.1-.16-.04-.092-.086-.346.04-.04.252.06.166-.106.113.126.213h.233l.106.232-.2.419-.08.239-.325.046-.358.306.451 1.289-.471-.113.67 1.043.433.306-.16.159.013.106-.285-.02.352.525-.126 1.973.877.34-.047.285.611 1.07-.1.112.034.2.259-.24.67.678.14.067.1.245-.419.113.213.047-.06.246.34.312.225-.153.485.1.903.956.007.213.173-.027.937 1.176.225.658-.02.365.539.897.292.067-.08.285.173.153.113.186.2-.14.185.286.24.054-.12.332-.007.186-.405.285.153.313-.014.225.658 1.11.14.24.186-.067.372.212.325-.08z"/></svg>