<svg width="256" height="256" viewBox="0 0 67.733 67.733" xmlns="http://www.w3.org/2000/svg"><path style="fill:none;stroke:#000;stroke-width:.26458333;stroke-linecap:butt;stroke-linejoin:miter;stroke-opacity:1;stroke-miterlimit:4;stroke-dasharray:none" d="m18.96 14.618-.418-4.29.64-.069 1.839-.836.752-3.258.515-.766.119.055-.084.307-.355.508.083.279-.132.23.049.313 1.072.995 1.542-1.153 2.216-2.668L28.61 5.88l.099.965-.581 2.186.738.01-.108.837-.246.089 1.093.502.443.069-.03.463-.295.02.256.797-.295.739-.306 1.96.247.029-.08.483.227.049-.187.778.424.069v.433l.492.305-.06 1.143.1-.138.393.817.04.158.078.01.04-.138h.197l.069.344-.197.286.128.099-.099.167-.128-.108-.275.384-.06.463-.078.068-.04.562.355.03.059.482.128.118-.05.453-.58-.295v.59l-.296 1.33.965.906-.384 2.787.109.325 2.363.502.05-.492-.66.118-.138-1.448.778.109.078-.089.335.04.414-.818.936.168.078-.207.207.04-.295.964 1.753.266.256.089-.06.649-.154.014-.007.752.167.014-.097.46.738.048.035.508.989.523-.028.188-.216-.021-.132.139-.258.035-.07.139-.18.049.055.46-.153.062.041.174-.139.077-.327-.314-.056.042.188.745-.369-.055.021.96 1.065-.034.293 1.699-1.177 1.114.063.181 1.253.46 1.066-.446 1.267.028.634.32-.035.892.627.376.188-.182.285.007.341.174.606-.013.662-.432 1.977.69.558.521.633-.18-.41-.787-.495-1.4.808-.105.09.14.216-.035.634 1.372.425.014.334-.188.244.027-.05.195.252.558.675-.147.125.37-.132.034.042.126.257-.056.411.898.418 1.316.495 1.282 2.096.097.87-.188 2.103.39.153.355.258-.042.23.174.02.188.251-.104.14-.202.23.125.083-.111.515.216.293-.125.418-.05.431-.062.09-.223.182-.035.57-.34.516-.091-.035.543 1.31-.049.25-.07-.02.502.738.223.201.348h.175l.431.237.265.243.111-.041.063-.188.265-.035.278.41.167.028.265-.09.16.146-.132.265.083.062.474.028.007.251.362.02.348-.083-.278.418.062.125.181.168-.042.292-.174.084-1.138.804-.258.244-.007.264.202.251-.278.373-.056.191.132.275-.223.105.077.268-.24.417-.08.269-.192.08-.104-.084-.06.111.248.397-.234.133-.275-.066-.268-.199-.122-.1-.449.368-.174-.097-.271-.021-.028.303.223.226.222.024.255-.167s.076-.18.1-.184c.025-.004.314.062.314.062l.3.491-.808-.118-.025.244.456.014.13.202-.12.195-.299-.147-.156.355.118.168-.122.205.063.049.23-.119.24.746.366-.352.146.129-.119.233.07.195.303.094.327.64-.066.147-.087.003-.143-.115-.202.21.122.135-.167.223-.258.063-.1.094-.119.127-.098-.032-.113-.071-.143.044-.003.074.217.025.103.13-.221.266-.163-.3-.096-.14-.408.16.044.076.148.032.03.36-.279.23-.39.182-.376-.328-.118.133.111.118.146-.014-.083.3-.37.264-.09.195.133.056.153-.105.146.153-.042.428-.06.157.084.207.113-.015.32.714.153.118.222.158.354.064.355.305-.03.271.296.345-.089.463.064.61.138.158.108.074-.123.384.099.098-.06.089-.315-.108-.128-.232-.221-.03-.222.173-.428.069-.113.177-.478.005-.266-.113-.162.32-.537.103.059.187.404.335.428.054.438.202.138.28-.118.218.025.438.078.074-.103.748-.404.276-.551.133-.306-.31-.211.305.078.3-.177.079-.069-.069.045-.202-.04-.157-.438.044-.345.005-.408.152-.158-.196-.345-.128-.02.147.143.138.114.02-.005.26-.182-.009-.572-.02-.369-.32-.005-.123-.364.172-.108-.221-.414-.557.118-.118.069-.034.015-.133-.37-.079-.137-.251-.025-.566-.098-.084-.124.025-.069-.247-.295.04-.236.138-.306-.005-.467.187-.188.133h-.551l-.212-.202-.394.098-.069-.211-.334-.296h.433l-.03-.069-.58-.128.127-.58.552-.075-.104-.216.173-.104-.168-.399-.192-.206-.384-.911.064-.601-.211-.517.172-.842.02-.305-.685-.522-.03-.182-.344-.64-.148.118-.305-.055.015.271-.119.207.005.202-.285.059-.02.222-.251.069-.266.024-.167.133-.02.32.192.33-.551.59-.419-.019-.231-.256-.34.005-.207.104.05.305.122.221-.078.247-.197.049.039.345-.089.206-.157.109.044.27-.108.212-.104.158-.192-.07-.182-.3-.325.114-.35-.07-.039.144-.143.098-.108.192-.33.064-.256-.192-.478.05-.088-.183.123-.148-.29-.177-.198-.231-.216-.173-.08-.147-.496-.315-.119-.296-.201-.212-.227-.502-.384-.128-.566-.025-.586-.098-.074.483v.265l.103.064-.054.158-.162.153-.281.26-.04.124-.246.054.08.167-.055.178-.266.069-.182.093-.27-.054-.016-.202-.295.02-.443.26-.355.207-.276.015-.364-.197.02.232-.212-.212-.04-.276.119-.315-.168-.108-.108-.094.118-.32-.093-.064-1.31.118-.463-.024-.217-.635-.709-.591-.458-.453-.123.03-.147.25-.119.005-.098-.285.098-.242.05-.108-.261-.256-.178.089-.458-.32-.482-.01-.419-.34-.763.074-.497-.173-.512.178-.493.103-.512-.059-.295.596-.05.409-.216.398-.177.148.162.099.315.462-.093.394-1.108.025-.468.212-.374.04-.478.334-.251-.103.089-.291-.207-.172-.177.202-.33.044-.266-.246-.217-.109-.443-.03-.197-.304-.197-.276-.66-.276.01.187-.581-.138-.847-.472.433-.828-.482-.335-.05.286-.689-.207-.138-.236.03-.335-.433-.167-.09-.197-.285-.04-.423-.364-.246.089-.808-.188-.66.06-.965.147-.719-.335-.58-.61-.02-.256-.907-.03-.059.227-.58-.414-.907-.089-.896.276-.542-.079-.128.178-.118-.128-.315.187-.315.305-.05-.128.247-.177-.099-.276.257-.246.059-.296.256-.354.394-.246-.03-.335.167-.02.07.197.393-.157-.138-.197-.265-.197.167-.227.217-.128.403-.581.414-.276H16.871l-.03-.098h-.324l-.071-.107-.021-.195.07-.146.142-.003.108.135.025.063h.111l-.063-.146-.153-.164-.146-.073-.06.098-.139.045-.024.167-.303.02.066-.414.328.039.062-.167-.031-.192.003-.404.429-.985-.147-.031-.233-.634.387-.61-.512-.41-.174-.328-.303-.24-.474-.059.4-.571-.41-.216-.314-.466.074-.45.804.056.209-1.455-.08-.268 1.03.024-.083-.247.505-.68-.004-.149-.132-.362.14-.4-.273-.878-.396-.397-.01-.254-.192-.272-.328.06-.369-.45.533-.56-.223-.087-.846-.582-1.306.112-.09.724-1.222.85-.052.762-.32-.254-.06.073.094.623-1.114 1.34-.004.116-.337-.01-.342-.234-.79.23.178.515-.665-.174-.13.394-.201-.025-.676-.512.244-1.01-.888-.18.31-1.665-1.42.174-3.042-2.449-1.073-1.34-.827-3.318-.414-.099.463-.955.344-.492-.443-.758.04-.7-.798-.384.118-.748.365.034.216-.04.153-.349.05-.344-.178-.025v.266l-.138.266-.231.064-.02-.163-.448-.551.522-.512.256-.572.246-1.186.675.02-.02.388.079.37.34.044.029.719.748.118 1.517-.29.985-.3 1.383-.473 1.896-.68z"/></svg>