<svg width="256" height="256" viewBox="0 0 67.733 67.733" xmlns="http://www.w3.org/2000/svg"><g style="stroke-width:.82348595;stroke-miterlimit:4;stroke-dasharray:none"><path style="fill:none;stroke:#000;stroke-width:.82348595;stroke-linecap:butt;stroke-linejoin:miter;stroke-opacity:1;stroke-miterlimit:4;stroke-dasharray:none" d="M-41.162-48.171 56.893-3.586 120.388.082l-1.61 2.893-1.753.04-.794 1.02.285.081.917-.428.469.713 1.019.062-.877 1.018-.163.897 1.977 1.141.04.774.408.102.469.754-.469.306 1.753.244-.286 1.08-3.056-.04-.163 2.914-3.709-.102.245.794-.306 3.302-.326.855.835.326 1.121 1.508-.224 2.384 1.773.652 1.304.265.367-.224.631.224.041.673.938.57.427-.183.062 1.12.264.225-.081 1.691 1.467.102-.265.999-.937.427.733 1.427-.305.937 1.528.51.448 1.385-.163.652-1.182-.713-.53-.224-.122 6.317.041 3.158-.693 1.386.347 1.854-.184.55.286.836-.734.59.184.816 2.404.469-.081 1.772-1.508.123-.184.448-1.752-.082 1.161 1.875-.978.448.224 1.753-.57.183.713.815-.795.469.387 1.304.449.061-.428.53-1.345-.04-.224.57-.49-.122.306 1.956.652 2.771-.326 1.854-1.263-.183-.448.285-.326-.04-.102.305.407.387.184.815-.469.265.122 1.06.408-.183.876 1.548-1.019.917.163.306.57-.02-.121.407-.428.122.53 4.218-.449 1.57.795.488.57 1.997h.856l.041.57-.55.082.122.917 1.406.795.163 2.69-.204.55.652 1.202.204 1.06.673 1.12v.632l.55.123-.082.733-.366.082-.062.631.449.286-.286.468.795 2.242-.693.346-.489-.387-.06 1.08-.857.469-1.426-.999-.204.347-.693-.184-.285 1.345-1.019-.346-1.956.957-1.487.102.163.367-1.203-.489-.448.245-.835-.204-.958.142-1.345-.224-.51-1.06-.326.041.225 1.121-.326-.081-.734-.632-.489.448-.387-.51-.469-.04.245 2.812-.55 1.162.203 1.446.632 2.14.122.937 1.1 1.366.428.04.653.57.326.45.387.223.142 2.446 1.264.815-.367.652-.754.163-.285.794.51 1.223 1.853.184.775.448.795.489.489 1.284.02.998.693 1.712.428.896 1.63.754-.102 2.079.163.244-.387.184.672 1.039.143 1.243.856 2.384-.917.774-1.1 1.406.08.449-.101.428.693 1.61.693.448.366 2.302-.57.591.163.815 1.08-.244-.163.998.469.632 3.464.734-.041.264-1.223.102-1.447 2.384-.57 1.427-.55.244-.02.652.55.184-.571.774-.408-.53-.326.204.041.815-.407.04-.143 1.04-.754-.04-.367.937.306.631-1.08.286-.346.713-.306.122.081 1.63-.754.02-.305-.264-1.793.367-.082.448-.51.04-.386-.325-1.834.652-.652 2.017.916.204.367-.245.265.449-1.202.855.326.51-.591.55-.57-.469-.918.938-1.935-.428-1.936 1.304-.978 1.345-.978-.041-.306-.51.469-.224-.245-.163-.428.041.102-1.426-1.08-.938-.367.204.938 1.202-.428.612-1.1-1.508-.225.305.061 1.223-.713.49-.142-.184.285-3.18-.306-1.955-.815-1.59-1.528-1.467-.836-1.59-1.508-1.018-.917-.285v-.286l1.305.184-.123-.856-.876-.143-.224-.611-.713.102-.347-.632-.896.652.142.367.693.061.326.224-.57.347.468.407-.183.326-1.814-.489-1.997-.183-.244.652-1.386-.367-1.834-.998-1.08-1.08-1.263-2.344-.326-2.282-.59-1.854-1.02-1.59.061-.672.591.713.265.876.387-.122-.081-.815-.143-.876-.163-1.325-1.222-1.12-1.02-.592-.814.062-.55.631-.51.224-.815-.713-2.934-.896-2.507-.815-.856-.612-1.935-2.18-1.366-1.467-.978-.408-1.202-.183v-.449l1.202.265.57.041.327-.183-.652-.347-.428-.04.469-1.142-.245-.815-.652-.305-.673.285-.203-.285.59-.387-.55-.041-.57-.102-.224-.774.285-.123-.55-.57-.53-.02.163-2.63.346.103.265.57.306-.143-.306-1.08-.692-.081-.775-2.241.49-1.386.692.183.673-.06.081-.918-.672-.081-.102.51-.286-.245.265-1.305.856.02.285-.488-.652.02-.815-.998.958-.53.061-.346-.407-1.203.672-.366.978.183.938-.408-.877-.04-1.06-.938-1.059-.285-.652-.713-.57.163.203.448.367.04.428.897-.326.082-1.08-.795-1.365-.672-1.243-.347-1.264.061-.917.102.041-.51 1.019-.162-.469-.917-.815.244.102.53-.387.061h-.673l-.346.714.917.122.102.713-.387.978-.754-.693-.876-.346-.55-.061-.143-.632-.163-.367.856-.53-.408-.183-.672-.346-.306-.591-1.019-.102-.713.428-.693.183-.407-.02-.653-1.182-1.874-.672-.265-1.223-1.386-.937-1.12-1.529-.184-.957-1.019-1.121V95.16l-.856-.51-.203-.346.06-.57-.366-.795-.632-.306-1.08-1.202-.04-1.61-.836-.734-1.793-.652-1.447-.774-.917-.49-1.691-.59-.184-1.304-.59-.876-.47-1.55-.101-.916-.734-.937-2.017-1.529-.285-.55-1.202-1.365-.347-.836-.122-.448.611.02.693-.489-.224-.183-1.284-1.406-1.487-.856-.714-1.365-.122-.408-.978-.957-.387-.836-1.427-.122-.163-.408.449-.55-.306-.713-.04-1.691-.266-.408.632-1.019-.896-2.2-.938-.061.775-1.61.033-1.155-.835-1.528-1.24-.634-1.729.173-.922-.49-.691-.749-.087-.749.894-1.354.691-1.47-.807-1.095-.893-.634.115-.98-1.354-1.787-.75-.72-.691-2.017-.663-.605-.548-1.528-1.412-2.247.173-1.268-.72-1.297-1.268-.317-.432-.173-.087-1.182.548-1.325-.23-1.182-.376-1.181.462-2.306.057-1.815-.778-1.585-1.354-1.038-.461-.345.374-1.499-.086-1.527-1.066-2.277-1.73-2.046-1.037-1.124-1.498-3.804-.548-2.132-.403-2.075-.145-.692.26-1.268.75-1.556.143-1.729-.202-1.642L.47 1.793.55 1.06h.265l.326.876.387.102v1.528l.265-.061.102-1.12.387-.347-.06-1.1-.286-.653L2.18.02l.082-1.324.306-.245-.917-.998-.408.876-.448-.163-.163-.632-1.304-1.283-.51-.408-.081-.774-.347-.204-.183.367.183.285-1.039-.081-2.017-.714-5.502-1.63-.204-.59-2.038-.714-.305-.53.367-.183.264.265.326-.408-.631-2.364v-.448l.51-.081-.694-1.182-1.304-1.406-.876-.49-.122-.285-.958-.142-.367-.387.123-.163-.816-.143-.835-.897h-.693l.122-.692-.428.163-.203-.367-.428-.347.04.571-.672.102-.713-.55.204-.897-.347-.143-.183 1.04.143.57-.041.55.754.47.346.55-.856-.205-.57.428-.326.428-.775.02-.428 1.121-2.669-.244-2.303-.978-1.772-1.162-1.121-1.935-2.812-1.753-.713-.754-.928-.313-1.167-1.772-.72-.922-2.277-.346-1.021-.152-.571-.53-.306.204 1.162.999.917 1.019.53 1.65-1.02.49-.937-.633-1.324-.978-.614-.729-.807-1.47.432-1.7-.519-.691-.49-1.182-1.037-.173-.893-.086-.49-.577-.317-1.008-.548-.375.634-3.083-.374-2.565.144-2.046-1.816-2.795 1.038-1.24 1.873-1.412.115-1.498.317-.98.72-.72v-1.24l1.413-.144.778.577z" transform="matrix(.3213 0 0 .3213 21.653 16.198)"/><path style="fill:none;stroke:#000;stroke-width:.82348595;stroke-linecap:butt;stroke-linejoin:miter;stroke-opacity:1;stroke-miterlimit:4;stroke-dasharray:none" d="m21.613 67.952-.778-1.902-.202-.865-1.095-1.354.288-1.528-.46-1.239-1.643.144-1.672.923-1.095-.433-.691.72-.461 1.298-.404 1.988-.432 1.902.346 1.153-.116.98-2.103 1.411-.865.548.865.202.346.749.95.288.952.663.518.72 1.355.173.749.692.663.663 1.124-.087 1.383-.403-.202-.663.317-1.326.893-.922.087-1.095.836-1.498-.144-1.182z" transform="matrix(.3213 0 0 .3213 21.653 16.198)"/></g></svg>