<svg width="256" height="256" viewBox="0 0 67.733 67.733" xmlns="http://www.w3.org/2000/svg"><path style="fill:none;stroke:#000;stroke-width:.26458333;stroke-linecap:butt;stroke-linejoin:miter;stroke-opacity:1;stroke-miterlimit:4;stroke-dasharray:none" d="m57.924 47.516 9.314-.698-1.032-13.566-.222-.032v-.508l.159-.063-.127-1.317-2.713.19.047-.254-.285-.11-.016.539-.365-.127.08-.286-.707.017-.28.123-.135-.09-.326.09-.505-.168-.201-.067-.18-.483-.583-.18-.404-.426-.483-.09-.202-.134.101-.157-.617-.045-.157-.123-.437.224-.225-.18-.112-.19-.886.045-.191-.314-.449-.101-.314-.214-.404.012-.123-.247-.18-.09v-.516l.28-.023-.201-.336-.505.538-.415-.202-.606.045.269.337-.314.314-.112.045.123.359-.258.067-.123.303.067.505-.19.18.033.224.045.617.067.808-.123.864.258.718-.337.213.056.225-.168.426-1.593-.74-1.021-.83-.056.302-.292-.135-.617-.426-1.257-.19-.684-.562-.707.113-.82-.113-.212-.538-.28.123-.46-.202-.337-.449-.247-.145.09-.157-.124-.281-.325.123-.146-.056-.18.124-.146-.068-.1.202-.247-.168-.37-.011-.236-.146-.068-.314-.482-.36v-.268l-.314-.18-.045-.785-.056-.09.28-.258-.763-1.313.158-.011-.079-.337-.101-.033.18-1.134-.36-.673.146-.01-.123-1.875-2.693.225-.404-.27-.235.37-.135.023-.09.202-.202.023-.022-.28-.348-.27-.247-.202-.269.045-.236-.045-.426-.685.123-.47-.157-.562-.482-.64-.056-.19-.326-.292v-.291l-.1-.45-1.358.472-1.156.438-1.2.202-.494.056-.28-.191-.326.314-.022.224v.135l-.303.55-.056.258-.64.897-.606.55-1.043.73-1.145.493-1.402.28-.954.068-1.02.045-.54-.19-1.155.089-.673.067-.28-.056v.079l.09.19-.147.012-.033-.163-.152-.04-.1.124-.186-.067-2.096.191-1.887.213-1.593.426-1.605.505-.392.157-.023.135-.269-.012-2.715 1.178-2.143.898-.146.067-1.335.55-3.5 1.347-.932.359.034.729.078.314.382-.123.18.044.111.337-.067.202-.011.516.247.348.18.157-.281.325.011.169.27.18.156.179-.067.47-.011.259.022.348.258-.056.045.224.034.135.157.134-.18.146-.145-.045-.169.146.068.157-.258-.078.01.28.147.135-.056.325.134.37.045.18-.135.112.079.258.067.427.213.18.158.01.056.09.325-.168.135-.101.145.078-.044.135.01.084.17.202.016.062.084.022-.045.14.146.023.19-.067.264-.006.208.118.112-.236.101-.235.135.14.106.168-.016.135.168-.034.09.034v.162l-.169-.067-.005.152.028.1-.084.04.151.157.09.028.095.157-.039.28.157.376.236.191-.096.168.225-.016.123.117.152-.01.196-.152.084.073.13-.04.094-.005.057.09.28-.186.135.073v.174l.045.118-.208.034.04.269.184.224.085-.039.05-.129.286.079.208.129.134-.096.242.157.022.169.09-.006.207-.151.056.022.023.258.123.101.101-.151.264.073.208-.028.129.274.117-.19.13-.006.016.163.27-.045.033.14-.146.112.107.135.04.297.128-.022.118.213-.135.095.045.174.112-.067.157.123.146-.022-.106-.19.106.01.163.287-.045.173.146.062.146.331.19-.062.175.287.129.19.218.163.169.208.482-.09.079.168.235-.135.05.163-.083.095.039.135-.067.006-.017.488-.22.129.074.078.106-.01.079.263-.224.353-.023.314-.207.073.016.152.186-.062.05.174-.151.1.056.068.123.006-.252.168-.09.348-.146.017-.213-.062-.04.168-.173.028-.012.337-.185.185.14.264.04.14 1.032.6-.163.185.079.23.23.118.14-.18.28.08.09.039 1.627-2.592.174-.342.056-.41.023-.224-.185-.348.235-.258.146-.612.118-.432.33-.123.354.14.107-.04.05-.84.365-.045.185-.107.095-.365.09-.275.393-.28.073-.252.505-.13.045-.218-.09-.309.118-.235-.073-.174.09-.343-.22-.392-.246-.185-.006-.146-.19-.135-.085-.224-.129-.298.04-.151.252.157s.04.107.062.107l.426.016.101-.1.006-.36-.241-.061-.135.168-.275-.04-.028-.196.146-.067.067-.146.286.101.298-.067-.242-.387.18-.342.022-.085-.033-.112.117-.146-.028-.157-.33-.308.022-.303.078-.112.034-.315.112-.05-.134-.5.044-.19.236.163.612-.27-.028-.168.112-.247.157-.162.028-.404.095-.017.314.314.309.129.151.19.247.029.449-.247.208.118.145-.05.135.274.292.073.151.118.399-.045.022.19.006.09.145.029.23.24.163-.022.342-.016.152.202.196.039-.045.258-.477.308-.162-.061-.034.275-.107.185.073.269.23.314.079-.034.202-.41.168.102.696-.095.353.005.376.292.067.213.197.224.022.174.096.034-.28.522-.276.202-.123.151.011.202-.14.303-.028.292.073.19.185-.005.162.28-.033.668-.05.314.05.516.078.393.208.264.32.134.109.241.134.15.032.477.35.103.03.198.144.048-.222.119.158.278.008.174.12-.008.126-.166.143.008.214.579.199.143.19-.064.024-.333.357-.056.198.064.064-.12.158.033.294-.199.515.135.302.706.286-.198.119.016.015.38.223.16.008.499-.31.103-.404.095.023.207.5.246.048-.207.531-.103.326-.159-.056.215.508.468-.04.515.214.032.12.302.53-.096.469-.38.056.04.15-.151.35-.246.031-.651.12-.413-.033-.555.111-.032.08.215.071-.048.072-.325.357-.103.301-.064.413-.389.087-.27-.12-.158.104-.143-.032-.262.468-.666.286.167.524-.167.206-.58h.452l.643-.158.174.056.27-.008.071.071.373-.08.381-.206.095.112v-.27l1.063-.746-.206-.436.048-.19.095-.136-.08-1.047.19-.024.072-.19.23-.016.294.159.293.008h.16l.277.206.777-1.008.778-.92.19.175.294-.445.396.127.04.31.532-.04-.175-.317.143-.19-.484-.556.595.357.294-.357.055-.46.064-.127-.16-.056.064-.214.215.024.063-.111.61.135.183-.08.048-.214-.214-.31-.238.04-.032-.07.603-.223.365-.095.063-.19.278.087.246-.603-.182-.453.063-.04.301.517.588.134.245.008-.119.42-.126.35.222.167.293-.032.167-.254-.064-.325.143-.207.318-.031.214.23.452-.088.341.112.341-.104.564-.349.079.397.238.397.436.254-.119.245-.103.39.198.475.072.437-.111.5-.008.253-.151.08-.27-.104-.412.278.174.095.135.135.238.048.373.095.15.222.096-.008.032-.222.166.27.357-.016.214-.111.112.182.444.167.222.016.095.198h.087l.016-.103.23.119.096.103.166-.214.246.111v.214l-.095-.024.159.23.158.437-.063.08.047.142.215.04-.294.317.23.23.246.397-.008.444.15.444-.07.23-.024.175-.08.11-.166.5-.238.31-.318.27-.119-.111-.079.15.42.096.167.032-.055.277.666.325s.063-.142.095-.142.294.119.294.119l.071.135.12-.072.063.19 1.055.278.016-.452.325.04.135.27.277.103.215.206.158-.206 1.048.476.23-.207.206.016.23.111.159.278.023.286.262.11.214.183.215.373-.024.325-.437-.158-.317.15-.063.587-.143.5z"/></svg>