<svg width="256" height="256" viewBox="0 0 67.733 67.733" xmlns="http://www.w3.org/2000/svg"><g style="stroke-width:.95692359;stroke-miterlimit:4;stroke-dasharray:none"><path style="fill:none;stroke:#000;stroke-width:.95692359;stroke-linecap:butt;stroke-linejoin:miter;stroke-miterlimit:4;stroke-dasharray:none;stroke-opacity:1" d="m79.372 150.434-1.076-1.641-.914-2.394-1.157-4.465-.215-4.438.511-4.142 1.399-4.034.941-3.39.619-3.819-.054-6.132-.565-10.006-.269-7.262.869-8.676.038-5.896-.61.236-.97-.592-.59.458-.808-.753.054-.377-1.049-.054.619-1.049.053-.565 1.103.673.404 1.237.403.054-.269-2.528.484.403.189-.188-.7-4.68.484-.996-.86-.457.242-.161.188-1.856-.376-1.802-.485.215.404 1.237-.753 1.345-.484-.645.86-1.238-1.022-1.452.135-.78.86-.323-.161.511.054.834.672-.484.054-2.502.377-1.479-.27-2.125.807-3.846-.322-1.452h-.27l.055-.511.134-3.12-.242-.35.323-.511-.054-.404-1.21.592.026.753-.591 1.21.161.727-.296.565.215 1.694h-.242l-.35-1.156h-.483l.053-.43.592-.404-.887-.995-1.103-2.098-.162-1.13.996-1.318-.646-.7-.86-.134-.566-.457.861.08-.269-.968h.296l.457.754.162-.135-.108-1.103.35.081.054.78 2.313-.619-.054 1.937.619.619-.054.242-.458.027-.026.322 1.398-.134.027-.78.511-3.12.377-2.448.322-1.13-.564-.78.538-.484-.216-.322-.457.188-.242-.296.08-.229.404-1.586-.74-1.426.686-.538-.026-.296-.471-.12.793-.74v-.31l-.847-.269-.86-.645.591-.175.108-.404-.377-.672.552-.31.107-1.183-.296-.336h.27l.282.31.134 1.667.511-.148.942-1.13 1.196-.591.31-.646.457-.282.188-.43-1.425-.673-.444-.726-.35-.027-1.197-1.05.014-.645-.538-.255-1.022.7-.08-.297 1.048-.632-.108-1.385-.134-.242.672-.713.296-.941-.188-.928-.202-.538.162-.686.376-.551-1.17.094-.524.659-1.116.08-1.184.054.094-.524 1.372-.458.336.175.135-.336-.108-.928-.336-.296.215-1.17.417-.107.188.995.39.659-.363.565 2.179.08.228-.564-1.573-1.17.229-.834.026-.794-.538-.255-.578.484-1.452-1.372-1.116.323-.202-.229.968-.457.148-.605 1.21.74.619.659.135-.135-.027-1.237.605-.915-.955-1.008.511-1.318.86-.162-.349-.484.457-.323.915.243.31.282.376-.296.43.417.914-.47-.067 1.115-.551.579.793.659.135.444.941-.43.108.228.43-.457.256.107.094.901.201.39-.268.377.416.04 1.063-.403.161-.794-1.09-.08.445-1.184-.713-1.52.202-.551.457-.094.51.524.714.162.282.47.538.242.444-.416-.86-.39-.082-.686-.497-.27-1.022-1.438-.027-.713-1.224.551-.202-.161.727-1.13.322-.067.565-.793.47.282-.08.605.834.377.35-.108.74.78.026.323.404-.269.78-.726-.162 1.035 1.197.229.484-.269.74.793-.74 1.17-.443 2.273.632.35-.375 1.422-1.065 1.703.247.294.533-.057.637-1.188.655-1.596 3.98-8.203 2.61-5.568 1.479-4.142.78-5.917-.054-4.922-.753-.323-1.237.269-.834-.35-1.184.646h-.51l-1.023-.646-.323 1.157-1.13.403-.241.619-.43-.377v-.35l-1.588 1.238.511.565-.026 1.29-.35.996-.941.027-.243-1.05-.322.27-.081.672-1.022-.43.107-.565-.86-.888-.484.458-1.13-.404-.834-.054-.269-1.29-.78-.861-1.183.107-.242-.914-.565-.323-.619-.968-.08-.592-.62-.054-.43-.269.162-.538-.888-.591-1.452.35-.915-.297-1.748.135-.242-.619-.538.108.027.43-.457-.215-.242-.995-2.448.43-.672-.457-1.184-.08-.215.537-1.264-.054-.7-.322-.349.618-.538-.726-1.614.35-.807.134-.269.673-1.13.403.108-1.721-1.13.618-1.344-.51-.135.887-1.748-.834-.457.619-1.05-.78-1.21.188-.806-.834-.027-1.049-.538-.592-.727.27-.053.672-1.238-.995.081-.78-.054-.727-.645.054-.215.673-.996-.135-.753-.941-1.452-.78-.296-.35.269-.323-.269-.457h-1.049l-1.345.511-.403-.7-.86.055-.404-.62-.565-.564-1.345-.08-2.098.591-1.049.054-1.318-1.345-1.425-1.425-1.668-.834-1.076-1.722-1.614-.027-2.474.565-1.56-1.29-2.313-.62-2.125-.35-1.157.35-.78-.78.458-2.34-1.722-2.42-1.452-.296-.43-3.954-1.453-2.098.215-1.802-1.29-1.748-.915-2.555-.323-1.48-1.157-.807-.995-.269-.08-1.344-.808-1.157-1.479-.188-.834-.995.888-.861-1.318-1.372-1.506-.618-.08-1.883L8.31-60.76l-.834-.726.753-1.183-.484-.673.565-.86-.672-2.152-.216-.404.135-.968-.915-.726-.995.269-.35-.565.565-1.05-.753-.187-.914-.054-.646-.673 1.56-.726.404-2.205.296-1.318-.404-1.345.7-1.237-.485-.996-1.64.162.296-2.42.376-.97-1.372-1.586-1.022.054-.645-.915-.673-.565-.78.027-.269.511-1.183-.188-.08-.78-1.372-.457-.62.054-.914-.807-7.692 5.917.457 2.69 6.079 2.34.7 7.02 3.012 7.72.645.483.296.995-3.12 6.267-1.587-.51.377 2.286.941-.646v-.376l.7.134-.028.323.727.161.161-.323.242.27 1.426.107.322-.135.189.243.564.295.377.592.619-.054.591.377.189.538.134 1.022-.403.242-.78 1.937-.458.053.404.888-.08 1.237-.7.753-.753.377-.189.968.296.565 4.95.108 5.298 2.904-.134 6.698-.296-.189-.727 4.304 1.48 2.044.726-.7.35.081.43-.484 4.142 3.362 2.475-.403 1.344 8.15.78.564.43.189.566-.081-.404-.592 1.264-.35.43.458.754-.296.403-.403.162-.62.484-.241.591.403.377-.08-.027-.323 4.922 5.863 3.093-3.711 9.495 1.13.619 23.157 6.401-.08.027 1.936-20.442 16.972-.645-.269-1.103.377-1.21-.054-.215-.7-.592-.51.054-.996-1.184.081L23.884 28l-.591.026-.404.511-1.425.511-.7-.08-.296.941.135.323-.511.054-.35.7 1.13 4.249-2.098 2.474 1.264 3.55-.484-.107-.807.323-3.335-1.345-.35.565-.86.027-.35.78-1.56.053-.619 1.48-1.372.188-.188.538-1.13-.188-1.317 1.371-.43 1.184.214 1.345-1.156.403-1.022.43-.135.512-1.21-.592-1.103.107-3.792 2.152-.915.995.511 3.201 3.362-1.21 1.722 4.734.08 2.393-.538 1.91-1.64 3.604-.188 4.438 3.362 3.577 1.318.189v1.614l.94.188 1.507 1.533 1.184 4.061-1.533-.618-3.336 4.653-2.017.753-2.555-.726-4.95-.377-1.963.619-1.371 3.389-.915 1.48-1.587 5.056 1.614 7.585-2.69-.78-4.034.026-2.313 2.394 2.824 1.668-.941 2.367-.35 2.098-.538-.054.027 2.232.484-.027-.269 1.184 1.91.161.08 1.399 2.394 1.049-1.856.888-.43.968-.027 1.076-.43-.162-.7-.672-.269.645.511 1.507-.78-.43.243 2.743h2.474l.619 4.196-2.959 2.636.35.645 2.797.995 2.932-1.264 3.2.135 1.345.699-.188 2.313 1.721.995.673-.672h.457l.914.538 1.21-.081 1.964-1.13 4.627 1.856 1.344 1.291 1.668-.43-.941-2.098-1.21-3.416 1.936-.161.323.457.35-.054 1.452 3.2 1.156.19 1.022-.512h.323l.592 1.856 1.748-.269.323.753h-.457l.053.511.78-.107 1.372 3.819 1.237 3.55.7 1.345 5.002.215 2.287-.645 4.895.753.538 1.21.592-.054.51.458.915-.242 1.237-.081 1.103.323 1.533-.242 1.237-.538 1.453-.996 2.448-.618 1.344.134 1.533.296 1.426-.215 1.56-.565.269-.78.511.35 1.076-.35.188.78.511-.242.35-.807.296.108.027.887.726.135.376.403.592-1.102.296.08-.242 1.291.51.242.996-.968.08.753.888-.296.538.323v-.807l.296-.323-.78-.591.484-.565-.134-.86.027-.458.78.43.51-.43.539 1.156.807-.645.107-.78.86.726.404-.565.511.511.538-.51-.322 1.075.753.484-.242.834 1.29.296 1.157.215.807.619.135.887.78-.161.887 1.21.619-.027.592-.645 1.802.403 1.076.861-.512 1.076-.51-.538-.135.995.538.323.242-.43 1.264.51.646.996v.269l.753.242-.027.592.645.188 2.448 1.183.403-1.425z" transform="matrix(.2765 0 0 .2765 22.514 24.613)"/><path style="fill:none;stroke:#000;stroke-width:.95692359;stroke-linecap:butt;stroke-linejoin:miter;stroke-miterlimit:4;stroke-dasharray:none;stroke-opacity:1" d="m89.593 20.119-3.792 10.678-.43-.27.188-1.156-.108-1.022.215-.645-.323-.673 1.157-.054-.054-.78-.323-.538.404-1.156.296-.968.322.08.323-.672.027-.995 1.237-2.502.78.216zM85.505 31.926l-1.345 4.465-1.291 6.025-1.372 6.805-.7 4.088-.537-.215.161-.941-.296-1.399.511-.807.754-3.685.457-1.802.215-1.022.457-.941-.43-1.157.672-.296-.027-.645.404-2.26.457-2.5.7-2.448.403-1.291.43-.7.457.78zM79.937 61.809l.43-5.46.43-2.448-.806-.134.08 1.613-.215 1.937-.322.538-.135.888.215 1.022-.188 1.398.054.726zM79.319 78.996l.08-6.751.242-5.568.377-3.254-.215-.942-.673.054.054 1.721-.242 2.905.08 1.184-.16 1.318-.135 1.398.215 1.506-.269 1.964.161.914-.107 2.421z" transform="matrix(.2765 0 0 .2765 22.514 24.613)"/></g></svg>