<svg width="256" height="256" viewBox="0 0 67.733 67.733" xmlns="http://www.w3.org/2000/svg"><path style="fill:#000;stroke:none;stroke-width:.26458333;stroke-linecap:butt;stroke-linejoin:miter;stroke-opacity:1;stroke-miterlimit:4;stroke-dasharray:none;fill-opacity:1" d="m41.168 19.28 2.261.46.296-.017.465.177.211.034.38-.076.262.17.415.126.262-.009.025.262-.076.127.177.102.136.245.21.093.204.008-.017.186.228.212.017.084.228.101.06.406-.094.22.093.237.093.033.017.127.16.102.28-.186.245.008.118-.067h.28l.227-.102.11.06.076-.077.17-.059.135-.101.312.093.119.27.042.279.237.194.481.085.347.237.236.059.178.059.347-.017.355.499.371.287.11.499-.059.346.068.364-.152.532-.347.55-.186.067-.422.398.042.11-.135.769.422.22.33-.17h.084l.051-.101.254.228-.051.135.55.144.177.152.338.279.296.27.186.6-.161.347-.186.195-.363.338-.136.38.051.127.364-.22.236-.397.583-.541 1.082-.431.507-.296.127-.338.499-.211.65-.634-.058.295.042.609-.16.101-.043.415.034.355.54.084.635-.16.304.295-.025.6.21.178.094-.118.76.033.187-.042-.136.372.17.11.21-.085.161.017.195.414-.026.38-.101.204.22.118.042.093.321-.042.11.008.101-.143.195.16.228-.025.186.118.034.372.169.017.034.228-.06.178.626.769.22.042.11.144-.06.296.144.33.194.041.229-.185.152.338.55.194.287-.135.084.025.068.152.126.212v.287l.161.152-.05.33.228.262.262-.085.177.195.482.05.211.195.009.118h.067l.017.338.795-.507.566.338-.186.66-.178.439.508.287.135-.05.152.304-.076.49-.33.16-.008.347-.406-.253-.279.667-.127.212-.752-.27-.43.937-.195.262h-.592l-.727.415-.575-.372-.093-.186-.32-.11-.313.135-.262-.169-.288-.44-.54.795-.542.321.034-.524-.49-.532-.541.43-.262-.084-.372.854-.304.017-.144.186-.118-.017-.017-.17h-.102l-.634-.143-.862-.727-1.25-.177-1.192.211.202.44-.16.033-.034.17.042.135-.034.067.17.11-1.378.05-.05.12-.094.016-.456.888.938.794-.085.118-.355.026-.186.194-.228.643.076.169.457-.229.405 1.158.178.06.06.186-.72.617-1.85.853-.144.16.135.356-.076.143.194.043.102.135-.364.279-.152.186-.372.169-.202-.102-.17.06-.22.152-.084.253-.44.237-.329.363-2.045-1.25-.516-.254-1.42-.423-.38-.152-.237-.406-.211-.194-.068-.152-1.64-1.344-.21.473.134.33-.397.406-.034.177-.279.127-.076.101-.11-.025-.355.279-.279.085-.16.447-.406.364-.017.346-.397.203-.101.27-.541.44-.372.186-.465.296.067.203-.194.237.009.312-.524.66-.246.093-.245.338-.532.44-.118-.051-.888.853-.194.22-.068-.017.135-.279.178-.186-.136-.11-.253.178-.287.321-.195.262-.144.27-.304.127-1.25-.642h-.449l-.33-.034-.092.093-.338.025.355-.279.228-.033.203-.127-.245-.423.507-.498-.16-.28-.44.068-.423.33-.254.084-.972-.287-.101-.186.084-.135-.287-.372.025-.363-.059-.119-.507-.076-.06-.084-.126.093-.676-.153-.795-.076-.33-.084-.236-.195-.65-.32-.77-.592-.49-.448-.55-.152-.6 1.453-.152-.203-1.048-.405.288-.947.236-.144.195-.355-.288-.279-.093.06-.448-.026-.557-1.022-.22-.127-.778-.237.211-.49-.355-.16-.405-.753.008-.16-.084-.034.084-.136-.338-.608-1.225-1.217.016-.152-.1-.161.041-.11-.304.025-.254-.245.161-1.53-.27-.076-.178-.169-.397-.05-.355-.423-.237-.008-.228.11-.38.025-.28-.448-.422-.642-.118-.186h-.093l-1.015-1.023-1.022-1.75.025-.515-.237-.195-.262-.718-.287-.304-.253-.27-.11-.178-.398-.347-.093-.431-.262-.313-.228-.718-.313-.626-.726-.05-.567.135-.904-.136-.617-.245-1.268 1.167-1.336-.068-1.022-.389-.313-.659-.49.296-.702-.195-.076-.304-.465-.55.076-.371-.481-.524-.474-.321-.152-.862-.186-.33-1.234-.905-.127-.583.085-.27-.195-.102-.245-.042.119-.287-.085-.27.11-.237.194.05.009-.296.237-.16-.22-.127.101-.194.347-.026.076-.279.304-.093-.228-.262.068-.202-.127-.051.093-.11.27.025.321-.143-.059-.524.203-.262.448.067.423-.405.448-.077.304-.152.321.043.279.11.228.388.237.093.253-.253.415.042.574-.085.043.026h.194l.372-.28.228-.151.076-.262.583-.524.068-.237.347-.448.008-.237.38-.33.541-.042.11-.059.245.17-.008.312-.085.347.524-.11-.008.211.304.025.009.347.904-.938.634.955-.177.355.557.701.44-.126.389.093.591-.305.296-.008v-.296l-.118-.203.313-.228.507.025.456.186.465.042.499-.194.296-.11.397.102.118.262h.186l.042-.093.702-.043.989-.22 1.927.465 3.347-4.986.008-.39.144-.244-.025-.372-.288.101-.059-.017-.135.136.009-.415-.288-.38.009-.177.118.025-.017-.533v-.11l.262-.059.186-.067.524-.144.068.127.042-.22.321-.025.389.245.55-.017.008-.22.422.313.355.237-.025-.288-.076-.194.38.11.246-.009.278.28.068.16.473-.102.186-.025.125.195-.084.478.191.048.06.98.43.407.084-.012.143.454.024.191.443-.06.275-.215.083.287.574.072.538-.227.275.18.538-.096.322.179.036-.359.12-.143.382.191.12.227.418-.048.395.18.263.06.298-.096.323-.359.263-.048-.036-.203.263-.155.084-.072 1.16-.131.418-.204.203-.012.143.156.108-.012.036.131.25.18-.023.167.263.143.12.419-.048.095.131-.011.466-.622-.131-.347.12-.346.442-.347.024-.239-.012-.132.597-.06.012-.203.275-.023.024-.24.167-.119-.071-.155v-.108l-.096-.155.048-.79.43-.023.287.18-.036.167.203.131-.12.167.132.3.192.023.442.693.191.12.036.693.167.084.012.502.096.239-.108.347.06 1.004-.084.538z"/></svg>