<svg width="256" height="256" viewBox="0 0 67.733 67.733" xmlns="http://www.w3.org/2000/svg"><g style="stroke-width:.75595972;stroke-miterlimit:4;stroke-dasharray:none;stroke:none;fill:#000;fill-opacity:1"><path style="fill:#000;stroke:none;stroke-width:.75595972;stroke-linecap:butt;stroke-linejoin:miter;stroke-miterlimit:4;stroke-dasharray:none;stroke-opacity:1;fill-opacity:1" d="m1.988 25.014 4.121 4.409 1.787 1.527.865.98 1.095 1.844 5.734 5.331 1.21 1.528 1.845 1.758 2.42 2.795 2.047 2.42.374.865 1.384 1.988 2.19 2.306.576.23.865 2.392.806 1.902.173.894v.605l.26 1.671 1.095 1.556-.03.433-.23.634 2.507 3.515-.201.894-.202 1.325.865 1.758-.231.663.807 1.614 2.161 1.239 1.614.663.461.922.576.201 1.038-.259.202.634-.087.288-.432-.173-.26-.057.173.49.375.144.404.72.633.26.375.518-.403.375v.692l.432 1.123 1.21.75 1.153.317 1.181-.23.606-.059.259.634.086 2.508.692 1.556.202.95 1.268 1.528 3.112 1.787 3.026.72.893 1.009 2.968.98 3.92.518 4.351-.086 3.112-.375.865.058 1.297.23 1.556-.028.49-.346.26.201v.462l1.354.605.95.95 1.384.202-.03.52.376.345.691.836.23.576 3.315.836 2.824-.058 2.075.317 1.037 1.354.519 1.672 1.037 1.008.23 1.124 1.845 1.24.922.98.317.749 1.21.749-.028.634.374 1.498.807 1.47 2.277.951 2.507.23 1.816-.518 1.844-.23 2.45-.462 3.025-1.008 2.45-.836.144 1.815.807-.374.345.432-.115 1.009.115.634.692.547-.086.432-.433.433.836.547-.057.72-.058 1.067.75.144.028 1.24-.519-.058-.576.576.058.95.374 1.125.144 1.239 1.153-.029.346-.317.403.087.058 1.296 1.354-.028.058-.577 1.44 1.009-.777-.029.259.49.375.057.201 1.355.778.922 1.931-.346.144.894-.518-.087.46.663.404-.403.778.259.432-.087.144.577.98.23.663-.115.605.432.23-.201.318.835.057.548.404.057.202.346-.317.202.144.403.605-.057v-.375l.547.144.317.894.663.288.75 1.47 1.498.028-.288.836.057 1.47-.49 1.47.404.662-.692.778h-.634l-.403.951-.144.058.26.605 1.526.98-.23.46.144.548.461.03.432-.433.317.49-.95 1.037-.923.173.23 1.153-.95.029-.317.403-1.412-.058-1.038.404-.634-.029-.26.375-.143-.317-.288.26-.577 1.67-.26.635-.835.115-.346.72-.259.577-37.572-.47.397-.453.231-.72.115-.576.317-.404-.403-.403.23-.548-.46-.201.057-.346.576-.03.26-.287-.404-.433-.836.058-.23-.375-.576.52-.923-.375-.201-.375-3.689-1.182-6.714-8.3-.807-.2.144-.318.691-.144.23-.922.606-.029.029.288 1.268-.46-.087-1.47-1.757-1.7-.634.115-.317-.202-.202.173.346.49-.894.317-.345-.173-.317.403.172.548-1.095.893-.259-.547-.288.23-.288.404-1.24.403-.374.663-.519-.202-.173.202-.029.432-1.152.922-.634-.173.374.634-.115.317-.75-.374-.518.605-.49.691-.835.663-.894.144-.346.461-1.556-.172-.893-.72-.346.23.288.778-.922-.058-.807.72-.26-.374-.777-1.038-.346-.72-.634-.144-.548-.288h-.432l-.23.518-.548-.605.432-.432.663-.26.029-.46-.461-.346-.605.317-.173-.49-.778-.375-1.095-.98-.519-.778-.922-.173.23-.172.778-.433-.345-.345-.807.115.086-.836.346-.663.72-.144-.172-.95.547-.231.058-.634-.433-.778.692-.634 1.297-3.516-1.47-6.311-2.709-.115-.173-.548h-.201l-.116.404-.518-.116-.116-.49-.432.144-.836.462-.23-.289-1.24.807-.748.115-.404.404-.432-.317-.75-1.297h-.633l-.317.519-.087.46-.893.116-1.153-.144-.432-.634.144-.519.461-.172-.115-.433-.692.375-.634.519-.202.23-.806-1.181-1.297-1.384.115-.547-.403-.519H35.3l.289-.519.46.058-.23-.49-.403-1.095-1.009-.605-.086-.75-.52-.835-.604-.23v-.836l-.605-.173-.865-.605-.98-1.499-.029-.836-1.066-1.556-.547-.835.057-.375-1.239-.461-1.326.144-1.066-.029-2.19-1.47-2.017-1.181.058.95.403.52-.086.403-.72.893.316.49-.519.663-.605-.692-.115.433.432.374-.49.894.577.259.288.317.519-.202.057 1.816-.519.576-.086.807.865.576.115 1.24-.346.144-.836-.433-.691.289-.087.144-.173-.23v-.98l-1.124-.202-.374-.548-.317-.95-.288-.952-.23-1.124-.721-.23-.317.749-.548.173-.72-.807-.634-.692-.894-.432-.72.548-.72-.52-1.413.779-1.095.23-.95.98-.174.75-.98.749-.288-.894-.98-1.527-.777-1.412-.461-1.354-1.585-.663-.72-.058-.721-.605-.634.23-.461.404-1.297-1.585-.692.144-.835-.72-.173-2.162.49-.72-.26-.519-.663-.029.495-.691.51-.265.652-1.57 1.12-1.487 1.06-.265-.102-.957-.57-2.059-.836-.917.611-1.324.225-2.486 1.487-1.162.285-.835 1.06-.326 1.956-.122 1.65.407.775.734.448-.224-.163-1.304-.631-1.06 1.283-.55.775-.775-.163-.652.407-.815-.55-.611-.876.02-.49-.672-1.14.02-.775.367-.998-.04-.734-.55-1.161-.225-.632.632-.896-.408.509-1.019-.917-.305-.876-.775-2.73-.203-.755.55-.51-.856-.692-.285.306-.795.917-.183.183-1.284-.326-.897h-1.691l.06-.53-.264-.957-.917-.469.204-1.467.122-1.019.346-.428.49.387.855-.896 1.325-1.386.917.102-.876-1.325.754-.692-.367-.877-.02-3.484 1.263-2.303.733-.693-.326-.978.245-1.12.632-.367 1.263-1.04-.061-.957.102-.591.51.061.345-1.12 1.814-1.712-.734-.123-.53-.244.123-.448-.285-.163-.55.407-2.772-.978-.55-.143-3.607-1.283-.265-.999-.998.51-1.365-.265-.47.815.103 1.63-.632.265-.815.693.265.366.061.673-1.447.632-.428.57-.366-.265-.204.836-.795.102-.387-.49.795-.285-.306-.265-.754-.326-.102-1.773-.754-.61-1.345.55-.855.06-.367-.713-1.141.204-.082-.57.367-.591-.428-1.427-.754-.652.143-.326.631.183 1.549-1.1.652.061-.204-.57-.203-.245.366-.489-.102-.448-.835.55.061.387-.611-.265-.978-1.039-.061-.59-.734-.286 1.08-2.038-.02-.57.59-.062.632.51.041.346 1.895.856.061-1.263 1.243-.734.958-1.141 1.263.163-.856-1.161-.59-1.06-.897-.387-1.04.142-.53-.326-.407.632-.387-.122-.407-.612-.652.041.04-1.12-.468-.367.06-.714-1.201-.407-.204-.672.367-.062-.102-.917-.388-.081-.264-.51.06-1.1 1-.672.203-.55-.55-.714.468-.428-.57-.102-.754-.53-.51-.305-.407.326-.469-.02-.835.428-.591-.184-.326-.51-.061-.162h-.815l-1.223 4.136.815.469-.733.917.387.55-.163.754.51.632-.286.856-.184.754-1.732 1.181-.713.714.143.428-1.264-.02.184-.45-.652-1.731.204-.734v-1.161l-.47-.082-1.181-1.487-.55 1.773-1.386 1.69-.285-.08-1.1 1.935-.775.428-.978-.081-.632.468v.53l-.672.061-1.141 1.386-1.12.57.04.917-1.1.714-1.325.142-1.324 1.12-.897 1.59-.611-.203-1.712-.306-.672-.469-.082-.448-.306-2.853-.835-.998-.143-.449-.631-.346.978-.469.692-.142.836-1.203.04-1.508.49-.407.652.367.428-.204-.713-1.793 1.283-1.284-.02-.856.856-.448.407-.917-.183-.55-.51.468-.509.815-.917.428-.632.204-.998.958-.061.489-.53-.836.672-.815-.081-.59.51-.795 1.12.163 1.08-.51-.489-.937.346-.754.102-.713.897-1.304.815-.245.326.122 1.141-.366.245.265-.061.59.753.245.653.51-1.04.794.612.367.57-.652.326.143.204.53.835-.082 1.162-.55.204-.55-.795-.286-.448-.978.366-.02-.163-.428.184-1.386.958-.102-.673-.611.408-1.243.59-.04.021-.979.448-.693-.06-.53.55-.489.855.306.428-1.875-1.019-1.365-.835-.244-.673-1.345-.754.51-.53.244-.387-.286-.815-.122-.387-.55.856-.795-.285-.489-.367.082-.51.53-.326-.347-.631.448-.49.836-1.731-.184-.469.265-.57-.815-.734-.407-.163-1.02-.795-.407.204-.55.143-.204-.449-.183-1.06.163-1.08-.713 1.223-1.895.591-1.141.693.102-.285-1.55-.367-.305-.57.53-.428-.897-.408-.02.143-1.875-.632-1.182-.02-.59-1.814-.877-.55-.998-.347-.856-.407-.224.163-.53.02-.917-.774-.04.856-1.162s-.55-.408-.469-.469c.082-.06.57-.387.57-.387l.245.326.815.163.856-.754-.489-.632.937-.61.367 1.018.51-.57-.367-.367.122-.347.673.143.224-.53.652.02-.326-.61.59-.633.449.306-.367-.937-.958-.795.082-.754-.306.02-.489.408-.387-1.61-.835-.835.407-.53.734.367.102-.754-1.162-.224.122-.51 1.712.326-.774-.937-.958.367-1.426-.836.265-.346.855.387.897-.672.958.652.794.04-.285-1.08.591-.468.672-1.488.347-.448-.408-.448.775-1.243-.53-.47.306-.855 2.567-1.956.469-.02-.245-.856-.244-.265.631-.917-1.161.305-.387-.57-1.182-.102.468-.774-.326-.184-.692.265-.856-1.08-.408.02-.428.592-.346-.367-1.284-.734-.896-.774-1.203-.265.02-1.141-3.362.285.225-.958 1.182-.53.53.449.223-.245.693.428 1.406.041 1.447-.754.285-.632.999.123.468.55.632-.428-.081-.428.489.163.203.774.632.082.51-.897.55.55-.57.775.59.122.55-.59.347.427.713-.408.306-.407-.612-.408.591-.754.061-.61.836-.082.407.631.51-.285.224-.611.815-.041.04.448.673-.733.612.387-.041.856.407.856 1.182.346 1.467.795.306.815.306-.123.489.53 1.039-.163 1.549.102 1.365.774-.774 1.02-.49-.327.02.591.408-.04 1.141.387 1.06.855-.469.265.775-.04.163.631.51.286.61.57 1.162.122.143-1.039 1.589-.896.143 2.486 1.406 4.36 1.263 2.772.285.855-.896-.57.367 1.182.285.326-.198.652.95 2.018-.432 1.498-.288.23.375 1.297.691 2.018v1.47l1.096 2.391.864.375-.029 1.412 1.095 1.873.663.461.058.778.663 1.038 1.21-.087.893-.317.663 1.038-.23 1.066-.058.72.605 2.133.317.518.576.145.692.691.288 2.104.461 1.96.807 1.728.778.52.922 2.218.058 1.412-1.009-.46.03.518.518.26.375 1.18 1.21.836.922.087 1.787 3.833 1.297 2.074.806 1.96-.028 1.7z" transform="matrix(.35 0 0 .35 19.869 15.088)"/><path style="fill:#000;stroke:none;stroke-width:.75595972;stroke-linecap:butt;stroke-linejoin:miter;stroke-miterlimit:4;stroke-dasharray:none;stroke-opacity:1;fill-opacity:1" d="m-17.87-22.74 3.199 4.706 3.566 3.872 2.995 2.629 3.158 2.486.053 1.237-.029 1.21-.864 3.228-.922 1.758-.692 1.297-.058 1.96-.057.749-.469-.087.065-1.282-.655-1.93 1.044-2.234-.043-.62.677-.893.461-1.095-.302-1.138-.072-.678-1.023-1.11-.548-.071-1.369-1.268-1.282-2.205-1.902-1.729-.432-.85-1.398-1.354-.879-1.643-.158-.792-1.557-2.623-.576.03-.158-1.845z" transform="matrix(.35 0 0 .35 19.869 15.088)"/><path style="fill:#000;stroke:none;stroke-width:.75595972;stroke-linecap:butt;stroke-linejoin:miter;stroke-miterlimit:4;stroke-dasharray:none;stroke-opacity:1;fill-opacity:1" d="m-9.17-1.59.866-1.7-.05-.612.61-1.284-2.312 1.854.744 1.773zM-14.63-13.856v-.673l.08-.479-1.222-.896-.51-.754-.519-.418-.183-.754-.102-.672-.611-.55-.204.652.397 1.029.296.917.254.285.112.57.601.673.775.418.305.407zM-10.735-8.357l.087-.26.461.03-.072-.476-.85-.087-.49-.216-.403.101.1.36.346.317.058.534.562.201.691.015.173-.173z" transform="matrix(.35 0 0 .35 19.869 15.088)"/></g></svg>