<svg width="256" height="256" viewBox="0 0 67.733 67.733" xmlns="http://www.w3.org/2000/svg"><path style="fill:#000;stroke:none;stroke-width:.26458333;stroke-linecap:butt;stroke-linejoin:miter;stroke-opacity:1;stroke-miterlimit:4;stroke-dasharray:none;fill-opacity:1" d="m22.066 53.946.058-.113-.449-.488.01-.956-.244-.059-.005-.36-.224-.069.005-1.498-3.899-4.128-.483.676-.428.4-.29-.718-.124-.91-1.063-.18-.04-.966-.815-.124.152-.677.731-.055-4.127-4.458-.152.097-.565.138-.387.359-.069.593-.235.11-.04.18-.83.11-.496-.276-.69-.013-.814.138-.056-.608-1.145-.193.193-1.16-.166-.082-.124-.594-2.401.318-.042-.8-.133.526h-1.06l-.394-7.22-.607.068-.055-.4.207-.566.29-1.242.565-1.518.511-.856 1.16-.87 1.587-1.048 1.463-1.256 1.31-.746 1.188-.234.883-.36 1.215-1.048 2.223-1.1 2.947-.938 2.089-.585 1.21-.312m0 0 4.919-1.191.878-.195 4.529-.84 1.23-.37 3.747-.996 1.093-.176.976-.429.04-.195 1.56-.508.723-.605 1.112-1.112.332-.605 1.523-.508.722-.078 1.99-.78 1.23-.41.703.077.605.235.994-.235.345-.124.33-.08.498-.088.488-.225.078-.175-.215-.02-.107.107-.176-.029.166-.244.683-.43.274-.234-.098.293-.264.137-.136.185-.059.166-.136-.058.302.146.283-.273.107-.098.41-.166V7.57l-.322-.244.937-.46.996.118 1.493.088 1.327-.205 1.616.377 1.739.62 1.35.291 1.746.293.059.098.185-.05 3.699.391 1.256 12.09-4.086 9.109-4.665 5.686-.635.022.078.703-.878 1.132-.293.02.02.214-1.894 2.4-2.263.092-.097-.152-.607.18v.455h-.152l-.814.565-.98-.082-.884.193-.338.193.042.166-.194.076-.076.158-.731-.062-1.463 1.229.31.069-.103 1.152-1.58.048-.035.194-.193.041.034.29-.766-.055v.428l-.552-.014-.973.8v.214l.138.007-.069 1.311h-.076l-.076.497-.42.028-.263-.11-.18.096-.186.09-.027-.16-.394.125-.282-.007.04.145-.248.007.014.393-.158-.027.075.51-.2.014.028.518-.138.055.028.242-.138-.049.04.407-.061.249-.083.345-.18.028.035.179.159.117-.18.338-.09-.048-.055.11-1.035.063-.013.38-.421.103.103.593-.145.173-.11.738-.214-.02-.262.262-.345.013v-.476l-.249.083-.103-.159h-.311l-.097.214-.179.09.028.22-.283-.02-.118.697-.476-.055-.435 1.318.628-.172.097.09.462-.132v.573l-.738.028-.145.71-.938-.076.027-.2-1.083-.103-.07 2.132.573.035.063.773-1.001.124-.02-1.401-.988-.035v.29l-.78-.103.118.67-1.65 1.585-3.025-2.166-.879-1.113-.644-.078-.507-.956.254-.04v-.722l-1.093.04-1.386-1.874"/></svg>