<svg width="256" height="256" viewBox="0 0 67.733 67.733" xmlns="http://www.w3.org/2000/svg"><path style="fill:none;stroke:#000;stroke-width:.26458333;stroke-linecap:butt;stroke-linejoin:miter;stroke-opacity:1;stroke-miterlimit:4;stroke-dasharray:none" d="m45.732 27.856 8.734-7.692-.373-3.934h.59l1.691-.767.709-2.95.393-.768.079.276-.374.55.098.335-.118.314.905 1.063L59.62 13.2l1.547-1.947-.89-1.475-.723.028-.78-.556-.834.723-2.03-.807-.612-.528-.585-.863-.148-.988-.57-.63-.315-.02-1.555-.59-1.003.473-.02.275-.747.57-.61-.196-.59.04-1.101-.217-.355-.708.394.157.157-.728-.747-.354-.551.276-1.259-.532-.925-1.652-.255-.787-3.718-.826-2.066-.747-1.121-.06-2.223.197.256 1.83-3.285-1.122.226.374.04.295.176.06.099.225-.118.05.02.177-.148.216-.354.03-.01.649 1.544.669.03.511.85 3.083.458 3.084-.158.708.256.079-.118.236-.59.04-.04.216-.137-.06v.138l-1.102-.098-.059.197-1.416.511-.157-.098h-.708l-.29-.335.013-.139-.208-.083-.25.32-.307.07-.278-.293-.139-.361-.125-.014.014-.098.07-.097-.46-.417-.07.39-.152.069.097.111-1.07-.487-.28.404-.834-.57-.486.736-.21-.222-.138.556-.557-.459-.347.014-.056-.195-.25.112-.042.208-.723.042.027-.139-.125-.07.07-.125-.223-.153-.264.195-.487.028-.598.125h-.751l-.098-.153-.389.042-.125.473.111.292-.32.723-.32.362-.292-.014v.292l-.361.056.013.153-.39-.112-.458.167v.473l.139.32-.167.362.084.375-.738.668-.222.584-.278.028-.279-.584-.681.32L15.14 18l-.056.355-.403-.099-.128.423-.55-.137.462.344.206.472.148-.089.138.128-.177.885-.305.522.118.206.157.246.03.325.275.324-.098.227-.236.216-.325.384-.02.363.236.541-.02.197-.176.148 1.082.088-.168.708-.344.276-.54-.433-.316.098-.078.227-.128.393-.266-.207-.059.08.246.343-.285.03-.079-.177-.167-.01.03.521-.895.62-1.24.885-.462 1.279-.354.649-.236 2.557-.689 1.013-.049 2.331.187.187-.118.197.03.334.177.05.029.226h.207l.098.374.315-.099-.01.128-.098.108.127.167.08.433-.188.05.118.206.01.393.256.168-.158.236.148.137v.187l.157.03-.246.177-.196-.138-.187.177-.256-.206-.305.147s-.246-.02-.285-.02c-.04 0-.472-.304-.472-.304l-.217.029-.068.315-.197.137-.472.246v.177l.157.177-.285.246v.364l-.167.187.108.354.246.099-.099.147-.236.157.374.384-.02.138-.167.01-.216.432-.01.168-.305-.138-.079.197.03.088-.157.04.108.472.285.629-.236.364-.118.305-.285.098-.256.315.01.236.57.226.394.187.03.285.461.04.02-.67.315-.402.383-.187.207.147.207.325.304.098-.049-.226-.118-.325.02-.305-.177-.108-.187-.049-.01-.206.167-.04-.275-.285.177-.325.315-.068.305-.177.324.226.236.059.03-.207-.06-.157.384-.118h.187l.148.295.04.147.245.404.01.334-.423.718-.04.62-.206.049v-.05l-.05.374h.375l.324-.373.482.206.207-.383.128-.305.226-.285.334-.286.197-.275.167-.138.04-.393-.473-.315-.432-.246-.187-.285.187-.079.216.05-.128-.296-.059-.108.108-.295-.511-.118-.187-.747.265-.443-.108-.118-.177.04-.334-.286-.177-.059.04-.285.206-.01h.137l-.108-.236.443-.334.669-.01.639-.03.384.02.206.216.807.07.59-.01.639.117.236.325-.187.344-.108.521.079.394-.286.295-.57.256-.482.285-.108.118v.275l-.236.227-.06.304.158.276-.02.482-.265.01.03.462.098.098-.285.079.088.197.197.068.04.276-.198.04-.314.648-.227.256-.147.374.167.757.099.403.285.345.275.875.098.138.315-.817.118-.826.148-.315-.354-.904.659-.58-.01-.699.374-.885.137-.817.168-.53.314-.04.207-.256.58.295.305-.049.157.148.58-.197.296.088.069.433.187.118.01.325.216.747.226.551-.374.325-.118.03-.088.304-.06.344-.157.099.089.246-.05.157-.403-.157-.128.049.07.147-.08.256.148.433.65.315-.571.413-.56 1.298-.306.492-.177.128.266.108-.167.187.383.098.285.05.227-.139.187.178.344-.217.138.108.098-.423.305-.127.285.304.177-.068.138-.099.049.315.462.059.462.089.355-.482.068-.709-.068-.236.177-.01.177-.363.423.02v-.276l.639-.266.403.197.226-.305-.137-.088.137-.59-.098-.119-.344-.127-.128.373-.256.138.04-.423-.178-.187.296-.315-.384-.068.079-.502.462-.285.265-.364.158.206.315-.157v-.138l.403.06.147.206.217-.06.265-.137.246.167.04.295.206-.137.285.177-.02.393-.363.443-.285.02-.04.314-.137.256.029.246.167-.02.315-.344 1.308.088.275.276-.01.295.394.216-.03.433-.176.207-.02.177-.275.02-.197.176-.03.62.394.157.098.168-.472.501h-.403l-.207.236-.128.02-.02.157.719.158-.128.836-.285.167h-.246l-.305.079-.56-.02.127.246.04.226-.384.03-.394-.177-.02.137-.373-.088-.148-.246-.442.413-.089.167-.442.246-.03.452-.6-.049-.118.128-.059.187-.177-.157-.443.442-.275.551-.275.06-.07.196.02.226-.245-.069-.276-.246-.295.167-.01.246-.678.03.059.315.383.265.246.01.236.423.06.324-.316.65-.098.236-.197.216-.177.453.07.786-.217-.039-.344-.108-.118.452-.355.02-.157-.226-.216-.06-.335.266h-.364l-.049.492.276.315-.286.226.02.236-.138.197.541.108-.03.266.207.196.256-.049.128.128v.315l.55.354.129-.158.108-.57h.393l.325.285.226.482.05.56-.6.02-.453.345-.394-.325-.255.157h-.364l-.197-.03-.226.257-.364.049-.187-.069-.177.511.01.374.078.187.148-.275.531-.128.157.128h.315l-.079.354.02.314v.138l-.364.069.07.246.648.482.03.423.236.118.078.374.492.177.453-.168.108-.206.275-.02.05.256.432-.128.236-.118.61.05-.088.245.314.344.394.66.57.344.158-.03.098-.157h.374l.069-.108.363.177.296-.276-.03-.216.443-.04.226-.068.315.039.02.206.59.06.393.236.256-.089.432-.059.413-.57-.059-.148-.314-.04-.217-.285.295-.265v-.207l-.078-.708.305-.688-.03-.295.344-.148-.039.246.393.128.168-.187.177-.04.324.345.226.049.315.354.462.079.128-.374.315-.108.453-.728.078-.177.207-.157.226.127.059-.413.128.118.275-.265.266.236.256-.099-.07-.393.315-.02.148-.226v-.403l.452.393-.03.266.435-.01.528-.376-.041-.32-.25-.25.097-.292v-.376l.255-.284-.187-.03-.05-.177.315-.344.089-.098-.118-.197-.01-.266-.315-.01-.393-.147-.207-.02-.098-.137.089-.286-.05-.127-.334-.01-.167-.335-.118.08-.472-.158-.128-.276.069-.649-.463-.236.158-.079h.167l.266-.245.285-.414h.157l-.57-.373-.109.039-.245-.354-.286-.089-.206-.53-.364-.04.03-.531-.109-.03-.216-.285.108-.295.344-.738.03-.383.167-.108.6-1.17.177-.1.364-.59.04-.275.953-.501.05-.305.078-.109-.069-.167.276-.255-.089-.296.148-.157-.089-.167.276.04.167-.63-.453-.325.07-.678 2.38-.03.245-.197.354-.03.177-.363-.157-.128.138-.275 1.14-.158.148.05.325-.483.55.03.04-.669.108-.275v-.138h.226l.187.65.236.097.138.345.167.098-.069.148.59.039.09.187.422-.04.05.237.393.03.049.933.62.06.452-.364.295.108v.137l.138.05.196-.148.118.325-.03.255.158.335.325.04-.03 1.238-.432-.01-.187.158.364-.01-.06.413.571.177 1.84 1.279.048.187.473.138.245-.01.187-.05.256.02.148.207.373-.079.315.177-.059.148.344.236.07.167.353.118.138.266.256.059.157.442-.02.138.276-.05.206-.393.089.246.256.158.02-.089.363-.02.148.905-.07.325.266.137.177.296.246-.06.099.197.216-.108-.128-.266.217-.177.02-.177.206-.373.462-.335-.01-.255h.089l.059.226.315-.256-.315-.334.364-.266.423-.64.393-.117.492-.05-.118-.118-.236-.039-.099-.098.05-.167-.128-.08-.04.247-.354-.128.158-.413.295-.02.01-.246.03-.255.294-1.033-.098-.04-.197-.501.344-.492-.442-.325-.295-.501-.335-.069-.314-.069.393-.531-.393-.246-.266-.511.069-.315.787.01.137-1.554.846-.02.07-.236.432-.62-.167-.314.137-.65-.423-.816-.226-.275-.157-.325-.305.05-.325-.345.502-.64-.934-.471-1.25.088-.098.64-1.14.698.038.737-.373-.265.04.64-1.014 1.347-.266-.03-.324-.216-.787.216.187.413-.62-.128-.118.394-.187-.069-.59-.511.236-.797-.688-.276.246-1.475-1.486.167-2.744-2.262-.924-1.308-.699-2.94-.344-.01.226-.522.482-.856-.403-.668.01-.61-.816-.423.157-.59.521-.03.295-.649-.177-.069-.177.56-.167.03-.069-.216-.354-.423.58-.698.266-1.368.59-.01.089.699.354.128.03.61.668.078 1.672-.314z"/></svg>