<svg width="512" height="512" xmlns="http://www.w3.org/2000/svg"><path style="fill:none;stroke-width:2;stroke:#000;stroke-opacity:1;stroke-miterlimit:4;stroke-dasharray:none" d="M381.173 503.488c35.88 0 65.236-.472 65.236-1.05 0-1.495 15.741-117.354 17.082-125.727 1.089-6.798.426-6.707-29.134 3.994-40.037 14.492-40.024 14.494-48.214-6.91-14.299-37.363-2.7-44.628 69.053-43.249l48.728.936V320.6c0-5.986-2.323-17.7-5.162-26.031-5.022-14.74-4.973-15.35 1.838-22.6 7.417-7.895 6.69-9.252-6.667-12.437-6.205-1.48-10.686-6.686-17.18-19.96l-8.786-17.959 5.306-47.392c4.897-43.74 4.573-63.748-1.033-63.748-1.23 0-4.78-6.111-7.89-13.58-10.396-24.959-12.321-27.606-20.787-28.589-5.686-.66-8.483-3-8.797-7.358-.252-3.515-.612-7.663-.798-9.218-1.776-14.785-12.96 17.072-14.533 41.4-1.917 29.638-9.183 52.492-16.689 52.492-2.392 0-22.663-8.84-45.047-19.645-22.384-10.805-47.168-20.513-55.076-21.574l-14.38-1.93.933-20.046.932-20.046-18.215-20.62c-15.14-17.138-19.48-20.303-25.699-18.742-5.013 1.258-14.222-1.616-27.904-8.71L197.87 3.718l-9.132 10.614c-5.023 5.837-12.898 20.151-17.5 31.809l-8.369 21.195 7.57 7.036c13.036 12.119 3.443 39.51-10.804 30.85-3.929-2.389-7.869-2.612-11.384-.645-8.863 4.96-21.896-6.34-19.92-17.27.874-4.834.187-8.788-1.526-8.788-1.714 0-3.116-3.427-3.116-7.615 0-5.587-2.129-8.023-7.988-9.143-4.393-.84-7.988-.304-7.988 1.192s-7.918 7.977-17.596 14.403L72.519 89.039 61.36 77.547c-6.14-6.32-11.162-12.845-11.162-14.5 0-1.654-3.594-3.909-7.988-5.012-6.847-1.718-7.988-3.821-7.988-14.725 0-10.118-1.176-12.72-5.751-12.72-3.164 0-7.343-1.591-9.289-3.537-2.585-2.585-5.016-1.279-9.037 4.858-5.4 8.242-5.286 8.715 6.322 26.198 6.502 9.793 11.151 19.553 10.331 21.689-.82 2.136 1.949 16.741 6.151 32.456 4.203 15.715 7.647 33.246 7.653 38.957.012 12.153 1.089 12.514 11.92 3.994 24.456-19.237 51.085 5.524 39.294 36.538-5.148 13.538.527 23.445 12.427 21.699 9.346-1.372 9.861-.887 9.88 9.3.026 13.907 14.677 23.832 26.935 18.247 26.972-12.29 40.267 11.519 21.917 39.248-8.21 12.406-8.248 12.75-4.402 40.243 4.724 33.765 2.592 30.493 25.253 38.756 25.87 9.433 39.624 19.373 42.643 30.82 1.39 5.273 7.95 18.477 14.578 29.344 42.772 70.128 43.834 71.601 50.42 69.969 8.575-2.127 13.193 1.152 17.728 12.586 2.077 5.237 4.443 7.724 5.259 5.527 1.12-3.016 17.452-3.994 66.72-3.994z"/></svg>