<svg width="512" height="512" xmlns="http://www.w3.org/2000/svg"><path style="fill:#000;stroke-width:3.58044" d="M129.544 504.906c1.217-1.97 5.09-3.58 8.607-3.58 3.517 0 9.311-3.223 12.875-7.162 3.565-3.938 8.478-7.16 10.92-7.16 20.413 0 52.376-15.476 61.342-29.7 23.677-37.565 44.206-56.091 61.835-55.8 38.965.64 69.255-5.803 92.444-19.665 14.95-8.937 24.822-12.672 29.538-11.176 5.828 1.85 7.084.585 7.084-7.13 0-7.171 2.492-10.247 10.588-13.07 10.118-3.527 26.596-30.548 34.036-55.815 1.29-4.38 7.084-11.337 12.875-15.461 5.791-4.124 10.53-10.48 10.53-14.126 0-3.645 2.505-16.407 5.567-28.36 6.78-26.467.858-39.403-18.131-39.601-10.083-.105-67.482-34.56-74.208-44.543-4.38-6.505-3.061-21.804 2.517-29.18 7.953-10.514 7.463-11.6-21.666-48.051-28.417-35.56-27.998-34.314-20.97-62.314 2.336-9.307 2.213-9.368-18.625-9.355l-20.975.014-6.208 15.204c-3.415 8.362-9.25 30.119-12.97 48.35-8.45 41.432-21.386 63.563-35.135 60.112-14.6-3.664-18.63 2.745-16.5 26.238 2.698 29.757-2.276 37.649-21.88 34.71-14.555-2.184-15.287-1.824-21.107 10.382-6.187 12.974-12.364 15.316-23.99 9.094-9.466-5.067-28.078-.474-30.626 7.556-2.359 7.431-12.34 8.94-18.486 2.794-2.867-2.868-4.658-1.649-6.576 4.475-1.45 4.63-6.332 12.839-10.85 18.243-4.518 5.405-9.143 12.754-10.278 16.33-1.135 3.577-8.647 9.407-16.693 12.957-10.19 4.496-17.515 11.365-24.141 22.638-9.882 16.81-10.918 17.994-25.52 29.15-8.48 6.478-8.681 7.55-4.89 25.956 3.379 16.407 2.936 22.504-3.042 41.923-3.848 12.497-6.128 24.984-5.068 27.748 2.2 5.732 22.079 6.862 25.427 1.445 5.66-9.158 26.978-3.613 43.045 11.197 19.758 18.212 20.022 24.634 1.574 38.2l-14.458 10.633 19.533 11.024c10.743 6.063 20.567 12.696 21.83 14.74 2.911 4.71 7.96 4.774 10.826.136z"/></svg>