<svg width="512" height="512" xmlns="http://www.w3.org/2000/svg"><path style="fill:#000;stroke-width:2.5601" d="M359.346 507.79c3.996-3.901 37.09-15.547 44.178-15.547h6.574l-6.959-7.264c-6.25-6.524-7.405-15.777-1.969-15.777 1.998 0 1.356-22.898-.994-35.458-1.596-8.53 4.418-19.834 9.033-16.982 1.069.661.942-3.11-.281-8.38-3.495-15.046-2.872-18.314 3.81-19.991 6.084-1.527 9.1-7.475 9.168-18.08.02-2.995 1.763-6.88 3.875-8.633 6.853-5.688 5.13-16.555-1.85-11.666-17.083 11.966-27.65-8.766-15.038-29.504 5.88-9.669 1.218-29.048-7.665-31.867-8.875-2.817-17.803-29.367-9.875-29.367 1.48 0 3.898-3.457 5.37-7.68 1.473-4.225 4.293-7.681 6.267-7.681 2.394 0 3.59-2.977 3.59-8.939 0-6.166 1.588-9.93 5.12-12.136 6.842-4.273 6.452-10.018-1.474-21.693-5.326-7.846-6.444-12.176-5.814-22.515.744-12.198.233-13.342-10.843-24.32-12.475-12.364-22.11-30.795-18.853-36.064 2.61-4.223 2.964-17.853.503-19.374-3.154-1.95-2.177-10.285 1.57-13.395 9.446-7.84 5.602-48.438-4.97-52.495-2.002-.768-3.64-3.67-3.64-6.446 0-2.778-1.153-5.762-2.56-6.632-1.409-.87-2.56-4.118-2.56-7.216 0-16.96-30.934-12.874-35.865 4.737-2.213 7.906-2.28 12.255-.249 16.052 6.994 13.067 1.178 20.512-17.294 22.14-9.348.823-20.452 2.803-24.676 4.398-4.224 1.596-13.152 3.415-19.84 4.043-9.694.91-12.161 2.099-12.161 5.858 0 3.607-2.56 5.068-10.88 6.213-11.55 1.588-100.695 11.618-103.267 11.618-.835 0-.702 9.792.295 21.76 2.116 25.403 4.869 24.003-30.794 15.66-27.888-6.525-29.795-6.482-23.452.527 2.338 2.584 4.251 8.18 4.251 12.435 0 4.256 2.782 12.969 6.182 19.363 10.018 18.841 11.187 37.56 2.956 47.342-6.218 7.39-6.493 8.742-3.867 19.037 1.555 6.095 3.021 13.418 3.258 16.274.238 2.856 4.176 10.283 8.752 16.505 9.617 13.075 9.88 14.29 3.84 17.697-3.588 2.025-3.843 3.172-1.28 5.76 1.76 1.777 3.2 5.128 3.2 7.446 0 7.084 7.636 20.003 12.79 21.64 2.678.85 5.582 3.79 6.453 6.534.87 2.744 3.212 4.989 5.202 4.989 1.99 0 4.341 2.88 5.225 6.399 1.108 4.416 4.097 7.044 9.645 8.482 4.92 1.275 8.404 4.007 8.98 7.041 1.15 6.066 4.923 8.708 12.508 8.76 3.294.026 5.76 1.62 5.76 3.734 0 2.032 2.401 5.377 5.336 7.432 3.388 2.374 5.052 5.93 4.559 9.746-1.33 10.281 2.057 12.697 15.327 10.937 11.011-1.46 12.335-1.049 15.47 4.808 3.255 6.082 8.959 8.464 31.63 13.208 3.873.81 7.041 3.057 7.041 4.991 0 1.935 1.728 4.18 3.84 4.991 2.112.81 3.84 4.246 3.84 7.635 0 12.979 3.133 21.713 8.269 23.056 4.094 1.071 4.925 2.947 4.023 9.09-.723 4.929.093 8.21 2.247 9.037 1.86.714 3.382 2.928 3.382 4.92 0 3.833 12.097 7.429 14.098 4.19 2.288-3.702 24.679-7.967 27.88-5.31 1.685 1.398 5.226 9.76 7.869 18.582 6.427 21.458 18.07 32.894 25.804 25.344z"/></svg>