<svg width="512" height="512" xmlns="http://www.w3.org/2000/svg"><path style="fill:none;stroke-width:2;stroke-miterlimit:4;stroke-dasharray:none;stroke:#000;stroke-opacity:1" d="M158.506 489.554c2.715-1.124 5.277-3.215 5.692-4.646.415-1.43 1.869-6.52 3.23-11.31 3.868-13.605 8.981-15.835 36.314-15.835 19.572 0 22.157-.348 30.96-4.166l9.606-4.166v-17.958c0-19.41-3.344-31.018-10.856-37.692-4.554-4.045-4.463-4.453 3.73-16.777 3.92-5.895 7.126-11.466 7.126-12.378 0-.913 1.495-2.135 3.323-2.715 3.521-1.118 9.345-6.268 9.345-8.264 0-.653 2.494-3.177 5.542-5.61 9.004-7.183 6.582-18.576-2.518-11.848-5.37 3.97-9.373 1.867-9.334-4.905.041-7.038 2.202-8.64 12.67-9.398 9.128-.66 9.888-1.016 11.395-5.341 1.438-4.124 2.249-4.581 7.37-4.154l5.753.48 1.398 34.232c1.394 34.123 1.387 34.242-2.111 37.74-4.528 4.528-4.816 4.344 15.247 9.729 21.662 5.813 28.082 6.064 26.574 1.038-2.043-6.808-18.417-43.22-24.741-55.02-7.207-13.445-7.255-15.97-.58-30.417 3.35-7.252 5.25-9.422 9.632-11.007 3.003-1.085 5.46-2.874 5.46-3.975 0-3.895 5.974-5.589 10.124-2.87 4.394 2.88 18.872-.503 22.74-5.313 1.787-2.224 3.436-2.123 16.626 1.017 9.715 2.313 18.904 3.395 27.31 3.216 6.967-.15 14.984.51 17.815 1.465l5.146 1.734v-8.469c0-11.636.964-13.479 7.05-13.479 14.223 0 12.799-21.926-2.138-32.905-6.006-4.414-6.018-5.545-.304-29.31 5.54-23.036 3.751-21.715 21.49-15.872 17.297 5.697 15.9 6.308 25.42-11.105 3.545-6.482 7.375-11.364 9.57-12.199 5.4-2.053 9.042-9.564 5.79-11.942-2.219-1.622-2.216-2.776.025-11.926 5.068-20.69 5.211-24.083.958-22.675-2.05.68-10.498 1.071-18.772.87-8.274-.2-17.538-.372-20.586-.382-13.411-.044-17.992-6.338-7.126-9.79 2.613-.83 6.719-3.343 9.123-5.584l4.373-4.075-8.331-7.964c-4.688-4.482-9.522-7.767-11.053-7.514-1.496.249-5.416-1.38-8.71-3.62-5.905-4.017-6.007-4.029-7.432-.85-2.604 5.81-8.435 5.76-14.504-.121-5.677-5.503-6.71-9.06-3.55-12.22 2.5-2.499-4.112-9.801-7.927-8.755-2.93.804-11.37 13.6-11.37 17.24 0 1.261-1.425 3.513-3.167 5.004-1.742 1.492-3.167 3.399-3.167 4.238 0 .84-4.56 5.952-10.132 11.362-6.412 6.227-10.527 11.639-11.21 14.745-.592 2.7-4.288 9.27-8.212 14.6-7.032 9.551-7.12 9.824-6.072 18.85.915 7.878.546 10.064-2.637 15.637-5.077 8.888-7.38 8.395-24.13-5.155-8.053-6.515-17.201-12.486-20.742-13.538-20.245-6.012-29.647-13.814-23.752-19.708 1.306-1.307 2.375-3.444 2.375-4.75 0-3.417 6.94-8.397 20.939-15.024l12.229-5.789.043-8.42c.038-7.511-.277-8.319-2.916-7.481-2.07.657-3.77-.3-5.665-3.193-1.489-2.272-5.324-5.207-8.522-6.522-8.384-3.446-14.525-9.774-14.525-14.966 0-4.747-2.292-7.245-4.044-4.409-1.398 2.261-13.289 7.698-16.937 7.744-2.021.025-2.771-1.23-2.771-4.64v-4.675l-7.405 2.228c-10.368 3.121-32.297 1.486-33.335-2.485-.546-2.085-3.99-3.377-13.922-5.219-15.02-2.786-29.861-9.872-68.06-32.497L101 3.662 99.93 10.21c-1.327 8.106-.175 25.086 2.256 33.26 1.532 5.15 1.393 6.875-.869 10.817-1.48 2.58-2.691 5.649-2.691 6.821 0 3.465-8.152 8.892-12.582 8.375-3.614-.42-4.868 1.049-11.76 13.781-9.187 16.967-15.89 24.404-26.454 29.353-8.808 4.125-8.82 4.258-1.8 18.152 3.353 6.633 4.07 10.487 4.425 23.753.866 32.466 4.406 50.058 12.501 62.126C73.921 232.993 74 232.874 48.348 239.099c-26.014 6.314-24.04 4.676-22.473 18.641 1.647 14.68 6.754 24.224 12.972 24.241 5.452.016 6.192 8.615 1.336 15.516-1.66 2.36-3.488 7.033-4.06 10.385-1.024 5.998-1.14 6.086-7.274 5.5-3.428-.326-6.233-.04-6.233.636s.713 1.23 1.584 1.23c.87 0 1.594 1.603 1.608 3.562.044 6.566 1.819 7.611 8.736 5.148 3.455-1.23 8.42-2.291 11.033-2.357 2.613-.064 10.444-1.388 17.403-2.939l12.653-2.82 1.609-8.482c2.128-11.221 6.935-13.34 17.526-7.72 5.804 3.078 7.024 4.512 7.024 8.255 0 3.982.456 4.414 3.777 3.58 2.39-.6 4.497-.082 5.737 1.412 5.317 6.408 13.584 2.991 17.278-7.14 4.284-11.748 5.335-11.853 22.666-2.267 14.232 7.873 27.425 11.707 40.406 11.744l8.313.024v7.565c0 4.16-1.007 9.004-2.238 10.762-5.017 7.161-1.526 19.677 5.487 19.677 4.167 0 1.42 9.597-3 10.48-3.67.734-4.375 1.574-3.809 4.534.604 3.16-.355 3.982-7.373 6.313-6.741 2.24-8.069 3.31-8.069 6.512 0 2.107-.712 3.831-1.583 3.831s-1.584 1.044-1.584 2.32c0 4.369-5.73 5.892-12.12 3.222-7.222-3.017-10.04-1.15-6.956 4.612 2.77 5.175 1.241 8.507-4.187 9.13-3.954.453-4.393 1.064-3.95 5.5.275 2.744-.24 5.446-1.144 6.004-.904.559-2.403 3.836-3.33 7.283-1.43 5.308-2.333 6.267-5.903 6.267-3.278 0-3.792.423-2.314 1.9 3.675 3.675 2.41 15.513-1.663 15.558-7.435.08-12.07 16.575-5.146 18.313 2.821.708 3.959 2.065 3.959 4.725 0 4.177-4.768 7.511-8.625 6.032-2.14-.822-2.277-.33-.906 3.276 1.68 4.419-.152 10.37-3.193 10.37-2.664 0-1.612 3.73 3.225 11.431l4.693 7.473 11.664-8.37c6.415-4.602 13.886-9.288 16.602-10.413z"/></svg>