<svg width="512" height="512" xmlns="http://www.w3.org/2000/svg"><path style="fill:none;stroke-width:2;stroke:#000;stroke-opacity:1;stroke-miterlimit:4;stroke-dasharray:none" d="M240.777 500.885c3.725-4.489 1.124-10.56-4.524-10.56-16.8 0-15.491-18.883 3.006-43.369 18.308-24.235 17.486-20.998 8.609-33.9-6.352-9.233-9.662-11.276-32.738-20.209-50.653-19.607-52.98-22.85-33.439-46.598l12.471-15.156 21.458.754c26.404.928 24.232.413 25.719 6.097 2.34 8.953 7.771 4.768 14.676-11.31 9.907-23.068 36.585-74.75 41.48-80.356 4.468-5.119 9.57-12.309 17.054-24.033 8.91-13.957 45.147-19.779 45.147-7.253 0 8.582 16.201 16.331 30.64 14.655 23.964-2.78 24.706-7.78 2.843-19.154-5.975-3.108-13.446-8.443-16.601-11.854-3.156-3.412-8.75-7.76-12.43-9.664-7.167-3.707-11.595-10.091-11.595-16.72 0-2.255-2.56-7.455-5.688-11.557-6.014-7.885-51.903-98.328-55.033-108.468-1.011-3.273-3.753-8.405-6.093-11.402-2.481-3.178-4.945-11.892-5.91-20.902l-1.655-15.452-26.672 63.76c-32.961 78.792-32.476 77.792-38.252 78.875-2.61.49-5.601 2.378-6.648 4.196-1.047 1.818-4.262 3.33-7.143 3.36-11.328.113-16.235 7.295-18.444 26.996-1.405 12.53-3.633 20.424-7.007 24.827-24.095 31.445-48.552 60.028-51.362 60.028-1.884 0-3.426 2.23-3.426 4.956 0 2.726-3.642 9.423-8.094 14.881l-8.095 9.925 14.112 29.66c7.762 16.313 13.627 30.924 13.035 32.469-.67 1.744.582 2.374 3.302 1.662 2.815-.736 5.35.669 7.097 3.931 2.764 5.165 1.35 14.42-2.203 14.42-2.616 0 10.929 46.014 16.731 56.84 2.525 4.711 4.591 10.105 4.591 11.986 0 4.51 23.922 57.365 25.964 57.365.87 0 3.48-3.214 5.8-7.143 5.14-8.7 10.441-9.169 13.474-1.19 1.824 4.795 3.895 5.952 10.656 5.952 5.738 0 8.392 1.09 8.392 3.448 0 4.185 12.243.691 16.795-4.793z"/></svg>