<svg width="512" height="512" xmlns="http://www.w3.org/2000/svg"><path style="fill:none;stroke-width:2;stroke-miterlimit:4;stroke-dasharray:none;stroke:#000;stroke-opacity:1" d="M406.253 493.96c3.382-7.126 3.792-11.173 1.69-16.699-4.977-13.092-3.06-20.745 9.207-36.743 6.588-8.592 13.532-20.37 15.43-26.171 2-6.11 10.283-17.53 19.685-27.138 8.928-9.125 16.233-17.441 16.233-18.481 0-4.931 30.59-48.43 36.15-51.405 6.208-3.322 6.13-3.457-4.592-7.953-14.363-6.023-48.707-12.515-65.975-12.47-7.572.027-22.75-2.067-33.729-4.635-23.728-5.55-23.785-5.737-12.66-41.416 6.944-22.274 7.078-23.792 2.753-31.115-6.628-11.219-5.623-17.845 3.923-25.878 9.503-7.995 10.15-8.096 27.105-4.188 16.592 3.825 18.664.911 20.079-28.236 1.428-29.421-5.304-33.235-37.07-21.005-30.376 11.695-31.504-22.966-1.672-51.37 8.87-8.445 16.128-17.699 16.128-20.563 0-2.865 1.451-5.693 3.226-6.284 5.383-1.795-27.474-25.649-33.917-24.624-3.17.505-10.882-2.68-17.136-7.077S355.01 19.66 349.228 16.173l-10.512-6.34-20.369 9.287c-11.203 5.11-20.412 10.868-20.464 12.799-.15 5.56-13.58 9.412-35.132 10.078l-19.894.615-24.75 25.25c-27.163 27.713-26.165 27.344-54.253 20.047l-19.67-5.11 2.462 8.58c5.72 19.947-5.564 34.775-26.463 34.775-1.893 0-4.985 1.858-6.87 4.13-4.674 5.632-20.343 5.24-55.068-1.377-15.895-3.028-29.753-5.506-30.797-5.506-1.044 0-1.205 4.269-.358 9.487 2.454 15.122-.84 22.613-12.937 29.412-7.428 4.175-10.123 7.108-8.25 8.981 3.588 3.588 3.608 17.365.028 19.577-1.515.936-2.754 5.15-2.754 9.363 0 14.43 128.118 85.467 164.965 91.466 11.876 1.934 22.4 5.31 25.163 8.074 7.436 7.437 34.043 9.396 54.744 4.032 19.885-5.153 26.17-4.068 23.587 4.07-2.515 7.924 2.917 6.94 15.14-2.74 5.735-4.543 11.862-8.26 13.614-8.26 3.083 0 11.664 17.004 10.745 21.29-1.289 6.007 5.502 12.847 20.04 20.186 8.896 4.49 16.175 9.23 16.175 10.534 0 1.303 3.652 3.1 8.117 3.993 9.477 1.895 12.042 10.27 10.64 34.748l-.86 15.032-10.902 2.253c-28.4 5.87-63.546 37.324-47.24 42.28 3.205.974 7.686 3.372 9.957 5.329 2.272 1.957 11.438 5.668 20.37 8.249 12.487 3.606 21.397 9.055 38.548 23.573 26.125 22.113 24.583 21.623 30.273 9.63z"/></svg>