<svg width="512" height="512" xmlns="http://www.w3.org/2000/svg"><path style="fill:#000;stroke-width:2.31348" d="M184.479 506.816c5.395-1.95 10.731-2.017 19.698-.244 14.793 2.925 17.353 2.148 20.245-6.148 3.272-9.386.936-17.148-6.701-22.265-4.116-2.757-6.758-6.56-6.762-9.73-.005-2.864-1.048-5.206-2.32-5.206-1.273 0-2.314-3.523-2.314-7.828 0-5.63-1.184-8.137-4.22-8.93-2.321-.608-6.611-6.19-9.533-12.406-2.922-6.216-7.269-13.789-9.66-16.83-5.432-6.905-5.53-11.137-.3-12.883 11.588-3.866 15.201-9.323 11.243-16.977-2.048-3.961-3.724-9.434-3.724-12.16 0-4.635-.774-4.853-11.812-3.335-11.785 1.62-11.837 1.6-23.135-9.529-6.227-6.134-11.323-12.351-11.323-13.817 0-2.727 15.146-5.607 29.492-5.607 7.146 0 7.89-.57 6.793-5.205-.677-2.863-1.954-12.493-2.836-21.4-.89-8.98-3.154-17.96-5.083-20.156-3.824-4.356-2.465-11.112 2.215-11.013 5.798.122 29.398 19.857 43.364 36.261 7.8 9.162 15.435 16.278 16.967 15.812 13.95-4.24 24.762-3.33 24.762 2.085 0 3.053 2.638 10.802 5.862 17.22 6.614 13.168 4.032 13.127 31.948.499 21.483-9.718 31.595-8.963 31.595 2.362 0 2.184.796 4.318 1.769 4.742 2.586 1.128 9.798 25.535 9.798 33.16 0 3.594 2.477 10.79 5.504 15.992 3.027 5.201 6.217 12.768 7.089 16.816 2.679 12.432 8.229 14.773 8.229 3.471 0-5.17-1.041-10.044-2.314-10.83-1.272-.787-2.313-4.492-2.313-8.234 0-8.18 5.17-8.99 13.88-2.177 6.042 4.726 11.568 6.008 11.568 2.685 0-1.068-2.53-3.095-5.623-4.505-7.93-3.612-6.957-25.536 1.546-34.853 8.845-9.693 12.509-24.037 7.841-30.7-6.323-9.029-4.335-22.853 3.288-22.853 2.333 0 4.803.907 5.488 2.015.684 1.108 4.13 2.597 7.655 3.308 3.526.711 8.228 1.997 10.45 2.856 3.472 1.344 3.838.555 2.602-5.621-.824-4.123-.471-7.185.828-7.185 5.252 0 13.782-11.222 15.875-20.884 2.97-13.708 13.215-13.87 27.247-.43 7.364 7.053 8.442 7.555 6.025 2.806-1.618-3.18-4.029-6.49-5.357-7.353-1.646-1.07-1.501-3.571.455-7.865 2.388-5.241 2.195-8.167-1.155-17.482-3.789-10.537-3.81-14.563-.377-69.332 4.213-67.182 3.423-73.932-12.153-103.872-14.932-28.7-13.631-27.988-25.469-13.95-5.608 6.652-13.332 13.706-17.163 15.677-3.83 1.97-11.434 7.505-16.897 12.298-9.689 8.503-45.378 15.882-50.764 10.497-2.695-2.695 4.303-36.488 11.016-53.198 3.614-8.996 6.25-16.677 5.858-17.069-.392-.392-18.54 1.59-40.331 4.404l-39.619 5.117v8.86c0 10.25-5.432 12.122-12.21 4.206-3.211-3.75-5.716-4.377-12.89-3.23-12.55 2.007-18.211-1.531-55.869-34.912L159.821 2.839h-23.017c-13.399 0-23.018.942-23.018 2.254 0 1.24-3.066 3.84-6.814 5.778-14.245 7.367-7.322 38.947 14.067 64.163 6.522 7.689 7.002 9.242 4.646 15.038-1.908 4.696-2.043 19.087-.495 52.63 1.306 28.277 1.302 47.715-.009 50.166-1.177 2.2-2.14 5.89-2.14 8.2 0 10.188-18.85 42.376-24.052 41.07-3.443-.864-6.71.579-10.537 4.653-3.051 3.247-8.02 5.905-11.043 5.905-6.553 0-19.146 6.125-19.146 9.313 0 1.24-1.348 2.254-2.995 2.254-13.93 0-12.677 82.978 1.671 110.725 2 3.868 3.637 9.626 3.637 12.795 0 3.17.96 6.355 2.131 7.08 2.428 1.5 7.734 15.777 11.839 31.856 2.936 11.5 7.133 14.635 18.419 13.758 7.91-.614 9.816 1.077 18.374 16.31 7.699 13.703 24.213 29.457 46.373 44.238 13.93 9.293 15.903 9.72 26.767 5.791z"/></svg>