<svg width="512" height="512" xmlns="http://www.w3.org/2000/svg"><path style="fill:none;stroke-width:2;stroke-miterlimit:4;stroke-dasharray:none;stroke:#000;stroke-opacity:1" d="M289.872 501.401c2.62-5.748 16.663-14.459 51.207-31.76l47.598-23.838 1.86-13.79c1.023-7.583.456-25.295-1.26-39.36-5.909-48.427-5.075-46.255-20.348-53.01-22.543-9.973-33.694-25.23-33.694-46.103 0-22.259 10.865-46.322 20.916-46.322 5.817 0 9.124-5.906 21.827-38.987l14.97-38.987-10.38-14.553c-42.933-60.183-76.1-96.594-76.1-83.541 0 7.942-9.973 9.105-15.982 1.865-5.916-7.128-8.898-5.818-7.183 3.156 2.079 10.876-7.805 14.75-14.99 5.877-2.858-3.528-9.449-8.454-14.646-10.945-5.198-2.492-9.976-7.395-10.619-10.898-1.927-10.508-9.624-16.65-23.135-18.463-18.384-2.466-28.515-10.038-28.515-21.313 0-18.955-16.477-22.84-45.373-10.698-6.496 2.73-15.223 4.31-19.392 3.514l-7.582-1.45 1.192 37.003c1 31.06 9.885 76.957 14.898 76.957.417 0 8.394-2.267 17.726-5.039 30.104-8.94 39.8-.814 23.9 20.031-7.621 9.992-8.303 13.608-9.093 48.248-.76 33.322-1.797 39.297-9.406 54.248l-8.552 16.801 14.448 10.184c12.168 8.577 14.448 11.853 14.448 20.756 0 5.815.36 10.555.8 10.534.439-.032 8.71-2.16 18.378-4.756 24.034-6.451 25.75-6.222 40.972 5.479 13.976 10.74 18.2 24.91 9.04 30.321-6.545 3.865-12.232 16.478-10.249 22.728.968 3.05.37 10.395-1.33 16.321-2.406 8.39-1.936 12.73 2.125 19.604 4.442 7.52 4.608 10.297 1.119 18.722-2.904 7.01-3.114 11.077-.72 13.96 1.857 2.239 2.925 12.194 2.373 22.123-.92 16.541-.39 18.207 6.309 19.888 4.737 1.19 10.18 7.59 15.453 18.173 7.244 14.535 16.06 24.846 21.497 25.139 1.036.054 3.508-3.463 5.493-7.819z"/></svg>