<svg width="512" height="512" xmlns="http://www.w3.org/2000/svg"><path style="fill:#000;stroke:#000;stroke-width:2.45737;stroke-opacity:1;fill-opacity:1" d="M308.723 459.679c7.532-5.78 23.223-19.907 34.869-31.395 11.646-11.489 36.775-35.073 55.842-52.41 34.657-31.513 52.823-56.543 78.782-108.548 3.349-6.71 33.294-109.438 32.192-110.44-.484-.44-50.643-3.704-111.463-7.254-60.82-3.55-118.537-7.12-128.26-7.933l-17.68-1.48-54.813-38.091c-30.147-20.95-63.19-43.938-73.428-51.083L106.15 38.054 85.243 50.057 64.337 62.06 39.36 98.74c-33.496 49.187-35.01 52.996-36.726 92.408-2.877 66.08-.805 78.165 17.069 99.556 13.919 16.657 14.186 22.083 1.087 22.083-20.27 0-23.441 15.049-6.414 30.431l9.836 8.887H73.81l35.595 31.332c40.382 35.544 45.287 38.827 52.363 35.04 2.67-1.43 7.644-1.9 11.05-1.045 5.154 1.294 6.194.685 6.194-3.626 0-2.85 1.382-5.188 3.072-5.197 11.71-.06 90.432-12.164 94.996-14.607 11.909-6.374 11.106 10.21-1.719 35.51-2.055 4.055-5.549 15.717-7.764 25.917l-4.027 18.545 15.73-1.894c13.237-1.594 17.898-3.558 29.424-12.401z"/></svg>