<svg width="512" height="512" xmlns="http://www.w3.org/2000/svg"><path style="fill:#000;stroke-width:2.61322" d="M402.676 490.619c-.075-32.46.274-33.227 16.305-35.817 7.002-1.131 9.437-2.905 10.07-7.337 1.096-7.668 6.688-7.426 12.972.564 8.445 10.736 19.911 5.875 20.986-8.896.451-6.208 2.46-12.925 4.462-14.928 4.46-4.46 2.816-9.722-6.973-22.326-4.809-6.191-8.107-14.211-9.136-22.212-.885-6.888-3.997-16.88-6.914-22.207-4.321-7.888-4.698-10.414-2.033-13.626 5.79-6.976.934-48.32-6.048-51.5-6.539-2.98-17.297-20.567-17.297-28.277 0-2.949-1.02-5.362-2.266-5.362-3.12 0-16.027-19.89-16.027-24.698 0-2.147-2.748-10.11-6.107-17.695-9.005-20.332-12.474-30.663-14.883-44.322-1.187-6.732-3.409-14.575-4.936-17.429-6.245-11.668-.48-29.192 11.291-34.314 16.916-7.362 37.476-28.17 39.625-40.103.991-5.504 3.418-10.628 5.392-11.386 1.975-.757 3.59-4.544 3.59-8.415 0-3.87 1.023-8.154 2.273-9.52 8.943-9.768 5.211-20.687-9.246-27.05l-14.258-6.274-12.34 12.154c-14.56 14.342-14.427 14.327-39.6 4.43-22.95-9.023-23.434-8.765-30.434 16.184-5.49 19.565-9.317 21.613-28.237 15.103-9.04-3.11-17.824-4.474-22.628-3.513-6.519 1.304-8.1.622-9.313-4.013-.803-3.07-2.498-5.583-3.768-5.583-1.27 0-4.66-2.352-7.535-5.227-2.874-2.874-5.226-4.05-5.226-2.613 0 3.315-4.023 3.281-16.333-.138-6.778-1.883-9.8-4.201-9.8-7.52 0-6.348-10.31-8.962-15.788-4.004-5.547 5.02-9.2 4.833-27.33-1.405-8.355-2.875-18.3-5.227-22.099-5.227-3.799 0-8.05-1.142-9.447-2.54-1.397-1.396-10.276-3.634-19.731-4.973-9.456-1.34-21.778-4.75-27.382-7.578C85.294.308 73.599 4.703 86.225 18.655c5.749 6.352-4.834 29.013-14.232 30.472-3.26.506-8.234 6.709-13.623 16.986-4.67 8.904-10.7 18.64-13.403 21.636-4.896 5.429-4.851 5.477 12.619 13.594l17.533 8.147 6.13-9.021c7.198-10.593 9.03-10.832 25.862-3.374 18.053 7.999 47.16 15.161 61.825 15.214 9.575.034 12.836 1.113 13.956 4.618.804 2.515 2.526 6.925 3.827 9.8 1.3 2.874 3.289 9.855 4.418 15.513 1.637 8.198 3.502 10.674 9.183 12.194 3.922 1.048 13.12 7.291 20.44 13.873 12.28 11.042 14.096 11.84 23.493 10.338 11.56-1.849 12.505.656 6.507 17.266-2.307 6.39-2.567 12.416-.88 20.331 1.592 7.462 1.44 14.003-.45 19.425-6.708 19.244 4.023 22.577 89.936 27.932l26.133 1.628.79 13.72.79 13.72h-9.148c-8.907 0-9.079.193-6.567 7.4 6.25 17.925-3.577 25.354-19.354 14.633-16.381-11.13-23.83-10.052-24.813 3.593-.794 11.016-.58 11.345 10.04 15.517l10.85 4.262-1.663 13.305-1.662 13.305 11.478 5.577c11.1 5.392 11.564 6.106 14.06 21.606 2.788 17.31-.335 34.076-6.347 34.076-1.804 0-3.28 2.127-3.28 4.726 0 2.6-1.727 7.01-3.837 9.8-6.561 8.675-5.213 26.882 2.126 28.724 4.84 1.214 6.627 4.112 8.493 13.77 2.06 10.656 3.458 12.583 10.86 14.976 4.671 1.51 9.904 4.156 11.628 5.88 1.724 1.723 9.802 3.134 17.953 3.134h14.818z"/></svg>