<svg width="512" height="512" xmlns="http://www.w3.org/2000/svg"><path style="fill:#000;stroke-width:4.41031" d="M381.64 492.204c0-2.752 8.337-16.36 18.526-30.239 15.98-21.767 18.363-27.878 17.343-44.46-2.623-42.665 23.068-65.191 57.896-50.765 21.115 8.746 26.66-2.584 22.897-46.784-1.653-19.405-4.822-35.964-7.044-36.797-2.222-.834-8.794-10.757-14.605-22.052-5.812-11.295-17.659-26.079-26.327-32.853-8.67-6.774-15.762-14.743-15.762-17.71 0-2.965-16.373-16.19-36.385-29.388-20.012-13.199-53.254-41.412-73.873-62.697C289.985 83.03 221.29 27.217 187.95 7.677c-15.836-9.281-18.362-3.253-7.588 18.11 5.842 11.583 12.043 49.114 13.246 80.166.866 22.348-10.895 22.506-34.804.467-23.709-21.854-28.551-22.405-28.551-3.246 0 10.932-4.049 18.928-15.612 30.834-18.413 18.96-15.992 29.956 8.365 37.994 15.205 5.018 27.056 43.907 16.575 54.388-6.316 6.316-33.418-3.218-35.181-12.376-2.375-12.33-14.023-28.573-20.491-28.573-3.1 0-6.687-2.737-7.971-6.084-2.413-6.288-42.789-22.207-42.614-16.802.053 1.672 3.979 8.002 8.722 14.066 9.205 11.767 11.7 32.982 4.41 37.487-2.425 1.5-4.41 7.75-4.41 13.89 0 6.883-5.072 15.614-13.23 22.773-30.976 27.18-15.945 53.245 31.321 54.314 32.247.729 48.064 11.933 48.064 34.045 0 14.083 28.23 31 37.267 22.332 7.21-6.916 20.067-4.52 20.067 3.741 0 4.268 3.97 10.24 8.82 13.269 4.852 3.03 8.821 10.222 8.821 15.982 0 6.765 3.124 11.291 8.82 12.781 5.893 1.54 8.822.137 8.822-4.234 0-4.747 4.097-6.187 14.942-5.253 8.219.708 18.294-1.494 22.39-4.893 15.475-12.843 38.844 6.775 96.412 80.936 29.13 37.525 30.377 38.53 38.59 31.097 4.669-4.225 8.488-9.933 8.488-12.684z"/></svg>