<svg width="512" height="512" xmlns="http://www.w3.org/2000/svg"><path style="fill:none;stroke-width:2;stroke:#000;stroke-opacity:1;stroke-miterlimit:4;stroke-dasharray:none" d="m369.932 457.37-1.226-16.95 10.597-3.497c5.829-1.924 14.517-7.329 19.307-12.012 11.753-11.488 26.146-10.804 28.326 1.348 1.378 7.684 2.336 8.145 18.748 9.024l17.295.926 15.103-35.548c11.487-27.036 15.103-39.007 15.103-49.995 0-8.249 2.98-22.364 6.943-32.894l6.943-18.445-6.223-9.7c-5.21-8.121-6.457-15.312-7.663-44.216l-1.44-34.518-10.08-1.668c-20.042-3.314-32.61-14.84-33.634-30.845-.371-5.802-2.63-11.492-5.114-12.882-2.447-1.37-4.45-5.472-4.45-9.117 0-13.936-5.835-24.927-11.597-21.844-14.092 7.542-36.63-6.652-47.587-29.969-3.802-8.09-8.43-16.778-10.286-19.304-1.936-2.636-2.556-7.854-1.455-12.24 2.838-11.308 12.012-9.697 25.825 4.537l11.823 12.183 2.456-12.421c3.896-19.7-3.458-27.387-35.005-36.585-16.55-4.826-20.662-4.01-14.883 2.953 2.943 3.546 2.749 6.223-1.03 14.185-2.56 5.397-4.656 11.792-4.656 14.21 0 2.417-5.184 6.682-11.52 9.478-6.335 2.795-11.566 6.453-11.623 8.128-.057 1.675-3.27 6.921-7.14 11.658-7.586 9.285-3.996 8.842-51.738 6.378-10.362-.534-11.607.156-12.959 7.19-2.124 11.055-56.807 57.016-67.834 57.016h-7.924l1.994-26.423c2.427-32.142.7-29.41 23.342-36.945 16.132-5.368 18.688-7.171 18.688-13.184 0-6.783-.597-6.964-22.932-6.964-16.142 0-27.26-1.706-37.545-5.76-8.037-3.168-18.54-5.76-23.338-5.76-4.87 0-12.896-3.181-18.164-7.2-5.192-3.96-11.738-7.199-14.547-7.199-10.967 0-42.81 34.916-51.216 56.157-3.622 9.154-5.943 11.428-11.305 11.073-6.12-.405-8.42 3.753-24.725 44.679-21.435 53.803-21.145 50.557-5.06 56.7 17.558 6.705 17.945 7.497 19.287 39.461 1.047 24.903.63 28.079-3.685 28.079-6.172 0-8.588 6.209-9.803 25.199-1.002 15.656 4.686 21.823 8.64 9.366 4.766-15.016 24.685-9.76 49.088 12.951 13.98 13.01 16.18 16.392 14.365 22.081-7.144 22.4-.295 56.569 8.854 44.17 4.064-5.507 4.595-5.543 12.766-.854 6.643 3.813 8.525 4.037 8.525 1.016 0-4.84 7.14-7.77 13.236-5.43 3.232 1.24 4.14 4.054 3.055 9.477-1.4 7 .176 8.7 17.083 18.424 19.759 11.365 24.223 11.435 24.223.38 0-4.658 2.552-8.094 7.92-10.664 4.47-2.14 11.29-10.05 15.656-18.157 4.256-7.9 11.563-17.604 16.24-21.563 4.675-3.96 8.987-9.792 9.58-12.96 2.445-13.038 15.309-7.178 16.258 7.407.807 12.407 1.678 13.653 15.084 21.599 7.825 4.638 14.992 11.024 15.927 14.192.935 3.168 6.273 9.764 11.863 14.658 7.695 6.738 11.015 12.682 13.672 24.479 3.91 17.359 19.142 24.083 21.238 9.375 2.611-18.326 36.353-26.756 36.853-9.207.344 12.097 2.772 19.732 6.273 19.732 1.34 0 1.883-7.627 1.208-16.949z"/></svg>