<svg width="512" height="512" xmlns="http://www.w3.org/2000/svg"><path style="fill:none;stroke-width:2;stroke-miterlimit:4;stroke-dasharray:none;stroke:#000;stroke-opacity:1" d="M478.13 504.125c7.315-4.182 7.362-4.385 1.038-4.488-8.948-.147-22.489-16.836-22.489-27.717 0-6.061-1.884-9.35-6.132-10.697-12.805-4.065-16.167-31.108-6.055-48.71 3.006-5.231 6.397-13.993 7.537-19.47 1.14-5.478 3.342-9.96 4.894-9.96 1.551 0 2.82-7.4 2.82-16.445v-16.446l-15.615-6.49-15.616-6.49 2.122-15.425c2.079-15.12 1.938-15.49-7.078-18.633-11.988-4.178-17.01-16.336-14.278-34.56 3.411-22.744 18.508-25.907 43.313-9.074l11.027 7.483-2.01-7.077c-6.666-23.458-6.56-23.932 5.413-23.932 9.938 0 11.109-.845 11.109-8.018 0-6.832-1.098-7.808-7.424-6.599-25.536 4.882-109.209-6.645-121.337-16.715-11.702-9.715-15.87-21.196-9.195-25.321 5.65-3.492 2.358-53.63-3.522-53.648-2.813 0-13.12-6.846-22.902-15.194-11.071-9.447-21.271-15.522-27.013-16.088-8.478-.835-9.476-2.194-12.338-16.785-1.712-8.732-4.147-16.89-5.411-18.13-1.264-1.24-2.298-4.636-2.298-7.546 0-5.905-6.98-9.667-13.379-7.211-5.243 2.012-50.76-9.207-69.927-17.235-17.748-7.434-15.39-7.935-22.2 4.711-7.273 13.505-8.767 13.43-39.353-1.97C88.324 13.376 46.171-.93 44.53 4.014c-.674 2.028-4.554 17.855-8.623 35.171l-7.398 31.484 9.072 5.289c11.668 6.802 23.873 30.844 25.97 51.156 1.879 18.208-7.105 29.208-23.856 29.208-10.969 0-13.003 3.525-10.52 18.222 1.841 10.899 10.624 17.931 20.187 16.164.976-.181 8.858-.987 17.517-1.79 8.659-.805 17.229-2.381 19.045-3.504 1.816-1.122 5.205-.46 7.532 1.47 9.193 7.63 26.04.46 33.11-14.092 12.457-25.638 19.456-21.64 60.319 34.45 19.174 26.32 37.185 50.107 40.023 52.86 8.964 8.693 12.696 24.49 8.722 36.918-1.933 6.043-3.965 12.711-4.517 14.818-.89 3.4-10.48 4.834-33.97 5.077-4.645.05-7.3 2.476-8.573 7.839-1.014 4.272-2.548 10.138-3.407 13.034-1.27 4.282 16.63 14.394 95.907 54.174 100.318 50.338 139.624 75.507 159.06 101.851 11.923 16.162 22.668 19.077 38 10.313z"/></svg>