<svg width="512" height="512" xmlns="http://www.w3.org/2000/svg"><path style="fill:#000;stroke-width:3.01112" d="M306.753 504.196c1.151-2.898 2.769-18.142 3.595-33.875 1.018-19.395 3.098-31.03 6.458-36.133 12.683-19.264 13.182-21.663 11.07-53.283l-2.05-30.698-11.013-.918c-9.756-.813-11.128-1.949-12.018-9.952-.552-4.968-2.981-11.236-5.398-13.929-9.966-11.106-8.719-25.21 3.061-34.61 5.978-4.77 10.87-10.752 10.87-13.295 0-4.676 35.195-23.982 43.718-23.982 2.453 0 4.46-1.209 4.46-2.685 0-1.477 3.328-3.52 7.396-4.541 5.738-1.44 7.784-4.382 9.126-13.124.952-6.197 3.707-17.365 6.121-24.817 2.415-7.453 5.253-23.11 6.307-34.795l1.917-21.245-9.995-8.41c-5.496-4.625-13.12-9.598-16.939-11.05-3.82-1.452-6.944-3.906-6.944-5.453 0-1.547-14.766-15.869-32.813-31.825-26.547-23.473-33.184-30.992-34.758-39.385-1.07-5.705-7.307-16.567-13.86-24.138-6.553-7.571-11.914-15.75-11.914-18.174 0-5.647-11.933-10.178-26.36-10.01-6.203.072-13.312 0-15.796-.178-29.019-1.98-47.965 10.245-30.152 19.457 27.86 14.407 36.014 30.064 21.163 40.64-8.656 6.163-8.81 6.673-4.159 13.772 4.029 6.149 4.22 8.845 1.155 16.246-3.205 7.737-2.865 10.01 2.653 17.76 3.481 4.889 6.359 11.39 6.396 14.446.058 4.889 25.973 24.17 53.218 39.597 3.815 2.16 6.937 5.105 6.937 6.544 0 1.438 3.537 6.818 7.859 11.955 5.738 6.82 7.504 11.756 6.544 18.297-1.137 7.748-.368 8.959 5.691 8.959 4.45 0 7.007 1.779 7.007 4.874 0 6.035-27.296 40.266-32.12 40.281-5.607.03-30.252-11.213-32.466-14.795-6.787-10.982-19.402 13.094-13.865 26.462 5.518 13.32 2.628 17.422-13.902 19.735-7.998 1.12-18.946 2.796-24.328 3.724l-9.786 1.69v20.496c0 26.005-1.612 30.022-12.04 30.022-6.21 0-8.831 1.776-10.103 6.844-1.14 4.54-7.336 9.6-18.393 15.024-9.172 4.498-16.676 9.332-16.676 10.743 0 5.49 30.498 19.254 38.926 17.568 6.99-1.398 10.448.58 21.8 12.471 27.785 29.105 30.075 33.051 27.838 47.97-2.184 14.56.615 18.725 12.64 18.812 3.495.03 22.465 8.084 42.156 17.907 41.191 20.55 39.036 19.88 41.766 13.003z"/></svg>