<svg width="512" height="512" xmlns="http://www.w3.org/2000/svg"><path style="fill:none;stroke-width:2;stroke:#000;stroke-opacity:1;stroke-miterlimit:4;stroke-dasharray:none" d="M356.397 499.11c8.408-3.43 16.906-7.692 18.884-9.471 10.916-9.82 20.26-11.143 25.794-3.656 2.194 2.967 4.795 5.395 5.78 5.395.983 0 2.274-2.428 2.868-5.395.593-2.968 2.097-5.396 3.342-5.396 3.634 0 4.551-6.976 1.167-8.87-2.55-1.427-3.01-5.512-3.183-28.322-.3-39.58.63-37.602-18.956-40.279-19.715-2.694-19.808-2.856-13.287-23.047 6.108-18.91 6.24-19.08 16.763-21.677 19.7-4.86 21.977-5.72 21.977-8.306 0-3.115-13.24-30.007-18.298-37.164-1.905-2.694-3.225-5.934-2.934-7.2.29-1.264-1.328-4.906-3.597-8.091-3.4-4.776-3.766-6.462-2.084-9.605 3.747-7.001.672-12.046-10.91-17.892-8.03-4.054-13.397-8.645-21.035-17.995-5.64-6.904-11.116-12.552-12.168-12.552-1.052 0-3.299-1.619-4.993-3.597-1.694-1.979-5.214-3.597-7.822-3.597-2.608 0-10.607-3.238-17.774-7.194-7.212-3.982-15.488-7.194-18.53-7.194-3.518 0-10.614-3.258-19.712-9.049l-14.216-9.048-4.132-13.175c-5.129-16.355-6.87-13.116 19.72-36.672l22.482-19.915-.298-7.778c-.514-13.398-3.823-29.761-7.46-36.892-9.066-17.768-18.957-59.21-17.392-72.86l.97-8.45-4.8 3.954c-2.638 2.176-6.505 5.938-8.592 8.36-2.087 2.424-7.059 7.684-11.049 11.69-9.793 9.836-17.85 20.411-21.699 28.48-3.739 7.841-6.403 8.263-14.272 2.262l-5.796-4.421-31.243 3.809c-37.08 4.52-34.375 2.933-38.41 22.552-4.25 20.659-9.91 25.193-22.82 18.284-2.655-1.42-4.215-1.42-5.636 0-1.081 1.081-4.252 1.965-7.046 1.965-5.784 0-8.588 5.03-8.588 15.405 0 5.03.685 6.178 3.689 6.178 9.745 0 10.954 17.938 1.39 20.629-9.27 2.608-9.314 2.736-6.139 18.092 1.572 7.6 2.858 18.202 2.858 23.558 0 7.496 1.085 11.378 4.713 16.86 3.314 5.007 4.43 8.594 3.763 12.086-1.296 6.78 3.745 35.141 6.644 37.375 1.288.993 2.968 3.825 3.734 6.295 2.674 8.62 34.643 73.317 40.273 81.499 3.121 4.537 6.143 10.586 6.714 13.44.657 3.288 3.12 6.403 6.716 8.493 3.123 1.816 6.273 4.171 7 5.235.76 1.113 1.333.338 1.349-1.825.084-11.486 57.222-9.573 60.13 2.013.664 2.646 3.597 6.822 6.517 9.28 3.286 2.764 6.386 8.01 8.13 13.754 2.345 7.722 4.846 11.034 14.843 19.655 6.613 5.702 15.298 13.39 19.302 17.086 4.003 3.694 11.894 10.183 17.535 14.42 5.641 4.235 10.25 9.091 10.243 10.79-.045 10.123-3.873 33.874-6.218 38.574-1.518 3.044-2.76 8.304-2.76 11.688v6.154l16.636-1.245c12.903-.965 20.066-2.644 31.923-7.48z"/></svg>