<svg width="512" height="512" xmlns="http://www.w3.org/2000/svg"><path style="fill:#000;stroke-width:3.1658" d="M149.913 486.123c11.318-12.498 22.29-26.73 24.382-31.627 4.848-11.346 13.671-11.423 20.35-.178 4.894 8.24 44.999 29.231 48.726 25.504.847-.847 1.891-9.236 2.32-18.641.692-15.18 1.757-17.569 9.485-21.266 4.788-2.291 8.706-5.512 8.706-7.159 0-1.646 2.922-2.993 6.493-2.993 4.395 0 7.95-3.486 11.002-10.79 2.48-5.935 6.231-11.365 8.338-12.067 2.285-.761 4.28-9.332 4.946-21.254 1.31-23.435 7.826-38.2 16.857-38.2 3.475 0 7.83-3.205 9.678-7.123 3.44-7.29 22.46-21.289 29.174-21.47 2.055-.055 6.503-2.192 9.883-4.748 3.38-2.557 9.078-4.68 12.663-4.719 3.585-.038 10.08-2.856 14.432-6.26 4.353-3.406 11.116-6.223 15.029-6.262 7.026-.07 32.458-20.298 32.458-25.816 0-1.567-4.986-5.227-11.08-8.133-12.639-6.027-14.428-13.309-3.957-16.1 9.934-2.65-2.562-6.242-23.271-6.69-18.755-.407-34.505-5.94-34.505-12.124 0-8.617 12.461-25.33 21.758-29.18 13.165-5.454 11.961-26.056-2.215-37.896-7.856-6.562-9.97-10.982-10.708-22.394-.74-11.415-2.17-14.405-7.252-15.161-23.962-3.565-33.241-11.074-33.241-26.9 0-9.78 1.228-10.911 21.36-19.681 12.065-5.257 24.772-13.484 29.202-18.908 4.313-5.282 17.851-20.127 30.084-32.99C431.4 3.46 432.461 1.7 423.755 3.787c-5.224 1.251-18.35 2.743-29.171 3.315-10.82.571-28.185 3.984-38.587 7.584-20.966 7.256-42.35 8.548-72.713 4.393-17.653-2.415-21.134-2.002-27.885 3.309-5.756 4.528-10.683 5.606-19.402 4.246-16.953-2.645-35.828 26.924-43.092 67.502-1.086 6.066-5.505 16.364-9.82 22.885-4.729 7.146-7.845 16.416-7.845 23.338 0 7.63-2.656 14.639-7.915 20.888-5.92 7.035-7.94 13.136-8.015 24.201-.056 8.137-2.042 17.354-4.414 20.482s-3.67 8.15-2.882 11.16c.787 3.01-2.213 10.843-6.666 17.405-4.454 6.563-8.098 14.042-8.098 16.62 0 2.683-4.09 5.505-9.563 6.6-5.26 1.052-10.33 3.153-11.267 4.67-.938 1.516-6.411 2.757-12.164 2.757h-10.46l-1.685 20.987c-2.642 32.912 3.991 49.022 18.53 45.007 15.728-4.342 22.723-1.03 26.493 12.541 5.451 19.629 4.279 24.465-8.817 36.377-11.59 10.541-32.222 34.182-32.222 36.92 0 1.405-2.705 3.26-6.01 4.125-21.741 5.685-15.046 32.903 12.594 51.194 9.262 6.13 12.41 10.347 12.41 16.625 0 7.62 7.69 20.036 12.363 19.96 1.036-.032 11.143-10.257 22.461-22.754z"/></svg>