<svg width="512" height="512" xmlns="http://www.w3.org/2000/svg"><path style="fill:none;stroke-width:2;stroke:#000;stroke-opacity:1;stroke-miterlimit:4;stroke-dasharray:none" d="M314.327 503.26c.587-5.103 7.412-5.977 49.223-6.301 23.91-.186 25.71-.396 24.71-2.878-4.682-11.613-4.411-12.048 19.718-31.696 12.288-10.005 22.342-18.303 22.342-18.438 0-.136-17.728 2.73-39.395 6.37-53.629 9.005-51.38 9.79-56.236-19.602l-2.359-14.278 13.424-12.24c7.384-6.73 16.941-15.68 21.24-19.888l7.814-7.65-2.133-9.204c-1.671-7.212-3.108-9.86-6.637-12.232-2.477-1.665-5.27-4.879-6.208-7.143-.97-2.342-5.269-6.276-9.975-9.128-5.12-3.103-8.27-6.068-8.27-7.784 0-5.132-6.86 1.207-12.25 11.317-2.73 5.125-6.256 9.655-7.833 10.067-1.576.413-2.867 1.83-2.867 3.15 0 2.964-5.937 9.483-8.637 9.483-2.313 0-25.365-13.391-26.666-15.49-1.068-1.724-8.287-1.994-14.046-.525-5.126 1.308-8.788-1.304-8.788-6.266 0-1.951-.754-4.014-1.676-4.584-1.567-.968-1.196-7.763 1.05-19.228.676-3.454-.463-5.013-8.09-11.08-10.41-8.28-13.185-8.719-15.763-2.495-2.178 5.258-3.704 5.56-10.628 2.107-4.389-2.19-4.87-3.028-4.06-7.076.506-2.526.919-7.636.919-11.356 0-4.976.91-7.67 3.442-10.196 3.057-3.05 3.393-4.72 3.001-14.916l-.44-11.482-7.72-2.992c-11.823-4.581-11.855-3.477 1.05-35.73 10.452-26.127 12.064-29.223 15.222-29.223 2.66 0 4.336-1.662 6.794-6.74 10.416-21.517 31.592-33.51 41.168-23.317 2.198 2.34 4.585 3.373 6.809 2.947 1.884-.36 7.047.773 11.474 2.518 6.226 2.455 11.477 3.173 23.189 3.173 17.734 0 17.77-.037 16.039-16.205-.859-8.016-.523-11.213 1.693-16.127 2.609-5.785 2.622-6.576.236-14.055-6.087-19.078-4.961-23.05 8.186-28.869 4.163-1.843 4.49-2.586 4.49-10.202V69.56l16.065.595 16.064.594v-4.022c0-4.783 5.77-43.087 6.957-46.177.95-2.476.153-2.433-27.438 1.471l-18.187 2.574-3.634-4.226c-3.625-4.214-3.708-4.229-30.771-5.49C290.92 13.714 275 11.164 252.617 4.736c-3.229-.927-5.718 13.498-2.912 16.878.96 1.157 1.313 3.826.785 5.93-.755 3.01-.279 4.044 2.229 4.84 1.754.557 3.19 1.896 3.19 2.976 0 3.307-3.35 12.274-5.19 13.894-.955.842-2.949 3.423-4.429 5.737-3.476 5.433-7.1 5.323-12.566-.382-5.443-5.682-6.323-5.685-13.99-.046-12.972 9.54-29.297 15.025-50.6 17.002-13.327 1.237-19.945 2.48-20.78 3.904-.672 1.149-3.332 2.088-5.91 2.088-6.194 0-16.58 5.908-16.58 9.43 0 1.665-2.411 3.978-6.12 5.87-6.558 3.346-7.642 6.581-3.873 11.564 1.236 1.634 2.268 4.477 2.295 6.319.04 2.785 1.208 3.522 6.933 4.38l6.885 1.033.319 12.83c.175 7.058.347 16.043.382 19.968.057 6.355.857 7.989 7.304 14.917 3.983 4.28 7.253 8.675 7.268 9.768.034 2.538 4.594 11.49 6.47 12.705 3.146 2.036 3.577 12.398 1.41 33.92-2.632 26.127-1.095 32.422 9.166 37.545 5.918 2.954 7.5 8.251 3.714 12.435-1.912 2.112-2.12 3.618-.932 6.741.84 2.212 1.988 8.505 2.55 13.984l1.02 9.961h-25.602c-25.333 0-34.488 1.725-34.488 6.499 0 3.582 4.813 12.108 6.494 11.505 24.278-8.716 31.806-10.9 33.027-9.577.998 1.083-7.451 71.492-8.829 73.565-.051.078-13.295.6-29.43 1.161-16.136.561-29.578 1.261-29.873 1.555-2.009 2.01 7.347 16.802 16.782 26.534l11.064 11.413-.545 13.044-.546 13.043 8.026 8.127 8.025 8.126-1.03 7.768-1.03 7.769h6.171c7.368 0 7.506-.843 1.695-10.304-5.357-8.722-8.897-21.3-6.633-23.565 1.603-1.603 13.39.775 16.518 3.333 3.291 2.691 16.076-1.866 21.238-7.57 1.594-1.761 4.512-3.202 6.486-3.202h3.587v26.586c0 19.425.515 27.003 1.913 28.133 3.23 2.612 23.993 7.882 24.95 6.333 4.888-7.907 39.44-7.794 57.669.19 3.336 1.46 38.2 5.464 51.148 5.873 5.904.186 6.438-.124 6.885-4.006z"/></svg>