<svg width="512" height="512" xmlns="http://www.w3.org/2000/svg"><path style="fill:none;stroke-width:2;stroke-miterlimit:4;stroke-dasharray:none;stroke:#000;stroke-opacity:1" d="M296.816 495.42c18.973-7.381 37.386-14.56 40.918-15.953 7.456-2.938 1.803-19.752-7.557-22.475-2.593-.755-8.646-9.468-13.45-19.363-4.805-9.895-9.557-18.648-10.56-19.453-1.003-.804-4.016-5.74-6.694-10.967-2.679-5.228-6.01-9.506-7.403-9.506-4.875 0-5.92-13.813-2.996-39.556 3.494-30.747 1.573-28.12 22.662-31.004 9.346-1.278 20.864-4.342 25.596-6.81 18.197-9.489 29.181-6.364 40.65 11.564 5.659 8.847 11.622 16.086 13.25 16.086 1.63 0 2.962 2.027 2.962 4.505 0 11.464 11.816 21.245 23.735 19.646 6.728-.902 16.499.312 23.815 2.96 20.914 7.567 31.418 8.587 31.418 3.05 0-2.633 3.134-10.167 6.965-16.743 6.102-10.475 7.114-16.553 8.17-49.08 1.027-31.625 2.053-38.083 6.927-43.599l5.723-6.475-7.312 2.138c-4.022 1.176-13.406 2.851-20.854 3.723l-13.541 1.584-6.004-18.618c-3.302-10.24-6.868-26.749-7.925-36.686-1.215-11.425-3.438-18.65-6.046-19.65-2.269-.87-4.125-3.282-4.125-5.358 0-2.077-2.632-5.42-5.85-7.429-3.905-2.439-5.849-6.82-5.849-13.185 0-5.434-3.252-14.32-7.565-20.666-4.666-6.866-8.52-17.89-10.057-28.766-1.37-9.7-4.4-19.802-6.733-22.45-2.333-2.649-5.15-9.093-6.262-14.321-2.564-12.065-4.433-11.949-35.19 2.193-33.388 15.353-33.25 15.38-44.933-8.848l-9.837-20.399-15.023-.16-15.024-.161-21.935-25.21C238.817 16.113 227.3 4.23 225.29 3.572c-5.272-1.725-4.757 24.681.788 40.399 5.614 15.912 3.824 17.632-20.384 19.575l-19.405 1.558 6.705 7.2c6.185 6.642 8.123 7.058 24.984 5.358l18.28-1.843.064 8.125c.036 4.468 2.668 13.861 5.85 20.874 7.792 17.172 7.421 19.396-4.452 26.734-11.499 7.107-11.85 7.916-6.23 14.393 2.202 2.54 5.26 8.566 6.796 13.392 1.545 4.856 6.286 10.478 10.618 12.59 5.752 2.804 7.827 6.016 7.827 12.117 0 4.681 1.914 9.036 4.387 9.985 2.477.95 4.387 5.306 4.387 10 0 5.77 2.577 10.22 8.417 14.538 10.995 8.13 13.173 21.619 6.119 37.908-6.372 14.714-14.124 17.577-36.57 13.509-11.96-2.168-16.597-1.889-20.807 1.254-16.686 12.456-82.747-30.992-103.776-68.254-9.145-16.204-10.606-16.944-31.06-15.732-1.207.07-1.802 3.863-1.322 8.425 1.003 9.55 2.338 8.044-41.996 47.424-18.401 16.345-33.457 30.392-33.457 31.215 0 24.823 34.86 59.346 61.392 60.798 5.645.309 18.628 5.311 28.85 11.116 10.223 5.806 23.818 11.392 30.21 12.415 6.61 1.057 13.09 4.204 15.022 7.297 1.868 2.991 5.025 5.439 7.015 5.439 1.99 0 10.835 8.747 19.654 19.44 11.756 14.251 21.584 22.503 36.826 30.92l20.791 11.48-.715 15.436c-.56 12.09.714 17.44 5.877 24.692 3.625 5.09 6.005 10.883 5.287 12.87-.717 1.987.752 7.185 3.264 11.551 3.996 6.945 7.587 9.395 15.731 10.734 1.135.187 17.587-5.701 36.56-13.083z"/></svg>