<svg width="512" height="512" xmlns="http://www.w3.org/2000/svg"><path style="fill:#000;stroke-width:5.0331" d="M449.339 425.288c2.62-4.895 6.329-17.245 8.242-27.445 1.914-10.2 13.094-33.183 24.845-51.074 17.767-27.05 21.881-38.042 24.421-65.242 3.576-38.293 1.286-41.449-35.097-48.349-30.287-5.743-51.926-15.084-52.153-22.512-.275-8.98-18.468-28.132-26.724-28.132-4.214 0-9.1-4.53-10.857-10.066-2.03-6.397-7.615-10.067-15.323-10.067-7.326 0-15.336-4.897-20.232-12.369-6.59-10.057-10.9-11.81-23.056-9.379-12.106 2.421-15.45 1.084-17.571-7.026-2.512-9.602-58.724-40.785-68.276-37.874-2.344.714-13.472-3.4-24.73-9.144-17.438-8.896-21.333-9.389-26.303-3.328-3.208 3.912-13.8 11.848-23.535 17.637-25.686 15.271-39.396 31.574-65.116 77.433-20.136 35.903-25.485 41.8-44.641 49.217-11.97 4.635-23.295 10.719-25.166 13.52-1.87 2.802-7.365 6.556-12.21 8.343-5.47 2.02-8.833 8.555-8.876 17.25-.04 7.699-1.328 18.686-2.867 24.416-3.837 14.29 55.25 41.95 96.98 45.399 16.008 1.323 31.293 4.593 33.967 7.268 2.674 2.674 9.717 4.862 15.65 4.862 5.934 0 24.124 4.588 40.422 10.195 23.656 8.14 32.313 9.085 42.922 4.691 23.497-9.733 51.317-4.28 58.862 11.538 8.317 17.437 14.953 17.564 21.474.413 13.565-35.678 42.285-36.999 37.433-1.721-3.896 28.328-8.202 24.598 55.357 47.944 38.621 14.186 36.588 14.012 42.158 3.605z"/></svg>