<svg width="512" height="512" xmlns="http://www.w3.org/2000/svg"><path style="fill:none;stroke-width:2;stroke-miterlimit:4;stroke-dasharray:none;stroke:#000;stroke-opacity:1" d="M210.957 483.36c0-3.43 4.274-5.171 19.31-7.868 3.556-.638 8.952-2.925 11.99-5.082 3.04-2.158 9.766-5.99 14.947-8.518 5.182-2.527 13.864-6.839 19.295-9.582 5.43-2.742 10.924-4.986 12.208-4.986 1.284 0 3.211-1.057 4.283-2.347 3.187-3.84 15.596-4.7 21.08-1.461 9.661 5.707 31.795-5.389 29.356-14.716-1.315-5.03 3.726-13.26 9.617-15.7 7.614-3.154 6.111-13.939-2.753-19.747-4.949-3.242-5.126-6.721-.507-9.956 2.517-1.764 3.226-3.608 2.505-6.52-1.482-5.991 8.883-22.717 14.548-23.477 2.35-.315 5.005-1.279 5.9-2.14 2.99-2.882 21.92-.555 30.409 3.737 1.796.908 3.352.773 4.047-.351.621-1.005 2.56-1.453 4.31-.996 3.04.795 3.05.652.235-3.222-1.62-2.23-3.524-4.079-4.23-4.108-.707-.03-1.285-2.212-1.285-4.85 0-2.638-.764-5.56-1.697-6.493-3.849-3.85-2.663-18.666 1.967-24.582 5.161-6.595 4.45-13.245-3.066-28.648-2.376-4.867-4.067-10.373-3.759-12.233.308-1.86-.78-4.865-2.417-6.677-1.638-1.812-3.492-5.867-4.12-9.01l-1.144-5.717 6.69 1.139c3.68.625 13.048 2.587 20.82 4.358l14.131 3.22v-13.485c0-15.987-4.897-13.753 41.089-18.74 38.676-4.194 36.013-3.152 30.26-11.845-10.382-15.688-31.018-29.174-90.618-59.223-30.853-15.555-56.096-28.689-56.096-29.186 0-4.488 5.989-23.067 7.488-23.232 1.063-.116 5.87-.053 10.683.142 8.61.35 8.77.264 10.07-5.354 2.041-8.815 1.194-11.363-7.527-22.631-4.463-5.766-14.095-18.763-21.405-28.882-16.107-22.297-15.483-21.876-19.82-13.375-1.932 3.788-5.237 7.984-7.345 9.325-4.07 2.589-18.39 3.486-18.39 1.152 0-.762-3.555-.72-7.898.09-4.344.812-8.53 1.085-9.303.608-.772-.478-1.888-.084-2.48.872-1.516 2.453-7.296 2.17-8.16-.4-.56-1.66-1.374-1.602-3.627.258-2.21 1.824-3.817 1.958-6.702.558-6.754-3.279-13.757-4.355-30.345-4.667-9.72-.183-20.714-1.57-27.307-3.446-7.838-2.23-11.224-2.574-11.686-1.187-.358 1.074-3.486 2.465-6.95 3.092-3.464.627-8.375 2.19-10.912 3.474-3.36 1.7-5.836 1.87-9.104.628-6.013-2.286-7.693-2.152-7.693.614 0 1.277-2.505 3.012-5.567 3.856-4.628 1.276-6.469 3.406-10.922 12.641l-5.355 11.107 9.02 18.01c13.427 26.808 25.097 54.517 26.095 61.957l.883 6.581h-8.362c-6.912 0-53.075-10.737-55.163-12.825-1.45-1.45 1.958-11.528 4.81-14.222 2.868-2.71 2.994-5.27 1.728-35.155-1.427-33.721-2.172-37.785-5.286-28.851-1.806 5.18-3.845 6.276-10.603 5.698-2.777-.238-2.738.079.428 3.477 8.224 8.828-4.038 34.535-18.842 39.502-1.445.485-4.463 4.45-6.705 8.81-2.243 4.36-5.107 8.781-6.365 9.825-2.959 2.456-2.93 7.379.059 9.859 7.699 6.39 11.475 21.568 10.98 44.134l-.48 21.878-13.703 5.78c-13.698 5.778-13.71 5.78-33.626 4.63-27.995-1.614-39.17 5.61-39.17 25.322 0 .456 2.839 1.363 6.309 2.014 6.703 1.257 29.803 12.218 31.565 14.977.576.903 2.032 14.613 3.234 30.467l2.187 28.826 5.95 1.116c9.907 1.859 17.836 11.86 17.208 21.707l-.508 7.97 14.559 1.13c23.193 1.801 21.098-1.414 20.347 31.238l-.65 28.241 32.186 12.886 32.185 12.885 19.2 24.607c18.638 23.887 23.482 28.28 23.482 21.299z"/></svg>