<svg width="512" height="512" xmlns="http://www.w3.org/2000/svg"><path style="fill:none;stroke-width:2;stroke:#000;stroke-opacity:1;stroke-miterlimit:4;stroke-dasharray:none" d="M202.607 508.274c3.714.11 9.01.255 11.77.322 2.76.066 13.58-3.747 24.046-8.474 18.926-8.55 18.993-8.61 12.426-11.088-10.65-4.02-8.227-9.638 8.682-20.134 20.445-12.691 20.646-12.76 67.995-23.461 22.902-5.176 46.55-11.874 52.552-14.885 10.14-5.087 13.09-5.442 41.64-5.017l30.727.459-.587-9.164c-.323-5.04.44-9.798 1.696-10.574 1.256-.776 1.65-3.932.877-7.014-2.621-10.444 5.465-30.186 13.79-33.664 10.235-4.276 15.442-25.252 15.607-62.868.098-22.411-5.037-62.942-8.265-65.237-.336-.238-7.7-2.876-16.366-5.862l-15.755-5.428-.72-10.125c-.396-5.568-2.112-11.663-3.815-13.545-1.703-1.881-4.962-7.59-7.244-12.685-2.28-5.096-19.236-27.983-37.678-50.861l-33.531-41.597-80.049-16.163c-99.301-20.05-87.292-14.132-100.488-49.515-6.043-16.204-11.513-29.454-12.155-29.443-.642.012-7.113 20.522-14.38 45.579-12.887 44.439-13.738 46.462-34.637 82.325l-21.426 36.767-34.574 31.776c-19.016 17.477-34.574 32.41-34.574 33.187 0 .776 5.505 11.965 12.233 24.865 16.768 32.15 18.4 42.258 15.094 93.484-3.83 59.351-5.064 53.04 12.625 64.595 26 16.984 50.714 37.233 62.993 51.614 15.142 17.733 53.676 45.386 60.172 43.181 2.512-.852 7.605-1.46 11.32-1.35z"/></svg>