<svg width="512" height="512" xmlns="http://www.w3.org/2000/svg"><path style="fill:#000;stroke-width:2.1879" d="M219.036 501.274c1.744-4.173 3.17-10.047 3.17-13.053 0-3.006 1.452-8.699 3.226-12.65 1.774-3.952 4.212-11.142 5.417-15.977 1.364-5.468 6.83-14.153 14.458-22.973 6.746-7.8 14.633-19.35 17.527-25.668 5.951-12.99 6.345-13.1 25.361-7.139 16.42 5.147 14.963 4.94 14.963 2.128 0-1.252 1.933-4.944 4.295-8.205 2.361-3.26 6.387-13.804 8.946-23.431 4.859-18.28 8.273-22.973 16.714-22.973 4.322 0 5.052-1.115 5.052-7.713 0-6.818.76-7.864 6.564-9.025 5.167-1.033 6.563-2.462 6.563-6.718 0-2.973 1.65-8.199 3.667-11.613 5.58-9.447.447-29.46-8.781-34.232-9.019-4.664-22.02-.835-26.486 7.799-5.089 9.84-29 28.683-36.398 28.683-14.01 0-18.133 20.475-6.39 31.725 8.61 8.248 8.44 13.65-.547 17.457-3.911 1.656-8.35 5.052-9.864 7.546-1.515 2.493-4.601 4.534-6.86 4.534-2.258 0-5.708 2.445-7.666 5.435-4.321 6.594-14.06 9.634-16.835 5.253-3.447-5.443-2.414-32.54 1.296-33.964 1.805-.693 3.281-2.484 3.281-3.981 0-1.497 2.462-7.352 5.47-13.01 5.622-10.573 7.151-21.885 3.282-24.277-5.692-3.517-.646-27.348 5.79-27.348 4.961 0 11.713-6.332 11.713-10.984 0-4.95 8.24-15.271 12.192-15.271 1.718 0 3.123-.985 3.123-2.188 0-1.203 2.708-2.223 6.017-2.265 12.706-.164 33.366-20.597 33.366-33 0-4.086 1.038-10.867 2.308-15.071 1.27-4.204 2.282-13.058 2.251-19.677-.081-17.307 10.796-45.946 17.45-45.946 4.253 0 11.192-10.5 14.432-21.836 1.898-6.642 4.883-13.707 6.632-15.701 1.75-1.994 4.672-9.378 6.494-16.41 1.822-7.03 6.183-17.826 9.69-23.99 4.541-7.976 6.38-14.155 6.38-21.44 0-14.262 4.536-21.605 19.712-31.912 17.477-11.868 16.535-12.488-2.756-1.815-8.724 4.827-22.562 10.499-30.751 12.604l-14.89 3.828-27.657 41.38c-15.212 22.759-29.753 45.318-32.315 50.131-2.833 5.324-6.492 9.022-9.341 9.441-5.747.846-15.773 12.335-15.773 18.075 0 2.358-9.038 13.468-20.56 25.274-22.362 22.915-18.851 21.463-41.415 17.116-9.337-1.8-23.339 9.732-43.65 35.948-7.214 9.312-12.274 13.204-24.188 18.608l-15.065 6.833 4.256 5.256c3.07 3.79 6.319 5.197 11.66 5.045 9.929-.283 13.003 2.784 13.003 12.968 0 6.882 1.656 10.33 8.562 17.821 12.361 13.41 12.335 27.8-.066 35.627-14.05 8.87-15.16 14.06-3.006 14.06 26.167 0 48.636 11.621 33.381 17.264l-4.887 1.808 4.887 1.551c11.91 3.78-2.821 34.075-16.57 34.075-1.773 0-7.763 2.075-13.31 4.612-5.546 2.536-13.038 5.844-16.649 7.35-18.888 7.883-24.336 11.653-25.47 17.63-.53 2.783-2.9 4.561-6.66 4.997-9.051 1.05-11.628 6.01-11.628 22.386 0 12.388-.753 15.38-4.732 18.808-11.794 10.156-9.297 12.949 14.38 16.083l21.75 2.878 6.433-6.433c3.538-3.539 7.124-8.61 7.969-11.272 1.783-5.62 6.137-6.019 26.674-2.443 19.37 3.374 20.642 6.682 12.68 32.993-2.889 9.543 24.719 8.192 28.729-1.406z"/></svg>