<svg width="512" height="512" xmlns="http://www.w3.org/2000/svg"><path style="fill:#000;stroke-width:3.53904" d="M227.949 498.838c-3.464-2.533-8.062-5.214-10.22-5.958-5.793-2 14.755-58.553 26.031-71.643 5.121-5.944 12.706-16.296 16.855-23.003 4.455-7.202 15.5-16.496 26.972-22.693 14.694-7.94 19.906-12.897 21.397-20.35 1.634-8.172 3.796-9.853 12.676-9.853h10.705V317.41c0-31.737-2.09-29.817 37.16-34.141l21.234-2.34-1.213-17.147c-1.8-25.452 23.211-54.715 33.096-38.72 1.22 1.974 8.809 6.951 16.864 11.06l14.645 7.472 11.499-13.696c10.997-13.098 11.184-13.812 4.296-16.36-5.776-2.137-6.762-4.672-4.977-12.796 2.509-11.425-9.58-35.894-17.734-35.894-2.617 0-6.84-2.966-9.383-6.59-5.824-8.3-48.203-35.879-55.132-35.879-3.71 0-4.656-2.7-3.347-9.55 1.273-6.66-.745-12.924-6.665-20.684-9.153-12-10.832-22.634-4.564-28.903 9.948-9.947-7.722-26.427-25.687-23.957-16.254 2.234-16.68 2.032-35.665-16.953L287.578 3.118l-15.514 6.066c-14.804 5.788-19.669 10.923-39.042 41.213-3.935 6.153-9.265 11.996-11.844 12.986-2.58.99-5.623 5.512-6.764 10.048-1.141 4.537-9.41 21.786-18.374 38.33-8.965 16.546-22.434 44.416-29.931 61.934-15.093 35.268-17.91 37.245-40.103 28.13-8.157-3.35-23.967-8.06-35.133-10.469L70.57 186.98l-16.59 19.419-16.591 19.42 8.58 6.522c4.72 3.588 27.693 13.886 51.05 22.885 41.515 15.995 42.767 16.798 55.74 35.763 17.162 25.089 17.25 24.551-9.882 60.52-23.09 30.614-27.47 43.858-15.271 46.181 3.197.61 12.497 7.466 20.666 15.237 16.578 15.77 16.793 24.427.608 24.427-5.662 0-12.14 2.223-14.394 4.939-2.254 2.716-9.56 5.963-16.234 7.215-14.608 2.74-19.47 8.816-9.202 11.501 4.089 1.07 7.434 3.87 7.434 6.223 0 2.354 3.887 7.93 8.637 12.393l8.637 8.114 12.195-7.537c6.707-4.146 12.968-10.494 13.913-14.107.973-3.72 6.137-7.484 11.904-8.678 5.602-1.16 15.173-3.116 21.269-4.347 14.17-2.864 16.737 1.598 10.08 17.53-2.932 7.019-3.826 12.762-1.984 12.762 1.841 0 4.359 3.185 5.594 7.078 1.236 3.893 5.311 7.078 9.057 7.078 3.745 0 8.808 3.2 11.251 7.113 2.666 4.268 4.996 5.453 5.826 2.963.76-2.283-1.45-6.222-4.914-8.755z"/></svg>