<svg width="512" height="512" xmlns="http://www.w3.org/2000/svg"><path style="fill:#000;stroke-width:1.69195" d="M323.085 503.815c1.29-.495 4.754-.21 7.698.635 7.452 2.138 19.795.885 23.397-2.374 1.656-1.5 4.583-2.725 6.504-2.725 1.92 0 3.95-1.194 4.51-2.652 1.186-3.091 10.342-2.741 10.342.395 0 1.086.571 2.419 1.27 2.961.697.543.894.486.437-.126-.457-.613.114-2.282 1.269-3.709 1.308-1.616 1.374-2.16.177-1.443-4.81 2.88-6.974-10.953-2.548-16.286 1.61-1.94 1.331-2.591-1.415-3.31-7.22-1.887-3.4-8.162 6.732-11.057 3.257-.93 4.604-1.76 2.993-1.844-3.1-.161-5.416-6.254-4.347-11.44.656-3.182 2.957-3.593 9.115-1.63 3.929 1.253 7.467-6.904 7.467-17.216 0-3.991 1.185-5.907 5.075-8.205 3.965-2.342 5.076-4.189 5.076-8.434 0-5.683 4.094-11.368 7.387-10.26 1.056.355 2.834-1.514 3.952-4.154 2.141-5.055 6.787-6.301 10.318-2.77 1.58 1.58 2.03 1.426 2.03-.69 0-1.831 2.654-3.4 8.13-4.803 9.843-2.522 14.954-14.493 8.534-19.99-3.395-2.907-4.142-7.867-1.436-9.54.93-.575 1.692-3.133 1.692-5.683 0-2.551.681-5.361 1.514-6.245 4.262-4.526 3.997-12.78-.375-11.682-7.53 1.89-29.873-4.253-44.8-12.319-7.73-4.175-14.276-7.317-14.548-6.981-.273.336-1.878 4.536-3.567 9.333l-3.071 8.723-9.222 1.152c-5.887.736-9.886.488-11.06-.686-1.01-1.01-3.907-1.837-6.436-1.837-7.452 0-9.952-1.697-9.952-6.754 0-5.049-6.903-11.125-10.897-9.592-1.19.456-2.674 4.67-3.297 9.364-1.373 10.352.535 9.217-23.029 13.694-10.702 2.033-23.187 4.747-27.746 6.03-9.787 2.757-14.032 1.225-15.51-5.6-.549-2.532-1.775-6.217-2.725-8.189-3.279-6.805-1.19-9.95 6.605-9.95 6.86 0 7.112-.197 8.147-6.337.588-3.485 1.764-6.766 2.613-7.29 2.691-1.664 1.671-6.63-1.808-8.803-7.12-4.447-11.885-17.8-12.318-34.522l-.403-15.528 21.15-5.343c11.632-2.938 22.066-5.665 23.187-6.059 1.314-.462-.533-4.707-5.196-11.944-7.872-12.217-13-40.13-12.94-70.451.03-14.717-8.937-35.912-15.192-35.912-4.573 0-5.625-5.388-4.788-24.517l.697-15.933-7.689-.501-7.688-.502.551-10.09c.304-5.55 1.583-12.56 2.843-15.575 2.103-5.034 2.02-5.569-1.004-6.529-1.811-.575-4.305-3.464-5.54-6.42-3.787-9.062-18.658-23.951-26.51-26.542-4.207-1.389-8.757-4.576-11.31-7.922-4.538-5.95-15.984-8.031-20.322-3.693-1.696 1.695-19.67 4.603-33.458 5.412-4.813.282-5.435 1.217-12.017 18.063-6.088 15.583-7.47 17.829-11.255 18.285-8.021.965-11.665 19.058-5.678 28.195 1.532 2.339 6.77 6.253 11.638 8.699 4.869 2.445 9.18 4.745 9.58 5.11 1.2 1.098 5.068 32.96 5.134 42.285.125 17.803.853 16.971-27.937 31.868-20.663 10.691-26.432 14.44-27.984 18.188-3.571 8.622-17.786 2.607-21.945-9.285-1.554-4.445-4.287-8.055-7.517-9.932l-5.076-2.95v5.686c0 3.127.571 6.258 1.269 6.958.698.7 1.269 3.102 1.269 5.337s1.957 11.786 4.35 21.225c4.574 18.046 3.956 21.521-3.827 21.521-3.95 0-2.893 17.934 1.304 22.13 9.743 9.744 4 30.208-6.12 21.809-1.406-1.167-2.817-1.823-3.136-1.458-1.07 1.225-4.415 26.95-4.415 33.949v6.921l6.345-1.018c3.49-.56 7.815-1.23 9.613-1.491 4.964-.72 6.918 10.565 3.544 20.469-3.19 9.36-3.203 9.102.379 7.272 6.186-3.161 13.723-3.54 18.915-.95 5.09 2.54 5.366 2.462 12.273-3.451 4.877-4.174 8.726-6.049 12.422-6.049 3.206 0 6.584-1.357 8.417-3.384 7.313-8.08 9.305-4.917 9.32 14.805l.013 18.188 35.375 12.134c39.856 13.67 40.735 13.654 40.735-.708 0-8.565 1.34-12.271 4.437-12.271 2.887 0 20.942 10.01 20.942 11.61 0 4.521 16.13 19.087 20.23 18.267 8.37-1.674 16.968 14.703 17.002 32.384.005 2.514 1.884 7.616 4.177 11.338 2.293 3.723 4.192 8.455 4.221 10.516.03 2.062 2.347 7.365 5.15 11.785 5.63 8.879 8.415 17.234 8.43 25.294.027 15.48 15.838 48.848 18.293 38.61.286-1.19 1.575-2.57 2.864-3.065z"/></svg>