<svg width="512" height="512" xmlns="http://www.w3.org/2000/svg"><path style="fill:none;stroke-width:2;stroke:#000;stroke-opacity:1;stroke-miterlimit:4;stroke-dasharray:none" d="M189.514 413.499c15.286-13.004 17.353-13.769 25.469-9.426 12.577 6.731 34.484.122 40.437-12.2 3.046-6.304 4.802-12.651 3.904-14.105-3.136-5.073 1.794-16.677 7.085-16.677 4.135 0 6.843-5.892 13.255-28.852 8.795-31.493 13.908-35.818 20.205-17.094 2.029 6.034 5.573 10.435 8.869 11.011 3.019.528 6.786 2.602 8.371 4.608 11.218 14.193 14.767 8.871 18.074-27.105 4.312-46.899 3.161-45.927 35.84-30.262 20.08 9.625 48.018 41.96 48.018 55.575 0 12.401 6.217-1.771 13.938-31.774 9.814-38.135 10.473-43.945 6.244-55.067-6.249-16.436 17.696-28.661 50.097-25.577l20.025 1.906-5.447-8.372c-2.996-4.604-12.456-18.93-21.022-31.834-12.855-19.365-15.257-24.906-13.757-31.734l1.817-8.272-44.436-7.952-44.436-7.953-21.252 15.996c-11.688 8.797-23.43 15.995-26.093 15.995-10.585 0-44.728-20.772-67.13-40.84l-23.665-21.2-73.133-9.341-73.133-9.341-20.95 15.768c-20.208 15.21-21.891 17.448-47.502 63.18-14.603 26.076-26.551 48.755-26.551 50.398 0 1.643 17.634 24.65 39.187 51.126 21.553 26.477 41.737 53.954 44.854 61.061 3.117 7.108 8.006 15.507 10.865 18.666 2.86 3.159 5.612 10.867 6.118 17.129.906 11.22 1.168 11.46 18.148 16.614 22.107 6.708 22.99 7.843 27.199 34.958 1.943 12.515 4.878 25.708 6.522 29.316l2.989 6.56 8.315-6.342c4.573-3.489 14.77-11.835 22.662-18.547z"/></svg>