<svg width="512" height="512" xmlns="http://www.w3.org/2000/svg"><path style="fill:none;stroke-width:2;stroke:#000;stroke-opacity:1;stroke-miterlimit:4;stroke-dasharray:none" d="M280.26 504.13c2.988-3.92 3.281-5.013 2.06-7.695-.784-1.72-1.425-5.116-1.425-7.547 0-4.783.731-5.316 11.133-8.107 2.974-.798 5.408-2.001 5.408-2.673 0-.672 1.002-2.273 2.227-3.56 1.224-1.286 2.857-3.433 3.627-4.771.77-1.338 3.06-2.627 5.09-2.864 4.83-.564 6.87-2.37 6.87-6.087 0-2.379.68-3.025 3.18-3.025 1.75 0 3.186-.43 3.19-.955.006-.524 2.268-3.244 5.028-6.044 2.76-2.799 5.046-6.104 5.08-7.343.035-1.24 1.508-2.913 3.275-3.717 3.376-1.539 4.164-3.516 4.72-11.837.333-5.007.433-5.102 6.481-6.2 3.98-.723 6.601-.658 7.444.185.886.887 2.111.49 3.843-1.241 1.827-1.827 3.76-2.4 6.871-2.037 3.518.41 4.329.073 4.329-1.803 0-2.683 7.002-7.348 11.04-7.355 3.02 0 6.774-5.97 6.774-10.761 0-1.502.657-3.389 1.461-4.193 1.1-1.1.91-2.302-.769-4.865-1.787-2.728-1.95-4.017-.825-6.487.773-1.696 1.437-5.204 1.475-7.796.166-11.062 14.616-15.212 19.536-5.61l2.148 4.192 7.891-.86c4.34-.472 8.855-1.357 10.034-1.964 2.901-1.496 8.341-1.398 9.309.167 1.344 2.175 4.453 1.396 4.453-1.117 0-4.09 3.172-5.72 7.914-4.066 3.313 1.155 4.408 1.095 5.434-.296.707-.958 3.066-1.74 5.244-1.737 2.178 0 5.891-1.378 8.253-3.07 6.012-4.305 9.962-6.255 12.67-6.255 3.505 0 4.273-2.272 3.976-11.762l-.271-8.652 3.838-.768c4.252-.85 4.372-1.484 2.74-14.49-.82-6.537-1.927-8.374-15.435-25.64l-14.551-18.598-24.539-9.79-24.538-9.791v-41.591l-5.408-.666c-2.974-.367-8.843-1.118-13.042-1.669l-7.635-1.002.426-7.112c.492-8.199-4.12-13.882-11.264-13.882-4.912 0-4.898.042-6.375-19.293-2.217-29.034-1.552-26.922-9.881-31.36-12.703-6.766-17.808-7.43-25.85-3.354-7.577 3.84-17.752 11.223-19.328 14.025-2.28 4.052-5.453 1.672-11.586-8.688-3.417-5.774-7.35-11.758-8.74-13.3-1.608-1.784-2.264-3.8-1.805-5.553l.72-2.751-2.783 2.542c-2.775 2.537-16.288 3.199-19.888.974-.777-.48-1.343.275-1.343 1.79 0 3.254-2.618 3.358-9.878.393-5.202-2.125-5.57-2.635-8.016-11.134-1.41-4.898-3.21-10.338-3.999-12.088-.788-1.75-1.556-6.074-1.705-9.61-.253-5.984-3.75-15.086-7.553-19.655-.873-1.05-1.917-4.065-2.32-6.7-.402-2.635-1.91-6.291-3.352-8.124-1.442-1.833-2.622-5.066-2.622-7.185 0-3.578-2.669-14.314-5.197-20.91-.886-2.311-1.77-2.703-4.753-2.107-3.296.66-4.532-.224-12.306-8.808-7.113-7.853-12.624-12.331-15.176-12.331-.227 0-.78 2.77-1.23 6.155-.55 4.16-1.826 7.105-3.93 9.082l-3.114 2.926-29.656-10.354C137.054 8.21 122.85 3.551 121.8 3.551c-3.43 0-11.407 6.319-11.407 9.035 0 1.42-1.07 5.264-2.377 8.543-1.307 3.279-3.454 11.684-4.771 18.678-2.78 14.764-4.2 15.922-11.917 9.72l-4.828-3.88 2.538 5.355c5.233 11.037 11.855 15.553 17.644 12.034 3.484-2.118 8.785 4.011 8.794 10.169.004 2.741.86 4.657 2.551 5.713 1.868 1.167 2.545 2.968 2.545 6.77 0 6.409 4.33 10.137 13.56 11.68l6.163 1.03.636 16.58c.494 12.87 1.134 17.339 2.863 19.97 2.955 4.498 2.815 7.265-.891 17.538-2.076 5.756-2.883 10.087-2.415 12.97.553 3.405-.846 7.963-6.57 21.413-8.74 20.537-8.805 20.629-13.818 19.527-2.135-.469-6.617-.79-9.958-.716-5.613.126-6.137-.127-6.905-3.339-1.344-5.624-1.633-5.635-7.957-.302-3.325 2.803-6.799 5.097-7.72 5.097-1.229 0-1.504 1.508-1.034 5.674.576 5.115-.056 7.206-3.608 11.938-2.322 3.093-9.425-5.882-9.425-11.91v-3.33l-3.732 2.657c-2.053 1.462-3.914 3.934-4.135 5.495-.296 2.08-1.478 3.006-4.437 3.473-3.848.607-10.412 5.942-33.84 27.505l-7.335 6.751 1.434 9.274c.788 5.101 2.482 11.335 3.764 13.854l2.33 4.579 36.654-6.149c52-8.723 50.934-9.49 20.936 15.066l-21.444 17.552 1.821 5.09c1.734 4.844 1.597 13.789-.285 18.644-.62 1.602 2.162 4.175 11.68 10.802 6.872 4.785 14.69 10.677 17.373 13.093l4.879 4.394-2.742-5.26c-2.855-5.478-2.805-11.88.168-21.585 1.096-3.578 11.54-13.09 14.371-13.09.47 0 3.622-2.72 7.003-6.044 10.453-10.276 25.446-16.486 31.71-13.134 3.444 1.843 4.931-.575 2.205-3.588-2.306-2.547-2.719-8.47-.678-9.731 3.515-2.173 10.096.712 10.096 4.426 0 2.174.83 3.941 2.073 4.419 1.599.613 1.921 1.93 1.409 5.75-.55 4.105-.148 5.405 2.346 7.574 3.885 3.377 4.96 7.876 3.376 14.118-1.076 4.24-.916 5.313 1.055 7.098 1.278 1.156 2.498 3.33 2.712 4.832.324 2.272 1.244 2.73 5.48 2.73h5.089l.392 6.891c.352 6.188.042 7.17-3.026 9.618-5.35 4.266-3.387 7.359 8.649 13.62 5.672 2.951 11.391 5.445 12.71 5.542 3.639.268 6.009 3.32 7.72 9.943 2.028 7.851 9.533 17.576 12.95 16.778 6.42-1.5 13.335 1.957 18.013 9.005 2.49 3.75 6.804 8.622 9.587 10.827l5.061 4.008-.861 8.417c-.709 6.923-.565 8.134.808 6.825 3.564-3.395 7.327-1.902 8.962 3.557.99 3.303 2.829 5.906 5.134 7.268 6.401 3.781 7.028 19.71.804 20.428-3.102.358-3.32.708-2.227 3.582 2.038 5.36 1.394 8.095-3.242 13.752-6.236 7.61-5.668 10.414 3.203 15.822 5.917 3.607 6.734 3.467 10.794-1.857z"/></svg>