<svg width="512" height="512" xmlns="http://www.w3.org/2000/svg"><path style="fill:#000;stroke-width:4.4236" d="M154.526 497.878c5.714-6.083 8.322-11.06 5.796-11.06-10.694 0-20.657-39.57-12.29-48.814 6.345-7.012 7.293-14.14 5.4-40.61l-2.298-32.103 30.45-30.936c16.747-17.015 30.449-34.522 30.449-38.906 0-4.383 2.612-8.972 5.803-10.197 11.895-4.564 126.905 26.005 126.905 33.731 0 10.049 23.303-8.187 33.74-26.404 13.05-22.776 26.658-35.542 38.041-35.689 4.202-.053 11.039-5.572 15.194-12.263 4.154-6.69 10.906-16.146 15.003-21.012 4.098-4.866 8.797-14.529 10.443-21.473 2.684-11.327 4.543-12.444 18.07-10.865 15.046 1.757 15.08 1.719 16.388-18.34 2.928-44.893-16.102-66.542-36.689-41.736-11.65 14.037-17.295 6.925-17.295-21.791V81.464l-24.179-7.622c-13.298-4.192-25.378-9.562-26.844-11.934-2.681-4.338-31.005-17.448-37.695-17.448-1.974 0-4.22 5.457-4.99 12.127-3.01 26.077-34.576 12.502-34.576-14.87 0-19.702-14.092-28.225-23.786-14.386-7.233 10.326-20.45 8.675-20.45-2.554 0-3.788-5.277-7.695-12.165-9.005-6.69-1.273-23.46-4.924-37.264-8.113-24.228-5.596-25.25-5.463-29.483 3.825-5.862 12.867-55.179 21.152-78.805 13.24-7.365-2.467-10.193-1.092-12.463 6.06-1.615 5.089-5.123 9.252-7.797 9.252-2.673 0-8.013 3.037-11.866 6.75-3.854 3.712-16.174 13.536-27.378 21.831-34.682 25.676-37.308 82.342-5.75 124.033 22.448 29.656 24.712 58.314 5.774 73.095-6.713 5.24-7.455 7.923-3.333 12.045 4.076 4.076 4.106 7.932.13 16.66-4.123 9.046-3.888 13.344 1.153 21.132 3.48 5.377 10.229 24.705 14.996 42.953 13.118 50.214 21.155 61.853 42.79 61.97 30.031.162 38.603 25.884 19.057 57.183-4.664 7.467-3.913 10.412 5.096 20.003 13.02 13.857 13.87 13.863 26.718.187z"/></svg>