<svg width="512" height="512" xmlns="http://www.w3.org/2000/svg"><path style="fill:none;stroke-width:2;stroke-miterlimit:4;stroke-dasharray:none;stroke:#000;stroke-opacity:1" d="M329.709 446.778c5.942-10.059 9.846-12.021 25.978-13.058l18.985-1.22-1.312-26.116c-1.535-30.584 8.256-46.854 25.58-42.506 14.145 3.55 23.75-12.199 31.625-51.854 15.947-80.294 19.165-84.784 61.627-85.966 20.999-.585 22.02-6.62 4.494-26.58-12.443-14.172-12.532-14.581-8.036-36.97 8.069-40.175 6.71-47.043-10.52-53.155-8.287-2.94-25.023-14.764-37.192-26.276-25.153-23.794-28.997-24.792-109.257-28.371-52.364-2.335-82.58 4.575-77.49 17.723 1.385 3.577 3.436 11.047 4.557 16.6 2.142 10.604-28.406 131.822-34.842 138.258-4.642 4.642-18.734-7.468-22.472-19.31-8.45-26.771-42.349-67.15-64.654-77.015-27.216-12.036-23.629-16.959-28.738 39.432-5.138 56.716-21.469 85.19-35.51 61.917-1.768-2.93-6.378-6.489-10.245-7.91-3.867-1.421-7.031-6.046-7.031-10.277 0-4.232-3.164-8.81-7.031-10.174-3.867-1.364-8.935-3.414-11.26-4.557-2.47-1.212-7.332 9.884-11.684 26.66-5.353 20.642-9.538 29.283-14.855 30.673C2.91 258.692.533 271.708 6.1 280.431c1.624 2.544 14.704 6.871 29.068 9.616 14.364 2.744 29.003 6.454 32.531 8.243 3.691 1.873 8.239 1.432 10.708-1.038 10.856-10.855 41.1 8.3 41.535 26.308.327 13.472.915 14.672 3.178 6.485 4.223-15.27 16.68-14.395 55.665 3.907 59.396 27.885 55.36 24.659 54.504 43.574-.815 17.993.504 18.994 16.833 12.786 20.728-7.88 34.072 11.535 34.128 49.654.02 14.005.895 15.303 9.062 13.44 4.972-1.135 12.656-.554 17.076 1.29 11.779 4.917 11.728 4.938 19.322-7.918z"/></svg>