<svg width="512" height="512" xmlns="http://www.w3.org/2000/svg"><path style="fill:#000;stroke-width:3.73628" d="M434.349 498.439c29.998-2.719 31.687-4.708 31.687-37.332 0-9.154 2.24-13.644 8.406-16.853 4.624-2.405 8.751-4.63 9.172-4.944.42-.314-2.493-13.116-6.475-28.45-3.981-15.334-7.268-31.722-7.303-36.418-.034-4.696-2.782-12.685-6.103-17.754-3.558-5.43-5.251-13.335-4.122-19.243 1.148-6.006-1.147-16.335-5.722-25.75-9.402-19.353-6.897-27.726 8.293-27.726 11.867 0 14.85-6.19 6.84-14.2-3.49-3.49-3.422-7.428.307-17.742 3.27-9.044 3.591-14.704 1.009-17.815-7.75-9.339-3.967-61.783 5.459-75.673l8.639-12.73-9.357-10.097-9.358-10.096-23.194 5.055c-39.34 8.574-41.836 8.05-42.128-8.85-.291-16.885-13.59-30.264-33.006-33.208-6.368-.965-20.825-4.632-32.127-8.15-22.171-6.899-29.298-7.471-46.88-3.764-11.011 2.322-12.226 1.157-36.791-35.275-27.114-40.211-35.541-45.337-52.923-32.19-3.989 3.017-11.666 5.54-17.06 5.605-30.392.366-32.056 1.988-34.074 33.185-1.556 24.068-.745 29.99 5.137 37.492 3.842 4.901 6.986 10.833 6.986 13.181 0 2.349 3.363 7.15 7.473 10.668 4.11 3.52 7.51 9.358 7.555 12.974.046 3.616 3.371 10.778 7.39 15.916 4.018 5.137 7.343 11.442 7.39 14.01.045 2.57 2.561 4.671 5.59 4.671 3.03 0 8.012 4.84 11.071 10.756 3.06 5.916 8.147 11.748 11.305 12.96 8.507 3.264 6.961 16.419-2.664 22.672-13.57 8.815-104.117 43.283-113.706 43.283h-8.783l9.404 18.556c5.892 11.628 9.404 24.817 9.404 35.32 0 18.628 1.12 17.945-47.19 28.757l-19.765 4.423-9.401 27.96c-10.089 30.005-9.77 34.434 2.479 34.434 4.334 0 18.538 1.856 31.564 4.125 26.261 4.573 25.99 4.205 30.58 41.505l2.392 19.427 52.308 12.317c43.504 10.244 61.793 12.591 108.664 13.948 65.22 1.887 73.892 3.486 81.45 15.02 5.487 8.376 5.941 8.422 34.265 3.497 15.787-2.745 40.948-6.101 55.913-7.457z"/></svg>