<svg width="512" height="512" xmlns="http://www.w3.org/2000/svg"><path style="fill:none;stroke-width:2;stroke-miterlimit:4;stroke-dasharray:none;stroke:#000;stroke-opacity:1" d="M167.423 486.789c13.932-7.13 24.436-18.895 35.77-40.065 9.13-17.055 10.35-18.431 16.905-19.071 12.088-1.181 22.25-16.263 17.311-25.69-3.032-5.787-3.827-30.113-1.892-57.898 1.827-26.247 1.832-29.385.053-34.71-1.283-3.84-.197-5.207 7.097-8.928 9.922-5.062 13.912-12.594 9.995-18.866-7.439-11.912 5.729-14.564 40.31-8.118 20.782 3.874 25.192 4.158 28.028 1.805 1.85-1.537 8.186-4.72 14.08-7.076 11.967-4.784 14.068-13.024 5.106-20.023-3.028-2.365-3.836-4.601-2.82-7.804 1.768-5.567 2.12-5.567 25.312-.019l18.964 4.537 9.649-8.065c5.306-4.436 9.648-8.87 9.648-9.855 0-.984 4.448-6.436 9.885-12.116 9.736-10.173 10.031-10.308 19.728-9.025 14.04 1.856 26.834-.668 28.11-5.547.566-2.165 2.355-3.936 3.977-3.936 4.845 0 24.12-10.53 30.001-16.392 3.013-3.002 8.023-7.187 11.132-9.302 5.503-3.74 5.553-3.956 1.879-8.016-6.665-7.365-14.386-10.395-17.358-6.813-5.507 6.635-29.107 1.057-29.072-6.872.008-1.973 1.843-9.595 4.075-16.937 7.312-24.046 2.66-42.033-12.107-46.816-21.605-6.997-36.598-9.458-38.371-6.298-.907 1.615-7.688 9.188-15.07 16.829l-13.423 13.892 1.325 14.253c1.097 11.805.71 14.932-2.25 18.202-4.23 4.675-.367 14.88 7.156 18.906 6.784 3.63 5.522 12.474-1.78 12.474-3.277 0-7.602 1.858-9.687 4.162-5.61 6.198-9.609 5.15-19.745-5.178l-9.166-9.34 4.571-6.183c7.975-10.787 6.317-15.988-5.601-17.57-7.024-.931-10.525-2.463-11.312-4.95-.626-1.98-2.94-6.878-5.14-10.884-2.202-4.005-5.57-13.818-7.485-21.804-1.915-7.987-4.791-15.254-6.39-16.15-4.945-2.767-3.048-25.854 2.607-31.729 6.333-6.58 5.762-13.232-2.048-23.851l-6.645-9.036-3.24 12.177c-2.62 9.85-4.195 12.403-8.244 13.356-2.753.648-5.688 2.561-6.522 4.252-4.751 9.632-6.1 14.22-6.102 20.762-.001 4.006-.342 10.56-.757 14.566s-.895 9.414-1.068 12.017c-.474 7.14-7.063 8.387-34.381 6.512-23.711-1.628-25.101-1.494-34.62 3.33-5.455 2.763-28.935 9.332-52.178 14.596-35.316 8-44.238 10.793-54.296 17.001-11.188 6.905-13.785 11.053-6.921 11.053 3.935 0 5.719 3.416 4.231 8.104-2.105 6.633-43.365 23.852-53.801 22.452-13.582-1.822-17.622 1.626-9.707 8.286 3.5 2.944 7.865 8.285 9.702 11.868 1.836 3.584 5.405 8.992 7.93 12.02 5.34 6.4 7.14 36.502 2.943 49.218-2.215 6.712-2.713 7-9.908 5.746-25.749-4.491-25.177-4.869-25.235 16.67-.025 9.038-1.221 12.148-8.353 21.706-4.578 6.136-8.323 12.107-8.323 13.268 0 1.161-2.533 4.755-5.629 7.986-5.462 5.701-5.526 6.047-2.18 11.713 2.04 3.453 2.933 7.811 2.185 10.67-1.163 4.448-.782 4.716 4.781 3.366 3.325-.807 11.664-1.988 18.53-2.624 6.868-.635 13.991-2.477 15.83-4.092 6.11-5.365 26.483-1.536 35.154 6.607 4.005 3.762 10.56 8.186 14.566 9.83 8.713 3.579 33.295 29.206 33.295 34.71 0 2.442 2.315 4.689 6.243 6.058 6.865 2.393 8.038 7.217 3.38 13.895-1.575 2.258-3.535 9.021-4.357 15.03l-1.494 10.925h19.119v23.93c0 26.62-.264 26.267 14.115 18.909z"/></svg>