<svg width="512" height="512" xmlns="http://www.w3.org/2000/svg"><path style="fill:none;stroke-width:2;stroke-miterlimit:4;stroke-dasharray:none;stroke:#000;stroke-opacity:1" d="M318.634 504.558c5.963-1.852 12.794-4.135 15.179-5.071 2.385-.937 6.776-2.26 9.758-2.938 8.355-1.901 9.739-3.427 17.964-19.812 8.581-17.093 15.254-24.816 30.314-35.084 5.648-3.852 10.27-8.5 10.27-10.33s.896-5.02 1.991-7.092c11.846-22.4 12.44-26.416 5.434-36.737-4.455-6.564-5.358-9.983-4.464-16.902 1.871-14.477-.57-17.11-8.924-9.627-3.877 3.472-7.048 7.12-7.048 8.104 0 2.48-12.21 11.283-15.633 11.27-5.413-.021-19.428-14.935-18.066-19.226.917-2.89-.858-5.65-6.306-9.805-10.99-8.383-21.116-23.886-19.584-29.981 1.308-5.202 19.087-25.546 22.325-25.546 1.037 0 3.728-3.421 5.98-7.602 2.252-4.182 5.877-8.168 8.055-8.86 13.875-4.403 9.335-22.572-5.485-21.956l-11.32.47-5.22-14.761c-4.176-11.809-4.736-15.713-2.803-19.516 1.33-2.615 2.684-9.146 3.01-14.513.581-9.549.765-9.772 8.56-10.421 4.382-.365 9.137-2.073 10.566-3.795 1.43-1.722 4.431-3.132 6.67-3.132 2.512 0 4.072-1.532 4.072-4 0-2.2 1.952-5.767 4.337-7.926 2.586-2.34 4.337-6.679 4.337-10.745 0-3.75 1.152-7.971 2.56-9.379 1.407-1.408 2.629-7.381 2.714-13.274.116-7.981 1.4-12.039 5.03-15.904 3.268-3.478 4.875-7.873 4.875-13.332 0-5.501 2.11-11.21 6.505-17.598 4.102-5.962 6.506-12.182 6.506-16.835 0-4.059.695-8.075 1.545-8.925 17.69-17.69.543-34.7-37.942-37.64-17.57-1.342-26.488-7.921-26.488-19.539 0-13.973-12.734-17.439-23.45-6.382-6.542 6.749-15.57 31.15-15.588 42.13-.004 2.102-2.937 5.774-6.518 8.159-3.582 2.385-7.068 6.288-7.749 8.674-5.047 17.701-13.208 31.975-19.88 34.772-3.902 1.635-7.048 4.548-7.048 6.525 0 9.616-13.184 20.154-16.008 12.795-1.081-2.817-3.577-2.095-15.188 4.398-11.754 6.574-15.212 7.559-22.464 6.4-6.02-.963-10.68-.28-15.666 2.298-4.577 2.367-9.532 3.213-13.96 2.382-7.964-1.494-19.387 8.641-31.434 27.89-6.62 10.578-19.978 18.544-31.107 18.55-2.087 0-3.795.775-3.795 1.721 0 .946-3.107 2.654-6.905 3.795-10.556 3.172-9.665 6.016 5.727 18.263 14.87 11.832 16.681 15.332 10.36 20.01-2.105 1.559-4.963 5.41-6.35 8.56-1.388 3.15-7.014 9.48-12.503 14.068-16.811 14.053-19.105 29.862-3.59 24.741 8.13-2.683 35.464-2.455 38.238.319.71.71.136 11.887-1.275 24.84-3.241 29.756-12.45 42.699-22.927 32.222-8.345-8.344-23.057-1.29-18.441 8.84 3.723 8.172 3.041 17.552-2.607 35.858l-5.094 16.509 10.68 2.465c5.875 1.356 15.378 2.466 21.118 2.466 27.636 0 71.633 12.58 71.633 20.483 0 2.77 2.788 6.784 6.744 9.708 6.038 4.464 6.608 5.836 5.445 13.105-1.826 11.421 5.646 19.146 9.768 10.098 3.212-7.05 6.218-7.121 16.86-.403 4.898 3.092 10.183 4.812 12.735 4.145 5.22-1.365 33.017 25.073 33.017 31.402 0 2.139-3.082 6.168-6.85 8.953-13.198 9.758 19.597 15.03 44.798 7.2z"/></svg>