<svg width="512" height="512" xmlns="http://www.w3.org/2000/svg"><path style="fill:none;stroke-width:2;stroke:#000;stroke-opacity:1;stroke-miterlimit:4;stroke-dasharray:none" d="M97.847 396.509c-6.833-21.528 24.774-33.45 68.987-26.02 47.285 7.945 52.81 6.239 70.487-21.764C245.053 336.48 255.246 327 260.686 327c11.942 0 35.317-42.924 27.585-50.655-7.959-7.96-6.122-27.747 3.301-35.568 10.178-8.447 41.695-1.436 87.622 19.49 15.948 7.268 30.19 12.018 31.651 10.558 4.717-4.717 23.406-58.724 26.165-75.613 2.847-17.425 43.7-50.703 62.243-50.703 7.808 0 9.283-5.33 9.286-33.546l.003-33.546-19.482.552c-12.917.365-25.944 5.792-38.661 16.102-38.554 31.259-35.507 30.35-71.176 21.212-33.886-8.681-40.333-7.597-52.14 8.77-23.214 32.175-48.217-2.482-25.715-35.641 12.255-18.058 23.72-54.336 18.612-58.888-1.093-.973-38.606-2.896-83.364-4.273l-81.377-2.503 2.96 28.676c2.567 24.882 1.713 28.677-6.454 28.677-39.45 0-59.251 32.926-43.079 71.631 10.315 24.688 10.289 58.758-.06 78.772-6.348 12.275-6.96 20.68-2.815 38.647 8.849 38.36 6.783 55.57-8.91 74.22-9.964 11.841-14.118 22.434-13.338 34.01 1.099 16.316-.021 17.21-37.862 30.18L6.686 420.93 5.072 455.09l-1.614 34.162 48.695-41.646c36.105-30.879 47.918-44.089 45.694-51.097z"/></svg>