<svg width="512" height="512" xmlns="http://www.w3.org/2000/svg"><path style="fill:none;stroke-width:2;stroke-miterlimit:4;stroke-dasharray:none;stroke:#000;stroke-opacity:1" d="M293.113 461.18c4.545-8.267 8.322-18.293 8.393-22.28.071-3.988 2.805-10.79 6.076-15.114 3.272-4.325 5.948-14.584 5.948-22.797 0-8.727 2.685-17.161 6.46-20.295 5.213-4.326 5.95-10.134 3.82-30.04-2.325-21.703-1.64-25.585 5.69-32.22 5.293-4.789 8.335-12.559 8.335-21.286 0-9.456 3.16-16.671 10.128-23.129 5.57-5.162 10.127-13.068 10.127-17.57 0-10.477 18.32-22.582 30.618-20.232 6.798 1.3 12.775-1.734 21.19-10.753 21.302-22.833 27.787-36.48 34.843-73.326 7.529-39.32 13.304-51.496 31.361-66.121 7.88-6.382 11.616-13.13 11.616-20.978 0-10.93 8.816-24.301 16.021-24.301 9.697 0 6.56-19.596-3.49-21.803-5.778-1.27-14.35-3.408-19.05-4.754-7.16-2.05-9.684.4-15.563 15.093-3.86 9.647-15.919 26.953-26.799 38.458-21.644 22.887-28.335 35.553-38.167 72.253-9.531 35.58-18.89 65.331-22.272 70.803-2.127 3.442-12.13 3.995-35.469 1.959-44.822-3.91-44.853-3.94-36.38-35.742 9.413-35.324 10.107-33.837-17.279-37.015-13.343-1.549-25.622-3.095-27.288-3.436-1.665-.34-3.689 2.81-4.496 7.004-.808 4.193-7.903 14.058-15.767 21.923l-14.299 14.298-54.356-8.064c-29.895-4.435-55.29-6.553-56.43-4.706-1.142 1.847-5.614 3.358-9.939 3.358-6.768 0-7.88 2.96-7.991 21.267-.243 40.085-9.913 42.93-61.255 18.02L2.395 192.646l1.773 22.28c3.703 46.567 4.904 52.122 13.886 64.272 10.223 13.827 8.179 28.314-8.872 62.892-4.276 8.67-7.273 15.962-6.66 16.204.613.243 7.187 3.63 14.608 7.528 7.422 3.9 16.536 7.137 20.255 7.196 3.718.056 20.41 7.35 37.093 16.203 16.682 8.854 33.412 16.097 37.176 16.097 3.765 0 10.348 4.454 14.63 9.897 4.281 5.443 12.95 11.194 19.266 12.778 25.147 6.312 33.857 14.022 46.036 40.751 2.426 5.325 9.22 9.739 17.39 11.297 29.14 5.557 47.9 11.61 52.26 16.866 4.988 6.01 15.253-5.495 31.877-35.728z"/></svg>